<?xml version="1.0" encoding="utf-8"?>
<!-- Generator: Adobe Illustrator 16.0.4, SVG Export Plug-In . SVG Version: 6.00 Build 0)  -->
<!DOCTYPE svg PUBLIC "-//W3C//DTD SVG 1.1//EN" "http://www.w3.org/Graphics/SVG/1.1/DTD/svg11.dtd">
<svg version="1.1" id="Layer_1" xmlns="http://www.w3.org/2000/svg" xmlns:xlink="http://www.w3.org/1999/xlink" x="0px" y="0px"
	 width="100px" height="140px" viewBox="0 0 100 140" enable-background="new 0 0 100 140" xml:space="preserve">
<path fill-rule="evenodd" clip-rule="evenodd" fill="#FADBD2" d="M81.89,53.366c-1.609-0.284-3.836-0.325-3.62-3.03
	c0.159-1.97,1.985-0.889,3.424-1.235c1.905-0.46,5.757,4.16,7.175,2.277c-2.46-7.019-6.707-13.908-9.164-20.927
	c-2.781-2.273-5.521-4.516-8.024-7.244C57.072,7.3,32.19-3.126,20.848,15.532c-2.881,4.739,2.345,24.244,3.425,29.395
	c2.416,11.514-0.073,16.205-3.016,27.033c-2.636-0.032-3.33-4.063-6.161-3.717c-2.062,2.044,2.797,0.117,0.676,0.156
	c-3.621,0.068-5.5,2-6.683,5.351c-3.462,9.79,3.702,28.318,12.572,31.809c4.356,1.715,0.049,11.652,1.848,16.587
	c2.656,11.534,7.968,11.828,15.171,15.783c14.313,1.025,21.31-4.617,31.074-18.278c6.931-7.628,3.43-13.428,11.576-31.944
	c0.992-2.251,7.322-30.752,6.82-32.644"/>
<path fill-rule="evenodd" clip-rule="evenodd" fill="#E0B999" d="M21.523,105.559c4.356,1.715,0.049,11.652,1.848,16.587
	c2.656,11.534,7.968,11.828,15.171,15.783c14.313,1.025,21.31-4.617,31.075-18.278L21.523,105.559z"/>
<path fill-rule="evenodd" clip-rule="evenodd" fill="#CEA67E" d="M15.097,70.046c2.03,3.024,4.147,5.98,8.389,8.749
	c-0.606-11.388,6.028-20.894,2.888-32.233c-2.985-10.776-6.142-18.937,8.124-21.435c13.926-2.439,32.201-1.917,41.515,10.139
	c1.942,2.513,4.7,10.684,7.16,10.006c2.42-12.732,5.693-9.145,4.841-20.249c-2.421-3.534-4.955-7.346-6.076-8.875
	c-3.289-3.455-5.952-6.953-9.786-9.365c-3.86-2.428-7.717-4.82-13.255-5.737c0.996,1.736,1.601,2.791,2.502,4.36
	c-5.919-1.309-10.894-4.484-16.982-3.828c0.638,3.088,5.084,2.853,5.906,6.175c-10.766-2.653-9.616-3.918-20.27-0.723
	c-3.517,1.055-6.945,2.583-10.101,4.353c-8.207,4.602-12.51,10.144-10.418,20.108C12.601,46.102,13.356,55.208,15.097,70.046z"/>
<path fill-rule="evenodd" clip-rule="evenodd" fill="#CEA67E" d="M84.462,49.108c-1.521-0.063-3.062-0.026-4.565-0.208
	c-3.405-0.413-3.271,1.634-3.697,3.465c-0.599,2.569,1.562,1.877,3.087,1.958c4.365,0.231,8.381,1.085,11.095,4.307
	c2.771,1.948,2.272-0.273,2.194-1.333C92.255,52.954,88.219,51.11,84.462,49.108z"/>
<path fill-rule="evenodd" clip-rule="evenodd" fill="#F7C3B7" d="M20.666,98.916c0.567-3.049-1.91-3.183-2.133-4.79
	c0.128-0.899,0.647-1.1,1.235-0.882c4.833,1.784,5.303-1.557,5.035-5.31c-0.251-3.526-2.275-6.228-4.667-8.29
	c-1.907-1.644-4.466-1.459-6.542-0.18c-1.997,1.229-1.875,3.717-1.264,5.663C13.951,90.304,14.948,96.049,20.666,98.916z"/>
<path fill-rule="evenodd" clip-rule="evenodd" fill="#CEA67E" d="M40.339,58.863c6.086-3.007,12.168-3.288,19.124-1.18
	c1.699,0.514,3.882,1.445,3.795-0.729c-0.068-1.741,1.487-3.598-2.46-5.104C51.587,48.333,41.306,51.333,40.339,58.863z"/>
<path fill-rule="evenodd" clip-rule="evenodd" fill="#F8B9AC" d="M60.53,97.086c6.633-0.092,11.624-1.876,15.362-6.576
	c1.09-1.371,1.718-3.208,0.63-5.019c-0.474-0.788-1.511-1.732-2.242-1.719c-2.905,0.055-1.228,2.605-1.548,4.085
	c-0.687,3.198-3.065,4.164-5.584,5.137C65.08,93.792,62.323,93.217,60.53,97.086z"/>
<path fill-rule="evenodd" clip-rule="evenodd" fill="#FAAFA3" d="M68.883,62.512c-3.068,7.729-1.93,15.195,1.503,22.519
	C69.441,77.551,70.094,69.973,68.883,62.512z"/>
<path fill-rule="evenodd" clip-rule="evenodd" fill="#323F47" d="M84.375,71.825c-0.283,2.008-1.622,3.246-3.92,3.099
	c-1.376-0.09-2.834-0.492-2.633-2.458c3.995,0.775,1.717-3.966,3.6-4.275C83.003,67.931,84.469,69.435,84.375,71.825z"/>
<path fill-rule="evenodd" clip-rule="evenodd" fill="#323F47" d="M59.267,67.861c-0.281,2.007-1.621,3.246-3.918,3.098
	c-1.377-0.089-2.835-0.491-2.634-2.458c3.996,0.776,1.717-3.966,3.6-4.275C57.896,63.967,59.36,65.469,59.267,67.861z"/>
<g>
	<g>
		<path fill="#E0B999" d="M55.564,108.327c0.08-0.232,0.163-0.463,0.253-0.691c-0.139,0.353,0.109-0.218,0.139-0.278
			c0.229-0.469,0.482-0.926,0.718-1.393c0.434-0.862,0.235-1.912-0.636-2.423c-0.793-0.464-1.988-0.226-2.423,0.636
			c-0.532,1.057-1.082,2.083-1.465,3.208c-0.312,0.914,0.348,1.934,1.236,2.178C54.359,109.831,55.254,109.24,55.564,108.327
			L55.564,108.327z"/>
	</g>
</g>
<g>
	<g>
		<path fill="#E0B999" d="M54.18,106.943c1.096,1.29,2.275,1.74,3.93,1.902c2.084,0.205,4.111,3.021,4.873,4.885
			c1.135,2.774,1.761,5.961,5.16,6.652c2.229,0.454,3.179-2.959,0.941-3.414c-2.429-0.494-2.682-5.034-4.137-6.823
			c-1.047-1.287-2.009-2.931-3.456-3.818c-1.495-0.917-3.698-0.582-4.808-1.888C55.202,102.696,52.71,105.215,54.18,106.943
			L54.18,106.943z"/>
	</g>
</g>
<g>
	<g>
		<path fill="#E0B999" d="M58.929,106.177c-2.788-5.533-14.384-6.235-19.168-3.66c-2.377,1.279-4.102,3.176-6.746,4.023
			c-1.194,0.383-2.774,0.264-4.021,0.249c-3.814-0.042-0.614-0.576,0.766-0.242c4.407,1.064,6.394,2.044,10.459-0.734
			c-0.867-0.667-1.734-1.333-2.601-2c-0.912,3.727-7.809,1.397-8.938-0.485c-1.413-2.357-1.374-5.481-2.609-7.974
			c-0.855-1.727-3.148-0.698-3.299,0.894c-0.154,1.623,1.877,6.146,1.226,7.174c1.019,0,2.039,0,3.058,0
			c-1.288-2.484,0.134-5.602,0.769-8.079c-1.138,0-2.277,0-3.415,0c1.692,10.585,9.207,10.667,18.234,9.563
			c2.237-0.273,2.264-3.818,0-3.541c-2.867,0.351-5.72,0.771-8.615,0.663c-4.369-0.165-5.612-3.927-6.204-7.627
			c-0.285-1.782-3.004-1.604-3.415,0c-0.935,3.646-2.252,7.259-0.412,10.808c0.637,1.229,2.38,1.066,3.058,0
			c1.669-2.628-1.01-6.139-0.742-8.961c-1.1,0.298-2.2,0.596-3.299,0.894c2.19,4.421,1.577,10.248,7.394,11.806
			c3.554,0.952,9.62-0.084,10.625-4.192c0.345-1.412-1.253-2.921-2.601-2c-3.506,2.397-5.435,0.933-9.091,0.05
			c-1.763-0.427-3.47-0.073-5.076,0.651c-3.552,1.604-0.159,5.6,1.922,6.476c4.459,1.877,9.887-0.461,13.415-3.029
			c2.843-2.07,5.119-2.559,8.527-1.991c2.144,0.357,6.642,0.871,7.741,3.054C56.898,110.004,59.953,108.21,58.929,106.177
			L58.929,106.177z"/>
	</g>
</g>
<g>
	<g>
		<path fill="#E0B999" d="M54.723,109.949c1.201-0.546,2.304-1.171,3.624-1.387c1.125-0.184,0.646-1.89-0.471-1.707
			c-1.465,0.238-2.715,0.959-4.048,1.564C52.79,108.893,53.691,110.418,54.723,109.949L54.723,109.949z"/>
	</g>
</g>
<g>
	<g>
		<path fill="#E0B999" d="M53.284,107.621c-0.366-1.923-1.984-2.759-3.579-3.629c-0.149,0.55-0.298,1.1-0.447,1.65
			c0.492-0.016,0.971,0.003,1.462,0.036c0.171,0.012,2.783,0.041,1.49,0.038c-0.773-0.001-1.171,0.966-0.626,1.512
			c0.11-0.334,0.133-0.376,0.066-0.124c0.434-0.177,0.867-0.353,1.301-0.529c-3.381-2.39-7.909-3.651-12.043-2.818
			c-1.119,0.225-0.644,1.932,0.471,1.707c3.69-0.742,7.695,0.531,10.678,2.641c0.462,0.326,1.177-0.005,1.301-0.529
			c0.18-0.758,0.025-1.05-0.521-1.599c-0.209,0.504-0.417,1.008-0.626,1.512c0.805,0.001,3.546-0.246,2.562-1.819
			c-1.092-1.746-3.645-1.857-5.513-1.798c-0.851,0.027-1.247,1.214-0.447,1.65c1.138,0.62,2.49,1.126,2.766,2.57
			C51.79,109.213,53.497,108.736,53.284,107.621L53.284,107.621z"/>
	</g>
</g>
<path fill-rule="evenodd" clip-rule="evenodd" fill="#FADBD2" d="M62.834,115.161c-2.607-0.306-5.624,0.55-7.402,2.089
	c-1.089,0.943-2.259,2.326-3.629,2.993c-0.296,0.107-1.092,0.85-1.388,0.939c-0.864,0.173-0.837,1.184-1.68,1.186
	c-0.845-0.189-1.687-0.66-2.504-1.524c-0.95-1.008-1.795-2.068-2.551-3.177c-0.008-0.033,1.382-0.824,1.373-0.858
	c-0.85-3.132-2.501-6.012-5.599-7.751c-0.819-0.461-1.721-0.188-2.235,0.425c-0.048-0.022-0.095-0.049-0.145-0.066
	c-0.979-1.273-3.498-0.3-3.098,1.64c0.088,0.431,0.151,0.87,0.304,1.257c1.562,6.009,4.542,11.153,10.523,13.63
	c2.884,1.194,6.323,0.474,9.581-1.016c4.043-1.364,7.804-4.009,9.979-7.103C65.221,116.604,64.028,115.302,62.834,115.161z"/>
<g>
	<path fill-rule="evenodd" clip-rule="evenodd" fill="#FBB0A1" d="M50.464,112.476c2.149,0.743,4.3,1.479,6.449,2.229
		c0.688,0.241,1.586,0.51,0.595,1.776c-2.387,3.05-4.951,5.762-8.327,6.067c-4.361,0.397-5.635-2.953-6.528-7.666
		c-0.264-1.392-0.895-3.348,0.135-4.514c0.932-1.06,2.156,0.314,3.247,0.605C47.541,111.379,48.991,111.966,50.464,112.476z"/>
	<path fill-rule="evenodd" clip-rule="evenodd" fill="#FEFDFD" d="M56.079,116.004c-3.232,4.417-6.371,5.995-9.076,4.786
		c-1.833-0.819-3.653-5.525-3.162-8.052c0.167-0.854,0.525-0.772,0.931-0.631C48.486,113.381,52.197,114.665,56.079,116.004z"/>
</g>
<g>
	<g>
		<path fill="#E0B999" d="M65.662,121.037c0.015-2.035,0.819-3.882,0.616-5.949c-0.202-2.047-1.127-3.965-2.235-5.665
			c-1.242-1.904-4.31-0.132-3.059,1.787c1.067,1.637,1.836,3.309,1.819,5.299c-0.013,1.514-0.672,2.983-0.683,4.528
			C62.104,123.321,65.646,123.32,65.662,121.037L65.662,121.037z"/>
	</g>
</g>
<g>
	<g>
		<path fill="#E0B999" d="M37.858,121.747c-1.106-5.151-2.556-10.15-2.494-15.466c-1.1,0.298-2.2,0.596-3.299,0.894
			c2.603,5.65,1.179,12.086,4.132,17.707c1.062,2.022,4.119,0.232,3.058-1.787c-2.893-5.508-1.521-12.038-4.132-17.707
			c-0.77-1.672-3.28-0.757-3.299,0.894c-0.065,5.633,1.447,10.945,2.62,16.407C34.922,124.921,38.336,123.974,37.858,121.747
			L37.858,121.747z"/>
	</g>
</g>
<g>
	<g>
		<path fill="#E0B999" d="M55.431,106.577c-1.426,0.083-3.051-1.628-4.353-2.107c-1.984-0.732-4.052-1.255-6.117-1.707
			c-2.526-0.553-5.507-0.202-7.523,1.546c-4.445,3.855-4.215,10.349-5.257,15.668c-0.437,2.23,2.976,3.182,3.415,0.941
			c0.825-4.215,0.77-8.834,2.972-12.641c1.957-3.382,6.142-1.99,9.114-1.174c2.734,0.752,4.863,3.184,7.75,3.015
			C57.7,109.985,57.713,106.443,55.431,106.577L55.431,106.577z"/>
	</g>
</g>
<g>
	<g>
		<path fill="#E0B999" d="M53.946,109.286c3.889,1.995,8.359,1.825,8.765,7.229c0.351,4.683-5.519,6.23-8.139,8.977
			c-1.576,1.651,0.925,4.159,2.504,2.504c1.895-1.985,4.542-2.965,6.492-4.917c2.01-2.012,2.814-4.812,2.608-7.565
			c-0.141-1.877-0.882-4.012-2.241-5.37c-2.453-2.451-5.262-2.406-8.202-3.915C53.706,105.188,51.914,108.243,53.946,109.286
			L53.946,109.286z"/>
	</g>
</g>
</svg>
