<?xml version="1.0" encoding="utf-8"?>
<!-- Generator: Adobe Illustrator 16.0.4, SVG Export Plug-In . SVG Version: 6.00 Build 0)  -->
<!DOCTYPE svg PUBLIC "-//W3C//DTD SVG 1.1//EN" "http://www.w3.org/Graphics/SVG/1.1/DTD/svg11.dtd">
<svg version="1.1" id="Layer_1" xmlns="http://www.w3.org/2000/svg" xmlns:xlink="http://www.w3.org/1999/xlink" x="0px" y="0px"
	 width="100px" height="140px" viewBox="0 0 100 140" enable-background="new 0 0 100 140" xml:space="preserve">
<path fill-rule="evenodd" clip-rule="evenodd" fill="#FADBD2" d="M6.563,62.75c0-5.146-0.585-8.985,0.102-15.093
	c1.527-3.489,3.044-6.993,5.192-10.13c2.25-3.286,4.985-5.734,9.277-5.034c7.125,6.154,14.928,4.414,22.737,2.02
	c7.47-2.292,14.797-5.085,22.332-7.142c9.6-2.622,12.796,0.032,12.878,10.398c0.096,12.171-3.392,23.722-5.724,35.473
	c-0.624,3.146-1.888,6.19-1.741,10.256c4.549-2.55,6.242-8.645,11.859-8.106c8.787,1.202,12.523,5.233,7.169,17.148
	c-2.448,5.45-2.823,5.45-6.77,10.444c-3.499,2.685-5.884,7.764-9.854,5.469c-2.693-1.561-2.516,2.739-4.075,6.344
	c-2.847,5.944-4.113,7.422-10.282,11.733c-5.843,2.872-8.068,3.695-16.027,7.545c-3.719,2.011-9.522,3.202-11.39,3.769
	c-4.909,1.494-10.33,0.062-14.764-0.814c-6.016-2.503-9.073-4.671-11.389-8.853c-2.743-4.49-3.729-8.587-4.217-12.242
	c-0.998-7.722-0.938-9.974-0.546-14.324c0.474-5.27,0.546-8.624,1.992-13.924c1.02-3.893,3.092-6.268,3.333-10.12
	c0.281-4.487-0.09-8.249-0.09-12.736V62.75z"/>
<path fill-rule="evenodd" clip-rule="evenodd" fill="#CEA66F" d="M83.475,75.392c-3.566,2.373-6.772,5.134-9.015,8.955
	c-0.876,1.492-1.626,3.085-3.896,1.977c-2.278-1.11-1.433-2.704-1.038-4.391c2.575-11.013,1.402-13.246,3.271-24.43
	c0.727-4.35,2.367-11.72,0.47-16.318c-2.135-6.238-6.744-11.251-13.604-9.436c-10.893,2.883-8.877,2.419-12.673,3.59
	c-3.814,1.176-7.706,2.11-11.602,2.968c-5.954,1.31-11.289,0.445-15.029-5.227c-1.203-0.475-2.182-1.235-2.847-2.398
	c-0.241-0.451-0.508-0.886-0.804-1.301c-5.285-8.553-4.918-11.308,2.77-17.523c3.427-2.77,6.951-5.482,11.934-7.567
	c-1.039,2.31-1.687,3.748-2.774,6.164c6.583-2.28,12.124-4.76,18.073-5.57c5.838-0.795,11.654-1.979,17.918-1.37
	c-1.117,3.147-4.818,2.082-6.624,4.986c6.413,0.44,12.571,0.016,18.646,1.21c18.469,3.627,25.447,14.71,20.857,33.531
	C94.677,54.845,88.51,64.844,83.475,75.392z"/>
<path fill-rule="evenodd" clip-rule="evenodd" fill="#CEA67E" d="M18.489,29.479c0.869,1.202,1.737,2.404,2.605,3.604
	c-5.396,1.006-7.456,5.456-10.149,9.44c-1.192,1.765-0.528,5.213-4.067,5.135c-0.332-5.169-5.193-10.305-0.106-15.509
	C10.354,29.834,15.346,33.713,18.489,29.479z"/>
<path fill-rule="evenodd" clip-rule="evenodd" fill="#CEA67E" d="M18.489,29.479c0.121,3.252-2.257,2.329-4.025,2.399
	c-2.563,0.101-5.127,0.181-7.692,0.271c2.873-3.351,7.617,0.422,10.531-2.766C17.701,29.387,18.096,29.419,18.489,29.479z"/>
<path fill-rule="evenodd" clip-rule="evenodd" fill="#F6C0B4" d="M92.663,85.593c-0.719-2.836-2.817-3.797-5.67-3.516
	c-4.059,0.395-4.72,3.411-6.021,6.678c-1.925,4.828-1.102,9.188,3.628,12.433c-4.64-0.562-6.894-2.931-6.98-7.518
	c-0.13-6.797,4.493-12.583,10.938-13.246c3.371-0.347,4.275-0.381,4.781,4.137c0.477,4.253,0.319,8.56-4.809,10.213
	c-2.098,0.676-3.227,0.986-4.721-1.09c-1.52-2.111-1.406-4.595,0.197-6.717c1.634-2.167,3.638-3.157,6.124-1.076
	C90.825,86.473,91.613,86.867,92.663,85.593z"/>
<path fill-rule="evenodd" clip-rule="evenodd" fill="#F8ADA1" d="M31.225,98.353c-10.485,3.596-13.729,2.965-15.259-2.942
	C20.197,99.783,25.092,99.049,31.225,98.353z"/>
<path fill-rule="evenodd" clip-rule="evenodd" fill="#677EA3" d="M45.254,75.995c0.064,2.637-4.217,4.235-6.333,4.279
	c-1.765,0.038-3.344-1.087-3.505-3.207c-0.175-2.32,0.991-3.926,3.23-4.131C40.902,72.728,45.029,73.869,45.254,75.995z"/>
<path fill-rule="evenodd" clip-rule="evenodd" fill="#677EA3" d="M8.688,75.995c-0.063,2.637,4.218,4.235,6.334,4.279
	c1.765,0.038,3.344-1.087,3.504-3.207c0.175-2.32-0.99-3.926-3.23-4.131C13.041,72.728,8.913,73.869,8.688,75.995z"/>
<g>
	<g>
		<g>
			<path fill="#D59E73" d="M67.573,9.401c-3.045-0.53-7.324-0.644-10.989-1.541c-0.316-0.055-0.588-0.103-0.868-0.152
				C54.451,7.552,52.95,7.46,51.169,7.49c-1.182,0.054-4.527,0.18-8.946,1.08c-2.197,0.482-4.666,1.122-7.147,2.174
				c-2.467,1.02-5.013,2.438-7.309,3.993c-4.715,3.041-9.375,6.466-12.721,10.012c-1.677,1.763-3.045,3.517-4.051,5.109
				c-0.478,0.808-0.929,1.542-1.268,2.22c-0.314,0.689-0.664,1.261-0.872,1.764c0.3-0.549,0.75-1.231,1.19-2.07
				c0.528-0.799,1.085-1.747,1.836-2.723c1.46-1.973,3.479-4.164,5.981-6.298c-2.601,2.356-4.729,4.846-6.174,7.146
				c-1.474,2.295-2.186,4.381-2.732,5.688c0.628-1.164,1.355-3.112,2.837-5.3c1.453-2.195,3.593-4.608,6.273-6.954
				c2.696-2.332,5.904-4.604,9.317-6.749c1.719-1.068,3.424-2.179,5.219-3.061c0.891-0.464,1.825-0.832,2.737-1.236
				c0.944-0.319,1.857-0.722,2.811-0.969c-3.114,1.014-6.268,2.549-9.216,4.559c-3.011,1.933-5.955,3.972-8.513,6.056
				c-2.574,2.068-4.718,4.217-6.296,6.159c-0.375,0.498-0.777,0.945-1.09,1.406c-0.321,0.456-0.623,0.884-0.905,1.285
				c-0.479,0.838-0.982,1.51-1.275,2.081c0.943-1.272,2.458-3.616,5.01-6.21c1.294-1.281,2.803-2.643,4.525-4.003
				c1.727-1.354,3.657-2.708,5.712-4.047c1.025-0.672,2.089-1.337,3.167-1.999c0.544-0.332,1.092-0.666,1.641-1l0.415-0.251
				l0.37-0.195l0.823-0.431c2.201-1.14,4.531-2.085,6.924-2.708c2.387-0.645,4.804-1.051,7.145-1.301
				c2.346-0.228,4.611-0.313,6.711-0.347c0.674-0.001,1.33-0.003,1.966-0.004C59.111,10.005,63.479,9.522,67.573,9.401"/>
		</g>
	</g>
</g>
<g>
	<g>
		<g>
			<path fill="#D59E73" d="M50.733,13.672c-2.588-0.381-6.112-0.309-9.328-0.824c-0.271-0.026-0.507-0.057-0.759-0.06
				c-1.105,0.028-2.416,0.101-3.937,0.526c-0.99,0.201-3.888,1.24-6.985,3.485c-0.738,0.544-1.531,1.079-2.345,1.719
				c-0.798,0.689-1.631,1.409-2.489,2.149l-0.643,0.557l-0.598,0.608c-0.399,0.407-0.804,0.818-1.211,1.233
				c-0.407,0.414-0.816,0.83-1.229,1.249c-0.379,0.45-0.761,0.902-1.143,1.354c-0.752,0.914-1.553,1.796-2.252,2.723
				c-0.357,0.462-0.726,0.907-1.072,1.376c-0.33,0.491-0.658,0.978-0.983,1.461c-0.676,0.95-1.173,1.96-1.751,2.893
				c-0.505,0.971-1.005,1.906-1.452,2.815c-1.763,3.651-2.929,6.753-3.757,8.338c1.172-1.72,2.804-5.855,5.536-10.624
				c-1.387,2.583-2.442,5.098-3.34,7.2c-0.406,1.067-0.817,2.017-1.151,2.846c-0.329,0.831-0.635,1.523-0.914,2.046
				c1.232-1.838,2.879-6.448,5.82-11.636c0.758-1.276,1.562-2.621,2.494-3.877c0.425-0.652,0.967-1.283,1.5-1.925
				c0.524-0.654,1.081-1.277,1.635-1.896c0.553-0.626,1.109-1.256,1.667-1.887c0.581-0.608,1.206-1.176,1.806-1.768
				c0.619-0.568,1.181-1.212,1.84-1.715c0.644-0.528,1.283-1.053,1.916-1.573c-2.081,1.741-4.211,3.803-6.135,6.046
				c-0.947,1.132-1.917,2.239-2.827,3.427c-0.225,0.292-0.472,0.578-0.677,0.869c-0.194,0.291-0.387,0.58-0.579,0.868
				c-0.382,0.576-0.778,1.118-1.111,1.726c-2.835,4.687-4.462,9.137-5.584,11.083c0.838-1.116,1.844-3.341,3.317-6.065
				c0.344-0.695,0.753-1.397,1.176-2.132c0.402-0.75,0.869-1.495,1.361-2.255c0.469-0.794,1.005-1.512,1.541-2.261
				c0.479-0.748,1.24-1.544,1.878-2.342c2.624-3.089,5.688-6.175,8.912-8.653c0.849-0.622,1.756-1.203,2.613-1.794l0.646-0.438
				l0.161-0.109l0.08-0.054l0.02-0.014c-0.02,0.012,0.057-0.035-0.041,0.024l0.01-0.005l0.04-0.021l0.319-0.169
				c0.425-0.227,0.845-0.451,1.261-0.673c0.407-0.244,0.843-0.411,1.276-0.57c0.431-0.167,0.855-0.331,1.273-0.493
				c0.864-0.251,1.71-0.481,2.536-0.665c0.538-0.09,1.062-0.179,1.569-0.264C43.681,14.691,47.341,14.022,50.733,13.672"/>
		</g>
	</g>
</g>
<g>
	<g>
		<g>
			<path fill="#D59E73" d="M30.729,7.095c-0.984,0.165-2.073,0.563-3.217,0.965c-1.128,0.458-2.348,0.883-3.557,1.166
				c-0.201,0.07-0.369,0.128-0.542,0.188c-0.75,0.329-1.617,0.753-2.519,1.457c-0.604,0.45-2.269,1.795-4.15,3.961
				c-1.899,2.132-3.91,5.176-5.141,8.558c-1.272,3.371-1.817,6.959-2.125,9.971c-0.329,3.017-0.438,5.491-0.776,6.803
				c0.62-1.484,0.859-4.801,1.561-8.85c-0.576,4.35-0.533,8.134-1.006,9.872c0.688-1.582,0.81-5.249,1.555-9.637
				c0.348-2.198,0.927-4.551,1.759-6.878c0.859-2.318,2.12-4.534,3.598-6.482c-2.446,3.277-3.987,7.771-4.643,11.782
				c-0.665,4.028-0.81,7.56-1.244,9.211c0.409-0.989,0.714-2.804,1.076-5.089c0.326-2.295,0.855-5.034,1.757-7.823
				c0.907-2.786,2.351-5.564,4.27-7.921c1.9-2.37,4.2-4.318,6.285-5.839c0.343-0.233,0.677-0.459,1-0.679
				C26.393,10.176,28.462,8.313,30.729,7.095"/>
		</g>
	</g>
</g>
<g>
	<g>
		<g>
			<path fill="#D59E73" d="M24.178,14.307c-0.694,0.255-1.375,0.723-2.099,1.198c-0.362,0.238-0.735,0.477-1.125,0.692
				c-0.379,0.235-0.761,0.484-1.187,0.672c-0.131,0.077-0.242,0.148-0.357,0.225c-0.476,0.366-0.977,0.866-1.486,1.517
				c-0.346,0.431-1.014,1.777-1.948,3.535c-0.823,1.816-1.832,4.076-2.636,6.453c-1.711,4.722-2.803,9.727-3.811,11.413
				c0.415-0.449,0.818-1.228,1.21-2.242c0.404-1.011,0.905-2.229,1.354-3.61c-0.373,1.51-0.849,2.872-1.152,4.041
				c-0.328,1.162-0.671,2.082-1.025,2.635c0.894-0.959,1.655-3.405,2.697-6.39c1.087-2.96,2.326-6.524,3.951-9.617
				c-0.287,0.666-0.586,1.358-0.89,2.063c-0.262,0.727-0.528,1.466-0.794,2.205c-0.583,1.455-0.986,2.984-1.463,4.362
				c-0.464,1.384-0.783,2.7-1.187,3.761c-0.374,1.07-0.656,1.939-1.008,2.455c0.574-0.584,1.046-1.781,1.698-3.298
				c0.591-1.564,1.29-3.41,2.046-5.411c1.564-3.976,3.756-8.377,5.879-11.288c0.172-0.229,0.339-0.451,0.5-0.667
				C21.959,17.425,22.954,15.621,24.178,14.307"/>
		</g>
	</g>
</g>
<g>
	<g>
		<g>
			<path fill="#D59E73" d="M18.275,18.566c-1.114,0.542-1.955,1.787-3.381,2.358c-0.106,0.058-0.195,0.113-0.287,0.171
				c-0.367,0.279-0.732,0.668-1.078,1.178c-0.429,0.688-2.239,4.125-3.604,7.936c-0.681,1.9-1.181,3.887-1.484,5.577
				c-0.321,1.691-0.428,3.089-0.742,3.851c0.56-0.871,0.872-2.7,1.504-4.904c-0.506,2.409-0.525,4.476-0.933,5.472
				c0.626-0.922,0.81-2.887,1.476-5.246c0.605-2.366,1.747-5.104,3.044-7.559c-0.956,2.109-1.856,4.617-2.388,6.788
				c-0.566,2.173-0.713,4.014-1.14,4.898c0.822-1.063,1.162-3.729,2.414-6.779c1.184-3.052,3.099-6.465,4.701-8.966
				c0.129-0.2,0.254-0.394,0.375-0.582C17.184,21.407,17.509,19.777,18.275,18.566"/>
		</g>
	</g>
</g>
<g>
	<g>
		<g>
			<path fill="#D59E73" d="M18.273,16.599c-1.197,0.553-2.192,1.816-3.741,2.25c-0.117,0.049-0.215,0.096-0.316,0.147
				c-0.41,0.251-0.857,0.6-1.294,1.083c-0.292,0.324-1.033,1.31-2.028,2.668c-0.988,1.363-2.233,3.102-3.328,4.992
				c-1.106,1.884-1.983,3.938-2.479,5.734c-0.11,0.454-0.223,0.884-0.337,1.287c-0.074,0.411-0.143,0.796-0.224,1.148
				C4.33,36.61,4.288,37.199,4.099,37.61c0.566-0.938,0.936-2.915,1.888-5.196c-0.866,2.514-0.904,4.748-1.329,5.819
				c0.645-0.991,0.833-3.104,1.839-5.526c0.918-2.443,2.717-5.108,4.591-7.449c-1.458,2.033-2.946,4.503-3.822,6.711
				c-0.928,2.204-1.148,4.144-1.594,5.077c0.843-1.119,1.318-3.882,3.204-6.866c1.8-2.998,4.628-6.204,6.744-8.672
				c0.171-0.197,0.337-0.389,0.498-0.574C16.819,19.549,17.386,17.852,18.273,16.599"/>
		</g>
	</g>
</g>
<g>
	<g>
		<g>
			<path fill="#D59E73" d="M40.228,36.002c-2.525-0.292-6.063,0.182-8.998-0.585c-0.251-0.048-0.464-0.088-0.685-0.129
				c-0.989-0.123-2.132-0.241-3.458-0.373c-0.869-0.124-3.388-0.185-6.439-1.457c-1.532-0.614-3.136-1.627-4.674-2.952
				c-0.803-0.634-1.514-1.415-2.097-2.208c-0.603-0.835-1.105-1.776-1.429-2.792c-0.667-2.026-0.661-4.318-0.004-6.354
				c0.643-2.043,1.923-3.804,3.454-4.947c1.541-1.144,3.285-1.641,4.739-1.683c1.464-0.03,2.634,0.294,3.367,0.663
				c-0.795-0.534-2.312-1.042-4.317-0.868c-1.975,0.186-4.407,1.28-6.112,3.463c1.736-2.386,4.449-3.704,6.747-3.848
				c2.321-0.174,4.118,0.511,5.083,1.097c-0.841-0.637-2.513-1.44-4.87-1.424c-1.165,0.024-2.481,0.274-3.766,0.88
				c-1.28,0.606-2.516,1.552-3.531,2.774c-2.02,2.448-3.069,6.061-2.39,9.532c0.347,1.722,1.061,3.382,2.121,4.783
				c0.274,0.35,0.546,0.715,0.832,1.001l0.439,0.47l0.469,0.429l0.933,0.851l0.996,0.761c-0.564-0.396-1.141-0.807-1.667-1.293
				c-0.277-0.242-0.555-0.485-0.836-0.73l-0.75-0.77c-1.04-1.17-1.843-2.505-2.378-4.011c-1.095-2.994-0.813-6.468,0.541-9.194
				c0.669-1.37,1.582-2.571,2.63-3.511c1.052-0.938,2.234-1.605,3.377-2.01c2.317-0.809,4.334-0.55,5.455-0.18
				c-0.669-0.321-1.713-0.555-3.05-0.529c-1.327,0.037-2.965,0.4-4.552,1.324c-1.584,0.917-3.087,2.374-4.146,4.247
				c-1.067,1.863-1.681,4.135-1.643,6.494c0.058,2.352,0.788,4.782,2.16,6.778c0.73,1.059,1.478,1.919,2.339,2.657
				c0.815,0.789,1.731,1.477,2.655,2.121c1.867,1.275,3.94,2.172,5.969,2.7c2.031,0.538,4.005,0.739,5.802,0.805
				c0.574,0.003,1.137,0.041,1.674,0.017C33.49,37.585,36.91,36.482,40.228,36.002"/>
		</g>
	</g>
</g>
<g>
	<g>
		<g>
			<path fill="#D59E73" d="M34.636,38.63c-1.656-0.635-4.063-0.524-6.062-1.32c-0.176-0.048-0.322-0.088-0.472-0.128
				c-0.682-0.13-1.478-0.197-2.405-0.209c-0.618-0.013-2.353,0.147-4.613,0.012c-1.127-0.072-2.397-0.21-3.667-0.583
				c-0.317-0.092-0.627-0.212-0.951-0.319l-0.061-0.021l-0.03-0.01l-0.015-0.005l-0.007-0.002c0.166,0.094,0.042,0.023,0.077,0.043
				l-0.123-0.065l-0.246-0.13l-0.399-0.242c-0.566-0.373-1.122-0.838-1.647-1.347c-2.1-2.05-3.758-4.777-4.364-7.284
				c-0.301-1.252-0.3-2.446-0.031-3.365c0.28-0.918,0.795-1.514,1.237-1.773c-0.586,0.208-1.354,0.99-1.651,2.318
				c-0.313,1.314-0.114,3.027,0.504,4.743c-0.753-1.793-1.079-3.695-0.725-5.244c0.336-1.568,1.36-2.521,2.062-2.802
				c-0.707,0.157-1.832,0.985-2.329,2.576c-0.504,1.571-0.3,3.597,0.402,5.548c0.707,1.962,1.865,3.923,3.37,5.664
				c0.761,0.871,1.583,1.684,2.602,2.364c1.064,0.677,2.148,0.954,3.242,1.236c-0.937-0.179-1.807-0.415-2.851-0.861
				c-0.918-0.475-1.759-1.163-2.505-1.871c-1.495-1.448-2.729-3.144-3.631-4.893c-0.899-1.747-1.448-3.583-1.465-5.244
				c-0.044-1.662,0.552-3.066,1.182-3.703c-0.44,0.349-0.911,1.022-1.198,1.948c-0.289,0.921-0.38,2.07-0.219,3.264
				c0.303,2.413,1.474,5.014,3.235,7.398c0.896,1.19,1.919,2.342,3.259,3.34l0.57,0.389l0.23,0.135l0.115,0.068l0.152,0.085
				l0.018,0.007l0.035,0.014l0.069,0.029c0.372,0.15,0.741,0.311,1.114,0.446l1.123,0.349l1.12,0.262
				c2.978,0.581,5.781,0.541,8.138,0.482c0.377-0.012,0.744-0.022,1.099-0.034C30.059,39.445,32.381,38.663,34.636,38.63"/>
		</g>
	</g>
</g>
<g>
	<g>
		<g>
			<path fill="#D59E73" d="M33.991,35.017c-0.39-0.095-0.812-0.144-1.256-0.172c-0.441-0.048-0.872-0.139-1.302-0.199
				c-0.435-0.121-0.875-0.235-1.278-0.421c-0.395-0.228-0.782-0.407-1.076-0.756c-0.111-0.091-0.203-0.167-0.296-0.243
				c-0.226-0.132-0.454-0.308-0.709-0.471c-0.263-0.146-0.535-0.325-0.834-0.517c-0.396-0.234-1.625-0.836-2.943-2.26
				c-1.331-1.379-2.708-3.592-3.475-6.084c-0.211-0.677-0.345-1.267-0.418-1.891c-0.018-0.311-0.07-0.632-0.031-0.934l0.029-0.461
				l0.097-0.442c0.258-1.192,1.151-2.125,2.013-2.874c1.806-1.458,3.448-2.519,4.418-2.993c-0.635,0.175-1.496,0.608-2.531,1.217
				c-1.018,0.628-2.303,1.343-3.427,2.564c1.13-1.37,2.505-2.251,3.567-3.044c1.092-0.766,1.957-1.396,2.607-1.697
				c-0.677,0.185-1.562,0.7-2.683,1.372c-1.096,0.705-2.498,1.478-3.85,2.894c-0.664,0.709-1.23,1.699-1.424,2.778
				c-0.196,1.071-0.072,2.152,0.126,3.185c0.445,1.978,1.24,3.938,2.275,5.638c-0.938-1.378-1.736-2.984-2.298-4.785
				c-0.517-1.608-0.903-3.894,0.063-5.775c0.465-0.92,1.11-1.619,1.714-2.181c0.61-0.545,1.198-0.985,1.725-1.35
				c1.057-0.734,1.912-1.24,2.526-1.496c-0.84,0.203-2.066,0.788-3.708,1.892c-0.803,0.574-1.792,1.32-2.593,2.597
				c-0.206,0.304-0.347,0.676-0.512,1.026c-0.122,0.364-0.237,0.748-0.315,1.128c-0.13,0.77-0.144,1.513-0.079,2.256
				c0.052,0.371,0.105,0.745,0.159,1.121c0.071,0.3,0.144,0.603,0.216,0.907l0.055,0.229l0.024,0.096l0.009,0.03l0.019,0.061
				l0.039,0.122l0.154,0.488c0.102,0.326,0.204,0.652,0.337,0.969c0.469,1.289,1.119,2.525,1.863,3.669
				c1.482,2.291,3.561,4.139,5.681,5.087c0.343,0.141,0.661,0.313,0.998,0.414C29.83,36.075,32.103,35.484,33.991,35.017"/>
		</g>
	</g>
</g>
<g>
	<g>
		<g>
			<path fill="#D59E73" d="M46.128,32.062c-2.173-0.618-5.248-0.92-7.564-2.308c-0.204-0.098-0.375-0.181-0.552-0.266
				c-0.421-0.167-0.855-0.339-1.316-0.522c-0.479-0.173-1-0.342-1.545-0.557c-0.369-0.132-1.087-0.335-2.009-0.723
				c-0.481-0.164-0.984-0.41-1.534-0.692c-0.579-0.249-1.117-0.628-1.724-1.01c-1.124-0.832-2.396-1.875-3.17-3.38
				c-0.787-1.473-1.314-3.284-1.214-5.203c0.036-1.943,0.416-3.884,1.274-5.557c0.857-1.675,2.295-2.921,3.804-3.668
				c1.516-0.757,3.072-1.06,4.375-1.184c1.308-0.126,2.39-0.065,3.132,0.067c-0.843-0.254-2.232-0.436-3.992-0.259
				c-0.873,0.109-1.85,0.266-2.851,0.631c-1.011,0.33-2.044,0.881-2.978,1.653c1.949-1.753,4.411-2.413,6.37-2.668
				c1.99-0.255,3.604-0.143,4.601,0.051c-0.911-0.296-2.447-0.521-4.439-0.381c-0.997,0.055-2.102,0.26-3.275,0.596
				c-1.162,0.38-2.388,0.954-3.495,1.841c-2.303,1.736-3.538,4.879-3.835,7.801c-0.126,0.771-0.054,1.54-0.084,2.309
				c-0.03,0.384,0.06,0.768,0.116,1.15l0.187,1.144c0.085,0.375,0.243,0.734,0.361,1.1c0.146,0.355,0.216,0.741,0.425,1.065
				c0.395,0.654,0.694,1.361,1.209,1.909c-0.44-0.444-0.74-1.005-1.08-1.561c-0.382-0.538-0.561-1.18-0.814-1.805
				c-0.292-0.621-0.332-1.305-0.482-1.978c-0.176-0.678-0.109-1.363-0.14-2.055c0.008-0.356-0.037-0.668,0.018-1.065l0.102-0.966
				c0.048-0.626,0.252-1.371,0.393-2.044c0.387-1.33,0.964-2.618,1.772-3.736c0.838-1.096,1.871-1.972,2.934-2.615
				c1.078-0.61,2.154-1.022,3.144-1.265c1.985-0.501,3.59-0.481,4.593-0.357c-0.609-0.159-1.48-0.261-2.581-0.205
				c-1.096,0.054-2.434,0.23-3.906,0.789c-1.459,0.54-3.077,1.501-4.354,2.996c-0.642,0.737-1.175,1.594-1.605,2.503
				c-0.416,0.911-0.737,1.862-0.958,2.908c-0.146,0.544-0.17,0.949-0.242,1.411l-0.102,0.758l-0.018,0.779
				c-0.006,0.519-0.012,1.041-0.018,1.565l0.239,1.586c0.43,2.086,1.371,4.161,2.816,5.674c1.412,1.523,3.047,2.703,4.706,3.521
				c1.655,0.827,3.292,1.426,4.825,1.838c0.492,0.128,0.965,0.278,1.431,0.377C39.986,32.347,43.188,32.067,46.128,32.062"/>
		</g>
	</g>
</g>
<g>
	<g>
		<g>
			<path fill="#D59E73" d="M46.458,31.734c-1.72-0.636-4.172-0.652-6.286-1.456c-0.187-0.047-0.342-0.087-0.501-0.127
				c-0.725-0.129-1.583-0.187-2.593-0.14c-1.329,0.093-7.547,0.785-13.743,2.729c-3.087,0.963-6.146,2.338-8.362,4.068
				c-1.105,0.862-2.011,1.784-2.65,2.676c-0.643,0.887-1.074,1.691-1.411,2.256c0.231-0.308,0.545-0.69,0.845-1.152
				c0.353-0.439,0.726-0.95,1.213-1.46c0.955-1.026,2.264-2.094,3.901-2.977c-1.697,1.031-3.038,2.304-3.93,3.528
				c-0.908,1.226-1.323,2.398-1.715,3.131c0.485-0.645,0.953-1.718,1.876-2.836c0.907-1.121,2.235-2.28,3.946-3.258
				c3.432-1.962,8.177-3.208,12.608-3.925c-3.654,0.743-7.878,1.925-11.091,3.613c-1.608,0.831-2.943,1.776-3.883,2.696
				c-0.964,0.905-1.54,1.772-1.992,2.322c0.691-0.603,1.578-1.709,3.123-2.806c1.543-1.094,3.735-2.169,6.305-2.987
				c5.135-1.671,11.5-2.456,16.258-2.712c0.382-0.018,0.754-0.035,1.114-0.052C41.66,32.396,44.122,31.751,46.458,31.734"/>
		</g>
	</g>
</g>
<g>
	<g>
		<g>
			<path fill="#D59E73" d="M59.381,27.331c0.584,0.686,1.441,1.292,2.256,1.999c0.368,0.383,0.734,0.771,1.068,1.169
				c0.165,0.202,0.33,0.392,0.468,0.611c0.128,0.234,0.244,0.472,0.345,0.711c0.086,0.152,0.157,0.278,0.229,0.407
				c0.181,0.276,0.406,0.544,0.64,0.843c0.207,0.322,0.446,0.653,0.725,0.996c0.188,0.227,0.585,0.626,1.009,1.272
				c0.227,0.313,0.484,0.67,0.768,1.062c0.241,0.426,0.505,0.891,0.786,1.387c1.08,2.024,2.048,4.861,2.64,7.899
				c0.608,3.033,0.935,6.217,1.139,8.91c0.19,2.697,0.291,4.911,0.12,6.119c0.4-1.396,0.418-4.361,0.249-8.057
				c0.362,3.935,0.624,7.302,0.406,8.899c0.439-1.491,0.365-4.744,0.171-8.806c-0.22-4.041-0.715-8.949-2.181-13.251
				c1.397,3.508,2.11,7.909,2.496,11.678c0.362,3.787,0.521,6.959,0.286,8.476c0.298-0.928,0.397-2.575,0.392-4.709
				c-0.02-2.132-0.118-4.753-0.452-7.598c-0.333-2.836-0.905-5.904-1.963-8.756c-1.045-2.85-2.609-5.435-4.357-7.275
				c-0.245-0.324-0.572-0.556-0.841-0.827c-0.491-0.322-0.982-0.654-1.507-0.953c-0.554-0.26-1.115-0.525-1.665-0.783
				c-0.534-0.289-1.089-0.482-1.64-0.693C60.42,27.842,59.888,27.601,59.381,27.331"/>
		</g>
	</g>
</g>
<g>
	<g>
		<g>
			<path fill="#D59E73" d="M61.944,24.087c-0.034,0.403-0.019,0.832,0.02,1.28l0.072,0.686c0.042,0.232,0.119,0.469,0.181,0.712
				c0.138,0.479,0.254,1.015,0.402,1.511c0.155,0.486,0.286,0.99,0.372,1.515c0.042,0.17,0.085,0.315,0.142,0.455
				c0.273,0.591,0.663,1.305,1.223,1.977c0.358,0.471,1.552,1.629,2.942,3.151c1.323,1.49,3.021,3.743,4.355,6.022
				c1.388,2.352,2.577,4.915,3.549,7.091c0.949,2.188,1.688,4,1.875,5.072c-0.023-1.313-0.875-3.784-2.081-6.815
				c1.455,3.168,2.685,5.873,2.936,7.289c-0.014-1.407-1.033-4.077-2.365-7.405c-0.688-1.653-1.463-3.461-2.4-5.259
				c-0.437-0.905-0.977-1.801-1.485-2.69c-0.526-0.875-1.101-1.689-1.65-2.505c0.496,0.646,0.992,1.34,1.508,2.041
				c0.479,0.741,0.973,1.518,1.441,2.3c0.899,1.567,1.731,3.178,2.44,4.693c1.412,3.041,2.467,5.626,2.689,6.964
				c0.002-0.869-0.362-2.281-0.984-4.051c-0.617-1.763-1.479-3.922-2.554-6.196c-0.281-0.566-0.568-1.141-0.858-1.723
				c-0.304-0.583-0.654-1.177-0.986-1.765c-0.331-0.612-0.692-1.128-1.047-1.665c-0.361-0.548-0.689-1.042-1.101-1.607
				c-1.567-2.218-3.316-3.947-4.57-5.54c-0.198-0.255-0.391-0.503-0.576-0.744c-0.374-0.304-0.682-0.646-1.048-0.988l-0.54-0.528
				c-0.154-0.193-0.31-0.385-0.462-0.575C62.709,26.035,62.266,25.039,61.944,24.087"/>
		</g>
	</g>
</g>
<g>
	<g>
		<g>
			<path fill="#D59E73" d="M48.593,16.812c1.468,0.426,3.346,0.515,5.251,0.61c1.896,0.102,3.907,0.229,5.485,0.866
				c0.257,0.103,0.477,0.191,0.704,0.283c0.128,0.042,0.258,0.084,0.389,0.128c0.123,0.054,0.248,0.108,0.375,0.164
				c0.159,0.067,0.32,0.134,0.483,0.203l0.251,0.102l0.173,0.11c0.23,0.162,0.455,0.245,0.73,0.444
				c0.268,0.208,0.57,0.368,0.854,0.616c0.379,0.318,1.144,0.88,2.048,1.921c0.915,1.019,1.978,2.472,3.064,4.282
				c1.099,1.803,2.197,3.964,3.445,6.271c1.242,2.292,2.662,4.662,3.82,7.136c2.436,4.925,4.346,10.269,5.355,14.934
				c0.232,1.17,0.456,2.288,0.641,3.341c0.113,1.063,0.219,2.057,0.315,2.97c0.039,0.455,0.076,0.89,0.111,1.303
				c0.015,0.414,0.008,0.806,0.005,1.172c-0.009,0.733-0.036,1.365-0.084,1.882c0.498-2.348,0.314-7.691-1.305-14.077
				c0.233,0.845,0.485,1.672,0.683,2.492c0.169,0.827,0.335,1.634,0.495,2.417c0.356,1.562,0.503,3.062,0.656,4.423
				c0.068,0.682,0.157,1.328,0.185,1.942c0.01,0.612,0.02,1.188,0.028,1.726c0.004,1.068-0.022,1.966-0.086,2.658
				c0.118-0.632,0.198-1.476,0.247-2.5c0.046-1.025,0.091-2.233-0.043-3.578c-0.122-1.344-0.179-2.853-0.498-4.44
				c-0.141-0.798-0.286-1.623-0.437-2.473c-0.145-0.852-0.408-1.703-0.62-2.588c-0.847-3.545-2.255-7.278-3.867-11
				c-1.633-3.744-3.711-7.282-5.44-10.831c1.481,2.929,3.357,5.916,4.92,9.19c1.648,3.231,2.966,6.621,4.055,9.849
				c0.523,1.619,0.914,3.217,1.325,4.708c0.311,1.517,0.575,2.947,0.806,4.251c0.294,2.634,0.506,4.763,0.332,6.13
				c0.072-0.413,0.139-0.912,0.174-1.489c0.009-0.575-0.003-1.228-0.031-1.951s-0.075-1.517-0.137-2.372
				c-0.095-0.85-0.247-1.755-0.396-2.717c-0.251-1.934-0.834-4.017-1.394-6.257c-0.355-1.097-0.723-2.229-1.099-3.389
				c-0.36-1.167-0.879-2.301-1.33-3.484c-0.445-1.183-0.992-2.356-1.547-3.538c-0.544-1.192-1.104-2.38-1.716-3.503
				c-1.215-2.301-2.376-4.542-3.522-6.854c-1.17-2.294-2.396-4.568-3.886-6.6c-1.506-2.023-3.225-3.831-5.475-4.896
				c-0.369-0.183-0.731-0.351-1.025-0.427l-0.464-0.151l-0.229-0.075l-0.058-0.019l-0.085-0.025l-0.032-0.006l-0.131-0.027
				c-2.155-0.333-4.233-0.008-6.297,0.271C52.701,16.631,50.642,16.963,48.593,16.812"/>
		</g>
	</g>
</g>
<g>
	<g>
		<g>
			<path fill="#D59E73" d="M63.775,8.603c1.887,0.348,4.172,0.545,6.479,1.074c2.309,0.493,4.676,1.224,6.561,2.396
				c0.325,0.18,0.625,0.305,0.912,0.484c1.285,0.739,2.832,1.516,4.42,2.742c0.266,0.201,0.688,0.449,1.136,0.871
				c0.45,0.417,1.076,0.847,1.636,1.508c0.297,0.316,0.613,0.653,0.948,1.009c0.294,0.393,0.604,0.808,0.929,1.242
				c0.352,0.418,0.618,0.926,0.923,1.436c0.3,0.514,0.642,1.033,0.881,1.634c1.155,2.29,2.001,5.186,2.438,8.29
				c0.279,1.644,0.311,3.208,0.366,4.866c-0.025,0.835-0.052,1.677-0.079,2.522c-0.067,0.845-0.171,1.694-0.256,2.549
				c-0.88,6.834-3.337,13.579-5.005,19.371c-1.756,5.788-2.521,10.708-2.932,13.341c0.173-0.798,0.379-1.749,0.621-2.864
				c0.196-1.161,0.573-2.485,0.894-3.98c0.761-2.969,1.857-6.513,3.156-10.424c-1.29,4.203-2.397,8.138-3.048,11.491
				c-0.359,1.671-0.542,3.201-0.748,4.521c-0.152,1.323-0.245,2.445-0.392,3.314c0.188-0.793,0.351-1.839,0.519-3.096
				c0.267-1.249,0.45-2.72,0.853-4.342c0.701-3.258,1.864-7.149,3.272-11.441c1.39-4.291,2.989-9.029,3.889-14.082
				c0.968-5.03,0.95-10.404-0.173-15.307c0.12,0.508,0.241,1.021,0.364,1.54c0.146,0.571,0.165,1.06,0.255,1.6
				c0.151,1.057,0.312,2.126,0.329,3.263c0.027,0.563,0.054,1.13,0.081,1.699c-0.003,0.565-0.032,1.129-0.048,1.697
				c-0.027,0.567-0.021,1.141-0.077,1.708l-0.182,1.704c-0.517,4.555-1.752,8.993-2.984,13.023c-1.24,4.038-2.417,7.721-3.239,10.83
				c-0.825,3.107-1.307,5.634-1.662,7.25c0.539-1.934,1.382-5.44,2.794-9.914c1.382-4.486,3.498-9.923,4.972-16.163
				c0.71-3.117,1.242-6.428,1.305-9.811c-0.027-1.706-0.037-3.507-0.28-5.064l-0.144-1.207l-0.035-0.301l-0.005-0.038l-0.014-0.098
				l-0.004-0.02l-0.017-0.077l-0.034-0.155l-0.133-0.619c-0.192-0.822-0.327-1.649-0.566-2.455
				c-0.855-3.242-2.335-6.306-4.281-8.838c-1.945-2.542-4.378-4.479-6.811-5.817c-0.761-0.471-1.561-0.796-2.322-1.142
				c-2.397-0.813-5.003-1.295-7.628-1.507C68.98,8.614,66.334,8.61,63.775,8.603"/>
		</g>
	</g>
</g>
<g>
	<g>
		<g>
			<path fill="#D59E73" d="M26.431,10.246c1.682,0.055,3.744-0.463,5.748-1.243c2.008-0.753,4.043-1.692,5.965-2.021
				c0.318-0.084,0.594-0.115,0.879-0.179c0.669-0.164,1.378-0.338,2.144-0.526c0.821-0.24,1.607-0.37,2.471-0.574
				c1.166-0.255,4.533-0.983,9.289-1.212c1.172-0.067,2.489-0.128,3.766-0.173c1.336-0.019,2.751-0.07,4.13,0.005
				c2.799,0.094,5.812,0.398,8.771,1.05c2.967,0.632,5.91,1.558,8.648,2.728c2.736,1.178,5.231,2.639,7.405,4.136
				c4.331,3.05,7.222,6.361,8.437,8.295c-1.203-2.314-5.029-6.961-11.32-10.754c3.396,1.919,6.271,4.204,8.434,6.343
				c1.122,1.032,1.975,2.121,2.76,3.005c0.715,0.947,1.291,1.762,1.7,2.413c-0.325-0.631-0.822-1.429-1.468-2.371
				c-0.331-0.463-0.729-0.936-1.148-1.452c-0.422-0.514-0.874-1.064-1.409-1.593c-2.051-2.197-4.87-4.615-8.354-6.708
				c-3.473-2.103-7.594-3.866-11.97-5.021c-4.366-1.187-9.007-1.673-13.41-1.698c3.643-0.065,7.671,0.231,11.613,1.04
				c3.952,0.798,7.84,2.12,11.254,3.811c6.883,3.367,11.604,8.14,13.295,10.626c-0.926-1.597-3.109-4.225-6.539-6.93
				c-1.689-1.383-3.753-2.672-6.012-3.943c-2.303-1.189-4.831-2.318-7.546-3.187c-2.717-0.852-5.584-1.522-8.503-1.933
				c-2.891-0.383-5.969-0.562-8.746-0.524c-2.896,0.042-5.666,0.106-8.389,0.368c-2.691,0.252-5.314,0.739-7.64,1.428
				c-0.719,0.238-1.391,0.419-2.094,0.684c-2.108,0.899-3.979,2.246-5.909,3.463C30.753,8.816,28.704,9.916,26.431,10.246"/>
		</g>
	</g>
</g>
<g>
	<g>
		<g>
			<path fill="#D59E73" d="M59.941,8.613c0.376-0.045,0.762-0.164,1.161-0.27c0.404-0.083,0.783-0.21,1.214-0.265
				c0.828-0.163,1.723-0.151,2.507,0.145c0.136,0.035,0.247,0.064,0.36,0.093c0.511,0.078,1.092,0.144,1.788,0.169
				c0.462,0.03,1.786-0.017,3.64,0.34c1.846,0.354,4.183,1.115,6.495,2.15c2.315,1.027,4.618,2.264,6.527,3.372
				c1.909,1.115,3.441,2.077,4.174,2.788c-0.734-1-2.705-2.395-5.257-4.012c2.825,1.565,5.2,2.937,6.179,3.841
				c-0.792-1.043-2.979-2.511-5.792-4.274c-2.817-1.732-6.318-3.678-9.817-4.892c2.956,0.855,6.24,2.394,8.95,3.883
				c2.717,1.5,4.911,2.856,5.79,3.754c-0.455-0.686-1.491-1.532-2.911-2.531c-1.423-0.992-3.23-2.139-5.274-3.258
				C77.636,8.529,75.353,7.441,73,6.67c-2.339-0.789-4.782-1.188-6.904-1.096c-0.34,0.026-0.67,0.034-0.989,0.074
				c-0.952,0.287-1.888,0.772-2.75,1.295C61.491,7.478,60.715,8.1,59.941,8.613"/>
		</g>
	</g>
</g>
<g>
	<g>
		<g>
			<path fill="#D59E73" d="M47.956,33.561c1.844,0.62,4.54,0.428,6.791,1.13c0.197,0.04,0.362,0.073,0.53,0.106
				c0.766,0.1,1.648,0.147,2.679,0.127c0.336,0.011,0.991-0.05,1.857-0.064c0.431-0.001,0.919-0.002,1.457-0.003
				c0.503,0.042,1.053,0.088,1.639,0.138c0.633,0.141,1.404,0.245,2.01,0.449c0.323,0.096,0.655,0.178,0.998,0.291
				c0.345,0.129,0.695,0.26,1.052,0.393c1.411,0.576,2.891,1.301,4.292,2.217c2.83,1.79,5.451,4.098,7.485,6.209
				c2.039,2.115,3.533,4.013,4.136,5.176c-0.519-1.461-2.425-4.102-5.234-7.012c3.143,2.964,5.501,5.854,6.308,7.394
				c-0.557-1.561-2.681-4.487-5.804-7.695c-3.116-3.169-7.362-6.651-12.094-8.308c3.968,1.221,8.067,4,11.165,6.813
				c3.123,2.815,5.382,5.568,6.169,7.057c-0.352-1.003-1.371-2.539-2.897-4.36c-1.531-1.813-3.577-3.917-6.062-5.891
				c-2.512-1.957-5.414-3.775-8.708-4.822l-0.616-0.204l-0.566-0.137l-0.563-0.136l-0.28-0.068l-0.14-0.034l-0.035-0.009
				l-0.087-0.021l-0.02-0.002l-0.076-0.011c-0.818-0.092-1.636-0.263-2.403-0.261c-0.775-0.039-1.528-0.068-2.243-0.038
				c-0.722,0.004-1.412,0.029-2.067,0.074c-0.421,0.023-0.83,0.045-1.227,0.067C53.03,32.645,50.481,33.53,47.956,33.561"/>
		</g>
	</g>
</g>
<g>
	<g>
		<g>
			<path fill="#D59E73" d="M50.833,24.372c0.481,0.387,1.038,0.765,1.637,1.144c0.541,0.441,1.094,0.892,1.663,1.356
				c0.543,0.516,1.086,1.054,1.6,1.598c0.496,0.575,0.95,1.184,1.347,1.792c0.149,0.201,0.274,0.372,0.405,0.547
				c0.611,0.77,1.396,1.594,2.354,2.563c0.33,0.31,0.957,0.9,1.818,1.709c0.435,0.405,0.927,0.864,1.468,1.369
				c0.136,0.126,0.274,0.256,0.417,0.388l0.106,0.1l0.014,0.013c-0.136-0.152-0.034-0.038-0.063-0.07l0.007,0.006l0.025,0.027
				l0.05,0.054l0.205,0.218c0.274,0.293,0.561,0.598,0.855,0.913c2.245,2.386,4.637,5.951,6.642,9.823
				c2.005,3.886,3.678,8.068,4.96,11.651c1.279,3.586,2.216,6.564,2.509,8.223c-0.13-1.958-1.253-5.992-2.946-10.927
				c1.992,5.202,3.502,9.745,3.92,11.934c-0.157-2.085-1.442-6.529-3.321-11.955c-1.897-5.398-4.562-11.792-8.242-16.993
				c3.204,4.2,5.931,9.814,7.886,14.793c1.964,4.992,3.341,9.311,3.703,11.422c-0.062-1.329-0.613-3.605-1.482-6.502
				c-0.877-2.893-2.086-6.41-3.674-10.098c-1.569-3.689-3.619-7.522-6.086-10.923c-0.658-0.831-1.3-1.733-1.959-2.436
				c-0.349-0.393-0.695-0.782-1.038-1.168c-0.344-0.341-0.685-0.679-1.021-1.013c-1.348-1.343-2.66-2.624-3.896-3.786
				c-0.402-0.367-0.794-0.725-1.173-1.071c-1.282-0.899-2.697-1.786-4.173-2.592c-0.702-0.44-1.52-0.768-2.249-1.156
				c-0.362-0.21-0.754-0.336-1.136-0.486C51.581,24.691,51.203,24.535,50.833,24.372"/>
		</g>
	</g>
</g>
<g>
	<g>
		<g>
			<path fill="#D59E73" d="M30.856,28.309c2.764-0.09,6.503-1.042,9.849-0.914c0.285-0.011,0.527-0.021,0.778-0.031
				c1.115-0.091,2.412-0.274,3.925-0.557c1.01-0.175,3.801-0.85,7.589-1.444c3.78-0.591,8.592-1.084,13.473-0.64
				c2.434,0.223,4.878,0.695,7.127,1.5c2.251,0.797,4.29,1.943,5.916,3.299c1.649,1.336,2.813,2.917,3.614,4.319
				c0.189,0.356,0.37,0.697,0.543,1.022c0.154,0.332,0.266,0.662,0.382,0.963c0.231,0.604,0.4,1.133,0.46,1.595
				c-0.064-1.067-0.568-2.712-1.671-4.601c-1.104-1.88-2.973-3.901-5.51-5.457c1.396,0.76,2.583,1.753,3.651,2.732
				c0.482,0.541,0.987,1.038,1.398,1.576c0.388,0.555,0.811,1.058,1.113,1.601c1.33,2.114,1.808,4.096,2.024,5.311
				c-0.045-0.574-0.156-1.336-0.388-2.239c-0.288-0.881-0.643-1.927-1.254-3.008c-1.167-2.17-3.188-4.605-6.067-6.35
				c-2.836-1.815-6.376-2.916-10.004-3.471c-3.644-0.513-7.394-0.542-10.952-0.263c2.944-0.286,6.182-0.442,9.448-0.146
				c3.255,0.296,6.566,0.966,9.45,2.284c2.889,1.287,5.302,3.167,6.879,5.101c0.432,0.453,0.726,0.976,1.053,1.426
				c0.331,0.451,0.575,0.913,0.791,1.347c0.214,0.434,0.432,0.823,0.569,1.202c0.134,0.381,0.244,0.725,0.33,1.029
				c-0.223-1.511-1.344-4.278-4.021-6.89c-2.607-2.681-6.806-4.758-11.378-5.725c-4.593-0.959-9.526-0.991-14.169-0.585
				c-4.651,0.41-9.042,1.226-12.772,2.011c-0.597,0.129-1.176,0.255-1.738,0.376C37.978,25.796,34.387,27.348,30.856,28.309"/>
		</g>
	</g>
</g>
<g>
	<g>
		<g>
			<path fill="#D59E73" d="M33.084,17.47c0.61,0.108,1.276,0.222,1.994,0.228c0.716-0.031,1.521-0.029,2.285-0.167
				c0.389-0.053,0.784-0.106,1.184-0.161c0.387-0.072,0.778-0.145,1.178-0.218c0.801-0.118,1.567-0.289,2.348-0.373
				c0.258-0.045,0.482-0.091,0.708-0.151c0.999-0.285,2.135-0.724,3.399-1.358c0.844-0.413,3.104-1.765,6.069-3.492
				c2.984-1.673,6.707-3.842,10.982-4.534c2.092-0.35,4.297-0.322,6.368,0.143c2.074,0.45,4.004,1.24,5.722,2.063
				c1.719,0.828,3.243,1.677,4.529,2.403c1.287,0.726,2.332,1.341,3.037,1.826c-0.754-0.653-2.045-1.496-3.702-2.525
				c-1.666-1.009-3.696-2.241-6.132-3.269c2.64,1.001,4.925,2.291,6.847,3.311c1.913,1.048,3.463,1.861,4.402,2.486
				c-0.811-0.686-2.239-1.539-4.066-2.647c-1.839-1.083-4.075-2.45-6.793-3.608c-2.698-1.164-5.982-1.965-9.354-1.644
				c-3.304,0.231-6.53,1.475-9.39,2.822c2.342-1.203,5.05-2.363,7.987-2.878c2.928-0.575,6.083-0.296,8.771,0.516
				c2.697,0.824,4.979,2,6.805,3.003c1.828,1.016,3.239,1.872,4.105,2.499c-0.981-0.888-2.896-2.185-5.593-3.713
				c-1.354-0.753-2.938-1.541-4.762-2.18c-1.819-0.638-3.904-1.089-6.08-1.132c-2.268-0.047-4.344,0.297-6.503,0.91
				c-2.114,0.615-4.075,1.513-5.953,2.421c-3.734,1.857-7.088,3.88-10.068,5.343c-0.478,0.226-0.943,0.445-1.394,0.658
				C39.465,15.652,36.413,17.384,33.084,17.47"/>
		</g>
	</g>
</g>
<g>
	<g>
		<g>
			<path fill="#D59E73" d="M79.338,13.234c0.244,0.693,0.562,1.431,0.919,2.202c0.306,0.788,0.621,1.602,0.945,2.437
				c0.57,1.709,1.055,3.518,1.142,5.255c0.034,0.294,0.063,0.544,0.094,0.804c0.104,0.57,0.218,1.189,0.329,1.87
				c0.116,0.678,0.294,1.396,0.429,2.192c0.216,1.049,0.898,3.981,1.376,8.036c0.502,4.048,0.729,9.208,0.682,14.499
				c-0.197,5.3,0.062,10.736-0.492,15.259c-0.257,2.262-0.693,4.294-1.288,5.919c-0.605,1.624-1.412,2.78-2.084,3.419
				c0.875-0.633,1.939-2.155,2.688-4.362c0.76-2.201,1.247-5.023,1.478-8.154c-0.15,3.345-0.587,6.479-1.414,8.993
				c-0.791,2.534-2.219,4.295-3.341,4.982c0.512-0.311,1.219-0.778,1.832-1.581c0.645-0.775,1.204-1.826,1.712-3.047
				c0.953-2.464,1.499-5.628,1.767-9.087c0.287-3.461,0.228-7.248,0.464-11.041c0.139-3.891,0.166-7.816-0.003-11.616
				c0.222,3.139,0.3,6.558,0.275,9.987l-0.012,1.286c-0.005,0.481-0.031,0.869-0.047,1.307c-0.026,0.849-0.037,1.658-0.043,2.506
				c-0.014,1.676-0.017,3.341-0.064,4.956c-0.087,3.226-0.332,6.256-0.896,8.782c-0.55,2.521-1.396,4.532-2.275,5.627
				c1.198-1.238,2.424-4.123,3.053-7.83c0.651-3.694,0.759-8.256,0.907-12.893c0.283-4.758,0.342-9.866,0.087-14.807
				c-0.271-4.938-0.925-9.698-1.952-13.691c-0.164-0.639-0.302-1.264-0.496-1.858C83.712,20.062,81.508,16.439,79.338,13.234"/>
		</g>
	</g>
</g>
<g>
	<g>
		<g>
			<path fill="#D59E73" d="M79.664,30.343c-0.41,2.471-0.182,5.916-1.119,8.779c-0.054,0.25-0.1,0.461-0.146,0.679
				c-0.135,0.983-0.323,2.143-0.385,3.514c-0.021,0.455-0.06,1.322-0.113,2.512c-0.032,1.188-0.14,2.689-0.265,4.414
				c-0.275,3.446-0.795,7.772-1.529,12.172c-0.727,4.401-1.629,8.875-2.48,12.641c-0.855,3.767-1.646,6.83-2.302,8.403
				c0.957-1.738,2.139-5.82,3.404-10.951c-1.165,5.519-2.265,10.249-3.133,12.339c1.029-1.856,2.274-6.391,3.646-12.028
				c1.361-5.637,2.758-12.41,3.641-18.741c-0.562,5.272-1.628,11.396-2.73,16.685c-1.114,5.289-2.205,9.753-3.053,11.761
				c1.303-2.351,3.081-9.025,4.778-16.881c1.69-7.851,2.964-16.941,3.124-23.823c0.021-0.55,0.056-1.083,0.05-1.604
				C80.755,37.055,79.985,33.593,79.664,30.343"/>
		</g>
	</g>
</g>
<g>
	<g>
		<g>
			<path fill="#D59E73" d="M39.386,20.76c1.282-0.218,2.734-0.771,4.282-1.179c1.549-0.384,3.132-0.794,4.698-0.782
				c0.262-0.026,0.484-0.048,0.714-0.072c1.008-0.192,2.201-0.351,3.576-0.664c0.228-0.058,0.558-0.141,0.98-0.248
				c0.424-0.083,0.94-0.184,1.537-0.3c0.597-0.117,1.273-0.25,2.019-0.397c0.752-0.091,1.572-0.191,2.447-0.297
				c3.504-0.354,8.009-0.319,12.447,0.812c4.445,1.078,8.699,3.308,11.775,5.852c0.749,0.659,1.489,1.265,2.126,1.893
				c0.601,0.666,1.154,1.295,1.651,1.878c0.247,0.292,0.485,0.569,0.697,0.841c0.187,0.291,0.362,0.567,0.529,0.828
				c0.323,0.522,0.585,0.983,0.777,1.373c-0.355-0.941-1.075-2.403-2.417-3.952c-0.328-0.399-0.671-0.816-1.028-1.251
				c-0.383-0.415-0.828-0.803-1.271-1.227c-0.452-0.417-0.921-0.847-1.402-1.291c-0.508-0.414-1.072-0.79-1.631-1.198
				c0.606,0.421,1.241,0.789,1.79,1.24c0.541,0.462,1.07,0.914,1.583,1.352c1.065,0.838,1.863,1.835,2.644,2.687
				c0.373,0.441,0.769,0.827,1.056,1.259c0.286,0.429,0.557,0.832,0.809,1.209c0.488,0.756,0.873,1.407,1.132,1.929
				c-0.186-0.51-0.5-1.152-0.927-1.907c-0.436-0.748-0.926-1.655-1.685-2.512c-0.369-0.443-0.756-0.907-1.159-1.391
				c-0.207-0.24-0.419-0.485-0.635-0.734c-0.242-0.225-0.488-0.455-0.739-0.688c-1.011-0.93-2.076-1.957-3.381-2.799
				c-2.474-1.869-5.586-3.326-8.854-4.394c-0.829-0.236-1.662-0.473-2.497-0.71l-2.558-0.462c-0.847-0.184-1.71-0.229-2.562-0.3
				c-0.854-0.046-1.696-0.191-2.538-0.149c5.571-0.167,12.201,1.42,17.271,4.344c1.256,0.735,2.395,1.57,3.484,2.323
				c1.003,0.865,1.935,1.69,2.77,2.455c1.494,1.702,2.701,3.073,3.168,4.162c-0.128-0.337-0.309-0.728-0.538-1.168
				c-0.262-0.415-0.589-0.867-0.959-1.363c-0.372-0.495-0.793-1.031-1.257-1.601c-0.476-0.561-1.073-1.079-1.672-1.662
				c-1.164-1.213-2.722-2.249-4.341-3.411c-0.872-0.483-1.772-0.982-2.694-1.494c-0.919-0.518-1.953-0.852-2.956-1.29
				c-4.093-1.575-8.744-2.341-13.177-2.323c-4.438,0.021-8.664,0.674-12.153,1.638c-0.568,0.121-1.108,0.281-1.627,0.451
				c-0.748,0.336-1.53,0.688-2.325,1.046c-0.783,0.373-1.554,0.823-2.338,1.222C42.437,19.103,40.961,20.067,39.386,20.76"/>
		</g>
	</g>
</g>
<g>
	<g>
		<g>
			<path fill="#E2A77D" d="M38.571,34.108c2.264,0.624,5.552,0.38,8.296,1.078c0.239,0.039,0.441,0.071,0.649,0.104
				c0.933,0.105,2.025,0.143,3.297,0.135c0.84,0.025,3.231-0.218,6.308,0.123c3.052,0.326,6.909,1.369,9.468,4.611
				c1.239,1.49,2.259,3.362,3.011,5.209c0.762,1.862,1.304,3.749,1.706,5.498c0.794,3.508,1.083,6.456,1.024,8.046
				c0.268-1.831,0.062-5.824-1.154-10.641c0.77,2.535,1.218,4.966,1.519,7.002c0.291,2.04,0.42,3.694,0.377,4.754
				c0.158-0.986,0.139-2.572-0.049-4.593c-0.196-2.018-0.554-4.476-1.249-7.145c-0.704-2.658-1.734-5.559-3.531-8.173l-0.716-0.971
				l-0.756-0.859c-0.287-0.316-0.591-0.556-0.886-0.835c-0.3-0.265-0.578-0.556-0.924-0.76l-0.99-0.665
				c-0.329-0.22-0.699-0.364-1.045-0.547c-0.688-0.382-1.433-0.604-2.149-0.866c1.208,0.365,2.472,0.835,3.641,1.576l0.883,0.562
				c0.284,0.205,0.54,0.451,0.812,0.679c0.269,0.244,0.541,0.442,0.809,0.731l0.687,0.74c1.884,2.219,3.109,4.781,3.966,7.243
				c1.69,4.941,2.142,9.304,2.09,11.337c0.198-1.255,0.117-3.505-0.352-6.399c-0.501-2.876-1.33-6.455-3.28-10.014
				c-0.266-0.435-0.533-0.874-0.804-1.315c-0.316-0.438-0.647-0.915-0.971-1.318l-0.474-0.543l-0.238-0.272l-0.162-0.181
				l-0.151-0.141l-1.219-1.117c-1.741-1.364-3.759-2.247-5.746-2.791c-4.008-1.069-7.848-0.937-11.056-0.846
				c-0.513,0.025-1.012,0.05-1.496,0.074C44.81,33.137,41.655,34.062,38.571,34.108"/>
		</g>
	</g>
</g>
<g>
	<g>
		<g>
			<path fill="#D59D79" d="M32.244,25.57c2.489,0.641,6.1,0.37,9.184,0.873c0.268,0.022,0.494,0.042,0.728,0.061
				c1.048,0.036,2.274-0.025,3.695-0.171c0.953-0.095,3.574-0.541,7.078-0.854c1.748-0.121,3.724-0.225,5.813-0.113
				c2.071,0.113,4.32,0.437,6.434,0.976c2.217,0.683,4.359,1.427,6.36,2.396c0.502,0.241,0.999,0.479,1.489,0.715
				c0.483,0.25,0.942,0.532,1.404,0.793c0.459,0.269,0.91,0.532,1.354,0.792c0.422,0.293,0.835,0.58,1.24,0.86
				c0.401,0.286,0.794,0.564,1.176,0.836c0.357,0.303,0.705,0.598,1.041,0.884c0.674,0.571,1.299,1.111,1.79,1.688
				c0.51,0.557,0.969,1.064,1.346,1.531c0.34,0.499,0.616,0.94,0.821,1.315c-0.197-0.452-0.472-1.045-0.917-1.669
				c-0.462-0.61-1.032-1.305-1.696-2.069c-0.731-0.689-1.53-1.481-2.467-2.245c-0.972-0.715-1.976-1.55-3.16-2.231
				c5.136,2.833,8.497,6.852,9.521,8.893c-0.745-1.985-3.824-6.114-9.056-9.279c-0.652-0.388-1.301-0.82-2.001-1.188
				c-0.704-0.359-1.421-0.724-2.148-1.095c-1.493-0.669-3.057-1.351-4.629-1.859c-3.239-1.116-6.698-1.634-10.008-1.692
				c2.741-0.012,5.755,0.266,8.705,1.03c0.815,0.213,1.442,0.45,2.17,0.675c0.701,0.208,1.406,0.487,2.107,0.772
				c1.423,0.526,2.737,1.186,4.016,1.812c2.506,1.351,4.745,2.807,6.407,4.301c0.415,0.371,0.811,0.724,1.185,1.058
				c0.367,0.339,0.664,0.712,0.956,1.035c0.565,0.668,1.055,1.215,1.34,1.724c-0.293-0.654-0.896-1.43-1.666-2.394
				c-0.371-0.498-0.883-0.927-1.395-1.439c-0.53-0.49-1.074-1.057-1.739-1.535c-2.558-2.097-5.979-4.102-10.036-5.694
				c-0.484-0.173-0.973-0.347-1.465-0.523l-0.74-0.261l-0.372-0.131l-0.266-0.091l-0.201-0.053
				c-1.074-0.281-2.155-0.574-3.263-0.749c-2.202-0.4-4.445-0.588-6.623-0.582c-4.363-0.024-8.456,0.543-11.92,0.956
				c-0.555,0.066-1.094,0.13-1.617,0.193C39.11,24.561,35.643,25.539,32.244,25.57"/>
		</g>
	</g>
</g>
<g>
	<g>
		<g>
			<path fill="#D3A476" d="M35.131,24.083c0.698-1.125,1.639-2.271,2.95-3.089c1.282-0.831,2.826-1.352,4.32-1.466
				c0.252-0.038,0.466-0.069,0.688-0.102c1.039-0.212,2.169-0.444,3.506-0.717c0.911-0.2,3.478-0.822,7.063-1.296
				c1.79-0.244,3.825-0.454,6.009-0.656c2.196-0.18,4.525-0.515,6.813-0.659c4.611-0.333,9.422,0.018,13.151,1.515
				c1.868,0.716,3.402,1.731,4.571,2.702c0.571,0.507,1.085,0.969,1.455,1.457c0.391,0.466,0.718,0.871,0.91,1.265
				c-0.386-0.926-1.352-2.232-2.942-3.538c-1.586-1.307-3.86-2.502-6.553-3.239c2.896,0.686,5.473,1.928,7.293,3.405
				c1.865,1.435,2.92,3.047,3.486,4.059c-0.417-0.996-1.338-2.609-3.117-4.139c-1.736-1.56-4.293-3.011-7.323-3.823
				c-3.02-0.869-6.439-1.124-9.874-1.06c-1.716,0.041-3.461,0.162-5.156,0.316c-1.692,0.146-3.396,0.234-5.066,0.36
				c1.379-0.132,2.815-0.269,4.281-0.409c1.452-0.159,2.957-0.333,4.493-0.438c3.049-0.198,6.174-0.199,9.079,0.287
				c2.902,0.47,5.562,1.419,7.567,2.628c0.517,0.275,0.963,0.613,1.386,0.924c0.429,0.303,0.813,0.608,1.137,0.935
				c0.332,0.314,0.635,0.604,0.896,0.88c0.24,0.297,0.448,0.569,0.62,0.814c-0.674-1.293-2.596-3.344-5.734-4.851
				c-3.103-1.586-7.291-2.361-11.618-2.457c-2.153-0.047-4.418,0.072-6.586,0.258c-2.137,0.189-4.323,0.291-6.496,0.465
				c-4.339,0.336-8.552,0.887-12.108,1.875c-0.568,0.16-1.121,0.319-1.652,0.504c-1.545,0.715-3.125,1.66-4.488,2.882
				C36.721,20.878,35.651,22.437,35.131,24.083"/>
		</g>
	</g>
</g>
<g>
	<g>
		<g>
			<path fill="#D3A476" d="M34.986,33.451c2,0.626,4.912,0.432,7.343,1.141c0.212,0.041,0.39,0.075,0.573,0.11
				c0.827,0.105,1.792,0.144,2.913,0.138c0.747,0.004,2.841-0.207,5.562,0.03c1.355,0.128,2.883,0.356,4.398,0.912
				c0.377,0.139,0.746,0.311,1.132,0.468l0.144,0.061l0.019,0.008l0.009,0.004c0.018,0.01-0.119-0.076-0.058-0.037l0.036,0.021
				l0.072,0.043l0.288,0.171l0.58,0.347c0.773,0.467,1.602,0.915,2.237,1.491c2.81,2.136,5.192,5.163,6.984,7.763
				c1.791,2.637,3.151,4.872,3.735,6.177c-0.508-1.597-2.152-4.687-4.62-8.309c1.417,1.86,2.604,3.684,3.589,5.205
				c0.957,1.545,1.753,2.765,2.11,3.649c-0.228-0.882-0.9-2.093-1.759-3.66c-0.89-1.541-1.989-3.417-3.387-5.399
				c-0.66-1.011-1.495-1.991-2.294-3.025c-0.434-0.495-0.9-0.979-1.358-1.473l-0.695-0.741l-0.794-0.684
				c-0.534-0.446-1.058-0.931-1.608-1.339l-1.703-1.097c-1.199-0.795-2.5-1.267-3.797-1.643c1.109,0.263,2.157,0.638,3.34,1.214
				c0.499,0.3,1.003,0.602,1.51,0.906c0.509,0.299,1.019,0.596,1.5,1.02l1.47,1.19c0.498,0.396,0.879,0.855,1.32,1.28
				c0.882,0.846,1.632,1.761,2.351,2.649c1.431,1.782,2.593,3.52,3.515,4.989c0.929,1.459,1.586,2.688,1.939,3.508
				c-0.295-1.083-1.155-2.829-2.467-5.021c-1.348-2.163-3.049-4.856-5.546-7.343c-0.585-0.64-1.363-1.232-2.057-1.848
				c-0.719-0.673-1.432-1.033-2.153-1.527c-1.575-1.113-3.398-1.78-5.165-2.208c-3.565-0.832-6.971-0.749-9.806-0.625
				c-0.454,0.023-0.896,0.045-1.324,0.066C40.5,32.544,37.712,33.415,34.986,33.451"/>
		</g>
	</g>
</g>
<g>
	<g>
		<g>
			<path fill="#D3A476" d="M25.259,33.736c0.379-0.824,0.629-1.84,0.883-2.905c0.127-0.533,0.261-1.077,0.424-1.614
				c0.178-0.52,0.384-1.027,0.639-1.497c0.072-0.159,0.119-0.308,0.187-0.446c0.128-0.309,0.244-0.645,0.345-1.013
				c0.051-0.184,0.098-0.376,0.141-0.577c0.069-0.185,0.136-0.378,0.198-0.581c0.042-0.135,0.094-0.333,0.154-0.588
				c0.032-0.127,0.057-0.272,0.101-0.424c0.06-0.145,0.125-0.302,0.194-0.471c0.142-0.337,0.28-0.731,0.465-1.159
				c0.245-0.408,0.511-0.853,0.796-1.328c0.072-0.121,0.144-0.244,0.218-0.368l0.285-0.35c0.193-0.238,0.392-0.482,0.595-0.731
				c0.205-0.252,0.414-0.509,0.626-0.771c0.162-0.204,0.483-0.497,0.723-0.747c0.263-0.277,0.521-0.499,0.782-0.722
				c0.264-0.227,0.521-0.468,0.826-0.678c0.579-0.454,1.212-0.854,1.861-1.246c2.634-1.519,5.78-2.282,8.458-2.514
				c2.688-0.228,4.914-0.026,6.061,0.337c-1.287-0.63-4.294-1.062-8.021-0.627c3.953-0.667,7.434-0.389,8.959,0.099
				c-1.378-0.683-4.735-1.182-8.905-0.693c-2.072,0.26-4.345,0.804-6.48,1.827c-1.08,0.48-2.09,1.127-3.063,1.798
				c-0.975,0.751-1.825,1.448-2.609,2.328c1.218-1.439,2.847-2.82,4.684-3.889c1.832-1.082,3.881-1.795,5.815-2.229
				c3.896-0.851,7.269-0.65,8.773-0.211c-0.905-0.434-2.617-0.722-4.867-0.717c-2.238,0.015-5.062,0.356-7.917,1.458
				c-1.422,0.545-2.85,1.261-4.149,2.182c-1.358,0.971-2.508,1.939-3.516,3.142c-0.508,0.586-1.057,1.103-1.463,1.779
				c-0.216,0.319-0.43,0.636-0.642,0.95l-0.313,0.468l-0.242,0.515c-0.694,1.335-1.104,2.725-1.333,3.981
				c-0.063,0.403-0.124,0.794-0.183,1.174C24.863,28.999,25.451,31.41,25.259,33.736"/>
		</g>
	</g>
</g>
<g>
	<g>
		<g>
			<path fill="#D3A476" d="M60.938,23.601c2.576,0.797,4.471,4.043,5.025,7.05c0.064,0.255,0.119,0.471,0.176,0.695
				c0.295,0.987,0.681,2.134,1.168,3.489c0.326,0.899,1.341,3.399,2.423,6.896c0.548,1.75,1.104,3.721,1.666,5.876
				c0.285,1.071,0.579,2.172,0.878,3.292c0.22,1.116,0.444,2.249,0.669,3.387c0.792,4.623,1.109,9.453,1.193,13.534
				c0.08,4.085-0.058,7.436-0.361,9.208c0.566-2.012,0.872-6.507,0.795-12.111c0.279,5.976,0.163,11.132-0.235,13.487
				c0.602-2.151,0.912-7.134,0.812-13.307c-0.028-1.542-0.084-3.158-0.213-4.818c-0.081-1.661-0.297-3.363-0.494-5.083
				c-0.078-0.859-0.267-1.725-0.402-2.589c-0.162-0.858-0.264-1.742-0.479-2.577c-0.401-1.682-0.802-3.357-1.194-4.999
				c0.71,2.716,1.577,5.596,2.089,8.69c0.292,1.529,0.446,3.057,0.663,4.569c0.146,1.511,0.28,3.002,0.381,4.441
				c0.341,5.759,0.201,10.653-0.186,12.925c0.39-1.366,0.654-3.886,0.746-7.146c0.108-3.254,0.027-7.264-0.405-11.556
				c-0.132-1.077-0.201-2.154-0.399-3.271c-0.188-1.11-0.378-2.231-0.568-3.357c-0.513-2.146-1.029-4.306-1.536-6.429
				c-1.078-4.269-2.345-8.335-3.753-11.739c-0.223-0.546-0.454-1.073-0.686-1.582c-0.869-1.458-1.925-2.946-3.177-4.285
				C64.29,24.987,62.735,23.729,60.938,23.601"/>
		</g>
	</g>
</g>
<g>
	<g>
		<g>
			<path fill="#D3A476" d="M27.271,36.873c-0.484-0.575-1.194-1.043-1.875-1.592c-0.311-0.298-0.618-0.602-0.896-0.92
				c-0.139-0.159-0.27-0.321-0.39-0.488c-0.112-0.185-0.209-0.386-0.294-0.585c-0.074-0.125-0.134-0.227-0.195-0.331
				c-0.157-0.215-0.34-0.429-0.554-0.643c-0.205-0.223-0.402-0.482-0.653-0.725c-0.329-0.324-1.375-1.143-2.396-2.602
				c-1.04-1.427-2.023-3.561-2.149-5.948c-0.17-2.376,0.59-4.869,1.779-6.629c1.15-1.808,2.654-2.839,3.545-3.14
				c-0.566,0.1-1.424,0.41-2.25,1.149c-0.433,0.348-0.914,0.744-1.306,1.283c-0.208,0.263-0.422,0.534-0.643,0.812
				c-0.227,0.277-0.368,0.622-0.56,0.947c0.3-0.756,0.764-1.386,1.185-1.992c0.386-0.635,0.94-1.072,1.37-1.531
				c0.429-0.464,0.92-0.764,1.335-1.025c0.418-0.257,0.785-0.446,1.089-0.554c-0.312,0.047-0.69,0.18-1.125,0.386
				c-0.424,0.22-0.958,0.451-1.42,0.882c-0.987,0.783-2.086,1.931-2.896,3.463c-0.896,1.485-1.368,3.385-1.484,5.296
				c-0.146,1.932,0.341,3.884,1.038,5.585c-1.481-2.725-1.717-6.734-0.534-9.87c0.324-0.759,0.671-1.49,1.05-2.139
				c0.434-0.612,0.838-1.198,1.256-1.681c0.915-0.896,1.689-1.576,2.348-1.777c-0.434,0.077-0.972,0.301-1.528,0.738
				c-0.574,0.416-1.25,0.943-1.831,1.719c-0.291,0.384-0.662,0.746-0.909,1.226c-0.267,0.465-0.537,0.958-0.808,1.471
				c-0.229,0.533-0.411,1.11-0.613,1.691c-0.222,0.577-0.261,1.22-0.39,1.847c-0.368,2.546,0.096,5.329,1.196,7.645
				c1.083,2.338,2.723,4.187,4.263,5.538c0.261,0.199,0.515,0.393,0.761,0.58c0.437,0.202,0.863,0.42,1.335,0.588
				c0.479,0.152,0.963,0.307,1.433,0.457c0.461,0.175,0.927,0.276,1.388,0.4C26.401,36.535,26.847,36.688,27.271,36.873"/>
		</g>
	</g>
</g>
<g>
	<g>
		<g>
			<path fill="#D3A476" d="M22.889,36.871c-0.305-0.497-0.684-0.96-1.244-1.354c-0.271-0.205-0.557-0.433-0.841-0.669
				c-0.281-0.212-0.558-0.454-0.82-0.745c-0.093-0.083-0.177-0.149-0.267-0.217c-0.406-0.241-0.925-0.401-1.549-0.509
				c-0.417-0.036-1.61-0.04-3.138,0.211c-1.525,0.281-3.379,0.834-5.073,1.75c-1.704,0.897-3.188,2.172-4.199,3.425
				c-0.241,0.325-0.475,0.629-0.703,0.911c-0.186,0.31-0.363,0.598-0.54,0.857c-0.388,0.502-0.579,0.979-0.875,1.26
				c0.791-0.602,1.685-2.081,3.248-3.482c-1.572,1.637-2.192,3.422-2.885,4.165c0.882-0.614,1.609-2.231,3.231-3.691
				c1.542-1.518,3.994-2.709,6.456-3.23c-2.029,0.561-4.156,1.71-5.578,3.017c-1.475,1.283-2.168,2.698-2.832,3.274
				c1.093-0.579,2.206-2.514,4.712-3.826c2.407-1.362,5.888-2.021,8.396-1.606c0.202,0.028,0.397,0.055,0.586,0.081
				c0.589-0.038,1.294-0.177,1.946-0.122C21.603,36.365,22.302,36.572,22.889,36.871"/>
		</g>
	</g>
</g>
<g>
	<g>
		<g>
			<path fill="#D3A476" d="M18.074,32.493c-0.257-0.477-0.652-0.864-1.087-1.265c-0.456-0.382-0.935-0.847-1.337-1.41
				c-0.074-0.083-0.141-0.15-0.212-0.218c-0.324-0.271-0.754-0.49-1.306-0.616c-0.36-0.089-1.422-0.226-2.849-0.123
				c-1.414,0.091-3.22,0.46-4.772,1.373c-1.573,0.888-2.723,2.283-3.438,3.526c-0.755,1.237-1.17,2.329-1.661,2.844
				c0.78-0.515,1.432-1.928,2.637-3.368c-1.155,1.652-1.562,3.329-2.232,3.985c0.856-0.53,1.414-2.095,2.645-3.573
				c0.579-0.767,1.375-1.434,2.292-1.986c0.922-0.56,2.04-0.838,3.135-0.987c-1.862,0.306-3.632,1.43-4.656,2.713
				c-1.031,1.31-1.599,2.67-2.192,3.246c1.041-0.567,1.888-2.587,3.755-3.786c0.917-0.616,2.12-1.032,3.414-1.149
				c1.289-0.124,2.62,0.019,3.736,0.285c0.179,0.04,0.35,0.099,0.517,0.147C15.584,32.032,16.981,31.969,18.074,32.493"/>
		</g>
	</g>
</g>
<g>
	<g>
		<g>
			<path fill="#D3A476" d="M26.436,37.754c-0.895-0.512-2.003-0.382-3.049-1.135c-0.087-0.046-0.162-0.082-0.241-0.116
				c-0.342-0.111-0.753-0.15-1.22-0.1c-0.313,0.04-1.186,0.269-2.358,0.651c-1.169,0.395-2.652,0.959-4.015,1.81
				c-1.375,0.835-2.52,2.011-3.25,3.114c-0.769,1.09-1.193,2.076-1.686,2.528c0.774-0.441,1.45-1.689,2.644-2.919
				c-1.152,1.439-1.581,2.937-2.247,3.511c0.85-0.451,1.424-1.823,2.635-3.076c0.564-0.661,1.342-1.222,2.193-1.748
				c0.87-0.504,1.869-0.879,2.855-1.192c-1.63,0.631-3.297,1.652-4.309,2.776c-1.011,1.133-1.568,2.288-2.158,2.774
				c1.041-0.471,1.84-2.079,3.668-3.183c1.791-1.176,4.666-1.853,6.877-2.166c0.178-0.025,0.351-0.049,0.518-0.073
				C24.277,38.702,25.374,37.933,26.436,37.754"/>
		</g>
	</g>
</g>
<g>
	<g>
		<g>
			<path fill="#D3A476" d="M28.801,35.04c0.343-0.81,0.665-1.72,0.989-2.688c0.421-0.927,0.762-1.919,1.251-2.881
				c0.506-0.957,0.977-1.945,1.627-2.818c0.314-0.44,0.597-0.893,0.945-1.292c0.353-0.397,0.708-0.779,1.063-1.14
				c0.23-0.252,0.411-0.487,0.644-0.699c0.482-0.491,0.96-1.056,1.507-1.647c0.591-0.552,1.149-1.221,1.848-1.854
				c0.467-0.42,1.291-1.284,2.574-2.294c0.604-0.553,1.406-1.026,2.225-1.638c0.424-0.285,0.893-0.543,1.366-0.835
				c0.239-0.144,0.482-0.29,0.729-0.439c0.258-0.13,0.521-0.263,0.787-0.397c4.209-2.267,10.262-3.879,16.541-3.704
				c3.131,0.078,6.297,0.589,9.236,1.505c2.94,0.91,5.644,2.23,7.912,3.753c4.591,3.047,7.16,6.922,8.081,9.054
				c-0.417-1.291-1.483-3.225-3.311-5.353c-1.821-2.124-4.496-4.358-7.873-6.106c1.835,0.867,3.473,1.96,4.968,3.051
				c0.704,0.6,1.411,1.158,2.042,1.749c0.603,0.621,1.21,1.192,1.729,1.792c2.133,2.37,3.241,4.723,3.849,6.181
				c-0.232-0.691-0.569-1.617-1.114-2.672c-0.293-0.514-0.622-1.07-0.984-1.664c-0.368-0.59-0.846-1.16-1.316-1.792
				c-1.969-2.441-4.886-5.091-8.672-7.032c-1.863-1.021-3.953-1.8-6.126-2.479c-2.2-0.588-4.495-1.082-6.852-1.254
				c-2.351-0.175-4.745-0.207-7.099,0.083c-2.354,0.251-4.675,0.711-6.871,1.417c7.215-2.522,16.734-2.521,24.172,0.493
				c3.727,1.438,6.909,3.488,9.212,5.594c0.606,0.493,1.092,1.062,1.579,1.563c0.238,0.255,0.469,0.503,0.693,0.743
				c0.2,0.259,0.394,0.51,0.581,0.751c0.368,0.486,0.705,0.934,0.994,1.351c0.26,0.439,0.484,0.837,0.67,1.19
				c-0.725-1.789-2.774-4.852-6.454-7.657c-1.8-1.445-4.037-2.729-6.534-3.826c-2.498-1.098-5.302-1.934-8.258-2.389
				c-5.905-0.955-12.406-0.437-18.191,1.58c-5.791,2.018-10.743,5.545-14.019,9.385c-0.567,0.577-0.99,1.249-1.47,1.839
				C30.942,25.465,29.644,30.469,28.801,35.04"/>
		</g>
	</g>
</g>
<g>
	<g>
		<g>
			<path fill="#D3A476" d="M74.494,22.338c0.005,1.203,0.226,2.606,0.438,4.076c0.106,0.735,0.21,1.486,0.284,2.236
				c0.027,0.751,0.012,1.498-0.055,2.218c-0.002,0.246-0.004,0.453-0.006,0.667c0.04,0.955,0.195,2.049,0.434,3.334
				c0.093,1.75,2.233,9.618,1.482,18.193c-0.314,4.229-1.064,8.573-1.606,12.245c-0.598,3.672-0.871,6.71-1.221,8.331
				c0.572-1.843,1.183-5.857,2.138-10.839c-0.402,2.677-0.757,5.165-0.988,7.255c-0.157,1.042-0.232,1.987-0.314,2.806
				c-0.09,0.817-0.196,1.507-0.321,2.042c0.174-0.488,0.329-1.132,0.468-1.908c0.142-0.775,0.236-1.683,0.441-2.696
				c0.322-2.031,0.746-4.492,1.246-7.226c0.496-2.727,1.025-5.747,1.415-8.86c0.071-0.788,0.143-1.581,0.214-2.375
				c0.075-0.795,0.14-1.589,0.131-2.37c0.011-0.784,0.022-1.566,0.034-2.343c-0.014-0.817-0.09-1.567-0.131-2.343
				c0.06,0.637,0.12,1.287,0.182,1.946c0.032,0.702,0.025,1.339,0.039,2.025c-0.001,0.678,0.038,1.354,0.002,2.05
				c-0.042,0.7-0.084,1.404-0.126,2.108c-0.188,2.823-0.589,5.581-0.98,8.152c-0.203,1.276-0.398,2.503-0.583,3.659
				c-0.168,1.15-0.34,2.227-0.513,3.207c-0.243,1.957-0.578,3.529-0.772,4.531c0.111-0.3,0.211-0.661,0.311-1.078
				c0.125-0.418,0.246-0.894,0.365-1.419c0.221-1.088,0.476-2.335,0.759-3.727c0.534-2.834,1.285-6.332,1.834-10.199
				c0.299-1.892,0.486-4.031,0.599-6.051l0.049-2.998c-0.062-1.034-0.124-2.066-0.185-3.088c-0.064-1.001-0.128-1.993-0.191-2.969
				c-0.059-0.976-0.254-1.926-0.369-2.859c-0.295-1.862-0.439-3.646-0.854-5.266c-0.11-0.521-0.219-1.027-0.323-1.518
				C76.918,28.363,75.329,25.395,74.494,22.338"/>
		</g>
	</g>
</g>
<g>
	<g>
		<g>
			<path fill="#D3A476" d="M93.901,19.725c-0.439,2.359-0.239,5.665-1.199,8.382c-0.057,0.238-0.105,0.438-0.154,0.645
				c-0.144,0.937-0.34,2.033-0.431,3.335c-0.02,0.435-0.069,1.258-0.165,2.38c-0.046,0.561-0.077,1.2-0.145,1.899
				c-0.084,0.698-0.175,1.458-0.271,2.271c-0.433,3.243-1.247,7.302-2.604,11.311c-1.335,4.014-3.215,7.952-5.17,11.065
				c-0.513,0.763-1.002,1.49-1.462,2.173c-0.476,0.673-0.976,1.262-1.417,1.811c-0.873,1.108-1.729,1.891-2.351,2.399
				c1.629-0.954,4.387-4.011,6.999-8.361c-2.585,4.765-5.678,8.355-7.374,9.674c1.715-1.046,4.918-4.383,7.776-9.233
				c2.927-4.801,5.311-11.107,6.623-17.094c-0.885,5.013-2.812,10.745-5.206,15.431c-2.361,4.71-5.216,8.273-6.843,9.623
				c0.572-0.341,1.231-0.96,2-1.777c0.38-0.411,0.808-0.856,1.22-1.373c0.406-0.521,0.833-1.088,1.278-1.693
				c1.734-2.448,3.629-5.622,5.139-9.25c1.538-3.612,2.774-7.62,3.589-11.551c0.811-3.933,1.271-7.774,1.396-11.073
				c0.038-0.527,0.065-1.04,0.065-1.539C94.942,26.147,94.176,22.836,93.901,19.725"/>
		</g>
	</g>
</g>
<g>
	<g>
		<g>
			<path fill="#D3A476" d="M65.999,19.769c1.737,0.833,4.355,1.199,6.027,2.714c0.149,0.103,0.285,0.179,0.409,0.289
				c0.291,0.208,0.611,0.412,0.968,0.61c0.179,0.099,0.366,0.197,0.564,0.293c0.185,0.117,0.375,0.239,0.574,0.365
				c0.524,0.332,2.161,1.05,3.874,2.81c0.471,0.393,0.881,0.907,1.312,1.451c0.22,0.27,0.445,0.545,0.674,0.826
				c0.042,0.049,0.151,0.188,0.138,0.166l0.155,0.246l0.314,0.498c0.229,0.341,0.401,0.666,0.56,0.99
				c0.167,0.329,0.353,0.652,0.489,1.027c0.318,0.72,0.566,1.489,0.8,2.272c0.869,3.167,1.01,6.64,1.129,9.546
				c0.091,2.92,0.239,5.313,0.166,6.639c0.148-0.771,0.209-1.954,0.229-3.438c0.037-1.486,0.064-3.279,0.043-5.275
				c0.108,2.128,0.208,4.093,0.292,5.748c0.075,1.65,0.214,2.968,0.166,3.839c0.16-0.82,0.13-2.082,0.145-3.695
				c-0.007-1.61,0.008-3.571-0.028-5.767c-0.048-2.19-0.14-4.63-0.646-7.099c-0.223-1.236-0.622-2.458-1.069-3.644
				c-0.276-0.577-0.519-1.203-0.831-1.721l-0.458-0.79c-0.166-0.311-0.363-0.515-0.542-0.775c1.271,1.59,2.272,3.672,2.891,5.851
				c0.626,2.179,0.873,4.431,1.021,6.487c0.139,2.061,0.178,3.938,0.206,5.492c0.026,1.553,0.041,2.787-0.048,3.594
				c0.244-0.989,0.337-2.719,0.394-4.995c0.035-2.276,0.108-5.133-0.334-8.297c-0.224-1.573-0.573-3.224-1.197-4.821
				c-0.127-0.397-0.331-0.812-0.516-1.219c-0.187-0.418-0.377-0.818-0.575-1.133l-0.295-0.51l-0.146-0.254l-0.037-0.063
				l-0.009-0.016l-0.046-0.08l-0.006-0.008l-0.023-0.032l-0.093-0.126l-0.74-1.004c-1.945-2.681-4.587-4.742-7.086-5.859
				c-0.402-0.171-0.794-0.338-1.174-0.499C71.16,19.858,68.443,20.002,65.999,19.769"/>
		</g>
	</g>
</g>
<path fill-rule="evenodd" clip-rule="evenodd" fill="#CEA66F" d="M4.141,72.024c5.237-6.3,11.378-6.863,18.08-4.401
	c1.071,0.394,1.812,0.569,2.137-0.665c0.31-1.18,0.773-2.516-0.745-3.295c-4.269-2.19-8.693-2.514-13.155-0.752
	C6.705,64.392,4.234,66.954,4.141,72.024z"/>
<path fill-rule="evenodd" clip-rule="evenodd" fill="#CEA66F" d="M57.028,71.812c-5.73-6.892-12.448-7.509-19.782-4.816
	c-1.171,0.432-1.983,0.625-2.338-0.727c-0.337-1.291-0.845-2.754,0.815-3.605c4.67-2.396,9.512-2.75,14.394-0.823
	C54.224,63.46,56.929,66.263,57.028,71.812z"/>
<path opacity="0.4" fill-rule="evenodd" clip-rule="evenodd" fill="#FAAFA3" d="M17.615,94.495c6.238-6.837,7.991-15.057,7.3-24.03
	C22.955,78.622,19.292,86.251,17.615,94.495z"/>
<g>
	<path fill-rule="evenodd" clip-rule="evenodd" fill="#FBB0A1" d="M26.662,110.071c4.691,0.434,9.381,0.857,14.074,1.302
		c1.509,0.144,3.441,0.261,2.146,2.493c-3.115,5.365-6.771,10.281-13.342,11.822c-8.49,1.995-12.842-2.655-17.169-9.482
		c-1.279-2.017-3.592-4.765-2.169-6.856c1.289-1.896,4.475-0.216,6.808-0.124C20.233,109.352,23.445,109.774,26.662,110.071z"/>
	<path fill-rule="evenodd" clip-rule="evenodd" fill="#FEFDFD" d="M39.775,113.602c-3.94,6.272-9.284,8.972-15.344,8.082
		c-4.105-0.602-10.378-6.067-10.825-9.343c-0.149-1.105,0.61-1.087,1.494-1.005C23.202,112.073,31.305,112.822,39.775,113.602z"/>
</g>
</svg>
