<?xml version="1.0" encoding="utf-8"?>
<!-- Generator: Adobe Illustrator 16.0.4, SVG Export Plug-In . SVG Version: 6.00 Build 0)  -->
<!DOCTYPE svg PUBLIC "-//W3C//DTD SVG 1.1//EN" "http://www.w3.org/Graphics/SVG/1.1/DTD/svg11.dtd">
<svg version="1.1" id="Layer_1" xmlns="http://www.w3.org/2000/svg" xmlns:xlink="http://www.w3.org/1999/xlink" x="0px" y="0px"
	 width="100px" height="140px" viewBox="0 0 100 140" enable-background="new 0 0 100 140" xml:space="preserve">
<ellipse fill-rule="evenodd" clip-rule="evenodd" fill="#A7806C" cx="49.356" cy="57.2" rx="43.625" ry="48.89"/>
<g>
	<g>
		<path fill="#A7806C" d="M79.764,23.935c6.586-0.039,6.945,9.058,7.149,13.901c0.189,4.513-0.065,9.039-0.049,13.554
			c0.016,4.341,1.17,8.643,0.51,12.979c1.089-0.143,2.178-0.285,3.267-0.427c-1.103-1.608-1.303-3.499-1.806-5.333
			c-0.835-3.047-2.336-5.968-3.415-8.937c-2.021-5.558-0.246-11.7,0.103-17.398c-1.17,0.158-2.34,0.317-3.511,0.475
			c0.562,3.483,1.054,6.977,1.573,10.467c0.588,3.955,1.983,8.095,1.938,12.095c-0.026,2.306,3.548,2.304,3.574,0
			c0.037-3.24-0.947-6.394-1.509-9.569c-0.818-4.628-1.379-9.302-2.129-13.942c-0.338-2.093-3.395-1.425-3.511,0.475
			c-0.381,6.221-1.875,12.239,0.024,18.349c0.944,3.036,2.345,5.941,3.415,8.936c0.762,2.13,0.856,4.276,2.167,6.186
			c0.771,1.124,3.011,1.25,3.267-0.427c0.803-5.272-0.37-10.561-0.39-15.866c-0.021-5.514,0.334-11.009-0.335-16.499
			c-0.738-6.056-3.29-12.636-10.333-12.595C77.459,20.374,77.458,23.948,79.764,23.935L79.764,23.935z"/>
	</g>
</g>
<g>
	<g>
		<path fill="#A07862" d="M10.059,48.957c0.438-3.891,1.745-7.613,2.518-11.44c0.455-2.25-2.991-3.209-3.447-0.95
			C8.291,40.72,6.96,44.731,6.484,48.957C6.227,51.246,9.804,51.221,10.059,48.957L10.059,48.957z"/>
	</g>
</g>
<g>
	<g>
		<path fill="#A07862" d="M16.306,21.398c-6.003,4.185-8.835,11.675-10.456,18.54C3.52,49.815,6.892,58.372,10.52,67.504
			c0.762,1.917,3.278,1.564,3.511-0.475c0.944-8.274,0.579-16.569-0.397-24.823c-0.267-2.26-3.845-2.287-3.574,0
			c0.976,8.254,1.341,16.549,0.397,24.823c1.17-0.158,2.34-0.317,3.511-0.475c-2.99-7.526-6.303-14.928-5.138-23.19
			c0.924-6.551,3.608-14.924,9.281-18.878C19.986,23.177,18.202,20.077,16.306,21.398L16.306,21.398z"/>
	</g>
</g>
<g>
	<g>
		<path fill="#A07862" d="M18.201,26.716c-5.646-0.371-6.878,7.063-7.605,11.202C9.222,45.731,6.218,53.172,9.129,60.95
			c0.801,2.138,4.257,1.213,3.447-0.95c-2.372-6.336-0.077-11.052,0.873-17.263c0.403-2.634,0.904-12.7,4.751-12.447
			C20.503,30.441,20.489,26.866,18.201,26.716L18.201,26.716z"/>
	</g>
</g>
<path fill-rule="evenodd" clip-rule="evenodd" fill="#F4D2C6" d="M86.271,52.333c1.436,5.063,1.867,7,0.169,24.827
	c-0.453,4.775,1.671,4.713,4.773,3.714c0.398,6.017-1.357,11.901-0.866,17.95c0.225,2.741,0.25,5.398,2.052,7.587
	c-0.145,1.397-0.839,2.94-2.111,2.439c-5.081-2-5.676,1.796-7,5.429c-4.066,11.171-16.9,21.916-22.224,23.193
	c-12.763,1.811-21.719,3.655-29.557-4.632c-6.106-6.456-14.812-13.872-16.617-23.232c-0.966-5.01-3.275,0.304-4.749-0.737
	c-0.924-6.497,0.133-13.124-1.419-19.638c-0.735-3.087-2.216-3.454-4.52-3.281c0.577-6.775,1.451-7.336,8.441-4.735
	c0-9.704,0-19.165,0-28.625c1.652-15.691,8.707-27.302,21.975-34.675c22.064-12.261,46.7,6.507,50.547,27.176
	c0.191,1.031,0.213,2.1,0.26,2.23"/>
<path fill-rule="evenodd" clip-rule="evenodd" fill="#E2BAB0" d="M83.848,114.279c-4.068,11.171-16.903,21.916-22.224,23.193
	c-12.765,1.811-21.721,3.655-29.559-4.632c-6.106-6.456-14.812-13.872-16.617-23.232L83.848,114.279z"/>
<path fill-rule="evenodd" clip-rule="evenodd" fill="#A7806C" d="M86.096,21.944c0,10.083,0,20.165,0,31.088
	c-2.071-5.553-3.146-10.793-6.002-15.259C72.267,25.53,61.492,18.07,46.556,19.462c-14.824,1.381-24.275,10.591-30.188,23.725
	c-1.516,3.367-2.498,6.974-3.725,10.47c-0.031-7.931,0.074-15.866-0.152-23.792c-0.111-3.872,0.297-6.829,6.395-5.644
	c-2.702-3.238-5.595-2.939-8.134-4.542c4.475-3.051,9.824-2.438,14.481-4.204c-1.815-2.843-5.548-2.174-7.742-4.844
	c5.424-2.672,11.092-2.257,16.703-2.369c-0.362-2.517-2.979-2.229-3.819-4.362c6.492-0.245,12.227,2.227,18.425,3.863
	c0.512-3.12-2.625-4.597-3.146-7.133c5.566-0.146,8.426,6.961,12.505,6.297c4.326-0.703,7.949-5.54,12.977-6.543
	c0.503-0.101,1.08,0.164,1.697,0.271c-0.718,2.636-3.675,3.801-3.936,6.841c4.049,0.763,8.503-1.274,12.76,1.776
	c-3.12,1.149-5.829,2.146-9.371,3.451c5.648,1.845,10.938,1.514,16.611,4.576c-3.82,0-6.391,0-9.849,0
	C81.135,20.246,83.738,20.92,86.096,21.944z"/>
<path fill-rule="evenodd" clip-rule="evenodd" fill="#F3BDAE" d="M4.202,85.957c1.616-0.603,0.761-3.944,3.404-3.245
	c1.837,0.486,1.87,2.544,2.125,3.905c1.287,6.859,3.179,13.76,0.41,20.713c-5.276-3.156-5.649-8.48-5.979-13.758
	C4.005,91.045,4.178,88.497,4.202,85.957z"/>
<path fill-rule="evenodd" clip-rule="evenodd" fill="#F3BDAF" d="M92.398,105.036c-1.688,0.738-3.657,1.661-3.545-1.445
	c0.268-7.504-1.472-15.239,2.359-22.369c5.001,2.342,3.396,6.926,3.559,10.818C94.96,96.518,94.353,100.918,92.398,105.036z"/>
<g>
	<g>
		<path fill="#E2BAB0" d="M68.047,114.093c3.559,0.448,6.897,4.402,10.688,1.745c2.563-1.796,3.331-4.809,0.974-7.181
			c-2.202-2.216-6.472-0.267-8.789,0.587c-4.728,1.742-9.962,0.216-14.3,3.107c-1.056,0.703-1.258,2.43,0,3.086
			c4.042,2.109,7.315-2.105,10.3-4.263c1.4-1.012,3.13-0.522,4.716-0.412c1.266,0.088,2.387-0.558,3.471-1.084
			c2.808-1.363,3.456-5.351,5.523-7.428c-0.996-0.263-1.991-0.525-2.987-0.788c1.161,3.744-9.759,6.952-4.662,12.049
			c4.404,4.405,7.352-4.052,7.051-7.312c-0.174-1.876-3.094-2.589-3.511-0.476c-0.023,0.116-0.046,0.232-0.069,0.349
			c-0.444,2.252,3.001,3.211,3.447,0.951c0.022-0.117,0.046-0.233,0.068-0.35c-1.17-0.158-2.34-0.316-3.511-0.475
			c0.088,0.942,0.016,1.986-0.249,2.892c-0.484,1.653-0.314,0.467,0.355-0.266c0.556-0.607,1.211-1.142,1.82-1.692
			c1.983-1.79,3.562-3.862,2.707-6.622c-0.395-1.27-2.015-1.766-2.987-0.788c-1.17,1.175-1.947,2.465-2.713,3.936
			c-1.082,2.079-1.941,3.655-4.918,3.448c-0.953-0.066-1.943-0.338-2.9-0.1c-2.205,0.551-7.352,6.28-9.146,5.344
			c0,1.028,0,2.058,0,3.086c2.606-1.736,5.457-1.407,8.425-1.659c2.167-0.185,4.208-0.788,6.24-1.536
			c0.84-0.31,1.681-0.573,2.545-0.809c0.308,0.492,0.615,0.983,0.924,1.476c-1.195,0.387-2.344,0.193-3.445-0.58
			c-1.759-0.89-3.097-1.562-5.066-1.811C65.764,110.23,65.792,113.809,68.047,114.093L68.047,114.093z"/>
	</g>
</g>
<path fill-rule="evenodd" clip-rule="evenodd" fill="#F8AC9E" d="M42.568,98.06c-3.191,6.121,2.743,4.656,4.982,5.774
	c3.569,1.782,8.932-1.125,9.653-4.671c0.315-1.548,1.457-1.314,2.178-0.835c1.171,0.78,1.917,2.115,1.617,3.563
	c-0.275,1.324-0.875,2.544-2.447,3.032c-5.815,1.809-11.606,1.301-17.386-0.08c-1.504-0.359-2.276-1.495-2.317-3.046
	C38.788,99.519,39.584,97.975,42.568,98.06z"/>
<path fill-rule="evenodd" clip-rule="evenodd" fill="#FAAFA3" d="M51.771,78.843c3.758,5.09,4.111,10.764,2.607,16.755
	C53.871,89.951,52.065,84.526,51.771,78.843z"/>
<path fill-rule="evenodd" clip-rule="evenodd" fill="#FFFFFF" d="M73.23,77.023c-1.472,1.838-3.681,2.994-8.012,1.985
	c-4.188-0.977-6.381-2.773-5.656-5.009c0.693-2.146,3.286-3.007,7.631-2.049C71.597,72.923,72.826,74.872,73.23,77.023z"/>
<path fill-rule="evenodd" clip-rule="evenodd" fill="#60726A" d="M63.877,76.519c1.879-1.322,1.915-3.502,4.239-3.403
	c2.671,0.116,3.026,2.139,3.366,4.173c-1.212,1.308-2.373,0.097-3.539-0.056C66.891,77.096,65.849,76.869,63.877,76.519z"/>
<path fill-rule="evenodd" clip-rule="evenodd" fill="#FFFFFF" d="M42.669,75.044c-0.898,2.175-2.693,3.906-7.133,4.152
	c-4.294,0.238-6.904-0.872-6.835-3.222c0.065-2.254,2.312-3.809,6.75-4.105C39.95,71.564,41.677,73.093,42.669,75.044z"/>
<path fill-rule="evenodd" clip-rule="evenodd" fill="#60726A" d="M33.549,77.182c1.431-1.798,0.856-3.9,3.114-4.454
	c2.595-0.64,3.505,1.203,4.402,3.06c-0.797,1.595-2.251,0.76-3.413,0.94C36.603,76.89,35.541,76.967,33.549,77.182z"/>
<g>
	<g>
		<g>
			<path fill="#B18266" d="M14.095,40.615c-0.572,1.227-0.486,3.009-1.303,4.467c-0.051,0.13-0.092,0.236-0.134,0.344
				c-0.142,0.498-0.228,1.082-0.24,1.773c-0.001,0.92,0.267,5.263,0.481,9.83c0.125,2.279,0.252,4.601,0.407,6.561
				c0.049,0.981,0.088,1.873,0.14,2.628c0.031,0.756,0.007,1.38-0.088,1.826c0.211-0.52,0.31-1.318,0.324-2.316
				c-0.001-0.997,0.068-2.206,0.012-3.538c0.194,2.847,0.515,5.258,0.252,6.439c0.47-1.114,0.316-3.452,0.28-6.361
				c-0.056-2.905-0.1-6.375-0.071-9.608c0.136,2.708,0.293,5.84,0.426,8.498c0.078,1.346,0.186,2.58,0.182,3.625
				c0.042,1.038,0.059,1.875-0.073,2.43c0.552-1.366,0.368-4.731,0.399-8.727c0.008-4.021,0.017-8.644,0.023-12.066
				c0-0.28-0.001-0.552-0.001-0.815C14.803,44.003,14.131,42.286,14.095,40.615"/>
		</g>
	</g>
</g>
<g>
	<g>
		<g>
			<path fill="#B18266" d="M14.488,37.465c-1.159,1.242-2.045,3.32-3.449,4.898c-0.103,0.149-0.188,0.273-0.274,0.4
				c-0.333,0.608-0.724,1.317-0.96,2.262c-0.086,0.31-0.219,0.909-0.387,1.721c-0.119,0.829-0.261,1.886-0.339,3.092
				c-0.16,2.428,0.246,5.481,0.991,8.352c0.729,2.858,1.456,5.769,1.808,8.275c0.407,2.503,0.355,4.589,0.12,5.678
				c0.239-0.62,0.38-1.634,0.446-2.932c-0.028-1.289-0.12-2.866-0.373-4.589c0.212,0.906,0.299,1.804,0.427,2.642
				c0.095,0.842,0.249,1.629,0.235,2.36c0.03,1.457-0.019,2.631-0.177,3.361c0.256-0.666,0.399-1.787,0.458-3.231
				c0.056-0.725-0.03-1.515-0.095-2.371c-0.085-0.852-0.14-1.778-0.307-2.723c-0.306-1.899-0.702-3.958-1.164-6.039
				c-0.245-1.049-0.41-2.098-0.605-3.126c-0.12-0.517-0.154-1.04-0.182-1.561c-0.036-0.522-0.072-1.041-0.107-1.555
				c0.104,0.854,0.169,1.738,0.304,2.629c0.198,0.889,0.399,1.794,0.601,2.699c0.464,1.843,0.933,3.681,1.283,5.447
				c0.763,3.5,0.976,6.643,0.631,8.093c0.77-1.761,0.315-6.526-0.772-11.672c-0.569-2.641-1.09-5.152-1.08-7.718
				c-0.029-2.552,0.572-5.008,1.165-7.091c0.109-0.332,0.216-0.655,0.319-0.967C13.3,41.798,13.664,39.464,14.488,37.465"/>
		</g>
	</g>
</g>
<g>
	<g>
		<g>
			<path fill="#B18266" d="M17.263,34.098c-0.806,0.76-1.626,1.777-2.47,2.856c-0.79,1.122-1.722,2.248-2.615,3.287
				c-0.142,0.19-0.261,0.35-0.384,0.515c-0.506,0.772-1.075,1.706-1.503,2.926c-0.146,0.404-0.43,1.167-0.741,2.23
				c-0.124,0.542-0.265,1.156-0.419,1.832c-0.15,0.674-0.341,1.4-0.407,2.208c-0.583,3.168-0.427,7.24,0.272,11.189
				c0.453,2.032,1.182,3.902,1.852,5.713c0.687,1.808,1.25,3.546,1.615,5.216c0.394,1.647,0.441,3.177,0.514,4.498
				c0.043,1.315,0.14,2.407,0.157,3.193c0.073-0.917,0.06-2.291,0.061-4.027c-0.007-0.869-0.042-1.827-0.176-2.868
				c-0.17-1.021-0.388-2.112-0.693-3.25c0.361,1.208,0.666,2.366,0.867,3.496c0.197,1.148,0.25,2.209,0.321,3.18
				c0.104,1.938,0.31,3.461,0.437,4.467c-0.005-0.958-0.127-2.395-0.145-4.292c-0.025-0.952-0.037-2.001-0.181-3.195
				c-0.139-1.21-0.424-2.334-0.745-3.639c-0.683-2.523-1.802-5.125-2.442-7.812c-0.186-0.649-0.276-1.382-0.398-2.09
				c-0.068-0.667-0.104-1.404-0.159-2.104c-0.172-1.417-0.048-2.83-0.002-4.22c-0.09,2.304,0.081,4.799,0.519,7.238
				c0.478,2.372,1.478,4.695,2.271,6.975c0.406,1.135,0.755,2.276,1.008,3.385c0.127,0.516,0.24,1.029,0.342,1.533
				c0.074,0.54,0.17,1.101,0.196,1.562c0.144,1.915,0.139,3.344,0.099,4.276c0.105-0.572,0.154-1.354,0.188-2.355
				c0.025-1.009,0.036-2.232-0.184-3.759c-0.059-0.324-0.12-0.656-0.182-0.996c-0.078-0.371-0.157-0.75-0.238-1.138
				c-0.169-0.772-0.399-1.549-0.637-2.336c-0.486-1.578-1.073-3.16-1.539-4.779c-0.127-0.41-0.239-0.812-0.321-1.191
				c-0.088-0.397-0.206-0.75-0.265-1.222l-0.108-0.673l-0.055-0.338l-0.014-0.084l-0.003-0.021c0.002,0.021-0.008-0.062,0.005,0.044
				l0-0.01l-0.002-0.041l-0.011-0.163l-0.088-1.307c-0.206-1.749-0.066-3.51,0.009-5.248c0.361-3.464,1.363-6.724,2.449-9.437
				c0.196-0.426,0.386-0.841,0.571-1.243C14.636,39.494,15.733,36.576,17.263,34.098"/>
		</g>
	</g>
</g>
<g>
	<g>
		<g>
			<path fill="#B18266" d="M84.197,47.567c-0.634,1.146-0.484,2.92-0.89,4.531c-0.017,0.142-0.029,0.257-0.043,0.374
				c-0.018,0.539,0.074,1.131,0.263,1.81c0.121,0.447,0.634,1.644,1.218,3.182c0.288,0.701,0.562,1.701,0.877,2.651
				c0.153,0.489,0.31,0.992,0.469,1.501c0.166,0.511,0.236,1.023,0.357,1.546c0.996,4.167,1.176,8.781,0.645,10.384
				c0.496-0.922,0.765-3,0.624-5.577c0.072,0.685,0.133,1.348,0.179,1.974c0.025,0.626,0.028,1.214,0.02,1.751
				c-0.021,1.074-0.109,1.939-0.293,2.481c0.279-0.494,0.46-1.318,0.569-2.375c0.055-0.529,0.091-1.115,0.112-1.747
				c0.002-0.633-0.022-1.312-0.056-2.024c-0.044-0.711-0.09-1.454-0.137-2.221c-0.112-0.765-0.228-1.553-0.344-2.353
				c-0.191-1.609-0.629-3.158-1.019-4.663c0.193,0.619,0.396,1.261,0.6,1.916c0.099,0.33,0.212,0.657,0.298,0.999l0.219,1.047
				c0.267,1.4,0.613,2.848,0.705,4.166c0.126,1.325,0.246,2.563,0.22,3.594c-0.024,1.03-0.113,1.862-0.29,2.391
				c0.708-1.277,0.849-4.68,0.318-8.708c-0.152-1.001-0.274-2.067-0.493-3.07c-0.249-0.979-0.5-1.969-0.747-2.941
				c-0.515-2.039-1.234-3.855-1.683-5.397c-0.079-0.249-0.145-0.488-0.201-0.72C84.986,50.757,84.133,49.216,84.197,47.567"/>
		</g>
	</g>
</g>
<g>
	<g>
		<g>
			<path fill="#B18266" d="M84.595,22.539c-0.499,1.76-0.017,4.306-0.16,6.56c0.007,0.194,0.013,0.355,0.019,0.521
				c0.075,0.749,0.246,1.588,0.535,2.546c0.175,0.643,0.874,2.361,1.468,4.672c0.069,0.29,0.142,0.589,0.216,0.897l0.056,0.233
				l0.038,0.223c0.027,0.168,0.055,0.339,0.082,0.512c0.11,0.691,0.226,1.412,0.344,2.154c0.228,1.485,0.512,3.06,0.64,4.642
				c0.329,3.165,0.605,6.441,0.735,9.215c0.148,2.772,0.281,5.046,0.062,6.278c0.464-1.42,0.359-4.463,0.316-8.259
				c0.126,2.028,0.241,3.898,0.339,5.474c0.074,1.575,0.062,2.852-0.072,3.668c0.234-0.756,0.342-1.978,0.358-3.525
				c0.009-0.773-0.009-1.628-0.04-2.549c-0.002-0.926-0.021-1.917-0.053-2.957c-0.14-4.142-0.416-9.162-1.058-13.674
				c0.147,0.94,0.301,1.918,0.458,2.916c0.163,0.998,0.311,2.02,0.396,3.06c0.202,2.064,0.405,4.183,0.529,6.102
				c0.141,1.927,0.195,3.726,0.254,5.216c0.065,1.489,0.048,2.695-0.082,3.476c0.309-0.954,0.37-2.642,0.377-4.824
				c0.029-2.205-0.037-4.83-0.209-7.766c-0.098-1.449-0.142-2.971-0.318-4.452c-0.176-1.481-0.354-2.974-0.527-4.441
				c-0.372-3.109-1.355-5.896-2.081-8.199c-0.113-0.371-0.225-0.73-0.332-1.08C85.919,27.176,84.72,24.946,84.595,22.539"/>
		</g>
	</g>
</g>
<g>
	<g>
		<g>
			<path fill="#B18266" d="M18.391,25.985c-0.314-0.167-0.61-0.379-1.046-0.415c-0.435-0.089-0.888-0.035-1.352,0.06
				c-0.944,0.208-1.803,0.748-2.657,1.206c-0.136,0.088-0.251,0.171-0.372,0.26c-0.228,0.213-0.454,0.464-0.686,0.752
				c-0.203,0.292-0.417,0.621-0.604,0.988c-0.246,0.491-0.776,1.923-1.171,3.819c-0.416,1.897-0.713,4.261-0.925,6.659
				c-0.433,4.801-0.491,9.732-1.105,11.517c0.561-1.009,0.873-3.243,1.203-6.032c-0.167,2.995-0.31,5.558-0.694,6.739
				c1.152-2.121,1.209-9.939,2.593-16.55c-0.917,5.529-0.86,12.989-1.664,15.203c0.781-1.321,1.107-4.938,1.642-9.077
				c0.525-4.104,1.282-8.86,2.902-11.781c0.125-0.233,0.268-0.435,0.396-0.645c0.274-0.69,0.604-1.44,1.193-2.012
				C16.627,26.101,17.505,25.797,18.391,25.985"/>
		</g>
	</g>
</g>
<g>
	<g>
		<g>
			<path fill="#B18266" d="M16.039,24.791c-0.241,0.012-0.49,0.038-0.746,0.072c-0.259,0.023-0.517,0.081-0.784,0.191
				c-0.266,0.098-0.556,0.197-0.832,0.325c-0.263,0.146-0.529,0.293-0.798,0.442c-1.052,0.646-2.08,1.456-3.075,2.197
				c-0.164,0.143-0.3,0.261-0.44,0.383c-0.568,0.603-1.149,1.391-1.68,2.394c-0.338,0.672-1.192,2.609-1.838,5.312
				c-0.312,1.354-0.598,2.891-0.679,4.581c-0.096,1.527-0.167,3.334-0.101,5.035c0.102,3.452,0.577,6.954,1.448,9.805
				c0.41,1.435,0.998,2.667,1.533,3.696c0.593,1.001,1.183,1.775,1.626,2.322c-0.964-1.335-2.542-4.187-3.211-8.148
				c0.47,2.078,1.144,3.947,1.962,5.365c0.803,1.442,1.781,2.33,2.386,2.977c-0.487-0.698-1.365-1.559-2.068-2.976
				c-0.718-1.391-1.339-3.222-1.738-5.333c-0.818-4.226-0.9-9.45-0.233-14.207c-0.42,3.974-0.335,8.615,0.342,12.538
				c0.331,1.954,0.811,3.701,1.35,5.068c0.534,1.371,1.1,2.376,1.483,3.015c-0.342-0.879-1.061-2.282-1.592-4.368
				c-0.563-2.06-0.943-4.745-1.06-7.668c-0.05-1.458-0.044-2.989,0.042-4.495c0.033-0.74,0.122-1.498,0.193-2.35
				c0.046-0.713,0.151-1.451,0.296-2.175c0.556-2.916,1.619-5.67,2.821-7.81c0.206-0.334,0.406-0.659,0.6-0.973
				c0.488-1.003,1.007-2.125,1.802-3.065C13.825,25.989,14.816,25.162,16.039,24.791"/>
		</g>
	</g>
</g>
<g>
	<g>
		<g>
			<path fill="#B18266" d="M79.955,22.961c-0.095,0.756,0.062,1.488,0.052,2.138c0.023,0.625,0.048,1.258,0.072,1.911
				c-0.021,1.311-0.249,2.705-1.331,4.164c-0.13,0.231-0.227,0.423-0.319,0.62c-0.265,0.81-0.312,1.657-0.059,2.611
				c0.17,0.629,1.125,2.322,2.18,4.902c0.262,0.644,0.53,1.338,0.796,2.076c0.064,0.185,0.13,0.372,0.196,0.562l0.099,0.286
				l0.013,0.036l0.007,0.018l0.003,0.009c0.006,0.089-0.005-0.111-0.003-0.087l0.023,0.078l0.045,0.157
				c0.121,0.419,0.244,0.846,0.369,1.278c0.489,1.729,1.016,3.573,1.457,5.414c0.825,3.641,1.502,7.459,1.669,10.713
				c0.167,3.241-0.037,5.917-1.157,7.381c2.097-1.704,2.775-5.259,2.927-9.692c0.571,4.733,0.674,8.756-0.814,10.7
				c2.255-1.828,2.859-5.692,2.927-10.564c0.021-2.403-0.17-5.136-0.438-7.885c-0.278-2.769-0.758-5.441-1.188-8.191
				c0.655,2.274,1.305,4.582,1.89,6.999c0.516,2.43,0.97,4.941,1.247,7.22c0.274,2.249,0.379,4.344,0.252,6.085
				c-0.103,1.721-0.464,3.119-1.175,4.032c1.435-1.132,2.192-3.054,2.613-5.604c0.211-1.277,0.319-2.693,0.35-4.206
				c0.034-1.486-0.031-3.243-0.14-4.96c-0.056-0.87-0.124-1.752-0.203-2.642c-0.091-0.874-0.215-1.726-0.333-2.597l-0.382-2.604
				l-0.2-1.298l-0.025-0.162l-0.012-0.081l-0.004-0.02c-0.015-0.25-0.005-0.076-0.009-0.134l-0.002-0.011l-0.008-0.043l-0.063-0.349
				l-0.127-0.693c-0.703-3.685-1.706-7.18-2.79-10.199c-0.175-0.484-0.337-0.953-0.522-1.413c-1.171-1.167-2.675-2.256-4.095-3.22
				C82.326,24.735,80.944,23.851,79.955,22.961"/>
		</g>
	</g>
</g>
<g>
	<path fill-rule="evenodd" clip-rule="evenodd" fill="#A7806C" d="M84.529,23.339c0.596,1.39,1.986,1.788,3.178,1.985
		c0.993-2.184-1.987-3.972-2.78-1.985c-0.397,1.191,0.993,2.383,1.39,3.376c0.795,1.788,1.391,3.177,1.391,5.163
		c0.199,6.752-2.78,14.1,0.794,20.455c1.789-5.164,1.789-23.434-4.965-25.817c0.597,4.17,3.575,8.142,3.575,12.71"/>
</g>
<g>
	<g>
		<g>
			<path fill="#B18266" d="M62.826,14.635c-0.358-1.277-1.358-2.631-2.486-3.869c-1.138-1.253-2.431-2.448-3.58-3.653
				c-0.214-0.19-0.396-0.351-0.584-0.518c-0.882-0.7-1.989-1.439-3.418-2.124c-0.242-0.109-0.586-0.271-1.046-0.451
				c-0.231-0.087-0.487-0.184-0.767-0.289c-0.145-0.047-0.296-0.096-0.453-0.146L50.253,3.51L50.13,3.471l-0.062-0.02l-0.165-0.046
				l-0.015-0.003l-0.03-0.005C49.54,3.341,49.2,3.281,48.841,3.218c-0.18-0.031-0.364-0.063-0.553-0.096
				c-0.213-0.021-0.432-0.041-0.656-0.062c-0.448-0.032-0.925-0.093-1.399-0.098c-0.47,0.007-0.957,0.014-1.46,0.021
				c-4.019,0.239-8.866,1.842-12.559,5.285c-1.83,1.606-3.516,3.316-5.393,4.648c-1.898,1.313-3.85,2.495-5.594,3.602
				c-3.546,2.149-6.329,4.114-7.895,5.086c1.887-0.99,5.729-3.38,10.632-6.232c-2.548,1.628-4.939,3.107-6.879,4.43
				c-1.009,0.611-1.831,1.276-2.579,1.808c-0.747,0.534-1.395,0.964-1.924,1.269c0.521-0.237,1.161-0.6,1.901-1.07
				c0.752-0.456,1.546-1.089,2.56-1.647c0.996-0.581,2.045-1.286,3.236-1.981c1.189-0.708,2.459-1.463,3.793-2.256
				c1.322-0.818,2.733-1.606,4.14-2.639c1.37-1.033,2.664-2.195,3.962-3.332c0.649-0.567,1.312-1.117,1.993-1.633
				c0.334-0.281,0.688-0.48,1.031-0.725c0.332-0.245,0.707-0.462,1.1-0.665c1.483-0.825,3.103-1.444,4.726-1.831
				c-1.336,0.325-2.706,0.929-3.972,1.539c-1.375,0.733-2.482,1.553-3.651,2.541c-1.146,1.031-2.294,2.064-3.422,3.079
				c-1.161,1.007-2.439,2.002-3.684,2.761c-2.438,1.562-4.722,2.959-6.627,4.116c-1.849,1.207-3.415,2.084-4.364,2.695
				c0.32-0.142,0.688-0.334,1.099-0.573c0.443-0.232,0.923-0.483,1.445-0.756c1.063-0.573,2.257-1.324,3.704-2.109
				c1.418-0.803,2.984-1.723,4.657-2.725c0.427-0.26,0.818-0.484,1.291-0.788c0.442-0.304,0.89-0.612,1.344-0.924
				c0.862-0.66,1.711-1.349,2.529-2.065c1.615-1.412,3.247-2.886,4.892-3.863c1.826-1.071,3.809-1.783,5.819-2.187
				c2.014-0.397,4.048-0.413,5.911-0.104l0.755,0.151l0.374,0.075l0.186,0.038l0.012,0.002c-0.226-0.063-0.057-0.016-0.104-0.029
				l0.021,0.007l0.042,0.014l0.083,0.028c0.443,0.143,0.882,0.31,1.313,0.486c0.859,0.364,1.69,0.752,2.465,1.174
				c0.502,0.259,0.975,0.543,1.438,0.809c1.471,0.683,3.026,1.468,4.497,2.448C60.543,11.92,61.952,13.094,62.826,14.635"/>
		</g>
	</g>
</g>
<g>
	<g>
		<g>
			<path fill="#B18266" d="M66.456,17.249c-0.632-0.15-1.332-0.266-2.075-0.367c-0.729-0.169-1.483-0.298-2.247-0.49
				c-1.533-0.413-3.093-0.941-4.428-1.734c-0.237-0.115-0.438-0.213-0.646-0.314c-0.95-0.419-2.085-0.858-3.465-1.328
				c-0.925-0.28-3.509-1.145-7.165-2.008c-1.821-0.433-3.936-0.786-6.199-0.926c-2.262-0.166-4.705,0.128-7.019,0.626
				c-2.379,0.61-4.567,1.519-6.651,2.535c-2.067,1.027-3.997,2.17-5.565,3.514c-0.776,0.659-1.459,1.457-1.946,2.201
				c-0.496,0.801-0.888,1.578-1.203,2.294c-0.639,1.436-1.111,2.621-1.54,3.39c0.594-0.833,1.223-2.343,2.194-4.161
				c0.491-0.897,1.094-1.88,1.971-2.719c0.873-0.843,1.945-1.598,3.121-2.306c-1.229,0.792-2.367,1.651-3.231,2.631
				c-0.216,0.253-0.414,0.478-0.593,0.757c-0.188,0.267-0.376,0.528-0.51,0.794c-0.309,0.515-0.554,1.063-0.794,1.577
				c-0.894,2.095-1.519,3.864-2.129,4.874c0.661-0.878,1.358-2.544,2.295-4.551c0.493-1.004,1.018-2.027,1.876-3
				c0.822-0.922,1.954-1.761,3.203-2.534c2.516-1.533,5.544-2.884,8.728-3.805c3.19-0.85,6.639-0.966,9.893-0.449
				c-2.71-0.371-5.662-0.317-8.515,0.328c-2.797,0.665-5.565,1.888-7.967,3.161c-2.401,1.319-4.457,2.731-5.524,4.342
				c-0.182,0.23-0.274,0.418-0.388,0.606c-0.111,0.191-0.227,0.357-0.329,0.575c-0.212,0.407-0.415,0.792-0.586,1.171
				c-0.36,0.742-0.658,1.396-0.931,1.894c0.392-0.578,0.843-1.421,1.386-2.411c0.14-0.242,0.285-0.492,0.436-0.751
				c0.153-0.22,0.304-0.446,0.453-0.685c0.475-0.614,0.787-1.011,1.33-1.469c1.025-0.916,2.456-1.809,4.051-2.639
				c1.596-0.837,3.395-1.604,5.279-2.259c0.472-0.151,0.949-0.313,1.428-0.443c0.512-0.148,0.878-0.243,1.425-0.354
				c0.544-0.122,0.991-0.154,1.507-0.232c0.5-0.065,0.999-0.159,1.509-0.156c2.027-0.169,4.104,0.066,6.136,0.423
				c4.074,0.742,7.955,2.223,11.387,3.261c0.551,0.168,1.087,0.332,1.605,0.491C59.284,17.205,63.047,17.383,66.456,17.249"/>
		</g>
	</g>
</g>
<g>
	<g>
		<g>
			<path fill="#B18266" d="M58.912,10.894c-1.202-0.239-2.578-0.471-3.969-0.931c-1.393-0.448-2.78-1.107-3.975-1.933
				c-0.215-0.125-0.397-0.231-0.585-0.34c-0.869-0.451-1.918-0.928-3.241-1.384c-0.442-0.146-1.286-0.416-2.49-0.691
				c-1.201-0.268-2.762-0.576-4.605-0.602c-0.46,0.015-0.935,0.03-1.422,0.046c-0.588,0.073-0.934,0.12-1.451,0.205
				c-0.518,0.128-1.071,0.235-1.576,0.402c-0.493,0.186-1.016,0.324-1.5,0.56c-1.982,0.848-3.859,2.073-5.591,3.46
				c-1.733,1.39-3.329,2.946-4.774,4.525c-0.721,0.792-1.415,1.58-2.062,2.366c-0.327,0.391-0.645,0.778-0.948,1.166
				c-0.155,0.209-0.303,0.344-0.46,0.608c-0.125,0.205-0.25,0.407-0.372,0.607c-0.481,0.808-1.009,1.529-1.33,2.339
				c-0.341,0.784-0.761,1.491-0.974,2.186c-0.252,0.684-0.494,1.302-0.722,1.845c-0.194,0.549-0.366,1.023-0.537,1.405
				c0.965-1.65,2.101-5.788,5.538-9.625c-3.59,4.217-4.427,8.99-5.337,10.979c0.528-0.894,1.041-2.456,1.853-4.353
				c0.167-0.493,0.433-0.954,0.679-1.449c0.268-0.491,0.458-1.018,0.799-1.542c0.344-0.526,0.699-1.07,1.065-1.629l0.137-0.212
				l0.068-0.106l0.035-0.053c0.011-0.017-0.086,0.121-0.042,0.06l0.005-0.006l0.01-0.012l0.021-0.024l0.326-0.388
				c0.22-0.259,0.442-0.522,0.667-0.788c1.823-2.103,3.921-4.33,6.333-6.279c2.389-1.951,5.142-3.663,8.063-4.373
				c-2.399,0.643-4.788,2.046-6.918,3.739c-2.153,1.681-4.083,3.667-5.788,5.587c-0.852,0.963-1.636,1.923-2.369,2.833
				c0.155-0.217,0.041-0.057,0.075-0.104l-0.004,0.006l-0.007,0.012l-0.015,0.023l-0.029,0.047l-0.059,0.095l-0.116,0.188
				l-0.231,0.37c-0.153,0.244-0.304,0.484-0.453,0.719c-0.149,0.234-0.296,0.464-0.44,0.689c-0.146,0.225-0.213,0.44-0.322,0.651
				c-0.854,1.628-1.383,3.17-1.871,4.082c0.345-0.542,0.768-1.308,1.197-2.278c0.249-0.449,0.514-0.93,0.798-1.443
				c0.145-0.26,0.26-0.524,0.432-0.808c0.2-0.29,0.405-0.587,0.616-0.893c0.208-0.309,0.422-0.626,0.641-0.951l0.164-0.246
				l0.021-0.031l0.01-0.016l0.005-0.008c0.025-0.035-0.196,0.274-0.1,0.141l0.047-0.055l0.096-0.11l0.387-0.448
				c0.522-0.602,1.072-1.225,1.657-1.852c1.164-1.257,2.446-2.55,3.848-3.783c1.4-1.231,2.922-2.404,4.553-3.368
				c0.81-0.493,1.656-0.907,2.515-1.254c0.424-0.202,0.868-0.299,1.3-0.456c0.433-0.137,0.828-0.194,1.243-0.306
				c3.687-0.596,7.26,0.613,10.359,1.672c0.499,0.175,0.984,0.346,1.455,0.511C52.217,10.575,55.724,11.119,58.912,10.894"/>
		</g>
	</g>
</g>
<g>
	<g>
		<g>
			<path fill="#B18266" d="M61.892,21.816c-2.738-0.447-6.52-0.823-9.646-2.062c-0.274-0.086-0.507-0.16-0.748-0.237
				c-1.09-0.292-2.393-0.57-3.964-0.789c-0.523-0.073-1.52-0.183-2.897-0.281c-1.375-0.099-3.134-0.18-5.161-0.103
				c-2.021,0.053-4.325,0.352-6.672,1.003c-0.59,0.151-1.182,0.327-1.762,0.564c-0.569,0.219-1.207,0.43-1.749,0.689
				c-1.112,0.486-2.278,1.03-3.403,1.606c-4.517,2.283-8.822,5.271-11.745,8.542c-1.464,1.629-2.56,3.303-3.375,4.783
				c-0.769,1.505-1.273,2.806-1.617,3.722c0.201-0.52,0.591-1.153,0.917-1.937c0.171-0.39,0.428-0.782,0.651-1.218
				c0.216-0.441,0.493-0.884,0.802-1.342c1.177-1.858,2.904-3.904,5.143-5.813c-2.327,2.107-4.135,4.427-5.266,6.58
				c-1.16,2.15-1.601,4.081-2.019,5.28c0.509-1.075,0.961-2.893,2.153-4.936c1.126-2.062,2.939-4.31,5.329-6.393
				c2.371-2.107,5.348-3.986,8.536-5.627c1.605-0.807,3.255-1.548,4.945-2.231c1.677-0.606,3.391-1.145,5.138-1.366
				c-0.716,0.136-1.447,0.262-2.165,0.488c-0.361,0.101-0.725,0.202-1.091,0.304c-0.355,0.133-0.713,0.268-1.073,0.403
				c-0.718,0.248-1.427,0.577-2.168,0.904c-0.728,0.33-1.431,0.67-2.145,1.021c-2.837,1.432-5.571,3.077-7.875,4.882
				c-2.304,1.805-4.165,3.753-5.462,5.548c-1.299,1.794-2.11,3.393-2.597,4.438c0.744-1.203,1.906-3.409,4.091-5.764
				c2.141-2.38,5.351-4.812,9.138-6.905c0.954-0.513,1.933-1.021,2.944-1.497c1.006-0.471,2.012-0.92,3.108-1.364
				c2.037-0.823,4.161-1.388,6.343-1.639c4.364-0.506,8.736,0.085,12.484,0.581c0.603,0.083,1.189,0.165,1.757,0.243
				C54.258,22.047,58.231,21.957,61.892,21.816"/>
		</g>
	</g>
</g>
<g>
	<g>
		<g>
			<path fill="#B18266" d="M69.456,19.829c-0.628-0.534-1.321-0.905-2.027-1.241c-0.701-0.338-1.411-0.615-2.19-0.919
				c-1.539-0.601-3.186-1.294-5.127-2.535c-0.321-0.15-0.604-0.261-0.903-0.366c-0.651-0.149-1.393-0.17-2.176-0.127
				c-0.393,0.024-0.806,0.123-1.227,0.22c-0.211,0.052-0.425,0.11-0.641,0.175l-0.326,0.103l-0.165,0.055l-0.311,0.126
				c-0.601,0.277-1.828,1.06-3.563,2.307c-0.792,0.563-1.692,1.204-2.672,1.901c-0.232,0.164-0.469,0.332-0.71,0.502
				c-0.235,0.152-0.461,0.27-0.702,0.413c-0.49,0.285-0.996,0.578-1.513,0.879l-0.282,0.067c-4.131,2.233-9.962,3.997-15.033,3.771
				c-2.527-0.095-4.851-0.71-6.486-1.719c-1.646-0.995-2.576-2.302-2.608-3.434c-0.278,1.29,0.349,2.795,1.779,4.157
				c1.435,1.353,3.692,2.363,6.276,2.881c-2.818-0.181-5.479-0.981-7.378-2.262c-0.461-0.34-0.905-0.651-1.273-1.008
				c-0.354-0.378-0.666-0.749-0.929-1.105c-0.505-0.739-0.733-1.509-0.803-2.12c-0.115,0.681-0.035,1.489,0.28,2.364
				c0.375,0.798,0.926,1.75,1.786,2.521c1.665,1.641,4.265,2.917,7.18,3.534c5.886,1.266,12.794,0.21,18.745-1.998l-0.118,0.028
				c0.414-0.154,0.821-0.305,1.226-0.456c-0.393,0.19-0.79,0.383-1.201,0.583l0.126-0.03c-4.856,2.379-10.967,4.072-16.708,3.812
				c-2.853-0.121-5.597-0.778-7.753-1.872c-1.074-0.592-2-1.188-2.698-1.92c-0.719-0.66-1.189-1.416-1.44-2.092
				c0.096,0.739,0.398,1.605,0.972,2.37c0.281,0.397,0.615,0.809,1.001,1.22c0.392,0.366,0.834,0.736,1.323,1.104
				c1.953,1.432,4.636,2.512,7.557,3.029c2.929,0.53,6.095,0.547,9.262,0.167c3.174-0.385,6.35-1.146,9.464-2.26l-0.381,0.09
				c0.697-0.246,1.393-0.491,2.084-0.735c0.673-0.256,1.401-0.48,1.961-0.791c1.157-0.58,2.438-1.172,3.316-1.708
				c0.956-0.545,1.898-1.073,2.843-1.562c0.233-0.123,0.465-0.244,0.695-0.365l0.343-0.179l0.171-0.088l0.085-0.044l0.042-0.022
				l0.006-0.003c0.118-0.047-0.158,0.063-0.129,0.051l0.002-0.001l0.008-0.003l0.017-0.007c0.348-0.15,0.688-0.297,1.02-0.44
				c0.381-0.134,0.771-0.24,1.142-0.355C62.709,22.518,66.333,20.173,69.456,19.829"/>
		</g>
	</g>
</g>
<g>
	<g>
		<g>
			<path fill="#B18266" d="M55.598,13.795c-0.659-0.229-1.34-0.338-2.04-0.392c-0.703-0.055-1.412-0.073-2.187,0.021
				c-0.769,0.066-1.576,0.131-2.435,0.136c-0.823,0.016-1.643-0.029-2.537-0.213c-0.28-0.021-0.52-0.025-0.768-0.023
				c-1.052,0.105-2.087,0.462-3.229,1.109c-0.745,0.418-2.577,1.957-4.972,3.802c-0.603,0.426-1.244,0.879-1.915,1.353
				c-0.679,0.508-1.393,0.836-2.147,1.296l-0.572,0.329l-0.636,0.31c-0.29,0.152-0.726,0.334-1.15,0.484
				c-0.858,0.312-1.789,0.583-2.739,0.817c-3.812,0.931-7.965,1.278-11.337,0.754c-1.678-0.267-3.168-0.752-4.216-1.438
				c-1.065-0.664-1.625-1.524-1.614-2.184c-0.273,0.954,0.477,2.307,1.999,3.295c1.508,1.015,3.67,1.692,6.078,2.012
				c-2.599-0.072-5.071-0.53-6.963-1.504c-0.94-0.483-1.725-1.098-2.236-1.772c-0.516-0.677-0.718-1.395-0.69-1.938
				c-0.169,0.561-0.122,1.37,0.31,2.155c0.415,0.792,1.142,1.567,2.064,2.207c1.855,1.293,4.406,2.063,7.165,2.406
				c2.77,0.341,5.784,0.291,8.826-0.101c1.522-0.196,3.05-0.473,4.583-0.889c0.373-0.103,0.783-0.227,1.187-0.363
				c0.344-0.123,0.688-0.27,1.051-0.431c0.706-0.309,1.408-0.617,2.103-0.921c-0.559,0.301-1.13,0.609-1.709,0.922
				c-0.295,0.156-0.593,0.313-0.893,0.472c-0.27,0.136-0.567,0.274-0.945,0.416c-1.354,0.525-2.674,0.901-4.039,1.224
				c-2.712,0.627-5.485,0.979-8.131,1.002c-2.642,0.02-5.165-0.292-7.288-1.047c-2.112-0.724-3.824-1.971-4.504-3.25
				c0.273,0.916,1.037,1.931,2.126,2.766c1.09,0.845,2.485,1.532,4.048,2.034c3.139,1.009,6.917,1.307,10.878,1.027
				c1.992-0.145,4.013-0.417,6.162-0.927c0.548-0.13,1.055-0.268,1.758-0.485c0.188-0.056,0.271-0.092,0.387-0.134
				c0.107-0.042,0.231-0.082,0.325-0.126l0.756-0.316l1.498-0.638c0.503-0.208,0.986-0.429,1.425-0.684
				c3.705-1.904,6.647-4.097,9.222-5.672c0.411-0.253,0.816-0.517,1.203-0.737c0.924-1.11,1.862-2.471,2.924-3.559
				C52.823,15.207,54.217,14.317,55.598,13.795"/>
		</g>
	</g>
</g>
<g>
	<g>
		<g>
			<path fill="#B18266" d="M50.671,22.515c-1.325-0.274-2.777,0.281-4.133,0.892c-1.364,0.604-2.788,1.29-4.199,0.922
				c-0.204-0.034-0.372-0.032-0.529-0.07c-0.656-0.021-1.041-0.068-1.552,0.072c-0.044,0.01-0.098,0.03-0.159,0.059l-0.048,0.024
				l-0.013,0.006l-0.006,0.003l-0.003,0.002l-0.001,0.001c0.247-0.04,0.066-0.011,0.121-0.019l-0.061,0.015
				c-0.082,0.021-0.168,0.044-0.26,0.068c-0.364,0.106-0.807,0.235-1.32,0.385c-1.019,0.325-2.312,0.738-3.794,1.21
				c-3.109,0.949-6.488,2.245-10.286,3.073c-3.735,0.83-7.712,1.254-10.897,0.596c-1.58-0.317-2.927-0.959-3.706-1.771
				c-0.775-0.825-0.882-1.721-0.593-2.271c-0.329,0.371-0.465,0.871-0.388,1.496c0.104,0.604,0.471,1.296,1.095,1.904
				c1.254,1.235,3.366,2.026,5.679,2.388c-2.499-0.116-4.957-0.691-6.633-2.058c-0.83-0.669-1.392-1.539-1.596-2.344
				c-0.231-0.804-0.08-1.515,0.142-1.991c-0.181,0.225-0.347,0.512-0.468,0.857c-0.078,0.336-0.172,0.753-0.11,1.19
				c0.061,0.89,0.53,1.945,1.344,2.808c1.648,1.763,4.259,2.689,6.94,3.084c5.444,0.781,11.587-0.284,17.103-1.582
				c-4.511,1.492-9.954,2.943-15.134,2.938c-2.581-0.008-5.121-0.373-7.294-1.401c-1.081-0.516-2.056-1.215-2.775-2.018
				c-0.729-0.802-1.155-1.726-1.28-2.471c-0.053,1.02,0.5,2.371,1.563,3.521c1.056,1.156,2.536,2.074,4.133,2.688
				c3.22,1.236,6.952,1.479,10.721,1.247c1.889-0.121,3.799-0.362,5.695-0.689c0.954-0.164,1.88-0.347,2.846-0.554
				c0.916-0.2,1.829-0.4,2.733-0.598c1.738-0.385,3.445-0.764,5.074-1.125c0.827-0.176,1.634-0.348,2.417-0.515
				c1.031-0.204,2.107-0.538,3.04-1.01c0.607-0.281,1.161-0.629,1.65-0.972c1.234-1.496,1.73-3.146,2.323-4.549
				C48.631,24.537,49.404,23.26,50.671,22.515"/>
		</g>
	</g>
</g>
<g>
	<g>
		<g>
			<path fill="#B18266" d="M51.574,9.833c-2.565-1.497-5.699-1.617-8.554-4.037c-0.242-0.158-0.455-0.281-0.678-0.404
				c-0.482-0.22-1.07-0.377-1.688-0.496c-0.628-0.111-1.285-0.196-2.07-0.161c-0.257,0.008-0.628,0.042-1.099,0.101
				c-0.466,0.052-1.039,0.135-1.73,0.298c-0.687,0.164-1.434,0.287-2.29,0.558c-0.425,0.141-0.869,0.289-1.331,0.442
				c-0.228,0.079-0.459,0.158-0.696,0.239c-0.239,0.082-0.48,0.164-0.724,0.247l-0.283,0.158c-0.381,0.213-0.774,0.432-1.177,0.658
				c-0.523,0.312-1.206,0.781-1.779,1.207c-1.098,0.898-1.925,1.889-2.63,2.949c-1.369,2.113-2.078,4.1-3.149,5.817l-0.048,0.084
				c0.039-0.042-0.096,0.11,0.086-0.093l-0.008,0.011l-0.015,0.021l-0.031,0.042l-0.124,0.168l-0.248,0.336
				c-0.164,0.215-0.338,0.466-0.494,0.651c-0.326,0.373-0.599,0.755-0.981,1.136c-0.716,0.769-1.493,1.503-2.298,2.201
				c-1.605,1.401-3.278,2.679-4.786,3.907c-3.07,2.415-5.233,4.867-6.78,6.213c1.21-0.591,2.461-1.686,4.074-2.84
				c1.596-1.171,3.522-2.44,5.687-3.883c-2.153,1.765-4.084,3.39-5.501,4.909c-1.453,1.496-2.424,2.864-3.386,3.7
				c1.2-0.646,2.337-1.781,3.877-3.005c0.738-0.634,1.634-1.268,2.575-1.977c1.002-0.699,2.074-1.445,3.198-2.228
				c2.304-1.608,5.005-3.424,7.374-6.077c2.417-2.725,3.427-5.941,5.481-7.757c-0.185,0.218-0.372,0.438-0.561,0.661
				c-0.162,0.252-0.326,0.507-0.491,0.764c-0.333,0.491-0.613,1.104-0.925,1.671c-0.61,1.208-1.234,2.536-2.083,3.877l-0.153,0.251
				l-0.077,0.125l-0.019,0.032l-0.005,0.008c-0.052,0.059,0.11-0.121-0.118,0.134l-0.01,0.013l-0.04,0.054l-0.322,0.43
				c-0.232,0.294-0.389,0.552-0.693,0.879l-0.841,0.936l-0.817,0.825c-1.092,1.068-2.212,2.023-3.262,2.867
				c-1.973,1.55-3.793,2.979-5.325,4.183c-1.401,1.102-2.374,1.951-3.317,2.407c1.509-0.34,2.95-1.244,5.238-2.602
				c1.129-0.69,2.451-1.507,3.959-2.512c1.509-1.016,3.182-2.193,4.927-3.807l0.702-0.68c0.23-0.227,0.487-0.476,0.625-0.645
				l0.498-0.566l0.464-0.525l0.261-0.364c0.338-0.481,0.713-0.987,1.013-1.458l0.865-1.39c1.052-1.801,1.84-2.991,2.588-3.625
				c0.073-0.056,0.141-0.122,0.207-0.196c0.091-0.077,0.05-0.156,0.354-0.267c0.458-0.208,0.914-0.413,1.365-0.617l0.042-0.019
				l0.011-0.005c0.084-0.027-0.692,0.216-0.359,0.112l0.018-0.005l0.073-0.021l0.146-0.04l0.291-0.082l0.581-0.166
				c0.39-0.105,0.757-0.247,1.18-0.295c1.618-0.312,3.278-0.469,4.89-0.503c0.516-0.008,1.018-0.017,1.504-0.025
				C44.748,11.723,48.434,10.197,51.574,9.833"/>
		</g>
	</g>
</g>
<g>
	<g>
		<g>
			<path fill="#B18266" d="M51.175,3.744c-1.901-0.299-4.456,0.345-6.788,0.165c-0.202,0.005-0.369,0.009-0.541,0.014
				c-0.771,0.072-1.66,0.241-2.68,0.537c-1.357,0.401-7.468,2.67-13.598,5.554c-3.059,1.451-6.136,3.044-8.531,4.758
				c-1.186,0.866-2.225,1.757-2.84,2.805c-0.305,0.52-0.475,1.102-0.459,1.641c0.014,0.538,0.169,1,0.322,1.348
				c-0.132-0.418-0.277-1.001-0.177-1.636c0.108-0.633,0.442-1.256,0.939-1.807c0.99-1.111,2.482-2.101,4.194-3.078
				c-1.767,1.121-3.389,2.303-4.237,3.629c-0.417,0.661-0.542,1.362-0.375,1.953c0.167,0.589,0.504,1.036,0.749,1.394
				c-0.184-0.369-0.463-0.816-0.582-1.359c-0.131-0.539-0.013-1.133,0.376-1.718c0.785-1.184,2.395-2.306,4.216-3.374
				c3.693-2.132,8.463-4.143,12.926-5.825c-3.654,1.522-7.885,3.426-11.326,5.374c-1.713,0.972-3.235,1.964-4.28,2.893
				c-0.519,0.462-0.905,0.906-1.139,1.272c-0.241,0.371-0.315,0.643-0.366,0.906c0.13-0.331,0.299-0.635,0.731-1.104
				c0.418-0.46,1.106-1.023,1.975-1.598c1.739-1.161,4.166-2.407,6.839-3.614c5.358-2.42,11.734-4.729,16.583-6.18
				c0.389-0.114,0.768-0.224,1.134-0.331C46.37,5.413,48.742,4.156,51.175,3.744"/>
		</g>
	</g>
</g>
<g>
	<g>
		<g>
			<path fill="#B18266" d="M58.575,11.477c-2.281-2.438-6.133-5.112-9.526-7.509c-0.289-0.201-0.561-0.349-0.84-0.512
				c-1.241-0.695-2.819-1.357-4.792-1.829c-0.33-0.076-0.804-0.194-1.43-0.266c-0.311-0.041-0.655-0.086-1.031-0.135
				c-0.38-0.02-0.792-0.042-1.234-0.065c-0.883-0.013-1.893-0.002-2.989,0.173L36.317,1.39l-0.211,0.029l-0.027,0.003l-0.149,0.03
				l-0.047,0.014l-0.095,0.027c-0.255,0.074-0.515,0.148-0.78,0.225c-0.531,0.157-1.067,0.279-1.694,0.576
				C28.391,4.232,24.147,8.457,19.5,12.303c-2.306,1.958-4.662,3.992-6.568,6.32c-0.445,0.608-0.918,1.185-1.326,1.797
				c-0.364,0.645-0.769,1.254-1.083,1.9c-0.268,0.668-0.556,1.324-0.793,1.968c-0.211,0.641-0.406,1.302-0.564,1.941
				c-1.305,5.124-1.221,9.523-0.534,11.897c-0.276-1.39-0.444-3.511-0.153-6.159c0.139-1.322,0.378-2.773,0.742-4.311
				c0.368-1.528,0.829-3.18,1.598-4.769c-0.783,1.71-1.211,3.52-1.549,5.199c-0.321,1.694-0.505,3.307-0.554,4.778
				c-0.128,2.951,0.438,5.304,1.279,6.612c-0.313-0.647-0.646-1.484-0.831-2.551c-0.19-1.062-0.255-2.333-0.182-3.756
				c0.072-1.424,0.278-3.002,0.623-4.676c0.167-0.837,0.386-1.7,0.636-2.566c0.123-0.424,0.263-0.864,0.425-1.321
				c0.165-0.443,0.36-0.845,0.54-1.278l0.274-0.646c0.103-0.211,0.244-0.408,0.364-0.615c0.251-0.409,0.505-0.823,0.761-1.24
				c0.622-0.77,1.189-1.602,1.927-2.331c1.379-1.531,3.015-2.929,4.688-4.332c1.694-1.391,3.407-2.797,5.113-4.198
				c1.702-1.4,3.414-2.76,5.204-3.917c-2.92,1.978-5.777,4.61-8.77,7.105c-2.975,2.501-5.887,5.067-7.859,7.907
				c-0.216,0.367-0.431,0.73-0.644,1.09c-0.215,0.357-0.438,0.707-0.564,1.088c-0.299,0.737-0.624,1.444-0.854,2.26
				c-0.44,1.48-0.762,2.984-0.975,4.322c-0.439,2.704-0.434,4.88-0.361,6.24c0.05-1.649,0.156-4.714,1.164-8.554
				c0.261-0.972,0.516-1.89,0.938-2.95c0.204-0.46,0.411-0.93,0.623-1.409c0.243-0.468,0.564-0.919,0.844-1.395
				c1.247-1.854,2.99-3.636,4.967-5.367c1.987-1.732,4.182-3.454,6.361-5.255c2.165-1.774,4.319-3.525,6.595-4.895
				c0.577-0.315,1.151-0.629,1.722-0.941c0.566-0.268,1.119-0.474,1.672-0.723c0.588-0.218,1.287-0.359,1.916-0.54l0.241-0.064
				c-0.044,0.008,0.121-0.025-0.096,0.018l0.014-0.001l0.028-0.003l0.057-0.006l0.114-0.013l0.454-0.052
				c0.303-0.027,0.601-0.09,0.904-0.089c2.419-0.116,4.773,0.325,6.869,0.998c0.665,0.242,1.323,0.444,1.938,0.717
				C50.716,6.736,55.01,8.82,58.575,11.477"/>
		</g>
	</g>
</g>
<g>
	<g>
		<g>
			<path fill="#B18266" d="M72.321,23.702c-0.539-0.077-1.121-0.184-1.756-0.142c-0.327,0.02-0.656,0.039-0.99,0.059
				c-0.331,0.05-0.667,0.101-1.007,0.152c-1.358,0.232-2.762,0.586-4.102,0.796c-0.228,0.054-0.42,0.099-0.617,0.146
				c-0.861,0.271-1.838,0.676-2.92,1.236c-0.729,0.351-2.643,1.58-5.27,2.84c-1.315,0.632-2.836,1.222-4.513,1.563
				c-0.796,0.181-1.795,0.284-2.715,0.437c-0.941,0.138-1.893,0.279-2.851,0.398c-3.822,0.502-7.787,0.715-11.061,0.126
				c-1.64-0.267-3.054-0.82-4.156-1.409c-1.073-0.649-1.804-1.366-2.154-1.957c0.128,0.404,0.502,0.764,0.916,1.259
				c0.223,0.229,0.512,0.421,0.808,0.653c0.292,0.242,0.64,0.439,1.021,0.628c1.501,0.809,3.554,1.363,5.848,1.595
				c-2.453-0.155-4.757-0.667-6.492-1.579c-1.764-0.888-2.767-2.2-3.205-3.043c0.318,0.816,1.168,2.211,2.899,3.198
				c1.688,1.022,4.024,1.688,6.585,1.936c2.568,0.265,5.37,0.178,8.195-0.068c1.411-0.129,2.836-0.289,4.241-0.461
				c1.388-0.162,2.864-0.315,4.212-0.734c-0.281,0.085-0.564,0.172-0.852,0.259c-0.293,0.064-0.59,0.129-0.889,0.194
				c-0.603,0.149-1.221,0.212-1.816,0.307c-1.207,0.18-2.443,0.366-3.695,0.523c-2.5,0.32-5.048,0.54-7.459,0.497
				c-2.408-0.037-4.687-0.356-6.537-0.994c-1.848-0.627-3.244-1.549-3.892-2.369c0.339,0.56,1.026,1.142,1.952,1.738
				c0.94,0.559,2.146,1.094,3.529,1.432c2.774,0.746,6.189,0.865,9.729,0.654c1.769-0.113,3.582-0.301,5.377-0.512l1.344-0.158
				l0.674-0.079l0.374-0.046l0.361-0.066c0.972-0.153,1.905-0.401,2.813-0.679c3.613-1.181,6.594-3.024,9.189-4.358
				c0.415-0.212,0.818-0.418,1.209-0.619C66.836,25.579,69.41,23.876,72.321,23.702"/>
		</g>
	</g>
</g>
<g>
	<g>
		<g>
			<path fill="#B18266" d="M75.312,21.02c-0.839-0.075-1.807,0.032-2.82,0.127c-1.013,0.077-2.065,0.319-3.132,0.269
				c-0.184,0.015-0.334,0.027-0.488,0.04c-0.711,0.109-1.423,0.309-2.286,0.631c-0.282,0.103-0.812,0.351-1.524,0.656
				c-0.707,0.287-1.606,0.653-2.637,1.072c-0.46,0.197-1.102,0.373-1.689,0.575c-0.604,0.189-1.247,0.43-1.881,0.569
				c-0.646,0.162-1.311,0.328-1.984,0.498c-0.688,0.145-1.399,0.266-2.112,0.399c-5.734,0.973-11.88,0.989-14.059,0.457
				c1.245,0.527,4.023,0.775,7.491,0.759c-3.698,0.203-6.885,0.132-8.342-0.241c1.331,0.562,4.409,0.812,8.232,0.77
				c3.814-0.04,8.392-0.499,12.475-1.6c-3.34,1.043-7.449,1.71-11.006,1.937c-3.568,0.236-6.6,0.155-8.002-0.208
				c1.683,0.7,6.246,0.971,11.591,0.512c1.333-0.087,2.709-0.328,4.095-0.528c1.396-0.287,2.84-0.543,4.101-0.938
				c0.663-0.201,1.257-0.317,1.957-0.582c0.637-0.226,1.264-0.447,1.876-0.664c1.245-0.409,2.322-0.915,3.374-1.314
				c0.33-0.128,0.651-0.254,0.962-0.375c0.859-0.5,1.768-1.094,2.739-1.632C73.243,21.737,74.273,21.305,75.312,21.02"/>
		</g>
	</g>
</g>
<g>
	<g>
		<g>
			<path fill="#B18266" d="M61.889,18.21c0.468,0.127,0.985,0.214,1.532,0.29c0.536,0.124,1.088,0.192,1.646,0.339
				c1.118,0.271,2.244,0.693,3.122,1.365c0.156,0.089,0.288,0.177,0.425,0.271c0.622,0.358,1.355,0.727,2.209,1.194
				c0.575,0.287,2.23,1.083,4.162,2.734c1.944,1.623,4.078,4.142,5.865,7.017c1.807,2.864,3.328,6.016,4.472,8.737
				c1.136,2.728,1.927,5.019,2.146,6.317c-0.063-1.547-1.007-4.665-2.533-8.422c1.798,3.939,3.079,7.436,3.39,9.149
				c-0.08-1.648-1.149-5.088-2.849-9.225c-1.704-4.114-4.169-8.934-7.428-12.684c2.826,2.999,5.329,7.192,7.105,10.965
				c1.783,3.785,2.983,7.114,3.26,8.768c-0.029-1.051-0.486-2.824-1.261-5.056c-0.778-2.228-1.877-4.919-3.33-7.704
				c-1.456-2.776-3.265-5.664-5.503-8.104c-2.218-2.444-4.873-4.404-7.445-5.452c-0.4-0.191-0.811-0.325-1.204-0.465
				C67.156,17.689,64.36,18.027,61.889,18.21"/>
		</g>
	</g>
</g>
<g>
	<g>
		<path fill="#E2BAB0" d="M83.14,81.526c0.591,5.643-1.466,10.964-2.895,16.334c-1.508,5.669-0.909,11.688-3.415,17.118
			c-0.959,2.078,2.121,3.896,3.086,1.805c2.456-5.322,2.34-10.883,3.433-16.523c1.223-6.312,4.054-12.164,3.365-18.733
			C86.477,79.258,82.899,79.234,83.14,81.526L83.14,81.526z"/>
	</g>
</g>
<g>
	<g>
		<path fill="#E2BAB0" d="M83.14,81.526c0.481,12.351,1.549,24.496-4.919,35.638c-1.16,1.998,1.93,3.797,3.086,1.805
			c6.806-11.723,5.916-24.396,5.407-37.442C86.625,79.229,83.05,79.221,83.14,81.526L83.14,81.526z"/>
	</g>
</g>
<g>
	<g>
		<path fill="#E2BAB0" d="M80.604,93.53c-1.69,3.537-4.277,6.285-6.831,9.206c-2.431,2.781-3.865,6.128-6.077,9.064
			c-1.389,1.843,1.718,3.621,3.086,1.805c2.474-3.284,4.18-6.854,6.939-9.95c2.307-2.589,4.464-5.171,5.969-8.32
			C84.679,93.266,81.597,91.451,80.604,93.53L80.604,93.53z"/>
	</g>
</g>
<g>
	<g>
		<path fill="#E2BAB0" d="M14.292,83.789c1.375,4.575,4.523,7.345,5.643,12.276c1.512,6.665,1.45,12.562,6.535,17.705
			c1.179,1.193,3.68-0.013,2.987-1.739c-3.906-9.73-7.812-19.462-11.717-29.193C16.892,80.727,13.434,81.647,14.292,83.789
			c3.906,9.73,7.812,19.462,11.717,29.193c0.996-0.58,1.992-1.16,2.987-1.739c-5.182-5.242-4.464-12.353-6.343-18.98
			c-1.051-3.706-3.883-5.991-4.914-9.425C17.078,80.637,13.628,81.575,14.292,83.789z"/>
	</g>
</g>
<g>
	<g>
		<path fill="#E2BAB0" d="M12.302,79.383c-0.663,9.089,3.157,18.284,7.332,26.167c0.944,1.782,3.911,0.552,3.267-1.378
			c-0.646-1.935-1.193-3.893-1.785-5.844c-1.089,0.46-2.178,0.919-3.267,1.378c1.735,2.439,3.784,5.175,4.125,8.231
			c0.437-0.574,0.875-1.149,1.312-1.724c-0.14,0.031-0.279,0.062-0.418,0.094c-1.056,0.236-1.733,1.707-1.068,2.626
			c0.074,0.102,0.147,0.203,0.221,0.305c0.815-0.815,1.63-1.631,2.445-2.445c-0.553-0.312-4.133-0.865-4-0.545
			c-0.475-1.145-0.403-2.553-0.789-3.749c-0.271-0.844-0.952-1.799-0.901-1.175c-0.09-1.092-0.18-2.184-0.27-3.275
			c-0.423-5.145-0.847-10.288-1.27-15.433c-0.187-2.267-3.555-2.335-3.574,0c-0.055,6.595-0.071,12.995,0.077,19.592
			c0.057,2.562,0.49,6.04,2.696,7.705c3.009,2.271,7.352-0.097,10.035,2.465c1.238,1.182,3.573,0.025,2.987-1.739
			C25.815,99.68,17.678,90.467,15.813,78.907c-0.367-2.271-3.811-1.304-3.447,0.951c1.873,11.607,9.998,20.759,13.644,31.731
			c0.996-0.58,1.992-1.16,2.987-1.739c-1.647-1.572-3.149-2.119-5.408-2.258c-1.11-0.068-2.27,0.103-3.384,0.111
			c-3.601,0.028-2.914-6.782-2.998-8.9c-0.217-5.467-0.016-10.715,0.029-16.188c-1.191,0-2.383,0-3.574,0
			c0.479,5.823,0.958,11.646,1.437,17.469c0.194,2.356,1.405,4.087,1.763,6.436c0.153,1.006,0.698,2.263,1.603,2.817
			c1.289,0.791,3.317,0.047,4.197,0.541c1.459,0.821,3.549-0.922,2.445-2.445c-0.074-0.102-0.147-0.203-0.221-0.305
			c-0.356,0.875-0.712,1.751-1.068,2.626c0.14-0.031,0.279-0.062,0.418-0.094c0.708-0.159,1.396-0.973,1.312-1.724
			c-0.423-3.805-2.429-6.966-4.612-10.036c-1.119-1.572-3.89-0.676-3.267,1.378c0.593,1.95,1.14,3.909,1.785,5.844
			c1.089-0.46,2.178-0.919,3.267-1.378c-3.884-7.332-7.461-15.903-6.845-24.362C16.044,77.082,12.469,77.098,12.302,79.383z"/>
		<path fill="#E2BAB0" d="M19.454,105.123c0.373,1.011,0.775,2.027,1.339,2.95c0.233,0.381,0.521,0.743,0.826,1.068
			c0.621,0.664,1.333,0.804,2.198,0.613c1.046-0.23,1.746-1.717,1.068-2.626c-0.803-1.076-1.519-2.207-2.165-3.384
			c-1.11-2.021-4.197-0.217-3.087,1.805c0.646,1.177,1.362,2.307,2.165,3.384c0.356-0.875,0.712-1.751,1.068-2.626
			c-0.077,0.018-0.154,0.034-0.23,0.051c0.58,0.153,1.159,0.307,1.739,0.46c-0.387-0.321-0.393-0.36-0.704-0.901
			c-0.318-0.554-0.55-1.146-0.771-1.745c-0.336-0.913-1.199-1.522-2.199-1.248C19.823,103.166,19.117,104.208,19.454,105.123z"/>
	</g>
</g>
<g>
	<g>
		<path fill="#E2BAB0" d="M23.08,102.307c2.469,6.126,7.287,10.354,13.312,12.866c2.127,0.887,3.045-2.573,0.95-3.447
			c-4.742-1.978-8.869-5.54-10.815-10.37C25.677,99.246,22.218,100.167,23.08,102.307L23.08,102.307z"/>
	</g>
</g>
<g>
	<g>
		<path fill="#E2BAB0" d="M69.196,110.523c3.47-2.674,7.938-3.672,10.472-7.491c1.279-1.927-1.818-3.715-3.086-1.805
			c-2.063,3.11-6.33,4.006-9.19,6.21C65.594,108.823,67.37,111.931,69.196,110.523L69.196,110.523z"/>
	</g>
</g>
<g>
	<g>
		<path fill="#E2BAB0" d="M14.625,89.666c2.305,0,2.305-3.574,0-3.574S12.32,89.666,14.625,89.666L14.625,89.666z"/>
	</g>
</g>
<g>
	<g>
		<path fill="#E2BAB0" d="M13.3,80.711c0.53,2.708,2.06,4.704,3.556,6.979c1.685,2.56,2.414,5.749,3.674,8.539
			c1.958,4.333,3.765,8.88,7.791,11.563c1.924,1.283,3.711-1.814,1.804-3.086c-3.146-2.098-4.676-6.961-6.508-10.282
			c-1.226-2.222-1.874-4.84-2.912-7.169c-1.201-2.691-3.37-4.487-3.958-7.496C16.305,77.499,12.86,78.459,13.3,80.711L13.3,80.711z"
			/>
	</g>
</g>
<g>
	<g>
		<path fill="#E2BAB0" d="M36.769,110.221c-0.686-0.058-1.578-1.636-1.965-2.126c-0.934-1.184-2.29-1.88-3.587-2.594
			c-2.021-1.112-3.824,1.976-1.804,3.086c0.696,0.383,1.39,0.762,2.052,1.201c0.575,0.383,0.98,1.05,1.4,1.584
			c1.022,1.3,2.207,2.282,3.903,2.423C39.067,113.986,39.049,110.41,36.769,110.221L36.769,110.221z"/>
	</g>
</g>
<g>
	<g>
		<path fill="#E2BAB0" d="M53.252,115.087c3.877,0.212,7.961-1.642,11.367-3.357c4.509-2.272,9.347-4.021,13.564-6.816
			c1.911-1.267,0.123-4.364-1.805-3.086c-3.429,2.272-7.229,3.693-10.923,5.461c-3.723,1.78-7.908,4.459-12.204,4.225
			C50.948,111.387,50.96,114.962,53.252,115.087L53.252,115.087z"/>
	</g>
</g>
<g>
	<g>
		<path fill="#E2BAB0" d="M82.545,84.604c-0.018,4.304-2.414,9.085-3.909,13.029c-0.818,2.16,2.639,3.085,3.447,0.951
			c1.632-4.307,4.018-9.282,4.036-13.98C86.129,82.298,82.554,82.299,82.545,84.604L82.545,84.604z"/>
	</g>
</g>
<path fill-rule="evenodd" clip-rule="evenodd" fill="#F4D2C6" d="M70.664,114.158c0.038-1.15-0.999-2.336-2.613-1.888
	c-5.953,1.652-12.016,2.27-18.229,2.621c-7.187,0.408-12.814-0.384-19.697-1.999c-2.21-0.519-3.357,1.734-2.074,3.119
	c0.402,0.432,0.81,0.844,1.22,1.246c3.293,5.67,11.436,15.74,19.922,14.456c1.232-0.185,2.433-0.501,3.611-0.904
	c5.635-0.019,9.646-3.658,12.855-7.689c0.165-0.13,0.326-0.263,0.486-0.397c2.632-1.848,4.629-4.256,5.059-6.912
	C71.315,115.132,71.073,114.565,70.664,114.158z"/>
<path fill-rule="evenodd" clip-rule="evenodd" fill="#E2988F" d="M32.909,116.533c10.826,3.2,21.636,2.902,33.478-1.464
	C60.16,126.275,40.057,125.347,32.909,116.533z"/>
<path fill-rule="evenodd" clip-rule="evenodd" fill="#B79180" d="M81.536,67.841c-5.274-8.952-12.846-10.907-21.737-9.19
	c-1.42,0.275-2.386,0.344-2.54-1.268c-0.146-1.54-0.455-3.308,1.604-3.974c5.788-1.872,11.395-1.378,16.623,1.737
	C79.879,57.764,82.453,61.474,81.536,67.841z"/>
<path fill-rule="evenodd" clip-rule="evenodd" fill="#B79180" d="M20.85,67.829c6.854-7.81,14.657-8.316,23.071-4.971
	c1.346,0.535,2.28,0.783,2.732-0.771c0.432-1.485,1.064-3.164-0.833-4.202c-5.338-2.92-10.938-3.481-16.655-1.397
	C24.358,58.239,21.138,61.402,20.85,67.829z"/>
</svg>
