<?xml version="1.0" encoding="utf-8"?>
<!-- Generator: Adobe Illustrator 16.0.4, SVG Export Plug-In . SVG Version: 6.00 Build 0)  -->
<!DOCTYPE svg PUBLIC "-//W3C//DTD SVG 1.1//EN" "http://www.w3.org/Graphics/SVG/1.1/DTD/svg11.dtd">
<svg version="1.1" id="Layer_1" xmlns="http://www.w3.org/2000/svg" xmlns:xlink="http://www.w3.org/1999/xlink" x="0px" y="0px"
	 width="100px" height="140px" viewBox="0 0 100 140" enable-background="new 0 0 100 140" xml:space="preserve">
<g>
	<path fill-rule="evenodd" clip-rule="evenodd" fill="#FADBD2" d="M86.49,64.53c1.878,1.706,3.901,0.097,5.835,0.13
		c3.298,0.057,5.008,1.668,6.088,4.465c3.151,8.168-3.133,24.265-11.453,26.537c-5.634,1.54-6.715,5.354-8.354,9.471
		c-5.501,13.812-14.135,24.686-28.703,29.558c-13.986,4.679-30.738-2.368-37.924-15.35C2.593,102.387-0.345,84.483,3.668,65.507
		c0.426-2.014,1.747-3.979-1.353-4.89c-1.095-3.376,1.83-4.044,3.706-5.206c2.692-1.668,5.649-2.78,8.83-3.293
		c1.467-0.237,3.495-0.271,3.296-2.529c-0.145-1.643-1.772-1.818-3.083-2.108c-1.735-0.385-3.649-0.269-4.941-1.839
		c2.241-5.855,4.479-11.71,6.719-17.567c2.532-1.896,5.026-3.768,7.307-6.043c13.305-13.272,40.479-10.46,50.81,5.105
		c2.623,3.954,4.156,8.718,3.174,13.016c-2.199,9.606,0.065,18.444,2.746,27.478C83.277,67.604,83.91,64.241,86.49,64.53z"/>
	<path fill-rule="evenodd" clip-rule="evenodd" fill="#A6806D" fill-opacity="0.8" d="M11.492,47.011
		c2.01-0.098,4.041-0.04,6.023-0.326c4.497-0.651,4.318,2.57,4.88,5.448c0.79,4.043-2.061,2.955-4.073,3.082
		c-5.76,0.364-11.059,1.707-14.639,6.772c-3.657,3.065-3.001-0.43-2.897-2.095C1.208,53.06,6.537,50.16,11.492,47.011z"/>
	<path fill-rule="evenodd" clip-rule="evenodd" fill="#F7C3B7" d="M86.188,90.644c-0.666-3.286,2.248-3.432,2.512-5.164
		c-0.15-0.97-0.764-1.183-1.454-0.95c-5.688,1.923-6.241-1.677-5.925-5.725c0.295-3.802,2.678-6.712,5.492-8.936
		c2.244-1.772,5.255-1.572,7.7-0.194c2.347,1.325,2.205,4.009,1.487,6.104C94.091,81.358,92.918,87.553,86.188,90.644z"/>
	<path fill-rule="evenodd" clip-rule="evenodd" fill="#A6806D" fill-opacity="0.8" d="M56.047,50.342
		c-6.374-5.219-12.486-6.537-19.25-4.568c-1.652,0.48-3.75,1.483-3.866-1.617c-0.093-2.479-1.825-5.37,1.983-6.931
		C43.803,33.581,54.374,39.423,56.047,50.342z"/>
	<path fill-rule="evenodd" clip-rule="evenodd" fill="#394650" d="M37.207,61.815c0.098-2.448,0.963-5.039,3.507-4.953
		c3.45,0.117,3.791,3.289,3.683,6.063c-0.092,2.382-0.991,4.859-3.766,4.581C37.563,67.2,37.259,64.389,37.207,61.815z"/>
	<path fill-rule="evenodd" clip-rule="evenodd" fill="#F8B9AC" d="M34.612,90.043c-6.061,1.388-11.036,0.999-15.572-2.097
		c-1.323-0.902-2.336-2.295-1.782-4.048c0.24-0.761,0.958-1.777,1.627-1.927c2.658-0.596,1.747,1.901,2.393,3.066
		c1.396,2.515,3.795,2.796,6.323,3.051C29.675,88.3,32.047,87.211,34.612,90.043z"/>
	<path fill-rule="evenodd" clip-rule="evenodd" fill="#34414C" d="M19.616,60.563c3.265,0.597,4.082,2.824,4.097,5.431
		c0.014,2.596-0.7,5.309-3.765,5.328c-2.725,0.017-3.396-2.53-3.442-4.892C16.456,63.9,16.903,61.538,19.616,60.563z"/>
	<path fill-rule="evenodd" clip-rule="evenodd" fill="#FAAFA3" d="M26.074,56.454c2.889,6.67,1.817,13.112-1.417,19.43
		C25.548,69.432,24.933,62.893,26.074,56.454z"/>
	<path fill-rule="evenodd" clip-rule="evenodd" fill="#F7C3B7" fill-opacity="0.6" d="M63.177,83.505
		c5.522,4.726,6.662,10.084,5.036,17.432C67.938,92.014,66.158,89.642,63.177,83.505z"/>
	<path fill-rule="evenodd" clip-rule="evenodd" fill="#F7C3B7" fill-opacity="0.6" d="M19.832,113.073
		c-4.012-3.434-4.841-7.329-3.66-12.67C16.372,106.89,17.665,108.612,19.832,113.073z"/>
	<g>
		<g>
			<path fill="#A6806D" d="M28.292,27.531c2.929-6.036,7.052-7.99,13.649-6.805c6.743,1.21,13.094,4.229,19.422,6.731
				c6.711,2.654,10.634,6.021,12.483,13.126c1.909,7.335,1.385,15.237,2.151,22.736c0.889,8.693,14.587,8.78,13.689,0
				c-0.973-9.518-0.507-19.33-3.257-28.586C83.37,24.425,75.695,18.281,65.946,14.623c-8.473-3.18-16.415-6.814-25.514-7.828
				c-10.429-1.161-19.478,4.589-23.96,13.827C12.635,28.528,24.438,35.472,28.292,27.531L28.292,27.531z"/>
		</g>
	</g>
	<g>
		<g>
			<g>
				<g>
					<path fill="#91635A" d="M76.982,30.453c-1.297,0.872-1.882,1.958-2.656,2.979c-0.785,1.003-1.661,1.935-3.479,2.8
						c-0.234,0.146-0.417,0.272-0.597,0.405c-0.618,0.583-1.02,1.33-1.067,2.231c-0.013,0.293,0.096,0.886,0.275,1.727
						c0.201,0.851,0.456,1.932,0.748,3.171c0.614,2.529,1.379,5.847,2.407,9.155c1.008,3.322,2.401,6.481,3.608,9.001
						c1.16,2.56,2.136,4.575,1.798,6.388c1.125-2.613,0.37-5.461-0.487-8.859c1.695,3.414,3.442,5.848,2.95,8.209
						c0.317-0.691,0.5-1.392,0.569-2.091c0.083-0.706-0.016-1.377-0.062-2.123c-0.18-1.449-0.652-2.932-1.105-4.597
						c-0.526-1.636-0.958-3.502-1.382-5.522c-0.417-2.018-0.657-4.232-0.869-6.398c0.486,1.822,1.022,3.745,1.656,5.505
						c0.573,1.791,1.342,3.354,1.927,4.742c0.343,0.676,0.639,1.31,0.883,1.917c0.305,0.582,0.506,1.153,0.656,1.704
						c0.403,1.057,0.403,2.119,0.112,3.094c0.237-0.389,0.422-0.776,0.558-1.161c0.145-0.388,0.283-0.789,0.36-1.176
						c0.161-0.777,0.137-1.529,0.125-2.323c-0.096-0.761-0.157-1.589-0.376-2.422c-0.129-0.879-0.378-1.783-0.562-2.828
						c-0.87-4.052-1.327-10.33-1.441-15.285c-0.006-0.396-0.012-0.782-0.019-1.156c-0.403-0.595-0.869-1.201-1.341-1.805
						c-0.477-0.616-0.961-1.241-1.434-1.852C77.866,32.666,77.062,31.603,76.982,30.453"/>
				</g>
			</g>
		</g>
		<g>
			<g>
				<g>
					<path fill="#91635A" d="M56.499,16.46c-0.198,0.852-0.058,1.611,0.059,2.427c0.061,0.812,0.357,1.684,0.227,2.875
						c0.01,0.178,0.028,0.329,0.054,0.483c0.081,0.305,0.225,0.645,0.394,0.918c0.165,0.263,0.377,0.517,0.639,0.757
						c0.353,0.325,1.53,1.024,3.031,1.796c0.189,0.101,0.385,0.204,0.586,0.311l0.075,0.04l0.038,0.021l0.01,0.005
						c-0.04-0.039,0.097,0.091-0.089-0.087l0.005,0.003l0.019,0.011l0.148,0.089l0.303,0.182c0.407,0.248,0.832,0.505,1.269,0.77
						c0.858,0.539,1.84,1.091,2.572,1.732c0.786,0.638,1.606,1.285,2.342,2.004c0.715,0.747,1.377,1.496,1.936,2.218
						c1.109,1.454,1.752,2.839,1.643,3.854c0.518-1.414-0.139-3.397-1.545-5.503c1.852,2.006,3.019,4.014,2.886,5.365
						c0.285-0.761,0.214-1.675-0.115-2.692c-0.165-0.509-0.395-1.043-0.675-1.597c-0.301-0.55-0.657-1.12-1.054-1.702
						c-0.401-0.582-0.822-1.178-1.307-1.773c-0.521-0.59-1.071-1.183-1.634-1.768c-1.093-1.241-2.368-2.13-3.556-3.101
						c0.55,0.341,1.122,0.695,1.704,1.055c0.289,0.185,0.581,0.371,0.874,0.557c0.289,0.197,0.564,0.449,0.849,0.678
						c0.563,0.471,1.127,0.959,1.675,1.457c0.271,0.254,0.541,0.505,0.806,0.752c0.231,0.255,0.459,0.505,0.683,0.751
						c0.87,0.997,1.651,1.979,2.131,2.868c0.479,0.889,0.732,1.693,0.66,2.355c0.688-1.953-0.753-4.878-3.589-8.109
						c-0.363-0.395-0.733-0.797-1.107-1.204c-0.378-0.4-0.765-0.819-1.145-1.103c-0.771-0.624-1.551-1.253-2.315-1.872l-0.288-0.229
						l-0.072-0.057l-0.035-0.028l-0.01-0.007l-0.111-0.105l-0.019-0.013l-0.149-0.106l-0.59-0.421
						c-0.39-0.279-0.773-0.554-1.148-0.823c-0.724-0.533-1.372-1.038-1.98-1.527c-0.207-0.16-0.338-0.3-0.492-0.445
						c-0.73-0.172-1.657-0.283-2.517-0.623C57.735,17.524,56.978,17.08,56.499,16.46"/>
				</g>
			</g>
		</g>
		<g>
			<g>
				<g>
					<path fill="#91635A" d="M51.589,15.786c-0.661-0.635-1.413-0.977-2.267-1.3c-0.863-0.327-1.798-0.698-2.732-1.444
						c-0.156-0.094-0.292-0.165-0.434-0.233c-0.616-0.237-1.336-0.248-2.146-0.088c-0.269,0.045-0.767,0.241-1.427,0.552
						c-0.661,0.283-1.479,0.73-2.384,1.268c-1.801,1.096-3.942,2.713-5.619,4.761c-1.709,2.031-2.783,4.445-3.354,6.479
						c-0.629,2.037-0.846,3.727-1.538,4.66c1.247-1.054,1.812-3.221,3.027-5.617c-0.955,2.736-0.922,5.133-1.858,6.331
						c1.376-1.103,1.731-3.358,2.918-5.737c0.144-0.299,0.291-0.604,0.441-0.916c0.19-0.288,0.377-0.586,0.562-0.894
						c0.166-0.321,0.404-0.599,0.634-0.891c0.241-0.282,0.427-0.621,0.716-0.877c1.005-1.165,2.328-2.144,3.681-3.003
						c-0.535,0.416-1.051,0.891-1.562,1.354c-0.462,0.525-0.986,0.976-1.365,1.543c-0.882,1.026-1.409,2.209-1.91,3.215
						c-0.856,2.104-1.135,3.977-2.009,4.951c0.426-0.277,0.754-0.668,1.119-1.095c0.348-0.431,0.57-0.962,0.914-1.468
						c0.55-1.083,1.2-2.232,2.166-3.411c0.954-1.177,2.312-2.355,3.913-3.293c1.593-0.936,3.364-1.665,4.965-2.039
						c0.254-0.067,0.5-0.135,0.748-0.172c0.684-0.527,1.426-1.197,2.233-1.697C49.824,16.185,50.736,15.838,51.589,15.786"/>
				</g>
			</g>
		</g>
		<g>
			<g>
				<g>
					<path fill="#91635A" d="M37.304,14.614c-0.822-0.197-1.531-0.064-2.295,0.043c-0.772,0.132-1.566,0.13-2.645-0.05
						c-0.16-0.008-0.294-0.006-0.433,0.001c-0.555,0.096-1.103,0.365-1.608,0.838c-0.701,0.621-2.805,4.422-4.152,8.375
						c-1.411,3.934-2.22,7.882-3.984,8.838c1.458-0.375,2.5-1.943,3.545-3.972c-0.735,2.339-1.433,4.292-2.619,4.909
						c3.114-0.809,4.302-6.892,7.261-11.495c-0.223,0.528-0.455,1.077-0.691,1.634c-0.197,0.573-0.396,1.154-0.595,1.733
						l-0.309,0.846c-0.087,0.291-0.173,0.58-0.259,0.866c-0.174,0.568-0.356,1.115-0.549,1.631
						c-0.337,1.068-0.687,2.037-1.123,2.789c-0.39,0.787-0.853,1.368-1.41,1.647c0.993-0.208,1.742-1.006,2.492-2.021
						c0.367-0.514,0.705-1.11,1.021-1.767c0.359-0.617,0.697-1.294,1.021-2.014c0.332-0.712,0.733-1.396,1.08-2.141
						c0.35-0.742,0.817-1.41,1.209-2.131c0.382-0.727,0.914-1.339,1.348-1.986c0.438-0.656,0.932-1.186,1.391-1.682
						c0.149-0.157,0.294-0.31,0.435-0.458c0.092-0.373,0.16-0.784,0.269-1.202c0.125-0.415,0.252-0.836,0.397-1.239
						C36.391,15.803,36.753,15.073,37.304,14.614"/>
				</g>
			</g>
		</g>
		<g>
			<g>
				<g>
					<path fill="#91635A" d="M29.455,18.981c-1.135-1.319-2.661-1.325-4.268-2.975c-0.138-0.101-0.259-0.178-0.386-0.253
						c-0.562-0.239-1.196-0.387-2.012-0.2c-0.267,0.064-0.752,0.202-1.404,0.514c-0.647,0.368-1.486,0.727-2.292,1.41
						c-0.399,0.332-0.865,0.626-1.237,1.038c-0.374,0.396-0.763,0.808-1.163,1.231c-0.361,0.437-0.677,0.911-1.018,1.368
						l-0.55,0.757l-0.386,0.688c-1.061,1.763-2.127,3.854-3.04,5.344c-0.939,1.532-1.919,2.616-2.889,2.865
						c1.492,0.001,3.001-1.37,4.446-3.315c-1.19,2.313-2.51,4.163-3.807,4.499c1.595-0.002,3.239-1.591,4.748-3.732
						c0.778-0.983,1.44-2.144,2.409-3.347c0.222-0.303,0.445-0.607,0.669-0.914c0.127-0.212,0.438-0.508,0.647-0.764l0.701-0.802
						c0.259-0.231,0.517-0.461,0.771-0.688c-0.384,0.447-0.772,0.883-1.101,1.428l-0.517,0.765l-0.129,0.188l-0.016,0.023
						l-0.002,0.003c0.027-0.028-0.062,0.067,0.06-0.062l-0.004,0.007l-0.008,0.014l-0.031,0.055l-0.062,0.111l-0.252,0.442
						c-0.339,0.588-0.686,1.171-1.039,1.736c-0.311,0.561-0.55,1.086-0.834,1.579c-1.093,1.978-2.369,3.822-3.647,4.149
						c1.024-0.016,2.09-0.7,3.061-1.677c0.491-0.493,0.994-1.126,1.423-1.636c0.221-0.277,0.439-0.57,0.653-0.878
						c0.107-0.157,0.216-0.315,0.326-0.476c0.143-0.176,0.287-0.353,0.433-0.533c0.283-0.364,0.571-0.735,0.863-1.11l0.429-0.573
						l0.013-0.018c0.029-0.031-0.239,0.251-0.124,0.13l0.003-0.003l0.006-0.007l0.024-0.026l0.048-0.053l0.097-0.107l0.192-0.217
						c0.258-0.285,0.508-0.606,0.769-0.887c0.269-0.251,0.536-0.501,0.802-0.75c1.074-0.922,2.346-1.522,3.672-1.822
						c0.22-0.036,0.433-0.071,0.64-0.105C26.302,20.396,27.945,19.038,29.455,18.981"/>
				</g>
			</g>
		</g>
		<g>
			<g>
				<g>
					<path fill="#91635A" d="M29.442,22.63c-0.196-0.348-0.422-0.615-0.666-0.849c-0.258-0.226-0.466-0.458-0.83-0.613
						c-0.341-0.173-0.719-0.355-1.138-0.586c-0.418-0.227-0.8-0.448-1.269-0.798c-0.148-0.082-0.277-0.141-0.414-0.196
						c-0.59-0.183-1.201-0.077-1.877,0.19c-0.427,0.196-1.49,1.066-2.494,2.327c-0.987,1.275-1.896,2.901-2.672,4.5
						c-1.536,3.187-2.92,6.343-4.74,6.522c1.396,0.198,2.694-0.835,3.905-2.348c-0.943,1.863-2.034,3.326-3.231,3.448
						c1.497,0.204,2.911-1,4.17-2.677c1.266-1.685,2.466-3.813,3.893-5.579c-0.975,1.693-1.806,3.75-2.717,5.461
						c-0.902,1.707-1.952,3.089-3.122,3.245c1.946,0.201,3.64-1.819,5.147-4.024c1.504-2.199,3.104-4.641,4.776-5.416
						c0.13-0.062,0.254-0.16,0.382-0.188c0.276-0.502,0.622-1.189,1.094-1.651c0.236-0.256,0.536-0.488,0.868-0.59
						C28.825,22.686,29.139,22.617,29.442,22.63"/>
				</g>
			</g>
		</g>
		<g>
			<g>
				<g>
					<path fill="#91635A" d="M24.824,18.695c0.666,0.033,1.35-0.037,2.052-0.154c0.688-0.194,1.466-0.457,2.207-0.75
						c1.446-0.568,2.973-1.262,4.525-1.308c0.244-0.041,0.449-0.085,0.66-0.136c0.437-0.125,0.859-0.24,1.293-0.438
						c0.436-0.213,0.851-0.298,1.285-0.551c0.143-0.096,0.347-0.171,0.603-0.283c0.28-0.11,0.513-0.289,0.983-0.463
						c1.087-0.371,2.376-0.819,3.927-1.273c1.534-0.451,3.271-0.885,5.104-1.156c0.91-0.122,1.841-0.2,2.753-0.185
						c0.45,0.017,0.895,0.05,1.318,0.122c0.219,0.028,0.399,0.094,0.608,0.137c0.031,0.003,0.147,0.043,0.108,0.017l0.188,0.074
						l0.374,0.149l0.749,0.299l0.561,0.33l0.577,0.329l0.614,0.449c0.829,0.58,1.614,1.283,2.392,1.965
						c1.556,1.379,2.976,2.844,4.525,4.021c1.417,1.129,2.718,2.236,3.727,3.23c0.962,1.033,1.656,1.961,2.006,2.724
						c-0.243-1.024-0.99-2.372-2.258-3.792c-0.631-0.708-1.363-1.453-2.177-2.228c-0.843-0.796-1.686-1.554-2.553-2.479
						c0.985,0.905,2.003,1.649,2.979,2.426c0.965,0.763,1.852,1.502,2.637,2.206c1.536,1.471,2.635,2.817,3.111,3.836
						c-0.251-1.114-1.155-2.55-2.539-4.182c-0.704-0.768-1.521-1.578-2.427-2.418c-0.459-0.418-0.933-0.85-1.421-1.294
						c-0.221-0.201-0.444-0.405-0.67-0.612c-0.228-0.229-0.457-0.462-0.69-0.697c-0.936-0.944-1.93-2.011-3.025-3.08
						c-0.562-0.534-1.113-1.078-1.759-1.595c-0.331-0.262-0.583-0.52-0.985-0.785l-1.15-0.77c-0.379-0.235-0.712-0.35-1.071-0.53
						l-0.266-0.124l-0.133-0.062c-0.136-0.061-0.132-0.051-0.205-0.08l-0.656-0.23c-0.872-0.246-1.735-0.393-2.574-0.438
						c-1.682-0.112-3.295,0.016-4.847,0.219c1.28-0.252,2.642-0.451,4.097-0.498c1.439-0.036,3.049,0.049,4.674,0.735l0.963,0.388
						c0.339,0.16,0.736,0.421,1.102,0.64c0.81,0.477,1.315,0.917,1.93,1.375c1.148,0.921,2.163,1.858,3.104,2.746
						c0.928,0.869,1.799,1.712,2.561,2.348c0.433,0.362,0.852,0.713,1.256,1.05c0.418,0.354,0.814,0.699,1.187,1.037
						c0.745,0.678,1.392,1.307,1.918,1.916c0.528,0.645,0.931,1.233,1.182,1.75c-0.189-0.726-0.66-1.648-1.338-2.549
						c-0.674-0.895-1.557-1.868-2.603-2.9l-0.197-0.194l-0.101-0.098l-0.013-0.012l-0.124-0.102l-0.019-0.021l-0.038-0.041
						l-0.31-0.322c-0.214-0.224-0.421-0.397-0.674-0.688c-0.511-0.552-1.042-1.126-1.592-1.72c-1.188-1.252-2.449-2.67-4.229-4.11
						c-0.178-0.165-0.503-0.392-0.79-0.594l-0.892-0.603l-0.453-0.289l-0.337-0.166l-0.664-0.316l-0.441-0.211l-0.517-0.196
						c-0.347-0.128-0.698-0.257-1.021-0.326c-0.673-0.187-1.301-0.276-1.93-0.364c-2.46-0.251-4.663-0.037-6.757,0.276
						c-2.094,0.319-4.057,0.773-5.92,1.252c-0.456,0.122-0.907,0.242-1.352,0.361c-0.549,0.173-1.05,0.364-1.559,0.547
						c-0.25,0.095-0.505,0.18-0.744,0.283c-0.226,0.121-0.45,0.24-0.672,0.358c-0.437,0.241-0.886,0.465-1.283,0.711
						c-0.483,0.331-0.953,0.653-1.408,0.964C29.132,14.111,27.832,17.304,24.824,18.695"/>
				</g>
			</g>
		</g>
		<g>
			<g>
				<g>
					<path fill="#91635A" d="M47.26,21.188c2.761,1.551,7.15,1.562,10.121,3.752c0.262,0.135,0.467,0.284,0.694,0.408
						c1.017,0.471,2.162,0.896,3.49,1.353c0.22,0.083,0.543,0.184,0.963,0.302c0.104,0.029,0.216,0.06,0.332,0.091l0.044,0.012
						l0.022,0.006c-0.346-0.164-0.092-0.044-0.168-0.08l0.007,0.002l0.013,0.005l0.103,0.042l0.213,0.087
						c0.29,0.116,0.604,0.243,0.94,0.378c0.16,0.066,0.361,0.139,0.504,0.205c0.134,0.064,0.271,0.131,0.412,0.2
						c0.287,0.141,0.586,0.263,0.922,0.434c0.691,0.396,1.463,0.813,2.266,1.366c1.618,1.068,3.413,2.493,5.348,4.098
						c0.242,0.201,0.486,0.404,0.732,0.607l0.185,0.153l0.093,0.077c-0.037-0.041,0.1,0.104-0.081-0.089l0.011,0.01l0.022,0.021
						l0.044,0.042L74.843,35c0.47,0.443,0.945,0.891,1.424,1.342c0.478,0.453,0.959,0.91,1.443,1.369
						c0.403,0.475,0.81,0.952,1.217,1.43l1.229,1.459c0.412,0.491,0.719,1.068,1.083,1.601c0.352,0.547,0.701,1.092,1.049,1.634
						c0.363,0.538,0.575,1.145,0.866,1.712c0.544,1.151,1.111,2.281,1.43,3.466c0.349,1.171,0.795,2.285,0.954,3.42
						c0.207,1.122,0.418,2.193,0.545,3.209c0.074,1.025,0.124,1.986,0.142,2.865c0.009,0.439,0.015,0.858,0.002,1.255
						c-0.031,0.4-0.07,0.777-0.115,1.13c-0.091,0.706-0.211,1.314-0.362,1.81c0.574-1.129,1.017-2.979,1.038-5.339
						c0.019-0.591,0.025-1.215,0.021-1.868c-0.034-0.649-0.12-1.324-0.196-2.027c-0.091-0.703-0.185-1.43-0.28-2.18
						c-0.166-0.737-0.364-1.492-0.562-2.268c0.256,0.814,0.544,1.61,0.745,2.406c0.16,0.806,0.317,1.592,0.47,2.355
						c0.343,1.527,0.404,2.99,0.495,4.317c0.108,1.328,0.05,2.53-0.051,3.565c-0.096,1.035-0.24,1.903-0.442,2.568
						c0.312-0.607,0.566-1.422,0.769-2.417c0.193-0.995,0.388-2.167,0.379-3.492c0.013-0.662,0.011-1.362-0.003-2.095
						c-0.01-0.366-0.01-0.741-0.036-1.123c-0.046-0.381-0.093-0.77-0.141-1.166c-0.11-0.792-0.225-1.613-0.342-2.458
						c-0.109-0.847-0.402-1.693-0.615-2.571c-0.12-0.437-0.241-0.879-0.363-1.326l-0.189-0.672l-0.266-0.657
						c-0.362-0.876-0.731-1.768-1.106-2.672c-0.169-0.46-0.424-0.883-0.671-1.313c-0.247-0.429-0.495-0.861-0.744-1.294
						c-0.498-0.866-0.981-1.747-1.643-2.546c-0.619-0.812-1.242-1.629-1.867-2.448c-0.652-0.757-1.35-1.43-2.023-2.146l-1.018-1.056
						l-0.255-0.263l-0.112-0.115l-0.067-0.062l-0.135-0.123l-0.537-0.493c-0.722-0.656-1.438-1.308-2.149-1.953
						c0.618,0.507,1.248,1.024,1.889,1.55c0.316,0.264,0.635,0.529,0.956,0.796l0.12,0.101l0.061,0.05l0.03,0.025l0.085,0.087
						l0.229,0.216l0.46,0.435c0.613,0.583,1.233,1.171,1.857,1.763c0.307,0.309,0.633,0.567,0.925,0.921l0.883,1.057l1.766,2.156
						c0.527,0.75,0.99,1.531,1.479,2.297c1.044,1.502,1.694,3.176,2.424,4.753c0.395,0.783,0.572,1.61,0.838,2.396
						c0.235,0.795,0.466,1.571,0.689,2.323c0.295,1.524,0.527,2.965,0.707,4.28c0.15,2.624,0.149,4.75-0.289,6.075
						c0.198-0.404,0.373-0.893,0.524-1.46c0.124-0.571,0.21-1.223,0.277-1.947c0.065-0.724,0.105-1.52,0.122-2.378
						c-0.003-0.86-0.114-1.79-0.209-2.771c-0.129-1.967-0.729-4.14-1.37-6.435c-0.429-1.124-0.889-2.28-1.372-3.457
						c-0.518-1.161-1.218-2.27-1.854-3.428l-0.496-0.863c-0.186-0.283-0.401-0.558-0.603-0.837
						c-0.413-0.554-0.829-1.111-1.247-1.671c-0.42-0.538-0.847-1.153-1.273-1.624l-1.285-1.353l-1.294-1.354l-0.323-0.338
						l-0.082-0.084l-0.163-0.173l-0.021-0.02l-0.043-0.04l-0.172-0.158l-0.687-0.633c-0.92-0.843-1.852-1.706-2.825-2.549
						c-1.955-1.701-3.965-3.288-6.313-4.625c-2.2-1.246-4.599-2.147-6.771-2.598c-0.697-0.192-1.377-0.292-2.035-0.398
						C55.295,19.962,51.222,21.447,47.26,21.188"/>
				</g>
			</g>
		</g>
		<g>
			<g>
				<g>
					<path fill="#91635A" d="M52.874,15.606c-0.248,0.455-0.406,0.936-0.525,1.436c-0.056,0.518-0.069,1.126-0.038,1.728
						c0.078,1.168,0.241,2.423,0.146,3.827c0.013,0.219,0.035,0.407,0.064,0.602c0.094,0.416,0.259,0.809,0.479,1.211
						c0.218,0.408,0.495,0.819,0.843,1.194c0.452,0.537,1.977,1.724,3.975,3.045c1.982,1.344,4.482,2.795,6.583,4.614l0.395,0.344
						l0.024,0.021c-0.031-0.045,0.08,0.109-0.068-0.1l0.006,0.006l0.011,0.013l0.047,0.053l0.092,0.105l0.185,0.21l0.729,0.845
						c0.27,0.288,0.419,0.551,0.594,0.824c0.177,0.277,0.353,0.552,0.526,0.824c0.292,0.604,0.585,1.219,0.808,1.843
						c0.195,0.639,0.412,1.245,0.532,1.868c0.546,2.464,0.681,4.574,0.443,5.878c0.383-0.812,0.568-1.905,0.602-3.226
						c0.031-1.321-0.026-2.896-0.432-4.629c0.639,1.802,0.917,3.521,1.128,4.937c0.183,1.422,0.303,2.562,0.088,3.416
						c0.445-0.866,0.536-1.984,0.562-3.396c-0.012-1.408-0.089-3.126-0.574-5.135c-0.095-0.495-0.273-1.005-0.453-1.521
						c-0.17-0.514-0.36-1.037-0.659-1.578c-0.138-0.266-0.277-0.533-0.417-0.802c-0.14-0.278-0.286-0.533-0.444-0.728
						c-0.311-0.425-0.625-0.854-0.941-1.287l-0.136-0.183l-0.073-0.078l-0.146-0.156l-0.294-0.312
						c-0.197-0.205-0.39-0.42-0.597-0.607c-0.409-0.385-0.813-0.778-1.235-1.133c-0.83-0.735-1.68-1.407-2.505-2.069
						c1.478,0.978,3.092,2.053,4.628,3.433l0.572,0.528l0.585,0.684c0.31,0.365,0.616,0.728,0.921,1.087
						c0.596,0.955,1.253,2.011,1.579,2.93c0.429,0.954,0.651,1.855,0.884,2.722c0.18,0.82,0.32,1.634,0.394,2.298
						c0.142,1.377,0.135,2.392-0.127,3.147c0.307-0.481,0.526-1.113,0.634-1.831c0.114-0.777,0.17-1.606,0.091-2.708
						c-0.032-0.534-0.08-1.09-0.204-1.732c-0.113-0.628-0.222-1.271-0.464-1.977c-0.216-0.693-0.424-1.391-0.853-2.212
						c-0.192-0.396-0.395-0.793-0.605-1.188c-0.111-0.224-0.2-0.337-0.293-0.472l-0.282-0.403c-0.191-0.269-0.384-0.539-0.578-0.812
						l-0.335-0.465l-0.196-0.217l-0.396-0.434c-0.529-0.593-1.079-1.088-1.627-1.605c-1.103-1.002-2.209-1.882-3.275-2.737
						c-2.121-1.684-4.069-3.235-5.398-4.742c-0.207-0.242-0.433-0.472-0.605-0.708C55.52,19.202,53.252,17.884,52.874,15.606"/>
				</g>
			</g>
		</g>
		<g>
			<g>
				<g>
					<path fill="#91635A" d="M78.659,54.876c-1.315,0.825-1.292,2.043-3.004,3.112c-0.11,0.09-0.195,0.168-0.279,0.25
						c-0.285,0.36-0.437,0.763-0.408,1.239c0.018,0.644,1.421,3.397,2.046,6.343c0.312,1.473,0.383,3.025,0.068,4.261
						c-0.318,1.23-0.995,2.094-1.823,2.178c1.358,0.172,2.501-1.003,3.065-2.775c-0.166,2.002-1.133,3.629-2.26,3.77
						c1.444,0.161,2.826-1.279,3.412-3.391c0.635-2.105,0.444-4.652,0.121-6.858c0.605,1.83,1.105,4.131,0.931,6.251
						c-0.14,2.113-1.074,3.926-2.226,4.238c0.975-0.031,1.888-0.738,2.546-1.875c0.654-1.13,1.062-2.666,1.155-4.233
						c0.213-3.168-0.594-6.393-0.912-8.692c-0.023-0.186-0.046-0.366-0.067-0.541C80.117,57.137,78.714,56.016,78.659,54.876"/>
				</g>
			</g>
		</g>
		<g>
			<g>
				<g>
					<path fill="#91635A" d="M35.657,15.719c0.245,0.758,0.674,1.225,1.111,1.751c0.398,0.545,0.74,1.139,0.818,2.107
						c0.026,0.136,0.051,0.244,0.079,0.352c0.147,0.407,0.417,0.672,0.752,0.857c0.114,0.061,0.362,0.11,0.728,0.161
						c0.331,0.081,0.807,0.138,1.305,0.295c1.023,0.27,2.308,0.884,3.45,1.964c1.146,1.061,2.112,2.481,2.68,3.769
						c0.569,1.294,0.758,2.466,0.34,3.261c0.925-1.06,0.891-2.696,0.261-4.566c1.068,1.845,1.582,3.575,1.027,4.63
						c0.987-1.135,0.891-2.918,0.127-5.008c-0.752-2.061-2.326-4.515-4.403-6.057c1.953,1.031,3.821,3.065,4.897,4.932
						c1.09,1.878,1.542,3.538,1.01,4.559c0.631-0.722,0.814-1.713,0.644-2.916c-0.167-1.193-0.676-2.621-1.567-4.135
						c-0.875-1.504-2.194-3.076-3.736-4.235c-1.536-1.178-3.184-1.889-4.525-2.408c-0.216-0.08-0.426-0.157-0.628-0.232
						c-0.757,0.11-1.621,0.437-2.36,0.643C36.934,15.68,36.25,15.871,35.657,15.719"/>
				</g>
			</g>
		</g>
		<g>
			<g>
				<g>
					<path fill="#91635A" d="M44.391,13.248c-0.103,1.758,1.093,2.937,0.852,5.172c0.004,0.164,0.016,0.299,0.032,0.438
						c0.13,0.55,0.414,1.068,0.896,1.532c0.602,0.578,3.698,2.244,6.777,4.579l-0.086-0.114c1.613,1.408,2.905,3.469,3.593,5.421
						c0.694,1.953,0.916,3.685,0.473,4.735c0.914-1.221,0.964-3.303,0.316-5.812c1.089,2.568,1.54,4.848,1,6.11
						c0.833-1.096,0.923-2.822,0.511-5.038c-0.413-2.195-1.561-4.939-3.4-7.129l-0.061-0.081c-0.771-0.717-1.543-1.435-2.296-2.135
						c0.82,0.588,1.696,1.229,2.578,1.906l0.078,0.104c1.801,1.731,3.167,4.108,3.846,6.093c0.692,2.006,0.856,3.587,0.412,4.551
						c0.78-0.969,0.954-2.51,0.565-4.606c-0.377-2.065-1.485-4.787-3.331-7.064l-0.165-0.22c-2.384-2.389-5.037-4.526-7.021-6.203
						c-0.199-0.175-0.392-0.345-0.579-0.51C47.702,14.525,45.554,14.333,44.391,13.248"/>
				</g>
			</g>
		</g>
		<g>
			<g>
				<g>
					<path fill="#91635A" d="M28.771,15.33c-0.66-0.662-1.397-1-2.42-1.261c-0.98-0.226-2.07-0.458-3.495-0.704
						c-0.227-0.014-0.426-0.014-0.633-0.001c-0.849,0.167-1.833,0.666-2.565,1.502c-0.264,0.275-0.641,0.849-1.01,1.606
						c-0.35,0.746-0.682,1.659-0.957,2.604c-0.282,0.944-0.551,1.958-0.882,2.981c-0.087,0.254-0.175,0.511-0.265,0.771
						l-0.139,0.393c-0.097,0.211-0.116,0.299-0.178,0.455c-0.228,0.599-0.372,0.997-0.644,1.563
						c-1.003,2.125-2.359,4.267-3.422,6.103c-0.54,0.934-1.025,1.775-1.448,2.507c-0.417,0.746-0.811,1.372-1.229,1.828
						c1.384-0.985,2.62-2.762,4.356-4.975c-0.74,1.312-1.378,2.509-1.884,3.512c-0.518,1.002-0.886,1.825-1.405,2.391
						c0.734-0.494,1.282-1.198,1.942-2.045c0.668-0.902,1.431-1.932,2.278-3.075c0.869-1.196,1.876-2.553,2.846-4.062
						c0.461-0.732,0.999-1.622,1.354-2.388c0.385-0.762,0.801-1.613,1.137-2.402c-0.218,0.701-0.467,1.436-0.763,2.183
						c-0.134,0.355-0.268,0.713-0.403,1.073c-0.173,0.381-0.363,0.809-0.542,1.164c-0.727,1.481-1.543,2.85-2.255,4.042
						c-1.486,2.409-2.333,4.012-3.339,4.657c0.949-0.318,1.695-0.942,2.624-1.965c0.91-1.024,2.063-2.443,3.35-4.259
						c0.321-0.46,0.646-0.936,0.971-1.455c0.297-0.472,0.751-1.216,0.953-1.648l0.095-0.187l0.047-0.094l0.024-0.047l0.012-0.023
						l0.003-0.006c-0.078,0.123-0.02,0.03-0.036,0.056l0.007-0.013l0.214-0.413l0.417-0.824c0.26-0.548,0.51-1.092,0.732-1.617
						c0.899-2.12,1.576-3.878,2.356-4.605c0.115-0.15,0.26-0.222,0.383-0.336C25.244,17.041,26.937,15.285,28.771,15.33"/>
				</g>
			</g>
		</g>
		<g>
			<g>
				<g>
					<path fill="#91635A" d="M75.691,38.224c-0.666,0.636-1.004,1.414-1.396,2.224c-0.383,0.812-0.839,1.67-1.786,2.347
						c-0.122,0.119-0.217,0.222-0.312,0.33c-0.333,0.479-0.539,1.04-0.574,1.717c-0.016,0.447,0.111,1.806,0.322,3.633
						c0.151,1.835,0.326,4.17,0.305,6.562c-0.021,4.788-0.597,9.742-2.252,11.19c1.415-0.722,2.364-2.817,3.052-5.54
						c-0.319,2.996-0.922,5.504-2.031,6.469c2.982-1.528,4.071-9.376,4.434-16.245c0.359,5.789-0.01,13.515-2.13,15.343
						c1.916-0.977,3.015-4.497,3.685-8.773c0.672-4.288,0.766-9.255,0.807-13.038c0.005-0.305,0.009-0.603,0.014-0.89
						C77.126,41.757,75.707,39.99,75.691,38.224"/>
				</g>
			</g>
		</g>
	</g>
	<g>
		<g>
			<g>
				<path fill="#916B58" d="M26.493,10.997c0.693,0.203,1.465,0.369,2.285,0.521c0.414,0.072,0.834,0.145,1.261,0.219
					c0.437,0.047,0.879,0.096,1.328,0.145c1.812,0.203,3.682,0.403,5.375,0.82c0.293,0.051,0.543,0.095,0.803,0.14
					c0.573,0.085,1.196,0.154,1.875,0.205c0.342,0.02,0.694,0.041,1.061,0.062c0.159,0.005,0.32,0.011,0.485,0.017
					c0.195,0.018,0.394,0.037,0.597,0.055c0.27,0.018,0.662,0.042,1.164,0.074c0.481,0.044,1.157,0.009,1.744,0.144
					c0.627,0.097,1.338,0.206,2.12,0.327c0.804,0.207,1.681,0.433,2.617,0.673c3.75,1.073,8.237,3.394,12.675,6.064
					c1.115,0.656,2.219,1.353,3.326,2.036c0.552,0.344,1.102,0.686,1.647,1.026c0.564,0.321,1.125,0.641,1.68,0.958
					c1.119,0.619,2.188,1.279,3.268,1.836c1.075,0.568,2.115,1.118,3.111,1.644c3.994,2.043,7.383,3.652,8.646,5.051
					c-0.659-0.86-2.112-1.935-4.104-3.06c-2.011-1.127-4.417-2.477-7.085-3.973c1.462,0.739,2.838,1.515,4.182,2.162
					c1.342,0.657,2.585,1.28,3.729,1.877c1.128,0.592,2.156,1.159,2.966,1.764c0.833,0.573,1.396,1.229,1.807,1.718
					c-0.336-0.482-0.813-1.169-1.587-1.765c-0.738-0.646-1.73-1.252-2.807-1.879c-2.199-1.266-4.892-2.635-7.806-4.302
					c-1.485-0.785-2.935-1.747-4.493-2.645c-1.539-0.933-3.084-2.001-4.672-3.013c-3.186-2.044-6.515-4.064-9.924-5.619
					c2.872,1.19,5.814,2.848,8.705,4.571c2.894,1.731,5.712,3.589,8.408,5.054c5.381,3.055,10.236,5.206,12.309,6.921
					c-0.289-0.28-0.66-0.594-1.107-0.938c-0.449-0.327-0.903-0.638-1.525-1.024c-1.117-0.705-2.475-1.488-4.018-2.332
					c-1.498-0.906-3.224-1.834-4.984-2.902c-0.878-0.535-1.784-1.086-2.713-1.651c-0.933-0.554-1.882-1.234-2.854-1.858
					c-3.892-2.555-8.154-5.28-12.692-7.276c-2.309-0.937-4.581-1.76-6.952-2.205c-0.593-0.109-1.179-0.216-1.757-0.322
					c-0.584-0.118-1.094-0.096-1.632-0.151c-0.529-0.037-1.05-0.074-1.562-0.11c-0.623-0.035-1.062-0.011-1.586-0.021
					c-0.642-0.003-1.266-0.007-1.871-0.01C34.305,10.448,30.342,11.286,26.493,10.997"/>
			</g>
		</g>
	</g>
	<g>
		<g>
			<g>
				<path fill="#916B58" d="M39.04,8.638c-0.795-0.305-1.752-0.445-2.754-0.603c-1.022-0.062-2.123-0.245-3.193-0.46
					c-0.179-0.021-0.336-0.033-0.5-0.042c-0.718-0.002-1.566,0.059-2.514,0.432c-0.619,0.204-2.417,0.957-4.306,2.581
					c-0.995,0.749-1.876,1.811-2.815,2.884c-0.414,0.576-0.838,1.167-1.27,1.767c-0.475,0.643-0.766,1.24-1.166,1.869
					c-1.515,2.652-2.422,5.481-3.39,7.784c-0.957,2.303-1.996,4.075-2.871,4.756c1.228-0.617,2.677-3.045,4.044-6.178
					c-0.653,1.706-1.282,3.299-1.994,4.554c-0.66,1.279-1.451,2.167-1.993,2.658c0.59-0.377,1.461-1.161,2.205-2.381
					c0.809-1.192,1.531-2.764,2.291-4.482c0.757-1.699,1.55-3.591,2.54-5.313c0.238-0.445,0.569-0.88,0.849-1.324l0.438-0.664
					l0.465-0.594c0.319-0.408,0.638-0.815,0.954-1.22c0.308-0.416,0.701-0.738,1.044-1.109c-0.277,0.312-0.56,0.631-0.847,0.954
					c-0.252,0.355-0.508,0.716-0.767,1.08c-0.249,0.357-0.541,0.737-0.759,1.077l-0.723,1.198c-0.263,0.399-0.463,0.801-0.643,1.195
					c-0.191,0.393-0.381,0.784-0.569,1.17c-0.336,0.837-0.706,1.616-1.009,2.433c-0.639,1.589-1.229,3.121-1.867,4.364
					c-0.294,0.625-0.638,1.173-0.945,1.634c-0.311,0.459-0.583,0.837-0.881,1.086c0.81-0.529,1.787-1.875,2.725-3.679
					c0.924-1.78,1.839-4.035,2.943-6.107c0.297-0.507,0.493-1.002,0.909-1.568l0.557-0.833l0.279-0.419
					c0.026-0.042,0.175-0.223,0.256-0.328l1.167-1.49c0.408-0.473,0.86-0.886,1.283-1.333c1.759-1.694,3.841-2.817,5.802-3.425
					c0.322-0.075,0.635-0.148,0.939-0.219C34.668,9.475,36.901,8.711,39.04,8.638"/>
			</g>
		</g>
	</g>
	<g>
		<g>
			<g>
				<path fill="#916B58" d="M32.491,11.785c-0.239,0.154-0.448,0.346-0.647,0.558c-0.195,0.215-0.385,0.458-0.622,0.62
					c-0.224,0.18-0.448,0.35-0.683,0.486c-0.268,0.143-0.573,0.264-0.898,0.333c-0.097,0.034-0.176,0.067-0.257,0.103
					c-0.318,0.182-0.688,0.459-1.005,0.85c-0.215,0.272-0.771,1.09-1.498,2.335c-0.186,0.29-0.356,0.673-0.543,1.028
					c-0.091,0.183-0.184,0.37-0.278,0.559c-0.077,0.208-0.155,0.418-0.235,0.632c-0.158,0.415-0.323,0.877-0.402,1.271
					c-0.104,0.402-0.21,0.818-0.287,1.286c-0.673,3.557-0.475,7.044-1.159,8.344c0.614-0.73,0.905-2.325,1.228-4.296
					c-0.143,2.133-0.191,3.949-0.638,4.8c0.667-0.776,0.907-2.52,1.229-4.645c0.154-1.059,0.344-2.228,0.614-3.367
					c0.069-0.282,0.139-0.567,0.209-0.852l0.294-0.887c0.089-0.312,0.208-0.541,0.325-0.817c0.127-0.261,0.205-0.544,0.37-0.79
					c-1.595,3.666-1.091,8.827-1.997,10.396c0.873-0.927,1.086-3.438,1.691-6.165c0.167-0.679,0.265-1.226,0.561-2.033
					c0.126-0.414,0.235-0.651,0.372-0.96l0.187-0.45c0.079-0.15,0.174-0.298,0.26-0.448c0.678-1.207,1.637-2.361,2.449-3.433
					c0.131-0.17,0.259-0.335,0.382-0.496c0.208-0.646,0.405-1.302,0.546-2.04C32.251,13.02,32.257,12.377,32.491,11.785"/>
			</g>
		</g>
	</g>
	<g>
		<g>
			<g>
				<path fill="#916B58" d="M52.496,14.42c2.811,0.673,7.034,0.119,10.187,1.268c0.27,0.073,0.499,0.135,0.737,0.199
					c0.516,0.151,1.054,0.323,1.646,0.468c0.268,0.117,0.545,0.229,0.837,0.336c0.146,0.052,0.296,0.179,0.448,0.232L66.354,17
					h0.002c-0.042,0,0.094-0.03-0.093-0.119l0.001-0.037l0.008-0.015l0.017,0l0.032,0.013l0.065,0.033l0.133,0.069l0.27,0.141
					c0.244,0.121,0.599,0.295,1.052,0.519c0.451,0.219,1.037,0.467,1.55,0.815c0.554,0.333,1.182,0.709,1.872,1.124
					c0.691,0.489,1.446,1.022,2.252,1.591c0.407,0.283,0.774,0.624,1.183,0.947c0.201,0.165,0.405,0.332,0.611,0.501l0.312,0.256
					l0.078,0.064l0.039,0.032l0.011,0.008c-0.02-0.021,0.057,0.059-0.042-0.046l0.02,0.019l0.149,0.151
					c0.791,0.811,1.683,1.65,2.355,2.539c1.474,1.766,2.852,3.931,3.916,6.255c2.197,4.652,3.464,9.877,4.598,14.246
					c1.103,4.391,2.172,7.947,2.634,9.905c-0.083-0.576-0.219-1.308-0.396-2.178c-0.202-0.884-0.43-1.881-0.682-2.987
					c-0.515-2.262-1.13-4.968-1.813-7.97c0.852,3.189,1.611,6.158,2.337,8.616c0.334,1.239,0.717,2.329,0.98,3.298
					c0.313,0.949,0.561,1.759,0.706,2.408c-0.075-0.617-0.247-1.399-0.5-2.319c-0.201-0.941-0.525-2.005-0.808-3.229
					c-0.623-2.426-1.294-5.401-2.075-8.708c-0.793-3.299-1.728-6.94-3.172-10.52c-1.397-3.579-3.528-7.043-6.114-9.783
					c0.271,0.275,0.545,0.554,0.821,0.834c0.269,0.292,0.52,0.621,0.784,0.936c0.262,0.321,0.526,0.644,0.792,0.969
					c0.259,0.33,0.479,0.682,0.722,1.027l0.718,1.049c0.224,0.361,0.429,0.735,0.645,1.105l0.639,1.121l0.565,1.161
					c1.502,3.111,2.556,6.414,3.404,9.476c0.844,3.069,1.52,5.901,2.115,8.248c0.573,2.356,1.088,4.217,1.307,5.453
					c-0.128-1.536-0.713-4.184-1.446-7.65c-0.755-3.454-1.632-7.772-3.2-12.352c-0.814-2.279-1.808-4.609-3.096-6.829
					c-1.279-2.156-3.015-4.405-4.651-6.029c-1.963-1.844-3.757-3.252-5.786-4.586c-1.014-0.643-2.005-1.327-2.958-1.747
					c-0.477-0.239-0.946-0.475-1.407-0.706c-0.629-0.274-1.113-0.388-1.661-0.578c-0.679-0.224-1.342-0.264-1.982-0.397
					C60.243,13.056,56.36,14.359,52.496,14.42"/>
			</g>
		</g>
	</g>
	<g>
		<g>
			<g>
				<path fill="#916B58" d="M72.879,24.534c-0.169,0.53-0.3,1.117-0.41,1.741c-0.065,0.631-0.129,1.319-0.163,2.014
					c-0.056,1.379-0.077,2.826-0.302,4.176c-0.017,0.233-0.029,0.429-0.044,0.63c-0.01,0.904,0.094,1.947,0.273,3.135
					c0.071,0.388,0.208,1.127,0.396,2.145c0.023,0.125,0.048,0.255,0.073,0.389l0.03,0.188l0.023,0.105l0.048,0.216
					c0.064,0.292,0.133,0.6,0.204,0.922c0.144,0.645,0.301,1.347,0.469,2.098c0.34,1.502,0.859,3.232,1.342,5.028
					c0.58,1.768,1.105,3.657,1.789,5.516c0.318,0.93,0.64,1.863,0.957,2.789c0.295,0.93,0.647,1.883,0.996,2.78
					c0.722,1.805,1.544,3.496,2.441,4.966c0.897,1.471,1.885,2.703,2.821,3.663c0.935,0.968,1.842,1.616,2.451,2.142
					c-0.647-0.69-1.71-1.604-2.794-2.958c-1.101-1.336-2.187-3.123-3.146-5.217c0.56,1.095,1.165,2.113,1.793,3.029
					c0.648,0.902,1.308,1.707,1.975,2.379c1.328,1.358,2.659,2.135,3.496,2.703c-0.722-0.641-1.913-1.458-3.142-2.796
					c-1.22-1.342-2.459-3.188-3.509-5.428c-0.523-1.12-1.004-2.33-1.44-3.6c-0.221-0.64-0.42-1.265-0.618-1.949
					c-0.206-0.674-0.415-1.354-0.625-2.04c-0.427-1.351-0.86-2.718-1.225-4.097c-0.393-1.373-0.773-2.742-1.071-4.097
					c0.151,0.555,0.307,1.122,0.464,1.698c0.181,0.572,0.363,1.153,0.548,1.739c0.373,1.172,0.725,2.374,1.155,3.557
					c0.413,1.206,0.819,2.338,1.215,3.59c0.384,1.142,0.809,2.256,1.259,3.303c0.896,2.098,1.943,3.893,2.94,5.265
					c1.007,1.368,1.967,2.295,2.571,2.945c-0.643-0.91-1.885-2.272-3.087-4.421c-0.606-1.067-1.207-2.315-1.761-3.709
					c-0.284-0.693-0.543-1.43-0.797-2.191c-0.259-0.767-0.464-1.478-0.74-2.437c-0.478-1.661-1.077-3.353-1.523-5.093l-0.724-2.604
					c-0.206-0.865-0.412-1.728-0.617-2.583c-0.443-1.685-0.712-3.472-1.032-5.126l-0.104-0.554l-0.095-0.635
					c-0.063-0.419-0.126-0.833-0.188-1.24c-0.143-0.798-0.28-1.572-0.412-2.313c-0.085-0.47-0.168-0.928-0.248-1.371
					C73.935,30.337,72.787,27.462,72.879,24.534"/>
			</g>
		</g>
	</g>
	<g>
		<g>
			<g>
				<path fill="#916B58" d="M76.756,35.243c-0.191,0.736-0.219,1.582-0.219,2.478c0.015,0.896,0.011,1.869-0.198,2.777
					c-0.015,0.159-0.027,0.288-0.039,0.42c0.002,0.601,0.084,1.259,0.283,2.015c0.226,1.022,2.164,5.324,1.824,10.352
					c-0.034,2.545-0.214,5.117-0.346,7.316c-0.211,2.185-0.288,3.985-0.677,4.939c0.327-0.541,0.574-1.409,0.759-2.511
					c0.186-1.102,0.425-2.435,0.574-3.922c-0.199,3.193-0.274,5.914-0.764,7.178c0.711-1.158,0.968-3.763,1.356-7.011
					c0.172-1.627,0.368-3.426,0.493-5.26c0.06-0.917,0.121-1.845,0.181-2.77c0.023-0.542-0.035-0.965-0.05-1.449
					c-0.037-0.468-0.023-0.934-0.106-1.389c0.143,0.753,0.184,1.552,0.278,2.372c0.038,0.908-0.008,1.647-0.016,2.49
					c-0.028,1.636-0.109,3.281-0.212,4.812c-0.103,1.529-0.182,2.912-0.343,4.081c-0.136,1.162-0.252,2.086-0.498,2.68
					c0.838-1.421,1.278-5.16,1.754-9.729c0.084-1.128,0.171-2.295,0.26-3.473l-0.017-0.442L81,51.058v-0.029l0.041-0.059
					l0.018-0.118l0.001-0.236l-0.041-0.942l-0.046-0.937l-0.121-0.924c-0.309-2.456-0.976-4.711-1.525-6.555
					c-0.085-0.297-0.166-0.586-0.246-0.865c-0.434-0.793-0.931-1.61-1.358-2.462C77.265,37.08,76.952,36.148,76.756,35.243"/>
			</g>
		</g>
	</g>
	<g>
		<g>
			<g>
				<path fill="#916B58" d="M23.106,17.067c-0.728,0.054-1.505,0.4-2.293,0.792c-0.784,0.4-1.593,0.842-2.494,1.122
					c-0.143,0.058-0.26,0.118-0.381,0.181c-0.509,0.308-1.038,0.752-1.561,1.362c-0.679,0.81-3.488,4.952-4.821,9.87
					c-0.674,2.433-0.907,5.089-0.307,7.213c0.57,2.146,1.832,3.51,2.376,4.371c-0.242-0.582-0.735-1.335-1.194-2.311
					c-0.462-0.975-0.828-2.21-0.897-3.617c0.184,1.495,0.698,2.79,1.344,3.742c0.625,0.976,1.339,1.604,1.691,2.162
					c-0.534-1.158-2.289-2.918-2.421-5.852c-0.219-2.889,0.974-6.471,2.592-9.464c-1.211,2.562-2.204,5.765-2.174,8.383
					c-0.004,2.653,1.154,4.284,1.625,5.283c-0.171-0.725-0.649-1.658-0.887-2.916c-0.268-1.244-0.224-2.934,0.245-4.82
					c0.93-3.788,3.422-8.011,5.737-10.686c0.181-0.22,0.37-0.421,0.55-0.619C20.636,19.809,21.575,18.029,23.106,17.067"/>
			</g>
		</g>
	</g>
	<g>
		<g>
			<g>
				<path fill="#85604D" d="M40.018,17.72c-0.397,0.075-0.665,0.264-0.963,0.454c-0.147,0.098-0.308,0.183-0.486,0.276
					c-0.171,0.113-0.374,0.221-0.629,0.318c-0.07,0.039-0.126,0.077-0.183,0.118c-0.21,0.194-0.373,0.473-0.455,0.824
					c-0.034,0.215,0.044,0.826,0.159,1.602c0.188,0.772,0.412,1.698,0.765,2.582c0.643,1.812,1.593,3.285,1.475,4.23
					c0.15-0.347,0.178-0.724,0.114-1.115c-0.037-0.404-0.105-0.861-0.266-1.333c0.281,0.468,0.434,0.936,0.608,1.303
					c0.17,0.369,0.236,0.715,0.17,1.034c0.164-0.366,0.197-0.753,0.131-1.143c-0.084-0.378-0.129-0.869-0.318-1.337
					c-0.243-0.996-0.668-2.202-0.782-3.403c0.073,0.246,0.147,0.5,0.223,0.755c0.101,0.253,0.201,0.507,0.299,0.754
					c0.163,0.507,0.42,0.967,0.586,1.402c0.378,0.857,0.643,1.491,0.479,1.996c0.472-0.773,0.215-1.697-0.126-2.984
					c-0.308-1.266-0.568-2.89-0.436-3.981c0.013-0.082,0.025-0.161,0.037-0.237C40.061,19.267,39.785,18.288,40.018,17.72"/>
			</g>
		</g>
	</g>
	<g>
		<g>
			<g>
				<path fill="#85604D" d="M37.442,14.875c0.268,0.175,0.57,0.305,0.885,0.428c0.287,0.178,0.556,0.289,0.824,0.48
					c0.542,0.377,1.036,0.84,1.275,1.535c0.056,0.1,0.101,0.18,0.147,0.261c0.235,0.353,0.552,0.677,0.979,1.055
					c0.29,0.229,1.178,0.853,2.369,1.86c1.206,0.989,2.644,2.411,4.403,3.684c3.325,2.341,6.679,4.925,7.384,6.423
					c-0.244-1.032-1.534-2.485-3.303-4.103c2.025,1.567,3.667,3.043,4.137,4.041c-0.26-1.104-1.715-2.689-3.676-4.443
					c-0.98-0.877-2.087-1.796-3.234-2.719c-1.142-0.87-2.168-1.901-3.195-2.937c0.905,0.791,1.877,1.67,2.874,2.374
					c1.057,0.756,2.129,1.536,3.091,2.289c1.932,1.508,3.478,2.918,3.932,3.883c-0.331-1.406-2.602-3.593-5.386-5.916
					c-0.347-0.286-0.7-0.578-1.058-0.873c-0.31-0.248-0.628-0.529-0.95-0.829c-0.644-0.606-1.299-1.27-1.959-1.936
					c-1.326-1.333-2.674-2.655-4.04-3.643c-0.221-0.156-0.437-0.308-0.645-0.455C40.762,14.769,38.862,14.768,37.442,14.875"/>
			</g>
		</g>
	</g>
	<g>
		<g>
			<g>
				<path fill="#85604D" d="M34.093,14.037c-0.636,0.712-0.653,1.619-1.599,2.345c-0.061,0.062-0.108,0.116-0.156,0.173
					c-0.17,0.257-0.285,0.572-0.313,0.949c-0.02,0.497,0.259,2.95,0.611,5.537c0.19,1.29,0.448,2.591,0.762,3.663
					c0.321,1.071,0.65,1.926,0.765,2.535c0.062-0.848-0.256-1.946-0.416-3.387c0.377,1.531,1.01,2.542,1.112,3.311
					c0.091-0.895-0.299-1.866-0.507-3.358c-0.211-1.474-0.339-3.353-0.345-5.128c0.175,1.481,0.404,3.189,0.709,4.512
					c0.285,1.357,0.646,2.188,0.55,2.821c0.191-0.479,0.198-0.984,0.138-1.645c-0.062-0.777-0.128-1.614-0.203-2.553
					c-0.127-2.023-0.122-4.554-0.072-6.483c0.006-0.155,0.012-0.305,0.018-0.45C34.782,15.953,34.157,14.926,34.093,14.037"/>
			</g>
		</g>
	</g>
	<g>
		<g>
			<g>
				<path fill="#85604D" d="M32.877,10.541c2.392,0.662,5.765,0.725,8.725,1.426c0.257,0.042,0.475,0.079,0.7,0.116
					c1.02,0.118,2.21,0.139,3.587,0.038c0.922-0.063,3.495-0.375,6.902-0.818c1.705-0.214,3.626-0.456,5.664-0.711
					c1.982-0.217,4.062-0.301,5.863,0.542c0.911,0.416,1.673,1.044,2.408,1.842c0.75,0.808,1.494,1.609,2.225,2.396
					c1.457,1.582,2.848,3.122,4.102,4.553c2.58,2.806,4.595,5.188,5.462,6.643c-0.404-0.907-1.263-2.179-2.448-3.71
					c-1.185-1.534-2.719-3.305-4.376-5.315c1.847,2.077,3.629,3.947,5.04,5.588c1.418,1.636,2.501,3.012,3.075,3.978
					c-0.432-0.97-1.379-2.354-2.691-4.025c-1.305-1.682-3.017-3.599-4.848-5.8c-0.935-1.082-1.911-2.213-2.917-3.377
					c-0.509-0.577-1.023-1.162-1.544-1.752c-0.493-0.589-1.16-1.236-1.857-1.732c-1.442-1.014-3.214-1.466-4.878-1.525
					c-1.677-0.083-3.29,0.115-4.847,0.259c1.286-0.165,2.644-0.358,4.084-0.399c1.43-0.049,2.993,0.107,4.468,0.728
					c0.733,0.312,1.424,0.741,2.041,1.247c0.312,0.251,0.58,0.533,0.873,0.813l0.718,0.771c0.948,1.034,1.879,2.049,2.775,3.027
					c3.538,3.99,6.577,7.287,7.665,9.164c-0.542-1.228-1.919-3.123-3.82-5.427c-1.892-2.352-4.226-5.145-6.88-8.141
					c-0.787-0.877-1.805-1.652-2.936-2.182c-1.133-0.535-2.353-0.808-3.51-0.911c-2.325-0.196-4.438,0.131-6.398,0.293
					c-4.058,0.378-7.926,0.753-11.247,1.016c-0.532,0.044-1.041,0.063-1.54,0.092c-1.494,0.267-3.082,0.645-4.72,0.891
					C36.16,10.362,34.497,10.534,32.877,10.541"/>
			</g>
		</g>
	</g>
	<g>
		<g>
			<g>
				<path fill="#85604D" d="M52.275,8.715c1.718,0.432,3.812,0.764,5.712,1.685c1.909,0.897,3.507,2.418,4.715,4.108
					c0.237,0.29,0.368,0.468,0.659,0.787c0.959,1.053,2.278,2.283,3.846,3.546c1.023,0.877,4.144,2.99,7.824,6.173
					c1.827,1.605,3.755,3.546,5.346,5.934c0.817,1.163,1.506,2.529,2.08,3.84c0.268,0.738,0.538,1.482,0.809,2.23
					c0.124,0.373,0.298,0.75,0.381,1.124l0.261,1.123c0.164,0.755,0.374,1.5,0.507,2.274c0.101,0.785,0.202,1.569,0.303,2.351
					c0.126,0.781,0.156,1.569,0.183,2.354c0.03,0.786,0.06,1.567,0.089,2.342c-0.059,3.102-0.267,6.109-0.727,8.832
					c-0.11,0.682-0.218,1.347-0.323,1.995c-0.136,0.643-0.27,1.268-0.397,1.873c-0.241,1.212-0.562,2.321-0.788,3.388
					c-0.47,2.109-0.521,3.967-0.174,5.31c-0.861-3.232,2.018-8.75,2.719-16.381c-0.151,2.025-0.466,3.96-0.757,5.787
					c-0.354,1.805-0.725,3.53-1.088,5.039c-0.33,1.524-0.484,2.927-0.364,4.127c0.104,1.205,0.557,2.162,1.055,2.819
					c-0.412-0.644-0.789-1.54-0.864-2.663c-0.098-1.119,0.08-2.444,0.424-3.91c0.163-0.741,0.407-1.483,0.607-2.347
					c0.197-0.84,0.403-1.715,0.616-2.623c0.35-1.834,0.737-3.802,0.943-5.9c0.465-4.181,0.583-8.835-0.246-13.533l-0.376-1.767
					c-0.13-0.587-0.231-1.19-0.446-1.73l-0.566-1.665l-0.283-0.833l-0.071-0.208c-0.042-0.122-0.063-0.152-0.097-0.233l-0.183-0.413
					c-0.939-2.213-2.233-4.241-3.699-6.038c1.241,1.467,2.408,3.129,3.362,4.979c0.219,0.472,0.439,0.947,0.661,1.423
					c0.229,0.544,0.363,0.978,0.55,1.475c0.328,0.979,0.758,1.894,0.955,2.973c0.225,1.045,0.531,2.105,0.679,3.154
					c0.132,1.05,0.263,2.096,0.393,3.134c0.105,2.08,0.208,4.139,0.081,6.111c-0.162,3.951-0.719,7.577-1.402,10.55
					c-0.173,0.749-0.321,1.444-0.505,2.126c-0.175,0.64-0.324,1.212-0.449,1.757c-0.244,1.08-0.378,1.978-0.438,2.668
					c0.155-0.837,0.4-2.003,0.857-3.492c0.119-0.387,0.243-0.79,0.373-1.208c0.118-0.441,0.24-0.9,0.367-1.374
					c0.242-0.955,0.526-1.974,0.722-3.08c0.89-4.383,1.544-9.913,0.926-15.882c-0.095-0.749-0.121-1.486-0.278-2.259
					c-0.162-0.771-0.325-1.548-0.489-2.329c-0.087-0.385-0.161-0.788-0.262-1.16l-0.354-1.052c-0.237-0.703-0.477-1.408-0.715-2.114
					l-0.022-0.066l-0.039-0.107l-0.015-0.034l-0.06-0.138l-0.121-0.276l-0.241-0.55c-0.167-0.364-0.31-0.741-0.511-1.087
					c-0.379-0.704-0.741-1.418-1.187-2.076c-0.828-1.36-1.824-2.578-2.821-3.755c-4.137-4.598-8.927-7.825-12.615-10.887
					c-0.589-0.477-1.164-0.963-1.722-1.449c-1.743-1.275-3.803-2.821-6.139-3.679C57.105,8.9,54.609,8.824,52.275,8.715"/>
			</g>
		</g>
	</g>
	<g>
		<g>
			<g>
				<path fill="#85604D" d="M58.045,26.107c-0.125,0.612-0.166,1.261-0.027,1.984c0.059,0.361,0.115,0.75,0.158,1.144
					c0.054,0.372,0.081,0.76,0.059,1.169c0.008,0.13,0.021,0.242,0.036,0.358c0.111,0.474,0.335,0.979,0.682,1.519
					c0.229,0.347,1.013,1.232,1.979,2.366c0.233,0.287,0.482,0.591,0.742,0.91c0.234,0.328,0.479,0.669,0.729,1.021l0.023,0.034
					l0.013,0.017l0.006,0.008c0.008,0.019-0.063-0.151-0.031-0.077l0.002,0.005l0.04,0.077l0.082,0.155l0.163,0.314
					c0.109,0.211,0.22,0.424,0.33,0.639c0.221,0.433,0.443,0.872,0.666,1.31c0.833,1.765,1.591,3.612,2.193,5.216
					c0.147,0.4,0.275,0.785,0.395,1.148c0.138,0.358,0.258,0.696,0.354,1.012c0.195,0.631,0.303,1.17,0.295,1.584
					c0.238-1.045-0.293-2.821-0.941-5.049c0.889,2.318,1.744,4.23,1.705,5.332c0.272-1.125-0.371-3.017-1.104-5.447
					c-0.396-1.184-0.863-2.547-1.37-3.884c-0.28-0.654-0.564-1.317-0.848-1.979l-0.43-0.984c-0.215-0.394-0.383-0.649-0.573-0.975
					c0.171,0.248,0.346,0.501,0.523,0.757c0.214,0.346,0.302,0.563,0.461,0.857c0.282,0.558,0.569,1.124,0.855,1.688
					c0.559,1.143,1.043,2.354,1.491,3.475c0.442,1.087,0.812,2.101,1.061,2.976c0.292,0.839,0.461,1.542,0.44,2.052
					c0.087-0.339,0.092-0.763,0.029-1.254c-0.069-0.485-0.194-1.048-0.332-1.704c-0.15-0.645-0.351-1.347-0.588-2.091
					c-0.239-0.769-0.518-1.607-0.817-2.453c-0.289-0.865-0.656-1.679-1.012-2.525l-0.604-1.381
					c-0.253-0.428-0.506-0.854-0.757-1.278C63.066,32.539,61.957,31.2,61.148,30c-0.13-0.192-0.257-0.378-0.379-0.559
					c-0.49-0.449-1.119-0.912-1.584-1.447C58.657,27.476,58.279,26.782,58.045,26.107"/>
			</g>
		</g>
	</g>
	<g>
		<g>
			<g>
				<path fill="#85604D" d="M69.456,27.038c-0.585,1.219-0.479,2.9-1.265,4.38c-0.049,0.124-0.086,0.233-0.122,0.347
					c-0.118,0.499-0.165,1.081-0.116,1.761c0.046,0.458,0.177,1.679,0.403,3.346c0.216,1.663,0.514,3.761,0.67,5.946
					c0.348,4.35,0.579,8.886-0.103,10.513c0.625-0.925,0.89-2.988,0.969-5.556c0.127,2.744,0.073,5.105-0.379,6.189
					c0.669-0.989,0.927-3.274,0.983-6.088c0.046-2.824-0.001-6.171-0.214-9.292c0.354,2.59,0.553,5.591,0.669,8.227
					c0.105,2.623,0.044,4.85-0.395,5.893c0.858-1.26,1.021-4.581,1.009-8.496c-0.01-1.948-0.066-4.022-0.211-6.069
					c-0.062-1.014-0.123-2.011-0.181-2.961c-0.045-0.953-0.106-1.854-0.206-2.67c-0.024-0.263-0.049-0.52-0.072-0.767
					C70.369,30.269,69.58,28.632,69.456,27.038"/>
			</g>
		</g>
	</g>
	<g>
		<g>
			<g>
				<path fill="#85604D" d="M52.951,21.949c1.099,0.282,2.389,0.413,3.668,0.784c1.291,0.329,2.587,0.856,3.624,1.64
					c0.188,0.116,0.344,0.214,0.506,0.314c0.745,0.405,1.624,0.845,2.678,1.335c0.695,0.336,2.722,1.157,5.24,2.771
					c2.511,1.605,5.481,4.02,8.066,6.96c2.602,2.917,4.836,6.307,6.24,9.409c1.424,3.097,2.023,5.861,1.956,7.341
					c0.326-1.718-0.41-5.53-2.54-9.749c1.221,2.2,2.129,4.383,2.669,6.278c0.548,1.894,0.714,3.49,0.654,4.491
					c0.178-0.93,0.144-2.48-0.29-4.389c-0.426-1.909-1.238-4.166-2.419-6.508c-2.333-4.704-6.259-9.664-10.67-13.317
					c3.771,2.89,7.575,7.112,10.109,11.34c2.569,4.209,3.841,8.367,3.834,10.387c0.141-1.244-0.208-3.47-1.2-6.129
					c-0.985-2.66-2.624-5.73-4.798-8.707c-2.18-2.97-4.875-5.864-7.847-8.223c-1.479-1.184-3.016-2.246-4.552-3.151
					c-1.544-0.895-3.086-1.628-4.55-2.212c-0.475-0.173-0.937-0.342-1.384-0.506c-1.435-0.267-2.973-0.374-4.497-0.39
					C55.918,21.731,54.398,21.85,52.951,21.949"/>
			</g>
		</g>
	</g>
	<g>
		<g>
			<g>
				<path fill="#85604D" d="M21.932,16.623c-0.416-0.127-0.872-0.209-1.353-0.272c-0.484-0.045-1.014-0.033-1.562-0.038
					c-1.076,0.071-2.224,0.159-3.407,0.292c-0.194,0.033-0.364,0.069-0.542,0.11c-0.373,0.131-0.765,0.325-1.185,0.551
					c-0.394,0.266-0.826,0.568-1.224,0.965c-0.523,0.502-1.935,2.245-2.504,4.815c-0.313,1.265-0.471,2.688-0.448,4.155
					c0.005,1.486,0.178,2.962,0.282,4.428c0.103,1.47,0.143,2.939-0.022,4.342c-0.159,1.403-0.62,2.699-1.166,3.822
					c-0.587,1.064-1.464,1.875-2.126,2.626c-0.685,0.741-1.222,1.438-1.55,2.077c0.486-0.704,1.235-1.45,2.199-2.339
					c0.476-0.452,1.002-0.947,1.498-1.566c0.495-0.637,0.837-1.412,1.186-2.233c-0.125,0.461-0.345,0.879-0.513,1.308
					c-0.085,0.215-0.191,0.422-0.294,0.611c-0.121,0.197-0.246,0.401-0.376,0.574c-0.517,0.713-1.071,1.294-1.543,1.841
					c-0.976,1.072-1.542,2.03-1.652,2.843c0.238-0.761,0.804-1.553,1.804-2.53C7.921,42.51,8.5,41.969,9.09,41.272
					c0.661-0.758,1.03-1.633,1.445-2.582c0.755-1.928,0.95-4.183,0.911-6.363c-0.025-2.198-0.266-4.365-0.007-6.412
					c-0.255,3.383,0.845,7.485-0.015,11.392c-0.214,0.957-0.513,1.872-0.909,2.684l-0.139,0.306l-0.081,0.169l-0.072,0.13
					c-0.077,0.152-0.222,0.38-0.369,0.596c-0.269,0.38-0.52,0.681-0.767,0.956c-0.99,1.079-1.709,1.743-2.148,2.159
					c0.343-0.207,0.763-0.521,1.32-0.983c0.274-0.23,0.588-0.501,0.927-0.826c0.347-0.339,0.691-0.677,1.117-1.262
					c0.699-1.017,1.204-2.171,1.624-3.503c0.344-1.326,0.551-2.758,0.582-4.17c0.037-1.412-0.02-2.803-0.073-4.178
					c-0.039-1.318-0.035-2.599,0.146-3.829c0.339-2.453,1.401-4.553,2.949-5.751c0.241-0.196,0.507-0.353,0.748-0.525
					C17.586,17.986,19.724,16.769,21.932,16.623"/>
			</g>
		</g>
	</g>
	<g>
		<g>
			<g>
				<path fill="#85604D" d="M24.47,10.683c-0.452,0.048-0.925,0.154-1.416,0.288l-0.748,0.218c-0.251,0.085-0.499,0.224-0.758,0.339
					c-0.506,0.252-1.078,0.477-1.601,0.758c-0.508,0.294-1.042,0.571-1.611,0.812c-0.186,0.088-0.328,0.188-0.468,0.304
					c-0.301,0.26-0.615,0.564-0.938,0.916c-0.343,0.338-0.623,0.769-0.888,1.258c-0.091,0.161-0.215,0.4-0.367,0.705
					c-0.168,0.299-0.313,0.684-0.447,1.139c-0.141,0.451-0.315,0.957-0.463,1.517c-0.099,0.566-0.207,1.184-0.321,1.844
					c-0.095,0.656-0.093,1.358-0.143,2.082c-0.031,0.677-0.042,1.375-0.04,2.138c0.012,1.477,0.025,3.035,0.038,4.604
					c0.003,3.111-0.149,6.293-0.799,8.886c-0.571,2.619-1.866,4.495-2.84,5.013c0.637-0.213,1.451-0.95,2.145-2.141
					c0.715-1.181,1.244-2.801,1.616-4.618c-0.289,1.96-0.795,3.777-1.526,5.174c-0.707,1.422-1.748,2.274-2.439,2.617
					c0.701-0.215,1.834-0.946,2.642-2.331c0.849-1.35,1.488-3.183,1.893-5.217c0.85-4.083,0.727-8.959,0.98-13.361
					c-0.067,3.661,0.188,8.008-0.276,11.874c-0.227,1.928-0.594,3.734-1.182,5.206c-0.6,1.464-1.316,2.597-2.025,3.124
					c0.959-0.537,2.137-2.149,2.855-4.338c0.751-2.186,1.159-4.9,1.364-7.746c0.095-1.42,0.155-2.882,0.198-4.332
					c0.05-1.467,0.077-2.822,0.21-4.289c0.138-2.655,0.934-5.11,2.144-6.892c0.207-0.276,0.407-0.545,0.602-0.805
					c0.19-0.483,0.521-0.879,0.809-1.348l0.465-0.698l0.564-0.614C22.431,11.89,23.469,11.224,24.47,10.683"/>
			</g>
		</g>
	</g>
	<g>
		<g>
			<g>
				<path fill="#85604D" d="M26.281,17.077c-0.435-0.049-0.9-0.047-1.387-0.021c-0.488,0.025-0.992,0.06-1.52,0.197
					c-0.528,0.112-1.079,0.227-1.649,0.32c-0.545,0.122-1.084,0.244-1.654,0.3c-0.19,0.043-0.347,0.078-0.508,0.114
					c-0.713,0.214-1.438,0.668-2.276,1.229c-0.528,0.405-1.938,1.66-3.507,3.548c-1.55,1.905-3.238,4.438-4.623,7.162
					c-1.399,2.719-2.52,5.604-3.321,8.084c-0.778,2.489-1.321,4.547-1.796,5.637c0.76-1.203,1.596-3.914,2.92-7.176
					c-1.247,3.556-1.833,6.703-2.469,8.128c0.843-1.27,1.568-4.255,2.99-7.792c1.375-3.542,3.493-7.591,6.065-10.935
					c-2.042,2.85-3.846,6.51-5.104,9.773c-1.291,3.266-1.982,6.131-2.661,7.421c0.566-0.748,1.125-2.176,1.848-3.993
					c0.753-1.805,1.635-4.02,2.829-6.287c2.342-4.523,5.913-9.287,9.531-11.693c0.283-0.196,0.546-0.411,0.826-0.575
					c0.751-0.641,1.523-1.453,2.445-2.025C24.141,17.816,25.239,17.397,26.281,17.077"/>
			</g>
		</g>
	</g>
	<g>
		<g>
			<g>
				<path fill="#85604D" d="M26.107,21.565c-0.327,0.383-0.432,0.896-0.675,1.321c-0.203,0.425-0.495,0.867-0.988,1.207
					c-0.066,0.065-0.119,0.116-0.172,0.167c-0.211,0.253-0.354,0.558-0.443,0.943c-0.069,0.257-0.107,1.012-0.27,2.055
					c-0.172,1.037-0.477,2.353-0.96,3.654c-0.48,1.298-1.13,2.584-1.871,3.529c-0.74,0.941-1.525,1.57-2.125,1.614
					c0.832,0.14,2.008-0.654,3.062-1.968c-0.945,1.536-2.176,2.616-2.993,2.69c0.894,0.137,2.276-0.769,3.438-2.276
					c1.18-1.497,2.145-3.546,2.805-5.487c-0.388,1.677-1.091,3.613-2.023,5.159c-0.912,1.552-2.09,2.683-2.916,2.851
					c0.603,0.021,1.382-0.388,2.169-1.107c0.769-0.727,1.551-1.751,2.213-2.929c1.333-2.363,2.214-5.295,2.574-7.57
					c0.031-0.182,0.062-0.359,0.091-0.53C26.791,23.755,26.222,22.553,26.107,21.565"/>
			</g>
		</g>
	</g>
	<g>
		<g>
			<g>
				<path fill="#84584D" d="M72.424,35.477c-0.548,1.059-0.39,2.486-1.226,3.68c-0.052,0.1-0.091,0.188-0.13,0.278
					c-0.121,0.402-0.214,0.854-0.208,1.39c0.013,0.17,0.037,0.504,0.071,0.974c0.051,0.463,0.084,1.041,0.088,1.708
					c0.021,0.339-0.011,0.686-0.032,1.057c-0.016,0.373-0.043,0.763-0.121,1.154c-0.032,0.199-0.064,0.401-0.098,0.605l-0.025,0.155
					l-0.041,0.192L70.637,47c-0.091,0.44-0.172,0.905-0.283,1.334c-0.414,1.749-0.988,3.591-1.37,5.148
					c-0.407,1.562-0.598,2.867-0.953,3.575c0.613-0.805,1.051-2.474,1.776-4.5c-0.606,2.234-0.748,4.137-1.207,5.06
					c0.685-0.851,0.986-2.621,1.76-4.8c0.36-1.097,0.809-2.296,1.227-3.594c0.418-1.303,0.76-2.582,1.034-3.93
					c-0.033,0.565-0.18,1.136-0.279,1.74c-0.103,0.54-0.218,1.14-0.358,1.722c-0.294,1.199-0.634,2.342-0.925,3.374
					c-0.629,2.067-0.908,3.698-1.376,4.495c0.207-0.232,0.416-0.556,0.618-0.953c0.098-0.199,0.184-0.416,0.272-0.65
					c0.107-0.234,0.211-0.486,0.311-0.753c0.431-1.164,0.927-2.501,1.471-3.966c0.282-0.807,0.568-1.674,0.779-2.48l0.338-1.282
					c0.132-0.456,0.214-0.917,0.278-1.376c0.285-1.828,0.281-3.571,0.187-5.018c-0.005-0.234-0.02-0.459-0.039-0.676
					C73.423,38.159,72.596,36.809,72.424,35.477"/>
			</g>
		</g>
	</g>
	<g>
		<g>
			<g>
				<path fill="#84584D" d="M76.067,42.757c-0.115,1.443,0.573,3.149,0.374,4.924c-0.001,0.144,0.004,0.268,0.011,0.397
					c0.071,0.553,0.242,1.17,0.538,1.858c0.366,0.927,2.775,4.818,4.592,9.174c0.903,2.177,1.675,4.48,2.008,6.496
					c0.097,0.501,0.182,0.982,0.251,1.434c0.038,0.456,0.042,0.885,0.044,1.277c-0.001,0.786-0.06,1.427-0.191,1.869
					c0.269-0.506,0.421-1.331,0.485-2.386c0.052-0.53,0.017-1.109-0.062-1.73c-0.068-0.622-0.158-1.289-0.267-1.988
					c0.777,2.928,0.821,5.585,0.491,6.768c0.543-1.08,0.742-3.693,0.12-6.788c-0.101-0.784-0.341-1.571-0.562-2.386
					c-0.239-0.81-0.438-1.657-0.746-2.476c-0.6-1.643-1.224-3.312-1.938-4.864c1.333,2.509,2.612,5.616,3.442,8.455
					c0.379,1.426,0.598,2.792,0.76,3.93c0.079,1.152,0.008,2.096-0.152,2.692c0.183-0.364,0.311-0.88,0.392-1.521
					c0.039-0.32,0.072-0.673,0.085-1.051c-0.015-0.373-0.043-0.773-0.083-1.196c-0.085-0.844-0.193-1.787-0.378-2.776
					c-0.235-0.974-0.509-2.006-0.807-3.067c-1.299-4.214-3.494-8.596-4.995-11.875c-0.12-0.263-0.236-0.519-0.349-0.766
					C78.086,45.818,76.759,44.365,76.067,42.757"/>
			</g>
		</g>
	</g>
	<g>
		<g>
			<g>
				<path fill="#84584D" d="M85.998,59.787c-0.364,0.398-0.513,0.946-0.79,1.425c-0.132,0.24-0.271,0.477-0.436,0.693
					c-0.186,0.225-0.404,0.438-0.669,0.616c-0.072,0.064-0.13,0.122-0.188,0.182c-0.218,0.275-0.421,0.615-0.538,1.046
					c-0.096,0.287-0.216,1.137-0.486,2.307c-0.277,1.167-0.706,2.65-1.223,4.153c-0.516,1.503-1.091,3.027-1.618,4.292
					c-0.522,1.271-1.001,2.287-1.491,2.774c0.776-0.486,1.527-1.774,2.366-3.432c-0.72,1.858-1.294,3.418-1.939,4.051
					c0.84-0.509,1.563-1.923,2.46-3.732c0.873-1.811,1.875-4.043,2.678-6.171c-0.516,1.833-1.261,3.927-1.951,5.67
					c-0.706,1.746-1.297,3.146-1.93,3.694c1.054-0.558,2.054-2.565,3.271-5.112c1.185-2.544,2.4-5.647,2.968-8.146
					c0.049-0.198,0.097-0.391,0.144-0.576c-0.086-0.63-0.198-1.271-0.356-1.926C86.152,60.951,85.976,60.373,85.998,59.787"/>
			</g>
		</g>
	</g>
	<g>
		<g>
			<g>
				<path fill="#84584D" d="M88.051,57.374c-0.248,0.431-0.373,0.804-0.589,1.19c-0.215,0.386-0.488,0.763-0.999,1.034
					c-0.068,0.054-0.122,0.096-0.176,0.138c-0.205,0.214-0.356,0.479-0.457,0.83c-0.064,0.232-0.119,0.933-0.273,1.919
					c-0.147,0.983-0.386,2.239-0.666,3.523c-0.275,1.287-0.591,2.59-0.798,3.72c-0.211,1.121-0.306,2.115,0.001,2.929
					c-0.164-1.093,0.246-2.119,0.694-3.564c-0.144,0.79-0.257,1.514-0.259,2.085c-0.004,0.57,0.122,0.979,0.316,1.35
					c-0.112-0.464-0.102-0.838,0.005-1.322c0.085-0.482,0.283-1.142,0.506-1.892c0.464-1.507,1.093-3.396,1.611-5.171
					c-0.278,1.53-0.69,3.3-1.016,4.732c-0.146,0.677-0.272,1.268-0.384,1.785c-0.093,0.457-0.156,0.657-0.308,0.836
					c0.155-0.136,0.311-0.265,0.418-0.424c0.13-0.187,0.235-0.424,0.365-0.751c0.26-0.651,0.583-1.581,0.94-2.632
					c0.718-2.106,1.505-4.678,1.933-6.735c0.034-0.167,0.067-0.329,0.1-0.485C88.816,59.41,88.292,58.257,88.051,57.374"/>
			</g>
		</g>
	</g>
	<g>
		<g>
			<g>
				<path fill="#84584D" d="M53.072,14.191c0.797,0.209,1.683,0.381,2.622,0.541c0.911,0.269,1.862,0.469,2.812,0.777
					c1.905,0.651,3.825,1.487,5.374,2.654c0.275,0.178,0.511,0.331,0.756,0.489c0.565,0.308,1.163,0.684,1.82,1.08
					c0.661,0.388,1.39,0.775,2.15,1.258c1.035,0.591,3.979,2.229,7.598,5.002c3.622,2.752,7.859,6.705,11.529,11.318
					c3.798,4.453,4.812,10.727,4.904,15.779c0.07,5.122-0.789,9.285-1.544,11.366c1.061-2.302,2.447-7.939,1.877-15.024
					c0.836,7.545-0.583,14.081-1.667,16.832c0.622-1.238,1.329-3.408,1.827-6.275c0.504-2.862,0.786-6.431,0.47-10.366
					c-0.155-1.966-0.514-4.019-1.108-6.076c-0.599-2.043-1.486-4.144-2.766-5.989c-2.583-3.526-5.569-6.851-8.688-9.771
					c2.646,2.354,5.338,5.129,7.773,8.164l0.9,1.15l0.225,0.288l0.113,0.144l0.056,0.072l0.028,0.036l0.014,0.018l0.059,0.092
					l0.378,0.612c0.512,0.767,0.978,1.747,1.396,2.658c0.799,1.826,1.297,3.714,1.666,5.542c0.699,3.672,0.732,7.131,0.512,9.981
					c-0.218,2.856-0.691,5.119-1.142,6.517c0.711-1.648,1.467-4.844,1.657-9.065c0.078-2.109,0.014-4.475-0.366-6.999
					c-0.086-0.631-0.199-1.271-0.352-1.917c-0.126-0.648-0.295-1.301-0.497-1.958c-0.369-1.32-0.879-2.62-1.562-4.006
					c-0.162-0.366-0.334-0.619-0.503-0.917l-0.597-1.004c-0.415-0.556-0.833-1.116-1.254-1.678
					c-0.858-1.109-1.743-2.213-2.682-3.275c-1.842-2.156-3.879-4.158-5.936-6.052c-4.154-3.75-8.602-6.875-12.758-8.969
					c-0.67-0.325-1.294-0.691-1.947-0.957C62.188,14.846,57.418,14.189,53.072,14.191"/>
			</g>
		</g>
	</g>
	<g>
		<g>
			<g>
				<path fill="#84584D" d="M83.942,37.524c-0.186,0.718-0.255,1.53-0.214,2.412c0.016,0.442,0.027,0.901,0.013,1.371
					c-0.001,0.455-0.027,0.912-0.111,1.376c-0.012,0.152-0.016,0.284-0.018,0.421c0.034,0.59,0.183,1.24,0.444,1.983
					c0.176,0.485,0.826,1.787,1.628,3.491c0.192,0.428,0.396,0.882,0.608,1.357c0.187,0.48,0.382,0.98,0.581,1.495l0.01,0.024
					l0.005,0.012l0.002,0.006c0.015,0.069-0.016-0.087-0.012-0.069l0.014,0.053l0.028,0.105l0.056,0.211l0.113,0.427
					c0.075,0.287,0.151,0.576,0.229,0.868c0.146,0.581,0.227,1.142,0.343,1.73c0.394,2.372,0.51,4.895,0.486,7.01
					c-0.034,2.121-0.183,3.858-0.515,4.784c0.606-1.05,0.945-3.361,1.069-6.271c0.069,3.111-0.046,5.767-0.48,6.99
					c0.653-1.12,0.963-3.665,1.084-6.875c0.063-1.6,0.01-3.373-0.138-5.179c-0.117-0.904-0.197-1.858-0.391-2.728
					c-0.092-0.439-0.183-0.878-0.273-1.314c-0.136-0.504-0.274-0.882-0.409-1.322c1.113,2.787,1.573,6.316,1.678,9.327
					c0.089,3.017-0.076,5.52-0.504,6.681c0.423-0.697,0.714-1.974,0.897-3.659c0.182-1.678,0.271-3.769,0.136-6.051
					c-0.147-2.289-0.457-4.859-1.304-7.077c-0.787-2.225-1.699-4.203-2.347-5.924c-0.104-0.275-0.206-0.543-0.305-0.802
					C85.417,40.963,84.255,39.34,83.942,37.524"/>
			</g>
		</g>
	</g>
	<g>
		<g>
			<g>
				<path fill="#84584D" d="M84.278,37.501c-0.057,1.292,0.735,2.694,0.568,4.291c0.001,0.126,0.006,0.234,0.014,0.346
					c0.071,0.472,0.236,0.983,0.523,1.54c0.377,0.739,2.638,3.912,4.186,7.675c1.599,3.745,2.289,8.044,1.763,9.604
					c0.517-0.905,0.622-2.893,0.225-5.305c0.638,2.536,0.746,4.806,0.431,5.85c0.534-0.97,0.656-3.194,0.18-5.872
					c-0.454-2.674-1.441-5.78-2.735-8.447c1.243,2.142,2.298,4.88,2.99,7.344c0.295,1.238,0.497,2.406,0.613,3.388
					c0.055,0.986,0.019,1.788-0.143,2.307c0.333-0.638,0.54-1.784,0.417-3.239c-0.053-0.728-0.147-1.534-0.274-2.391
					c-0.18-0.851-0.401-1.752-0.642-2.678c-1.036-3.718-3.061-7.536-4.608-10.299c-0.122-0.224-0.24-0.441-0.355-0.652
					C86.405,39.857,85.015,38.832,84.278,37.501"/>
			</g>
		</g>
	</g>
	<g>
		<g>
			<g>
				<path fill="#84584D" d="M43.53,19.119c-1.211,0.049-2.392,0.85-3.904,0.817c-0.118,0.012-0.218,0.026-0.322,0.045
					c-0.434,0.118-0.895,0.333-1.379,0.675c-0.63,0.466-3.34,3.008-5.851,5.932c-1.257,1.457-2.416,3.046-3.235,4.484
					c-0.233,0.34-0.378,0.715-0.559,1.041c-0.089,0.164-0.175,0.323-0.258,0.477c-0.067,0.161-0.132,0.316-0.195,0.468
					c-0.126,0.299-0.27,0.564-0.388,0.807c-0.093,0.25-0.194,0.468-0.304,0.648c0.662-0.81,1.418-2.386,2.764-4.112
					c-0.604,1-1.108,1.941-1.433,2.769c-0.37,0.818-0.518,1.513-0.818,1.969c0.414-0.409,0.638-1.042,1.088-1.777
					c0.383-0.75,0.956-1.604,1.606-2.544c1.38-1.842,3.332-3.907,5.313-5.667c-1.541,1.583-3.229,3.514-4.425,5.25
					c-1.248,1.736-1.835,3.204-2.418,3.869c0.516-0.372,0.988-1.045,1.627-1.932c0.675-0.879,1.544-1.966,2.604-3.115
					c2.13-2.288,4.956-4.748,7.211-6.437c0.181-0.135,0.358-0.266,0.528-0.392C41.597,21.306,42.427,19.93,43.53,19.119"/>
			</g>
		</g>
	</g>
	<g>
		<g>
			<g>
				<path fill="#84584D" d="M65.463,30.008c-0.646,0.895-0.646,2.151-1.492,3.244c-0.054,0.093-0.096,0.174-0.138,0.259
					c-0.14,0.374-0.212,0.815-0.194,1.333c0.013,0.688,0.752,3.783,1.131,7.022c0.415,3.235,0.229,6.684-0.668,7.731
					c0.358-0.276,0.661-0.789,0.922-1.474c0.266-0.685,0.389-1.554,0.521-2.516c0.001,2.079-0.375,3.863-0.936,4.571
					c0.756-0.591,1.343-2.299,1.533-4.452c0.196-2.15,0.077-4.707-0.143-7.037c0.347,1.928,0.624,4.222,0.645,6.249
					c0.008,1.012-0.09,1.957-0.207,2.736c-0.146,0.78-0.389,1.394-0.658,1.754c1.008-0.798,1.546-3.466,1.532-6.472
					c0.002-3.008-0.438-6.335-0.614-8.799c-0.013-0.197-0.025-0.389-0.037-0.574C66.191,32.475,65.502,31.208,65.463,30.008"/>
			</g>
		</g>
	</g>
	<g>
		<g>
			<g>
				<path fill="#84584D" d="M24.669,15.025c-0.675-0.282-1.477-0.39-2.314-0.521c-0.843-0.111-1.76-0.179-2.674-0.498
					c-0.152-0.028-0.284-0.036-0.424-0.048c-0.604,0.009-1.318,0.049-2.121,0.328c-0.267,0.104-0.762,0.338-1.417,0.67
					c-0.337,0.141-0.665,0.434-1.046,0.688c-0.362,0.285-0.808,0.526-1.171,0.913c-1.643,1.363-2.976,3.593-4.194,5.614
					c-1.238,2.031-2.797,3.922-4.027,5.639c-1.227,1.707-2.144,3.179-2.65,4.078c0.241-0.219,0.413-0.544,0.705-0.867
					c0.287-0.327,0.558-0.726,0.875-1.152c0.675-0.83,1.457-1.825,2.387-2.897c-0.465,0.599-0.854,1.211-1.265,1.758
					c-0.357,0.578-0.731,1.099-1.016,1.601c-0.248,0.516-0.583,0.944-0.742,1.365c-0.184,0.414-0.373,0.762-0.565,1.034
					c0.489-0.476,0.866-1.246,1.535-2.145c0.285-0.465,0.722-0.934,1.089-1.479c0.441-0.517,0.865-1.089,1.37-1.675
					c0.964-1.173,2.111-2.494,3.146-3.94c1.051-1.474,1.9-2.92,3.052-4.164c-0.402,0.577-0.882,1.098-1.251,1.748
					c-0.394,0.645-0.794,1.3-1.194,1.955l-0.619,0.987c-0.233,0.329-0.464,0.656-0.693,0.979c-0.469,0.661-0.911,1.232-1.358,1.818
					c-0.86,1.142-1.667,2.165-2.261,3.015c-0.646,0.84-1.03,1.517-1.463,1.914c0.316-0.212,0.676-0.533,1.013-0.949
					c0.404-0.408,0.807-0.914,1.324-1.49c0.995-1.176,2.303-2.568,3.728-4.391c0.375-0.456,0.661-0.893,0.985-1.347
					c0.312-0.45,0.627-0.905,0.944-1.363c0.563-0.902,1.241-1.646,1.897-2.406c1.353-1.446,3.046-2.317,4.659-2.82
					c0.262-0.073,0.517-0.144,0.763-0.212c0.698-0.418,1.512-0.742,2.352-1.116C22.891,15.333,23.79,15.106,24.669,15.025"/>
			</g>
		</g>
	</g>
	<g>
		<g>
			<g>
				<path fill="#85604D" d="M23.87,19.932c-0.741-0.284-1.688-0.376-2.678-0.338c-0.99,0.017-2.026,0.102-3.072,0.043
					c-0.171,0.006-0.321,0.017-0.477,0.032c-0.667,0.113-1.42,0.364-2.234,0.797c-0.535,0.297-1.984,1.248-3.629,2.809
					c-1.643,1.554-3.477,3.738-4.771,6.281c-1.326,2.522-2.002,5.408-1.873,7.828c0.077,2.438,0.871,4.289,1.074,5.386
					c-0.034-1.344-0.951-3.859-0.479-7.03c-0.302,3.426,1.061,6.077,1.396,7.44c-0.095-1.388-1.221-3.959-0.809-7.263
					c0.323-3.294,2.359-6.995,5.013-9.722c-2.093,2.368-3.909,5.638-4.373,8.581c-0.559,2.955,0.226,5.312,0.356,6.569
					c0.065-0.829-0.179-2.09-0.133-3.666c0.027-1.567,0.354-3.492,1.281-5.457c1.768-3.975,5.754-7.754,9.25-9.475
					c0.281-0.135,0.555-0.267,0.82-0.395C19.982,21.273,21.834,20.037,23.87,19.932"/>
			</g>
		</g>
	</g>
	<g>
		<g>
			<g>
				<path fill="#85604D" d="M25.92,12.174c-2.009-0.654-4.892-0.513-7.631-0.592c-0.235,0.026-0.432,0.048-0.634,0.07
					c-0.45,0.09-0.954,0.174-1.466,0.365c-0.507,0.199-1.058,0.429-1.626,0.72c-0.353,0.23-1.055,0.646-1.902,1.316
					c-0.422,0.36-0.902,0.769-1.43,1.218c-0.437,0.454-0.907,0.909-1.418,1.467c-2.059,2.259-4.398,5.259-5.782,8.889
					c-0.185,0.443-0.356,0.892-0.474,1.363c-0.13,0.481-0.273,0.886-0.39,1.424c-0.136,0.916-0.329,1.802-0.327,2.769
					c-0.13,1.887,0.121,3.627,0.351,5.234c0.544,3.204,1.597,5.657,2.071,7.053c-0.326-1.702-1.567-5.016-1.807-9.362
					c0.247,2.3,0.758,4.387,1.331,6.088c0.302,0.842,0.606,1.596,0.859,2.253c0.306,0.63,0.54,1.185,0.688,1.645
					c-0.083-0.457-0.25-1.005-0.489-1.627c-0.223-0.631-0.421-1.395-0.705-2.206c-0.442-1.682-0.91-3.733-1.075-6.043
					c-0.014-0.576-0.027-1.166-0.041-1.767c0.02-0.588,0.083-1.17,0.114-1.772c0.059-0.609,0.231-1.27,0.34-1.913
					c0.127-0.533,0.371-1.189,0.55-1.789c0.896-2.424,2.368-4.71,4.023-6.706c-1.308,1.71-2.542,3.694-3.384,5.808
					c-0.213,0.527-0.426,1.051-0.556,1.598l-0.23,0.804l-0.058,0.2l-0.003,0.012l-0.002,0.006c-0.016,0.064,0.02-0.081,0.016-0.063
					l-0.004,0.027l-0.009,0.055l-0.017,0.109l-0.07,0.437c-0.251,1.207-0.237,2.205-0.268,3.209
					c0.034,2.098,0.398,4.021,0.732,5.617c0.209,0.785,0.4,1.497,0.552,2.121c0.202,0.6,0.344,1.125,0.42,1.558
					c-0.032-1.11-0.601-2.838-0.871-5.179c-0.148-1.158-0.26-2.449-0.241-3.813c-0.021-0.354,0.014-0.67,0.045-0.989
					c0.023-0.322,0.046-0.649,0.069-0.98c0.03-0.343,0.146-0.77,0.215-1.157l0.12-0.6l0.03-0.151l0.015-0.076l0.004-0.019
					l0.002-0.01c0.027-0.108-0.035,0.138-0.027,0.109l0.011-0.033l0.088-0.263c0.406-1.418,1.058-2.839,1.846-4.222
					c0.837-1.356,1.761-2.706,2.848-3.911c0.513-0.636,1.083-1.167,1.613-1.747c0.301-0.285,0.6-0.567,0.895-0.847l0.396-0.377
					l0.441-0.35c0.293-0.233,0.583-0.463,0.868-0.69c0.289-0.224,0.598-0.397,0.89-0.594c0.577-0.41,1.188-0.698,1.77-0.99
					c0.365-0.207,0.754-0.323,1.121-0.466C20.381,13.191,23.18,12.181,25.92,12.174"/>
			</g>
		</g>
	</g>
	<g>
		<g>
			<g>
				<path fill="#85604D" d="M24.374,13.881c0.408-0.298,0.812-0.663,1.219-1.062c0.423-0.382,0.875-0.742,1.31-1.123
					c0.485-0.342,0.969-0.696,1.489-0.976c0.547-0.247,1.054-0.516,1.633-0.609c0.184-0.058,0.337-0.106,0.495-0.156
					c0.332-0.148,0.7-0.292,1.096-0.453c0.387-0.177,0.801-0.371,1.265-0.56c0.588-0.296,2.276-1.133,4.818-1.774
					c1.271-0.308,2.747-0.563,4.346-0.727c1.598-0.146,3.327-0.203,5.059-0.174l1.327,0.039c0.422,0.038,0.828,0.098,1.247,0.145
					c0.418,0.029,0.825,0.168,1.237,0.25c0.417,0.078,0.812,0.216,1.202,0.36c1.565,0.557,2.993,1.388,4.104,2.392
					c0.589,0.46,1.053,1.023,1.526,1.489c0.433,0.515,0.894,1.01,1.276,1.441c0.78,0.867,1.299,1.649,1.444,2.236
					c-0.056-0.732-0.72-1.792-1.715-2.986c-0.926-1.233-2.16-2.713-3.923-3.895c1.943,1.153,3.368,2.813,4.509,4.05
					c1.211,1.232,2.042,2.519,2.08,3.423c0.103-0.867-0.608-2.22-1.729-3.516c-1.032-1.221-2.39-3.044-4.401-4.377
					c-0.981-0.705-2.147-1.241-3.366-1.688c-0.626-0.174-1.25-0.372-1.908-0.492c-0.657-0.098-1.347-0.244-1.971-0.257
					c-2.576-0.172-5.239-0.197-7.775,0.068c2.096-0.299,4.402-0.414,6.711-0.371c0.574,0.02,1.148,0.039,1.72,0.059
					c0.607,0.08,1.228,0.141,1.826,0.253c1.177,0.248,2.33,0.598,3.378,1.101c2.109,0.992,3.769,2.426,4.915,3.747
					c0.52,0.615,0.99,1.173,1.41,1.67c0.419,0.514,0.755,1.008,0.967,1.43c-0.187-0.554-0.614-1.264-1.148-1.979
					c-0.26-0.356-0.535-0.733-0.828-1.135c-0.377-0.467-0.773-0.92-1.215-1.416c-1.824-1.889-4.806-3.818-8.377-4.312
					c-0.95-0.184-1.685-0.188-2.506-0.254c-0.878-0.038-1.685-0.083-2.545-0.078c-1.695-0.018-3.417,0.061-5.103,0.277
					c-1.685,0.204-3.339,0.53-4.88,1.02c-0.777,0.21-1.509,0.53-2.226,0.795c-0.694,0.338-1.386,0.611-1.999,0.991
					c-0.394,0.236-0.799,0.424-1.149,0.685C27.207,9.196,25.701,11.705,24.374,13.881"/>
			</g>
		</g>
	</g>
	<g>
		<g>
			<g>
				<path fill="#85604D" d="M12.074,28.314c-0.872,0.803-1.153,2.221-2.318,3.134c-0.082,0.085-0.148,0.154-0.215,0.224
					c-0.254,0.337-0.462,0.752-0.606,1.27c-0.178,0.679-0.641,4.066-2.016,7.415c-1.338,3.358-3.426,6.594-4.746,7.291
					c0.941-0.258,2.184-1.502,3.417-3.28c-1.138,2.016-2.373,3.589-3.249,4.064c1.983-0.536,5.508-5.678,7.241-10.706
					c-0.54,2.145-1.588,4.53-2.653,6.522c-0.562,0.971-1.129,1.844-1.655,2.538c-0.545,0.673-1.05,1.168-1.481,1.4
					c1.283-0.37,3.163-2.577,4.794-5.563c0.808-1.491,1.552-3.154,2.131-4.805c0.333-0.807,0.515-1.651,0.766-2.425
					c0.252-0.772,0.418-1.54,0.589-2.239c0.056-0.224,0.111-0.441,0.164-0.651c-0.012-0.688-0.127-1.398-0.208-2.11
					C11.957,29.681,11.937,28.97,12.074,28.314"/>
			</g>
		</g>
	</g>
	<path fill-rule="evenodd" clip-rule="evenodd" fill="#FBB0A1" d="M41.589,98.889c5.957-2.021,11.909-4.056,17.871-6.061
		c1.92-0.644,4.341-1.551,3.984,1.905c-0.857,8.312-2.622,16.36-9.789,21.845c-9.259,7.083-17.114,3.719-26.128-2.342
		c-2.664-1.791-6.991-3.917-6.402-7.273c0.534-3.038,5.336-2.702,8.232-3.861C33.356,101.502,37.503,100.274,41.589,98.889z"/>
	<path fill-rule="evenodd" clip-rule="evenodd" fill="#FEFDFD" d="M59.631,95.989c-0.751,11.812-5.527,18.993-13.502,21.126
		c-5.401,1.443-16.599-3.274-19.263-7.999c-0.901-1.599,0.038-2.005,1.172-2.39C38.407,103.191,48.785,99.673,59.631,95.989z"/>
</g>
</svg>
