<?xml version="1.0" encoding="utf-8"?>
<!-- Generator: Adobe Illustrator 16.0.4, SVG Export Plug-In . SVG Version: 6.00 Build 0)  -->
<!DOCTYPE svg PUBLIC "-//W3C//DTD SVG 1.1//EN" "http://www.w3.org/Graphics/SVG/1.1/DTD/svg11.dtd">
<svg version="1.1" id="Layer_1" xmlns="http://www.w3.org/2000/svg" xmlns:xlink="http://www.w3.org/1999/xlink" x="0px" y="0px"
	 width="100px" height="140px" viewBox="0 0 100 140" enable-background="new 0 0 100 140" xml:space="preserve">
<path fill-rule="evenodd" clip-rule="evenodd" fill="#301405" d="M81.482,33.35c-6.585,4.07-12.795,4.691-19.798,0.062
	c-6.128-4.051-13.476-5.931-20.893-6.721c-7.235-0.77-13.331,1.508-17.793,7.414c-4.151,5.492-4.298,11.419-0.946,17.069
	c2.306,3.887,2.415,6.883-0.798,10.069c-0.844,0.837-1.441,1.983-1.94,3.081c-2.57,5.656-5.719,5.698-9.431,1.041
	c-2.199-7.989-5.084-15.806-5.125-24.276C4.667,21.507,15.184,8.583,34.684,4.315c13.876-3.036,26.933-0.964,40.613,6.39
	c-1.69-2.708-2.675-4.283-4.075-6.525c5.537,1.637,9.099,4.804,12.672,9.114c0.224-2.116,0.373-3.508,0.511-4.799
	c4.218,0.546,1.063,8.29,7.618,7.213C91.577,22.989,87.272,28.571,81.482,33.35z"/>
<path fill-rule="evenodd" clip-rule="evenodd" fill="#D6957B" d="M15.497,30.055c0.125-1.215,0.251-2.431,0.375-3.646
	c2.585-1.489,5.427-1.703,8.338-1.703c17.469-0.002,34.936-0.022,52.405,0.021c2.856,0.007,5.807-0.201,8.229,1.811
	c0.484,1.195,0.966,2.389,1.446,3.583c-4.494,2.948,2.609,1.05,1.173,2.721c2.9,4.757,2.624,10.104,2.689,15.307
	c0.108,8.509-0.108,17.022-0.234,25.533c-0.044,2.925,0.385,4.812,4.209,3.475c4.031-1.409,5.687,0.617,5.72,4.556
	c0.046,5.408-1.294,10.436-4.122,15.021c-1.16,1.885-2.981,4.636-4.996,4.025c-6.434-1.949-6.086,2.992-7.641,6.305
	c-3.955,8.425-7.921,16.675-14.836,23.502c-10.601,10.469-28.548,8.806-38.11-2.553c-5.814-6.909-10.071-14.718-13.032-23.179
	c-0.936-2.67-1.586-4.037-5.302-4.07C5.038,100.703-2.111,84.516,1.7,78.978c0.965-1.404,2.427-2.786,4.083-2.174
	c5.831,2.15,4.824-1.824,4.88-4.967c0.175-10.012-0.011-20.053,0.782-30.018c0.223-2.8-1.613-7.053,2.84-8.827
	C14.512,31.941,17.062,31.821,15.497,30.055z"/>
<path fill-rule="evenodd" clip-rule="evenodd" fill="#442014" d="M83.47,107.064c-3.952,8.425-7.921,16.675-14.833,23.502
	c-10.601,10.469-28.549,8.806-38.111-2.553c-5.814-6.909-10.072-14.718-13.033-23.179l27.831,3.163l19.763-4.675L83.47,107.064z"/>
<path fill-rule="evenodd" clip-rule="evenodd" fill="#301405" d="M84.844,26.539c-22.992-0.043-45.981-0.086-68.972-0.13
	c0.927-2.681,1.771-5.394,2.797-8.038c3.561-9.179,3.562-8.373,13.651-8.087c2.651,0.076,6.739,2.546,9.909-0.947
	c1.515-1.67,4.619,3.989,6.98-0.154c2.787,4.206,6.991-2.172,9.88,1.282c3.215-2.649,7.169,1.841,10.289-0.977
	c2.422-2.187,3.664,3.879,7.205,0.416c2.26-2.208,3.023,2.771,4.016,4.652C82.579,18.315,84.072,22.324,84.844,26.539z"/>
<g>
	<path fill-rule="evenodd" clip-rule="evenodd" fill="#F4A89F" d="M50.19,113.146c5.127,0.003,10.525-2.752,15.65-2.738
		c1.652,0.005,3.757-0.049,2.576,2.013c-2.839,4.959-6.312,9.564-13.278,11.449c-9.001,2.436-14.181-1.293-19.55-6.933
		c-1.586-1.666-4.368-3.89-3.034-5.84c1.207-1.767,5.014,1.066,7.554,0.959C43.613,111.906,46.674,113.146,50.19,113.146z"/>
	<path fill-rule="evenodd" clip-rule="evenodd" fill="#F2AAA0" d="M50.256,119.218c12.521-0.392,12.83-7.201,15.584-8.81
		c1.336-0.779,3.757-0.049,2.576,2.013c-2.839,4.959-6.312,9.564-13.278,11.449c-9.001,2.436-14.181-1.293-19.55-6.933
		c-1.586-1.666-4.368-3.89-3.034-5.84c1.207-1.767,4.392,3.047,6.384,4.313C42.251,117.52,46.74,119.216,50.256,119.218z"/>
</g>
<path fill-rule="evenodd" clip-rule="evenodd" fill="#1C1E25" d="M83.011,67.255c-8.093-4.329-14.667-7.124-22.298-5.1
	c-3.806,1.007-4.346-2.048-4.861-4.554c-0.732-3.567,2.082-3.669,4.383-3.627C69.571,54.142,76.671,58.232,83.011,67.255z"/>
<path fill-rule="evenodd" clip-rule="evenodd" fill="#0E1017" d="M16.453,66.021c4.533-7.781,11.504-11.237,20.22-11.57
	c1.913-0.073,4.71-0.292,4.36,2.826c-0.272,2.433-0.383,5.977-4.314,5.253C29.488,61.2,22.938,62.824,16.453,66.021z"/>
<path fill-rule="evenodd" clip-rule="evenodd" fill="#996B4B" d="M42.227,93.504c5.733,4.058,10.392,5.54,15.183,1.12
	c-0.873,3.668-3.341,5.119-6.456,5.108C47.546,99.72,44.498,98.583,42.227,93.504z"/>
<path fill-rule="evenodd" clip-rule="evenodd" fill="#212A2F" d="M71.52,76.105c-0.063,2.657-1.297,4.385-3.979,4.59
	c-2.897,0.224-4.824-1.25-5.006-4.14c-0.159-2.554,1.396-4.335,3.954-4.602C69.415,71.649,71.026,73.368,71.52,76.105z"/>
<path fill-rule="evenodd" clip-rule="evenodd" fill="#212A2F" d="M36.044,76.105c-0.063,2.657-1.296,4.385-3.978,4.59
	c-2.898,0.224-4.826-1.25-5.008-4.14c-0.16-2.554,1.396-4.335,3.955-4.602C33.94,71.649,35.552,73.368,36.044,76.105z"/>
<g>
	<g>
		<g>
			<path fill="#301003" d="M34.559,26.967c-0.545-0.563-1.173-0.94-1.759-1.317c-0.582-0.36-1.191-0.672-1.836-1.016
				c-1.278-0.683-2.61-1.486-3.931-3.045c-0.224-0.201-0.422-0.355-0.63-0.508c-0.921-0.517-2.046-0.792-3.437-0.667
				c-0.445,0.027-1.348,0.264-2.551,0.655c-1.24,0.452-2.792,1.006-4.628,2.11c-1.786,1.064-3.907,2.723-5.278,5.135
				c-0.158,0.301-0.317,0.604-0.478,0.908l-0.339,0.685l-0.083,0.339L9.44,30.93c-0.064,0.253-0.163,0.682-0.231,1.013
				c-0.07,0.349-0.147,0.717-0.188,1.042L8.973,33.85c-0.045,0.583-0.022,1.125-0.006,1.666c0.078,2.157,0.393,4.105,0.554,5.94
				c0.174,1.864,0.226,3.626,0.226,5.305c-0.013,3.354-0.056,6.074-0.645,8.082c0.34-0.639,0.695-1.318,0.957-2.057
				c0.228-0.737,0.52-1.521,0.689-2.369c0.423-1.693,0.734-3.644,0.975-5.867c0.122,2.401,0.177,4.557,0.19,6.332
				c-0.027,0.901,0.011,1.682-0.075,2.42c-0.043,0.718-0.105,1.368-0.321,1.988c0.403-0.655,0.686-1.33,0.902-2.02
				c0.296-0.736,0.424-1.453,0.64-2.312c0.342-1.671,0.615-3.686,0.825-6.104c0.109-1.248,0.162-2.529,0.175-3.853
				c0.021-1.348-0.028-2.661,0.007-3.913c0.013-0.63,0.04-1.249,0.101-1.838l0.101-0.865c0.044-0.221,0.079-0.449,0.107-0.688
				c0.049-0.258,0.227-0.631,0.333-0.94l0.092-0.243l0.012-0.03c0.068-0.121-0.09,0.156-0.073,0.126l0.003-0.005l0.006-0.01
				l0.024-0.042l0.047-0.083l0.187-0.34c0.208-0.492,0.595-0.864,0.933-1.296c-0.511,0.813-0.878,1.577-0.99,2.499l-0.113,0.445
				c-0.023,0.135,0.009,0.212,0.009,0.316c0.015,0.2,0.022,0.36,0.026,0.56c0.026,0.521,0.013,0.983,0.072,1.534
				c0.067,1.039,0.225,2.178,0.347,3.327c0.067,0.59,0.128,1.171,0.175,1.805c0.022,0.294,0.045,0.585,0.067,0.875
				c0.018,0.292,0.035,0.582,0.052,0.869c0.092,2.403,0.06,4.336-0.081,5.864c-0.032,0.376-0.082,0.736-0.149,1.079
				c-0.041,0.315-0.104,0.615-0.189,0.902c-0.193,0.599-0.361,1.019-0.678,1.454c1.266-1.086,2.021-2.547,2.538-4.781
				c0.253-1.1,0.482-2.444,0.637-4.064c0.03-0.383,0.061-0.772,0.091-1.167c0.021-0.398,0.042-0.801,0.064-1.21
				c0.038-0.855,0.042-1.64,0.058-2.373c0.007-0.352,0.015-0.708,0.022-1.065c0.001-0.361,0.019-0.673,0.036-0.972l0.018-0.462
				l0.038-0.382l0.022-0.373c-0.007-0.008-0.026-0.021-0.054-0.039l-0.05-0.034c-0.008-0.027-0.072,0.016-0.003-0.127l0.241-0.619
				l0.12-0.31l0.03-0.078l0.003-0.01c0.205-0.36-0.273,0.479-0.224,0.392l0.002-0.004l0.004-0.009l0.015-0.035
				c0.019-0.047,0.032-0.1,0.041-0.16c-0.011-0.137,0.083-0.224,0.132-0.352c0.023-0.141,0.162-0.252,0.271-0.391
				c0.464-0.553,1.476-1.138,2.665-1.547c1.182-0.428,2.566-0.668,3.855-0.842c0.424-0.045,0.829-0.095,1.238-0.125
				C28.727,29.602,31.835,27.286,34.559,26.967"/>
		</g>
	</g>
</g>
<g>
	<g>
		<g>
			<path fill="#301003" d="M78.864,23.631c0.046,1.492,0.671,2.611,1.14,3.838c0.376,1.218,0.714,2.459,0.112,4.174
				c-0.05,0.239-0.082,0.43-0.11,0.621c-0.004,0.185,0.006,0.36,0.03,0.526c0.008,0.17,0.007,0.335,0.034,0.488
				c0.05,0.307,0.164,0.573,0.37,0.808c0.137,0.159,0.392,0.444,0.887,0.809c0.266,0.162,0.485,0.458,0.772,0.759
				c0.269,0.324,0.646,0.605,0.926,1.093c0.312,0.47,0.643,0.97,0.989,1.492c0.305,0.608,0.623,1.243,0.95,1.896l0.123,0.251
				l0.062,0.127l0.031,0.063l0.008,0.016c0.019,0.18-0.022-0.236-0.017-0.19l0.003,0.009l0.013,0.037l0.206,0.588
				c0.137,0.395,0.273,0.794,0.412,1.196c0.266,0.807,0.535,1.626,0.806,2.448c1.942,6.285,2.108,13.582-0.562,15.669
				c1.173-0.544,2.066-1.589,2.747-3c0.717-1.407,1.004-3.201,1.239-5.195c0.397,4.312-0.238,8.025-1.973,9.453
				c2.48-1.171,3.864-4.689,4.139-9.204c0.118-1.11,0.09-2.324,0.02-3.57c-0.07-1.237-0.146-2.527-0.302-3.776
				c-0.21-1.208-0.443-2.429-0.685-3.644l-0.183-0.909l-0.093-0.454l-0.011-0.057l-0.003-0.014l-0.014-0.113l-0.008-0.029
				l-0.034-0.117l-0.066-0.233c-0.181-0.616-0.359-1.229-0.537-1.834c0.218,0.492,0.439,0.994,0.665,1.503l0.168,0.39l0.084,0.196
				l0.021,0.05l0.011,0.024l0.006,0.012c0.023,0.231,0.008,0.067,0.014,0.121l0.002,0.006l0.033,0.096l0.264,0.771
				c0.353,1.035,0.699,2.093,1.028,3.155c0.36,1.029,0.58,2.191,0.781,3.345c0.203,1.149,0.375,2.294,0.502,3.406
				c0.163,2.16,0.105,4.134-0.152,5.781c-0.328,1.626-0.911,2.893-1.759,3.626c0.804-0.403,1.479-1.047,2.045-1.89
				c0.284-0.421,0.54-0.891,0.771-1.405c0.206-0.521,0.384-1.088,0.538-1.692c0.308-1.208,0.52-2.569,0.656-4.029
				c0.052-1.548,0.017-3.204-0.081-4.903c-0.026-0.421-0.049-0.86-0.088-1.274c-0.06-0.378-0.12-0.759-0.18-1.142
				c-0.134-0.764-0.269-1.536-0.404-2.311l-0.22-1.162l-0.113-0.581l-0.015-0.073c-0.061-0.603-0.019-0.173-0.032-0.31l-0.003-0.01
				l-0.006-0.021l-0.011-0.041l-0.044-0.165l-0.089-0.328c-0.241-0.867-0.483-1.732-0.723-2.589
				c-0.325-0.883-0.648-1.757-0.966-2.619c-0.34-0.856-0.822-1.727-1.22-2.541c-0.915-1.632-1.966-3.138-3.074-4.332
				c-0.344-0.393-0.662-0.8-1.019-1.104c-0.785-0.253-1.606-0.453-2.411-0.624c-0.822-0.148-1.67-0.22-2.44-0.333
				c-0.379-0.058-0.753-0.115-1.122-0.171c-0.358-0.037-0.708-0.088-1.042-0.159C79.995,24.188,79.384,23.968,78.864,23.631"/>
		</g>
	</g>
</g>
<g>
	<g>
		<path fill="#0F0601" d="M93.141,76.698c0.034-7.935,0.496-15.833,1.262-23.729c0.594-6.135,1.686-12.333-2.134-17.649
			c-1.374-1.912-4.573-0.075-3.184,1.86c3.961,5.514,1.855,13.177,1.286,19.451c-0.605,6.673-0.888,13.368-0.918,20.067
			C89.443,79.076,93.13,79.075,93.141,76.698L93.141,76.698z"/>
	</g>
</g>
<g>
	<g>
		<path fill="#0F0601" d="M94.379,75.274c-0.216-9.27,2.55-18.869-2.935-27.149c-1.307-1.972-4.501-0.128-3.184,1.86
			c5.029,7.594,2.233,16.795,2.431,25.289C90.747,77.647,94.434,77.653,94.379,75.274L94.379,75.274z"/>
	</g>
</g>
<g>
	<g>
		<path fill="#0F0601" d="M6.072,50.478c0.404,4.252-0.737,8.365-0.845,12.605c-0.11,4.345,2.559,8.101,2.703,12.396
			c0.079,2.371,3.766,2.379,3.687,0c-0.145-4.336-2.393-8.075-2.703-12.396c-0.303-4.229,1.252-8.327,0.845-12.605
			C9.536,48.133,5.847,48.111,6.072,50.478L6.072,50.478z"/>
	</g>
</g>
<g>
	<g>
		<path fill="#210D03" d="M12.169,68.688c-1.604-4.442-3.976-8.575-5.286-13.12c-1.885-6.54,0.222-13.775,3.243-19.607
			c1.091-2.107-2.09-3.972-3.184-1.86c-3.065,5.918-4.831,12.32-4.234,19.021c0.527,5.923,3.929,11.07,5.907,16.547
			C9.416,71.886,12.979,70.929,12.169,68.688L12.169,68.688z"/>
	</g>
</g>
<g>
	<g>
		<path fill="#210D03" d="M6.043,44.38c0.614-7.748-1.39-15.027,6.724-19.343c2.1-1.117,0.237-4.299-1.86-3.184
			c-3.946,2.099-6.771,4.919-7.904,9.318C1.91,35.413,2.7,40.053,2.357,44.38C2.169,46.752,5.857,46.734,6.043,44.38L6.043,44.38z"
			/>
	</g>
</g>
<g>
	<g>
		<path fill="#210D03" d="M96.236,60.844c0.125-13.05,4.432-31.643-8.549-40.209c-1.991-1.313-3.836,1.88-1.861,3.184
			c11.306,7.461,6.831,25.714,6.723,37.026C92.526,63.222,96.213,63.22,96.236,60.844L96.236,60.844z"/>
	</g>
</g>
<g>
	<g>
		<path fill="#0F0601" d="M70.861,27.577c6.318,2.753,11.478,9.767,13.395,16.277c0.67,2.275,4.228,1.306,3.555-0.98
			c-2.158-7.333-7.941-15.366-15.088-18.48C70.565,23.454,68.687,26.629,70.861,27.577L70.861,27.577z"/>
	</g>
</g>
<g>
	<g>
		<path fill="#0F0601" d="M75.464,27.221c1.363,2.276,3.209,4.175,5.241,5.86c0.773,0.641,1.848,0.76,2.607,0
			c0.66-0.661,0.774-1.964,0-2.606c-1.793-1.486-3.462-3.105-4.665-5.114C77.428,23.324,74.239,25.176,75.464,27.221L75.464,27.221z
			"/>
	</g>
</g>
<g>
	<g>
		<path fill="#210D03" d="M31.546,27.191c-4.698,0.527-9.472-0.178-14.088,1.086c-5.285,1.448-5.521,6.945-7.193,11.243
			c-0.864,2.219,2.702,3.17,3.555,0.98c1.559-4.006,1.444-8.1,6.425-9.094c3.686-0.736,7.575-0.111,11.301-0.529
			C33.881,30.616,33.907,26.926,31.546,27.191L31.546,27.191z"/>
	</g>
</g>
<g>
	<g>
		<path fill="#210D03" d="M33.096,30.017c8.668-5.483,20.203-1.461,29.311,0.358c9.83,1.963,17.179-3.232,24.867-8.589
			c1.935-1.349,0.095-4.546-1.861-3.184c-4.2,2.928-8.276,6.039-13.143,7.783c-5.761,2.064-11.912-0.272-17.565-1.581
			c-7.337-1.697-16.881-2.137-23.469,2.029C29.232,28.1,31.08,31.292,33.096,30.017L33.096,30.017z"/>
	</g>
</g>
<g>
	<g>
		<path fill="#210D03" d="M61.886,27.524c5.454-0.003,10.618-0.276,15.172-3.605c1.897-1.388,0.062-4.589-1.861-3.184
			c-4.047,2.959-8.472,3.099-13.311,3.102C59.509,23.839,59.508,27.525,61.886,27.524L61.886,27.524z"/>
	</g>
</g>
<path fill-rule="evenodd" clip-rule="evenodd" fill="none" stroke="#000000" stroke-width="1.3285" stroke-miterlimit="10" d="
	M80.004,84.279c-0.272,2.518-2.568,5.56-5.125,5.291l-14.67-2.112c-2.558-0.271-4.408-3.748-4.135-6.268l-1.958-9.248
	c0.274-2.518,2.568-4.341,5.126-4.071l20.024,2.112c2.558,0.27,4.409,2.529,4.135,5.048L80.004,84.279z"/>
<path fill-rule="evenodd" clip-rule="evenodd" fill="none" stroke="#000000" stroke-width="1.3285" stroke-miterlimit="10" d="
	M44.112,79.526c0.463,2.49-1.213,6.099-3.743,6.556l-14.676,2.071c-2.53,0.457-4.956-2.412-5.418-4.905l-4.542-8.321
	c-0.462-2.49,1.213-4.88,3.743-5.335l19.811-3.568c2.53-0.456,4.955,1.194,5.417,3.686L44.112,79.526z"/>
<path fill-rule="evenodd" clip-rule="evenodd" fill="#FEFDFD" d="M64.258,113.94c-2.98,4.44-9.773,8.084-15.105,7.756
	c-3.615-0.224-9.456-3.654-10.078-5.857c-0.206-0.745,0.454-0.767,1.229-0.752C47.404,115.221,50.19,117.365,64.258,113.94z"/>
<g>
	<g>
		<path d="M45.975,75.113c1.845-1.54,6.013-1.954,7.53,0.271c0.665,0.976,2.264,0.055,1.592-0.93
			c-2.241-3.287-7.613-2.99-10.425-0.644C43.758,74.572,45.069,75.869,45.975,75.113L45.975,75.113z"/>
	</g>
</g>
<g>
	<g>
		<path d="M82.409,79.771c2.726-0.537,5.367-1.504,7.805-2.836c1.044-0.57,0.113-2.162-0.93-1.592
			c-2.305,1.26-4.789,2.143-7.365,2.65C80.753,78.223,81.248,79.999,82.409,79.771L82.409,79.771z"/>
	</g>
</g>
<g>
	<g>
		<path d="M17.46,77.504c-2.813,0.373-5.677-0.717-8.203-1.856c-1.075-0.484-2.013,1.104-0.931,1.592
			c2.808,1.267,5.998,2.524,9.133,2.108C18.621,79.193,18.636,77.348,17.46,77.504L17.46,77.504z"/>
	</g>
</g>
<g>
	<g>
		<path fill="#210D03" d="M65.11,24.818c-3.963,0.55-7.418,2.309-11.145,3.658c-4.179,1.514-8.748,1.502-13.132,1.763
			c-8.587,0.511-16.666-0.013-24.896-2.677c-2.269-0.734-3.232,2.826-0.98,3.555c8.54,2.765,16.954,3.342,25.876,2.809
			c4.206-0.251,8.356-0.446,12.473-1.391c4.43-1.017,8.222-3.528,12.784-4.162C68.437,28.047,67.435,24.496,65.11,24.818
			L65.11,24.818z"/>
	</g>
</g>
<g>
	<g>
		<path fill="#210D03" d="M55.693,25.667c-13.354-0.107-28.197,4.628-38.942-5.862c-1.701-1.662-4.31,0.943-2.606,2.606
			c11.704,11.428,26.928,6.826,41.549,6.942C58.071,29.373,58.069,25.686,55.693,25.667L55.693,25.667z"/>
	</g>
</g>
<g>
	<g>
		<path fill="#210D03" d="M55.384,26.582c-7.158,0.776-14.257,1.894-21.462,2.197c-7.646,0.322-17.321,0.05-22.434-6.535
			c-1.456-1.876-4.045,0.753-2.606,2.606c10.001,12.883,32.925,6.89,46.502,5.418C57.722,30.015,57.746,26.325,55.384,26.582
			L55.384,26.582z"/>
	</g>
</g>
<g>
	<g>
		<path fill="#210D03" d="M30.31,23.919c5.569-2.464,11.167-4.437,17.249-5.088c4.451-0.477,8.748,0.581,13.09,1.405
			c5.989,1.137,14.169,3.114,19.505-0.89c1.877-1.409,0.043-4.612-1.861-3.184c-6.1,4.578-17.097,0.284-23.859-0.793
			c-8.983-1.431-17.891,1.786-25.983,5.367C26.279,21.696,28.157,24.872,30.31,23.919L30.31,23.919z"/>
	</g>
</g>
<g>
	<g>
		<path fill="#210D03" d="M26.464,16.788c7.97-1.707,15.281-5.533,23.309-7.033c9.052-1.692,15.475,5.412,24.188,5.574
			c2.379,0.044,2.374-3.643,0-3.687c-4.525-0.084-8.13-2.417-12.191-4.089c-3.662-1.507-6.949-1.948-10.891-1.636
			c-8.827,0.699-16.812,5.478-25.394,7.316C23.159,13.73,24.146,17.284,26.464,16.788L26.464,16.788z"/>
	</g>
</g>
<g>
	<g>
		<path fill="#210D03" d="M66.658,28.172c-3.51,0.841-6.686,2.57-10.216,3.354c-4.899,1.087-10.041,1.238-15.035,1.562
			c-8.461,0.548-16.626,0.82-23.791-4.425c-1.921-1.407-3.758,1.794-1.86,3.184c7.208,5.277,15.455,5.534,24.07,5.029
			c4.703-0.275,9.453-0.503,14.113-1.213c4.85-0.74,8.995-2.808,13.699-3.935C69.95,31.173,68.97,27.618,66.658,28.172
			L66.658,28.172z"/>
	</g>
</g>
<g>
	<g>
		<path fill="#210D03" d="M63.987,26.512c-1.648,1.33-3.899,1.604-5.896,2.094c-1.854,0.455-3.508,1.208-4.939,2.479
			c-1.781,1.581,0.836,4.179,2.607,2.606c1.542-1.369,3.737-1.625,5.673-2.094c1.929-0.468,3.617-1.234,5.162-2.479
			C68.445,27.626,65.819,25.034,63.987,26.512L63.987,26.512z"/>
	</g>
</g>
<g>
	<g>
		<path fill="#210D03" d="M71.791,27.138c-14.22,9.154-32.592,14.679-46.062,1.204c-1.682-1.683-4.289,0.924-2.606,2.606
			c14.658,14.665,34.833,9.478,50.53-0.626C75.644,29.039,73.797,25.847,71.791,27.138L71.791,27.138z"/>
	</g>
</g>
<g>
	<g>
		<path fill="#442014" d="M20.403,107.354c3.479-1.839,8.313,0.48,11.9,1.094c4.128,0.705,8.602,0.364,12.763,0.175
			c4.365-0.199,8.683-1.09,13.027-1.505c3.297-0.314,7.893-1.92,10.809,0.236c1.915,1.415,3.75-1.787,1.861-3.184
			c-2.709-2.003-6.276-1.569-9.431-1.185c-4.858,0.592-9.706,1.322-14.574,1.828c-5.659,0.589-11.696,0.606-17.24-0.708
			c-3.71-0.88-7.441-1.804-10.976,0.064C16.44,105.282,18.303,108.465,20.403,107.354L20.403,107.354z"/>
	</g>
</g>
</svg>
