<?xml version="1.0" encoding="utf-8"?>
<!-- Generator: Adobe Illustrator 16.0.4, SVG Export Plug-In . SVG Version: 6.00 Build 0)  -->
<!DOCTYPE svg PUBLIC "-//W3C//DTD SVG 1.1//EN" "http://www.w3.org/Graphics/SVG/1.1/DTD/svg11.dtd">
<svg version="1.1" id="Layer_1" xmlns="http://www.w3.org/2000/svg" xmlns:xlink="http://www.w3.org/1999/xlink" x="0px" y="0px"
	 width="100px" height="140px" viewBox="0 0 100 140" enable-background="new 0 0 100 140" xml:space="preserve">
<g>
	<g>
		<g>
			<path fill="#8C6650" d="M64.904,79.157c-1.625,2.81-1.369,6.752-3.423,10.259c-0.13,0.295-0.221,0.553-0.313,0.822
				c-0.293,1.181-0.405,2.558-0.244,4.161c0.117,1.069,0.785,4.019,1.843,7.978c0.285,0.996,0.589,2.056,0.906,3.164
				c0.19,0.573,0.386,1.16,0.583,1.758c0.101,0.297,0.201,0.596,0.304,0.897l0.076,0.226l0.01,0.028l0.005,0.015
				c-0.018-0.082,0.044,0.202-0.037-0.18l0.017,0.053l0.034,0.105l0.137,0.424c0.174,0.557,0.388,1.169,0.533,1.7
				c0.139,0.526,0.279,1.059,0.42,1.596c0.24,1.146,0.475,2.341,0.636,3.569c0.343,2.452,0.536,5.009,0.71,7.492
				c0.086,1.249,0.193,2.48,0.19,3.586c0.004,1.16-0.033,2.308-0.074,3.404c-0.209,4.42-0.306,7.979-0.266,10.449
				c0.289-1.525,0.528-3.353,0.861-5.586c0.302-2.232,0.709-4.868,0.96-7.866c0.005,3.217-0.138,6.149-0.114,8.572
				c0.011,2.438,0.194,4.279,0.441,5.699c0.062-1.491,0.161-3.177,0.408-5.503c0.22-2.311,0.595-5.13,0.848-8.463
				c0.031-0.407,0.053-0.862,0.071-1.32c0.016-0.463,0.018-0.818,0.018-1.318c-0.008-0.846-0.016-1.707-0.023-2.58
				c-0.019-1.756-0.049-3.59-0.147-5.46c-0.102-1.878-0.263-3.765-0.59-5.696l-0.256-1.449l-0.325-1.346l-0.165-0.667l-0.188-0.728
				c-0.114-0.424-0.229-0.846-0.343-1.266c0.12,0.342,0.241,0.688,0.364,1.037l0.182,0.522l0.046,0.131l0.003,0.008l0.022,0.102
				l0.006,0.018l0.012,0.034l0.021,0.069l0.09,0.278c0.226,0.766,0.506,1.452,0.688,2.317c0.421,1.693,0.733,3.36,0.949,5.042
				c0.452,3.365,0.622,6.688,0.813,9.65c0.016,0.401,0.031,0.798,0.047,1.191c-0.002,0.419-0.004,0.834-0.006,1.243
				c-0.013,0.765-0.041,1.487-0.073,2.174c-0.065,1.373-0.155,2.618-0.236,3.717c-0.177,2.214-0.328,3.822-0.667,4.886
				c0.824-1.364,1.303-3.531,1.854-6.824c0.249-1.647,0.541-3.507,0.62-5.874c0.014-1.029,0.027-2.092,0.041-3.18
				c0.009-1.067,0.003-2.199-0.013-3.354c-0.046-2.334-0.173-4.814-0.522-7.409l-0.344-2.068c-0.122-0.673-0.272-1.175-0.408-1.77
				l-0.104-0.429l-0.11-0.482l-0.05-0.188l-0.203-0.747c-0.137-0.504-0.273-1.006-0.409-1.505
				c-0.997-4.293-1.689-8.743-2.186-12.493c-0.072-0.605-0.143-1.193-0.211-1.764C67.209,86.657,65.125,82.886,64.904,79.157"/>
		</g>
	</g>
</g>
<g>
	<g>
		<g>
			<path fill="#8C6650" d="M77.746,55.104c-1.83,3.988-1.6,9.906-3.623,14.905c-0.127,0.42-0.223,0.789-0.316,1.173
				c-0.292,1.704-0.432,3.652-0.323,5.933c0.037,0.539,0.09,1.384,0.197,2.512c0.104,1.128,0.272,2.538,0.351,4.133
				c0.052,0.805,0.108,1.664,0.167,2.571c0.008,0.897,0.016,1.842,0.023,2.827c0.003,0.248,0.005,0.498,0.008,0.751l0.004,0.382
				l0.001,0.097v0.023v0.013c0.018-0.104-0.039,0.247,0.039-0.228l-0.006,0.051l-0.021,0.203c-0.055,0.542-0.111,1.095-0.169,1.656
				c-0.028,0.28-0.058,0.563-0.087,0.849c-0.025,0.293-0.058,0.574-0.114,0.797c-0.096,0.487-0.193,0.981-0.292,1.482
				c-0.815,4.199-2.983,9.237-4.059,14.647c-0.122,0.681-0.299,1.341-0.374,2.031l-0.198,2.068l-0.098,1.023l-0.016,0.22
				l0.003,0.122l0.007,0.243l0.013,0.486c-0.005,0.613,0.085,1.386,0.146,2.083c0.193,1.389,0.565,2.73,1.039,3.957
				c0.475,1.229,1.016,2.338,1.513,3.436l-0.031-0.085c0.593,1.846,0.979,3.835,1.356,5.647c0.358,1.839,0.693,3.562,1,5.135
				c0.606,3.179,1.086,5.732,1.604,7.73c-0.208-1.999-0.44-4.497-0.807-7.693c-0.185-1.59-0.402-3.336-0.664-5.218
				c-0.279-1.884-0.538-3.887-1.099-6.03l-0.003-0.012l-0.014-0.034c-0.063-0.158-0.131-0.328-0.198-0.499
				c0.077,0.165,0.154,0.33,0.229,0.486l0.01,0.021l0.008,0.028c2.557,9.025,3.129,16.68,5.36,19.927
				c-1.609-3.419-1.604-10.472-3.857-20.39l-0.011-0.046l-0.059-0.146c-0.452-1.118-0.937-2.246-1.304-3.322
				c-0.362-1.075-0.603-2.141-0.711-3.254l-0.051-0.812c-0.024-0.262,0.004-0.643,0.002-0.959l0.009-0.499l0.002-0.125l0.001-0.062
				c0.007-0.115-0.011,0.147-0.009,0.118l0.001-0.007l0.002-0.015l0.004-0.028l0.032-0.23l0.127-0.923
				c0.081-0.62,0.163-1.242,0.245-1.867c0.149-0.623,0.301-1.248,0.451-1.875c1.211-5.046,3.767-10.09,5.035-15.624
				c-0.498,2.649-1.263,5.295-2.107,7.88c-0.404,1.284-0.813,2.582-1.224,3.885l-0.519,1.918c-0.183,0.637-0.35,1.272-0.449,1.903
				l-0.366,1.878c-0.102,0.623-0.115,1.242-0.183,1.854l-0.085,0.914l-0.021,0.227l-0.012,0.113l-0.006,0.057l-0.002,0.028
				l-0.001,0.007c0.024-0.365,0.007-0.097,0.013-0.176v0.016l0.012,0.509l0.024,1l0.09,0.74c0.143,1.024,0.402,2.004,0.787,3.004
				c0.394,1.01,0.912,2.122,1.407,3.231l0.05,0.113l0.062,0.194c0.343,1.098,0.559,2.017,0.752,2.896
				c0.196,0.883,0.361,1.72,0.516,2.523c0.308,1.61,0.561,3.091,0.78,4.43c0.433,2.684,0.72,4.792,0.757,6.219
				c0.229-1.42,0.185-3.492-0.026-6.197c-0.111-1.346-0.258-2.853-0.468-4.508c-0.104-0.827-0.223-1.693-0.374-2.62
				c-0.153-0.93-0.316-1.887-0.652-3.138l-0.024-0.091l-0.131-0.339c-0.169-0.437-0.34-0.88-0.514-1.329
				c-0.146-0.408-0.333-0.86-0.457-1.243c-0.287-0.803-0.47-1.488-0.6-2.168c-0.051-0.338-0.103-0.711-0.127-1.033
				c0.001-0.356-0.066-0.506-0.03-1.154l0.021-0.818l0.003-0.104l0.001-0.051l0.001-0.014c0.019-0.272-0.025,0.357-0.02,0.289
				l0.003-0.021l0.026-0.168l0.052-0.338c0.065-0.452,0.13-0.907,0.195-1.365c0.551-3.685,2.177-7.684,3.855-12.265l0.596-1.769
				c0.192-0.613,0.403-1.119,0.576-1.824l0.523-1.992l0.25-0.99c0.076-0.322,0.098-0.581,0.148-0.874
				c0.087-0.569,0.175-1.138,0.262-1.703l0.164-1.11l0.048-0.905c0.061-1.2,0.121-2.39,0.181-3.565
				c0.035-4.663-0.214-9.011-0.516-12.841c-0.066-0.911-0.131-1.797-0.193-2.656C79.862,66.231,77.684,60.646,77.746,55.104"/>
		</g>
	</g>
</g>
<g>
	<g>
		<g>
			<path fill="#8C6650" d="M32.003,60.425c-0.28,3.089,1.246,6.38-0.06,9.867c-0.067,0.276-0.113,0.512-0.154,0.754
				c-0.049,1.034-0.025,2.178,0.305,3.45c0.148,0.859,1.138,3.151,1.743,6.484c0.619,3.313,0.829,7.717-0.006,12.23
				c-0.431,2.243-1.04,4.515-1.872,6.632c-0.813,2.178-1.713,4.272-2.405,6.261c-1.479,3.933-2.162,7.328-3.112,9.184
				c0.832-1.041,1.595-2.648,2.404-4.601c0.858-1.945,1.878-4.229,3.101-6.73c-1.052,2.787-1.873,5.389-2.437,7.59
				c-0.308,1.1-0.509,2.108-0.775,2.985c-0.224,0.88-0.453,1.636-0.771,2.232c0.455-0.545,0.841-1.242,1.178-2.059
				c0.414-0.81,0.709-1.747,1.14-2.764c0.779-2.037,1.777-4.456,3.037-7.138c0.323-0.687,0.654-1.389,0.992-2.104
				c0.166-0.358,0.333-0.721,0.501-1.085c0.174-0.389,0.35-0.779,0.527-1.174c0.366-0.781,0.677-1.603,0.974-2.437
				c0.15-0.416,0.302-0.834,0.454-1.253l0.38-1.292c1.015-3.449,1.564-7.113,1.608-10.614c0.174,2.915,0.002,6.149-0.6,9.348
				c-0.337,1.585-0.705,3.184-1.209,4.708c-0.222,0.778-0.507,1.519-0.791,2.252c-0.273,0.699-0.543,1.39-0.809,2.067
				c-0.567,1.367-1.025,2.522-1.465,3.648c-0.423,1.106-0.82,2.143-1.183,3.091c-0.682,1.858-1.22,3.335-1.878,4.309
				c1.194-1.141,2.199-3.062,3.49-5.616c0.684-1.337,1.438-2.812,2.245-4.39c0.205-0.413,0.414-0.833,0.625-1.259
				c0.233-0.491,0.469-0.99,0.707-1.494c0.493-0.999,0.879-2.091,1.298-3.179c1.634-4.385,2.479-9.451,2.472-14.285
				c0.006-4.853-0.967-9.415-2.096-13.127c-0.18-0.597-0.338-1.182-0.547-1.729C36.896,66.114,33.728,63.395,32.003,60.425"/>
		</g>
	</g>
</g>
<g>
	<g>
		<g>
			<path fill="#8C6650" d="M41.027,53.206c-0.28,3.089,1.246,6.38-0.06,9.867c-0.067,0.276-0.113,0.512-0.154,0.755
				c-0.049,1.034-0.025,2.177,0.305,3.45c0.148,0.86,1.137,3.151,1.743,6.485c0.619,3.312,0.829,7.716-0.007,12.23
				c-0.431,2.243-1.04,4.514-1.872,6.632c-0.813,2.178-1.713,4.272-2.405,6.261c-1.479,3.933-2.163,7.328-3.113,9.184
				c0.832-1.041,1.595-2.648,2.405-4.601c0.858-1.945,1.878-4.229,3.101-6.73c-1.052,2.787-1.873,5.389-2.437,7.591
				c-0.309,1.099-0.509,2.107-0.776,2.984c-0.224,0.88-0.453,1.636-0.771,2.232c0.455-0.545,0.841-1.242,1.178-2.059
				c0.414-0.81,0.709-1.747,1.141-2.764c0.779-2.037,1.777-4.456,3.037-7.138c0.323-0.687,0.654-1.389,0.991-2.104
				c0.166-0.358,0.333-0.721,0.501-1.085c0.175-0.389,0.35-0.779,0.527-1.174c0.366-0.781,0.677-1.603,0.974-2.438
				c0.15-0.415,0.301-0.833,0.453-1.253l0.381-1.291c1.015-3.449,1.564-7.113,1.608-10.614c0.174,2.915,0.002,6.148-0.601,9.348
				c-0.336,1.584-0.705,3.183-1.209,4.708c-0.221,0.777-0.507,1.518-0.79,2.252c-0.274,0.699-0.544,1.39-0.809,2.066
				c-0.566,1.367-1.024,2.523-1.465,3.649c-0.423,1.106-0.82,2.143-1.183,3.091c-0.683,1.858-1.221,3.335-1.879,4.309
				c1.194-1.141,2.199-3.062,3.491-5.616c0.684-1.337,1.438-2.812,2.245-4.391c0.205-0.412,0.413-0.832,0.624-1.258
				c0.233-0.491,0.469-0.99,0.708-1.494c0.493-0.999,0.878-2.091,1.298-3.179c1.634-4.386,2.479-9.451,2.472-14.285
				c0.005-4.853-0.967-9.415-2.096-13.127c-0.18-0.597-0.338-1.182-0.547-1.729C45.919,58.895,42.751,56.176,41.027,53.206"/>
		</g>
	</g>
</g>
<g>
	<path fill-rule="evenodd" clip-rule="evenodd" fill="#8E6A5E" d="M29.705,104.048c0.115,5.52,1.01,10.947,0.195,16.577
		c-1.667,11.509-7.727,17.27-16.308,14.804c-1.878-0.539-3.87-0.989-5.703-2.825c8.151-1.874,11.403-5.153,11.838-12.295
		c0.309-5.072,0.14-10.16-0.556-15.234c-1.779-12.961-3.949-25.859-3.547-39.198c0.351-11.643,3.439-48.665,9.764-56.675
		c6.382-8.08,13.842-8.903,21.822-5.458c1.743,0.752,3.293,1.25,5.155,0.33C67.356-3.33,78.332,8.689,82.773,26.168
		c3.459,13.614,0.994,54.36-0.738,67.971c-0.751,5.906,2.868,7.248,2.295,13.186c-1.244,12.861-0.61,16.932,4.421,26.793
		c-5.031,0-7.108-0.972-12.533-4.234c-1.858-3.339-2.9-8.758-5.89-14.623c-0.479-5.42-0.188-6.689-0.227-12.097
		c1.145-3.521-1.788-6.305-0.984-9.765c-0.01-0.692-0.007-1.388-0.002-2.077c-0.083-6.224-0.843-12.211-3.378-17.611
		c-0.805,5.796,0.416,11.301,1.1,16.869c0.063,0.879,0.212,1.736,0.346,2.6c-0.531,3.598-0.751,3.646-3.415,0.752
		c-0.565-0.757-1.098-1.556-1.569-2.426c-1.733-3.838-3.542-7.615-5.295-11.438c-0.399-1.052-0.899-2.025-1.342-3.043
		c-0.38-1.255-0.878-2.438-1.221-3.715c0.311-1.081,0.101-1.8-0.794-2.049c-0.915-3.809-2.332-7.309-3.58-11.239
		c-1.351,3.833-2.15,7.545-3.08,11.188c-0.244,0.715-0.654,1.295-0.908,2.002c-0.445,1.209-0.646,2.544-1.064,3.77
		c-0.431,1.047-0.942,2.026-1.395,3.056c-1.901,3.709-3.353,7.799-5.337,11.44c-0.542,0.771-1.063,1.566-1.554,2.402
		c-2.629,2.983-2.748,2.955-3.627-0.845c-0.023-0.685,0.022-1.363,0.107-2.036c0.673-4.985,1.311-9.982,1.863-14.998
		c0.106-0.952,0.49-2.35-0.515-2.708c-1.104-0.394-1.504,0.982-1.77,2.119c-1.166,4.988-1.887,10.106-2.38,15.284
		c-0.6,0.925-0.167,1.963-0.161,2.959C30.396,97.154,28.755,100.5,29.705,104.048z"/>
	<g>
		<path fill="#8E6A5E" d="M28.233,104.048c0.282,8.111,1.484,16.236-1.91,23.918c-3.111,7.042-11.579,8.529-17.394,3.598
			c-0.216,0.819-0.433,1.64-0.649,2.459c3.96-0.986,7.77-2.349,10.372-5.645c2.975-3.767,2.686-9.289,2.69-13.78
			c0.017-15.671-4.346-31.059-4.287-46.819c0.033-8.684,0.982-17.432,1.977-26.047c1.079-9.344,2.285-19.112,5.59-27.976
			c1.873-5.023,6.315-8.845,11.469-10.186c5.982-1.557,11.049,3.769,16.665,1.923c5.717-1.879,10.108-3.214,15.729-0.064
			c5.587,3.129,8.896,9.646,11.094,15.373c3.375,8.793,3.41,18.393,3.465,27.683c0.062,10.599-0.44,21.209-1.188,31.779
			c-0.276,3.911-0.612,7.818-1.036,11.716c-0.494,4.55,0.474,7.438,1.799,11.719c0.95,3.069-0.082,6.971-0.249,10.12
			c-0.132,2.501-0.044,4.99,0.262,7.475c0.594,4.831,2.688,9.268,4.85,13.568c0.424-0.738,0.847-1.477,1.271-2.215
			c-2.813-0.06-5.099-0.479-7.642-1.68c-3.742-1.767-4.702-4.102-5.993-7.838c-0.993-2.874-3.208-6.506-3.449-9.532
			c-0.194-2.447-0.143-4.898-0.104-7.35c0.089-5.712-0.881-10.923-1.016-16.616c-0.138-5.771-1.23-11.367-3.539-16.663
			c-0.651-1.493-2.611-0.529-2.742,0.743c-0.585,5.718,0.355,11.217,1.1,16.869c0.296,2.242,1.58,5.331-1.146,1.438
			c-1.618-2.309-2.581-5.247-3.771-7.795c-3.733-7.999-6.32-16.211-9.062-24.593c-0.461-1.408-2.372-1.395-2.838,0
			c-1.402,4.193-2,8.825-3.839,12.838c-1.981,4.322-3.535,9-5.462,13.402c-0.915,2.09-1.851,4.148-3.13,6.041
			c-2.25,3.326-1.793,1.855-1.536-0.913c0.495-5.345,1.303-10.72,2-16.044c0.165-1.262-0.625-3.134-2.123-3.134
			c-2.836,0-3.109,2.842-3.605,5.076c-1.09,4.907-1.233,9.962-2.271,14.86c-0.426,2.009-0.009,4.588-0.337,6.685
			c-0.332,2.121-0.291,3.906,0.042,5.997c0.297,1.87,3.133,1.073,2.838-0.783c-0.713-4.488,0.391-10.334,0.852-14.898
			c0.312-3.083,0.79-6.142,1.337-9.19c0.135-0.749,0.567-6.46,0.188-3.566c-0.654,4.995-1.194,10.004-1.863,14.998
			c-0.233,1.738-0.19,5.131,1.591,6.174c7.001,4.102,16.574-32.026,18.158-36.76c-0.946,0-1.893,0-2.838,0
			c3.725,11.386,6.958,24.283,13.949,34.262c1.039,1.482,4.766,4.688,5.661,1.125c0.663-2.64,0.238-4.752-0.146-7.465
			c-0.699-4.924-1.312-9.659-0.803-14.624c-0.914,0.248-1.828,0.495-2.742,0.743c3.168,7.267,2.235,14.268,3.223,21.778
			c0.383,2.911,0.938,5.597,0.943,8.592c0.004,2.934-0.083,5.842,0.091,8.772c0.188,3.175,1.922,5.801,3.015,8.774
			c1.023,2.784,1.87,5.601,3.209,8.256c0.789,1.564,4.592,2.941,6.186,3.576c2.512,0.999,4.932,1.329,7.618,1.387
			c1.175,0.025,1.754-1.253,1.271-2.215c-2.535-5.044-4.463-9.893-4.745-15.579c-0.284-5.729,1.562-11.463-0.54-16.97
			c-1.616-4.235-1.048-7.89-0.624-12.257c0.459-4.741,0.788-9.496,1.076-14.251c0.645-10.631,0.982-21.301,0.703-31.951
			c-0.229-8.729-1.046-17.324-4.695-25.379C77.474,8.771,71.52,1.294,61.985,0.403c-5.62-0.526-10.241,3.592-15.709,1.388
			c-4.231-1.706-9.5-2.097-13.729-0.17C24.527,5.275,21.599,12.159,19.639,20.17c-2.303,9.411-3.381,19.17-4.319,28.796
			c-1.228,12.601-1.492,24.956-0.107,37.58c1.026,9.353,2.967,18.628,3.187,28.051c0.087,3.729,0.173,7.789-1.548,11.194
			c-1.718,3.399-5.973,4.551-9.354,5.393c-1.017,0.253-1.5,1.738-0.649,2.459c5.295,4.491,13.112,5.21,18.531,0.664
			c8.333-6.99,6.121-20.928,5.797-30.26C31.11,102.155,28.167,102.149,28.233,104.048z"/>
	</g>
</g>
<path fill-rule="evenodd" clip-rule="evenodd" fill="#FADBD2" d="M44.971,26.308c0.238-1.222-0.256-2.283-0.888-3.314"/>
<path fill-rule="evenodd" clip-rule="evenodd" fill="#FADBD2" d="M71.415,39.133c-3.003,6.525-4.739,13.268-4.451,20.384
	c0.091,2.238,0.069,4.482-0.002,6.721"/>
<path fill-rule="evenodd" clip-rule="evenodd" fill="#FADBD2" d="M78.06,49.142c-3.476,9.494-3.219,5.96-3.7,15.804
	c-1.12,9.132-1.982,7.113-4.105,15.329c-2.537,4.957-4.857,8.557-8.056,11.231c-2.563,2.144-9.137,2.073-10.728,0.908
	c-8.034-5.886-7.25-3.229-15.447-12.978c-4.787-5.693-2.369-5.669-1.909-12.785c0.189-2.919,1.276,0.207-2.49,0.659
	c-2.316,0.277-6.337-5.155-7.098-7.316c-0.745-2.117-0.96-4.372,0.857-6.387c1.839-2.04,4.416-2.727,6.672-1.722
	c3.221,1.436,3.875,0.721,4.157-2.189c0.534-5.5,4.195-10.456,3.522-16.264l1.698-11.46c3.283-2.066,7.711-1.953,10.694-4.604
	c10.064-2.559,11.989-1.101,22.031,0.113c1.489,0.18,3.673,1.587,4.804,2.567L78.06,49.142z"/>
<path fill-rule="evenodd" clip-rule="evenodd" fill="#FADBD2" d="M67.047,66.326c0.224-4.853-1.074-9.792,0.87-14.562
	c1.404-0.685,3.751,0.53,4.356-1.762c0.486-1.835-1.217-2.473-2.329-3.439c-1.482-3.217,0.256-5.461,2.753-7.487"/>
<path fill-rule="evenodd" clip-rule="evenodd" fill="#F9A798" d="M69.746,39.878c0.773,0.7,1.329,0.737,3.034,0.322
	c-1.572,1.855-3.663,3.578-1.938,6.265c0.431,2.118-0.403,3.84-2.034,5.312c-1.741,5.741-1.605,3.943-1.469,9.732
	c0.023,0.985,0.607,4.343,0.133,5.399c-0.657,1.461-2.412,1.359-3.762,1.243c-2.858-0.246-5.245-1.774-7.077-4.039
	c1.215-0.874,1.968-0.22,2.847,0.208c1.662,0.808,3.166,3.023,5.008,2.063c1.485-0.774,1.559-0.374,1.427-1.955
	C65.167,55.456,66.441,48.293,69.746,39.878z"/>
<path fill-rule="evenodd" clip-rule="evenodd" fill="#F9BFB2" d="M29.262,53.676c4.062,0.271,3.225,4.707,3.974,7.526
	c0.687,2.584-1.25,2.443-2.48,2.532c-2.502,0.18-4.222-1.394-4.582-4.557C25.835,56.201,27.319,54.519,29.262,53.676z"/>
<g>
	<g>
		<path fill="#FADBD2" d="M70.574,41.362c-0.781,1.007-1.14,2.131-1.476,3.35c-0.4,1.455-0.962,2.813-1.204,4.316
			c-0.274,1.707,2.334,2.439,2.611,0.72c0.203-1.264,0.604-2.406,1.003-3.614c0.298-0.902,0.383-2.087,0.979-2.857
			C73.545,41.916,71.644,39.984,70.574,41.362L70.574,41.362z"/>
	</g>
</g>
<g>
	<g>
		<path fill="#FADBD2" d="M70.254,49.125c0.553,0.005,1.104,0.003,1.637-0.161c0.705-0.217,1.146-0.938,0.946-1.665
			c-0.191-0.695-0.96-1.162-1.665-0.945c-0.235,0.072-0.568,0.067-0.918,0.064C68.508,46.402,68.509,49.109,70.254,49.125
			L70.254,49.125z"/>
	</g>
</g>
<g>
	<g>
		<path fill="#F9A798" d="M67.636,57.388c0.277-1.551,0.706-3.064,0.94-4.626c0.206-1.379-0.217-2.289-0.293-3.553
			c-0.181-3.039,2.733-5.834,3.098-8.808c0.105-0.865-1.249-0.855-1.354,0c-0.343,2.797-2.451,5.417-3.03,8.225
			c-0.229,1.107,0.368,2.137,0.322,3.257c-0.071,1.749-0.684,3.435-0.988,5.146C66.179,57.882,67.483,58.247,67.636,57.388
			L67.636,57.388z"/>
	</g>
</g>
<path fill-rule="evenodd" clip-rule="evenodd" fill="#8E6A5E" d="M51.101,40.789c3.127-3.618,6.791-1.684,9.87-0.953
	c1.759,0.248,1.701-0.616,2.044-1.232c-3.624-2.179-8.787-2.006-12.477,0.744c-1.133,1.318-1.685,1.911-2.836,3.9
	C49.277,42.75,49.813,42.383,51.101,40.789z"/>
<path fill-rule="evenodd" clip-rule="evenodd" fill="#8E6A5E" d="M81.493,43.14c-2.788-3.886-6.611-2.292-9.743-1.842
	c-1.774,0.087-1.639-0.767-1.924-1.412c3.806-1.842,8.932-1.202,12.358,1.87c1.008,1.416,1.504,2.056,2.471,4.141
	C83.131,45.258,82.631,44.843,81.493,43.14z"/>
<path fill-rule="evenodd" clip-rule="evenodd" fill="#826136" d="M61.392,48.347c0.18,1.77-0.703,3.102-2.689,3.457
	c-1.192,0.212-2.517,0.173-2.756-1.543c3.565-0.173,0.635-3.735,2.173-4.391C59.412,45.317,60.973,46.292,61.392,48.347z"/>
<g>
	<g>
		<g>
			<path fill="#8C6650" d="M74.859,16.312c-2.827-0.556-6.061-0.814-9.211-1.859c-1.582-0.485-3.119-1.193-4.876-1.909
				c-1.744-0.729-3.832-1.371-5.976-1.716c-0.703-0.045-1.364-0.101-2.001-0.067c-2.877,0.188-5.858,1.201-8.861,2.795
				c-0.171,0.092-0.369,0.198-0.591,0.317c-0.11,0.062-0.227,0.126-0.35,0.194l-0.188,0.106c-0.081,0.048-0.164,0.097-0.248,0.147
				c-0.247,0.157-0.517,0.327-0.807,0.511c-0.417,0.291-0.889,0.595-1.322,0.96c-0.843,0.668-1.906,1.69-2.773,3.159
				c-0.901,1.488-1.269,3.256-1.404,4.564c-0.139,1.344-0.149,2.367-0.26,3.405c-0.044,0.495-0.149,1.218-0.226,1.813
				c-0.044,0.221-0.088,0.445-0.132,0.671l-0.063,0.351l-0.113,0.423c-0.558,2.261-1.699,4.961-2.717,8.13l-0.101,0.308
				c-0.49,2.001-0.996,4.072-1.515,6.19c-0.27,1.126-0.542,2.265-0.817,3.413l-0.206,0.86l-0.052,0.215l-0.065,0.311l-0.01,0.107
				l-0.042,0.427l-0.083,0.857c-0.03,0.28-0.062,0.562-0.051,0.947c0.012,0.703-0.008,1.457,0.062,2.106
				c0.084,0.635,0.153,1.28,0.255,1.901l0.369,1.816l0.419,1.739c0.281,1.131,0.551,2.248,0.77,3.339
				c0.135,0.554,0.177,1.087,0.271,1.634l0.269,1.77c0.714,4.51,1.017,9.041,0.526,13.223c-0.085,0.516-0.169,1.028-0.253,1.537
				l-0.032,0.19l-0.016,0.096l-0.008,0.048l-0.002,0.012c-0.005,0.022,0.045-0.154,0.021-0.074l-0.007,0.024l-0.12,0.38
				l-0.239,0.755c-0.194,0.448-0.36,0.857-0.582,1.299c-0.238,0.439-0.452,0.876-0.714,1.307c-0.99,1.724-2.132,3.389-2.751,5.316
				l-0.018,0.056l-0.002,0.028c-0.067,0.817-0.226,1.635-0.209,2.4c0.035,0.761-0.011,1.527,0.081,2.227
				c0.113,1.425,0.289,2.724,0.426,3.927c0.292,2.376,0.445,4.353,0.261,5.762c0.375-1.348,0.412-3.316,0.28-5.719
				c-0.053-1.209-0.159-2.522-0.191-3.941c-0.059-0.703,0.023-1.442,0.029-2.19c0.006-0.751,0.213-1.507,0.304-2.281l-0.005,0.019
				c0.594-1.604,1.67-3.089,2.724-4.729c0.534-0.819,1.049-1.679,1.501-2.663c0.25-0.484,0.368-0.961,0.56-1.449
				c0.154-0.6,0.229-1.061,0.346-1.604c-0.092,0.539-0.145,0.982-0.271,1.595c-0.164,0.489-0.265,0.96-0.48,1.454
				c-0.41,1.009-0.884,1.902-1.376,2.75c-0.975,1.699-1.974,3.256-2.445,4.815l0.019-0.079c-0.22,1.731-0.17,3.458,0.059,5.099
				c0.19,1.637,0.457,3.187,0.649,4.621c0.419,2.866,0.444,5.317,0.088,6.983c0.562-1.552,0.771-4.012,0.531-6.922
				c-0.118-1.426-0.248-2.987-0.388-4.671c-0.135-1.644-0.111-3.342,0.175-4.902c-0.016,0.063-0.032,0.13-0.048,0.196
				c0.473-1.308,1.472-2.753,2.55-4.464c0.538-0.853,1.081-1.774,1.609-2.979c0.152-0.311,0.194-0.507,0.292-0.761l0.127-0.363
				l0.063-0.183l0.032-0.092l0.016-0.045l0.059-0.208l0.002-0.013l0.005-0.025c0.109-0.547,0.219-1.098,0.33-1.652
				c0.756-4.454,0.605-9.056,0.089-13.745c-0.137-1.141-0.275-2.291-0.414-3.446c-0.17-1.212-0.396-2.411-0.643-3.557
				c-0.483-2.285-0.98-4.542-1-6.556c-0.006-0.486-0.043-0.962,0.071-1.583l0.115-0.876l0.029-0.219l0.014-0.109l0.002-0.014
				c0.024-0.121-0.032,0.149-0.024,0.117l0.007-0.026l0.014-0.052l0.114-0.415c0.304-1.109,0.608-2.217,0.911-3.323
				c0.292-1.094,0.616-2.232,0.947-3.375c0.325-1.135,0.648-2.266,0.97-3.39l-0.039,0.118c0.123-0.334,0.243-0.662,0.363-0.988
				c-0.107,0.328-0.215,0.657-0.328,1.002l0.04-0.122c-0.269,1.079-0.542,2.174-0.818,3.282c-0.278,1.111-0.569,2.249-0.815,3.322
				c-0.259,1.087-0.52,2.183-0.782,3.286l-0.159,0.663l-0.086,0.874l-0.087,0.876c-0.02,0.282,0.025,0.481,0.031,0.723
				c0.028,0.461,0.025,0.899,0.125,1.45c0.078,0.525,0.126,1.035,0.258,1.584c0.206,1.069,0.492,2.184,0.767,3.34
				c0.289,1.153,0.55,2.374,0.782,3.62l0.268,1.923l0.016,0.121c0.011,0.131-0.013-0.163-0.009-0.127l0.002,0.014l0.004,0.027
				l0.009,0.054l0.034,0.217l0.067,0.434l0.133,0.866c0.673,4.822,0.968,9.592,0.262,14.304l-0.154,0.88l-0.078,0.438l-0.039,0.218
				l-0.02,0.108l-0.01,0.055l-0.105,0.364l-0.239,0.739c-0.077,0.24-0.146,0.473-0.31,0.835c-0.278,0.649-0.591,1.345-0.852,1.791
				l-0.409,0.748l-0.399,0.67c-1.066,1.75-1.926,3.12-2.248,4.085c0.029-0.119,0.058-0.238,0.086-0.354
				c-0.33,1.531-0.152,3.57-0.05,5.302c0.14,1.779,0.262,3.384,0.205,4.677c0.226-1.25,0.25-2.865,0.254-4.653
				c-0.016-0.463,0.009-0.899,0.018-1.354c0.026-0.44-0.025-0.958,0.044-1.373c0.039-0.426,0.078-0.865,0.12-1.318
				c0.104-0.37,0.188-0.741,0.25-1.122c-0.035,0.144-0.071,0.293-0.107,0.442c0.324-0.713,1.116-1.874,2.197-3.465
				c0.277-0.433,0.541-0.796,0.836-1.309c0.291-0.498,0.566-0.913,0.91-1.657c0.157-0.34,0.314-0.682,0.473-1.025l0.272-0.718
				l0.129-0.351l0.065-0.176l0.008-0.022l0.132-0.462l0.012-0.054l0.024-0.108l0.188-0.87c0.523-2.347,0.734-4.714,0.789-7.101
				c0.064-2.409-0.04-4.768-0.28-7.263c-0.053-0.643-0.121-1.21-0.19-1.782c-0.062-0.543-0.125-1.089-0.188-1.637
				c-0.12-1.389-0.361-2.683-0.593-3.928c-0.489-2.463-1.008-4.637-1.087-6.371c0.019-0.352-0.039-0.6-0.033-1.05l0.123-0.906
				l0.061-0.454l0.031-0.227l0.015-0.113l0.008-0.057l0.002-0.014c-0.15,0.726-0.04,0.194-0.072,0.353l0.007-0.026l0.916-3.304
				l0.453-1.659l0.532-1.84c0.354-1.23,0.708-2.458,1.06-3.683l-0.13,0.396c0.76-2.195,1.825-4.529,2.757-7.155
				c0.223-0.697,0.443-1.305,0.65-2.085l0.296-1.174c0.115-0.431,0.124-0.653,0.188-0.984l0.155-0.934
				c0.051-0.347,0.115-0.705,0.153-1.039c0.089-0.68,0.152-1.334,0.21-1.911c0.115-1.185,0.238-1.939,0.415-2.283
				c0.076-0.203,0.201-0.378,0.392-0.602c0.188-0.208,0.493-0.482,0.771-0.679c0.157-0.107,0.227-0.191,0.519-0.356l0.676-0.405
				c0.462-0.254,0.921-0.506,1.375-0.755c0.908-0.531,1.801-0.92,2.673-1.333c0.506-0.261,0.995-0.395,1.481-0.593
				c0.242-0.091,0.483-0.182,0.722-0.271c0.234-0.062,0.467-0.124,0.697-0.186c1.34-0.66,2.685-1.139,4.278-1.288
				c1.587-0.174,3.47,0,5.413,0.091C67.321,17.234,71.236,16.82,74.859,16.312"/>
		</g>
	</g>
</g>
<g>
	<g>
		<g>
			<path fill="#8C6650" d="M42.703,12.583c-1.17-0.257-2.614,0.196-3.834,0.976c-1.244,0.781-2.354,1.851-3.394,2.987
				c-2.076,2.29-3.919,4.864-6.111,7.039c-0.328,0.389-0.595,0.737-0.873,1.105c-1.113,1.666-2.139,3.744-3.039,6.26
				c-0.299,0.835-0.769,2.461-1.362,4.628c-0.295,1.051-0.629,2.243-0.997,3.553c-0.324,1.135-0.896,2.685-1.41,4.218
				c-1.07,3.183-2.25,6.819-3.192,10.811c-0.941,3.987-1.602,8.347-1.6,12.746c0.118,2.136,0.236,4.283,0.354,6.416
				c0.054,1.048,0.107,2.093,0.161,3.132c0.095,1.046,0.188,2.085,0.282,3.116c0.171,2.058,0.339,4.078,0.502,6.04
				c0.097,1.852,0.175,3.844,0.01,5.541c-0.256,3.516-1.132,6.676-2.094,9.242c-0.995,2.572-2.026,4.603-2.951,5.947
				c1.336-1.426,2.883-3.914,4.268-7.334c0.17-0.429,0.352-0.868,0.514-1.326c0.146-0.464,0.294-0.939,0.446-1.425
				c0.327-0.97,0.536-2.015,0.757-3.103c0.055-0.272,0.11-0.547,0.167-0.824c0.033-0.281,0.067-0.565,0.101-0.853
				c0.063-0.575,0.128-1.16,0.194-1.754c0.097-1.185,0.078-2.385,0.11-3.627c0.027,1.329,0.145,2.607,0.075,3.907
				c-0.062,1.3-0.117,2.58-0.329,3.786c-0.31,2.441-0.958,4.661-1.593,6.646c-1.359,3.941-2.812,6.934-4.026,8.729
				c1.43-1.533,3.073-4.259,4.696-8.068c0.384-0.964,0.775-1.993,1.139-3.091c0.305-1.123,0.712-2.273,0.918-3.534
				c0.119-0.626,0.239-1.264,0.362-1.911c0.069-0.672,0.14-1.354,0.211-2.048c0.032-0.348,0.064-0.697,0.097-1.05
				c0.025-0.348,0.017-0.663,0.025-0.999c0.007-0.664,0.015-1.336,0.022-2.016l0.002-0.256l-0.008-0.363l-0.019-0.508
				c-0.013-0.339-0.027-0.68-0.041-1.022c-0.03-0.686-0.061-1.379-0.092-2.078c-0.073-1.397-0.146-2.822-0.222-4.266
				c-0.115-1.436-0.081-2.935-0.117-4.43c-0.028-1.499-0.056-3.012-0.083-4.534c-0.176-5.794,1.203-11.795,3.032-17.385
				c-1.348,4.713-2.347,9.886-2.407,15.008l-0.017,0.479l-0.004,0.12l-0.002,0.06l0,0.015c0.002-0.055-0.006,0.143,0.005-0.119
				l0.001,0.032l0.015,0.253l0.059,1.014l0.113,2.025c0.069,1.349,0.138,2.692,0.206,4.025c0.031,0.666,0.062,1.33,0.092,1.991
				c0.057,0.647,0.114,1.292,0.17,1.933c0.108,1.277,0.214,2.538,0.319,3.776c0.091,1.236,0.18,2.451,0.267,3.636
				c0.015,0.666,0.029,1.323,0.043,1.972c0.001,0.605,0.037,1.143,0.004,1.781c-0.099,1.286-0.135,2.593-0.333,3.741
				c-0.203,1.15-0.342,2.279-0.64,3.294c-1.043,4.133-2.473,7.091-3.649,8.814c0.921-0.966,1.912-2.479,2.894-4.533
				c0.982-2.052,1.913-4.725,2.509-7.898c0.14-0.812,0.229-1.69,0.333-2.573c0.042-0.428,0.111-0.929,0.125-1.313
				c0.014-0.387,0.028-0.777,0.042-1.173c0.012-0.396,0.024-0.795,0.036-1.198l0.016-0.607l-0.015-0.844
				c-0.02-0.798-0.041-1.61-0.062-2.436c-0.065-1.65-0.132-3.354-0.201-5.1c-0.058-0.861-0.06-1.772-0.059-2.696
				c-0.006-0.921-0.013-1.851-0.02-2.788c-0.012-0.938-0.023-1.882-0.035-2.834l-0.022-1.431l-0.012-0.719l-0.002-0.09v-0.022
				c0.001-0.063-0.019,0.466-0.009,0.233l0.003-0.041l0.013-0.161l0.025-0.323c0.066-0.862,0.132-1.729,0.199-2.598
				c0.124-0.871,0.248-1.745,0.373-2.621c0.607-3.507,1.629-7.053,2.855-10.561c0.597-1.764,1.267-3.469,1.941-5.219
				c0.346-0.877,0.689-1.747,1.03-2.609c0.384-0.976,0.697-1.882,0.991-2.768c1.163-3.528,2.149-6.772,3.195-9.724
				c0.332-0.944,0.664-1.852,0.999-2.725c0.532-2.823,1.045-5.854,2.038-8.758c0.501-1.445,1.116-2.873,1.991-4.115
				C40.053,13.97,41.184,12.878,42.703,12.583"/>
		</g>
	</g>
</g>
<g>
	<g>
		<g>
			<path fill="#8C6650" d="M22.701,72.549c-0.435,0.809-0.757,1.707-1.042,2.655c-0.321,0.936-0.571,1.896-0.886,2.886
				c-0.626,1.985-1.376,4.016-2.734,5.816c-0.182,0.31-0.326,0.581-0.47,0.867c-0.535,1.28-0.927,2.818-1.123,4.698
				c-0.105,1.253-0.173,4.813,0.159,9.738c0.165,2.45,0.469,5.243,1.058,8.166c0.135,0.73,0.284,1.468,0.484,2.209
				c0.2,0.74,0.342,1.492,0.591,2.234c0.231,0.736,0.463,1.479,0.697,2.225c0.244,0.703,0.489,1.41,0.734,2.119
				c1.062,2.942,2.258,5.746,3.304,8.449c1.047,2.703,1.868,5.351,2.371,7.831c0.085,0.624,0.169,1.233,0.25,1.827
				c0.037,0.298,0.073,0.591,0.108,0.88c0.011,0.29,0.021,0.575,0.032,0.856c0.01,0.578,0.019,1.138,0.028,1.678
				c-0.013,0.533-0.058,1.035-0.097,1.52c-0.154,1.926-0.527,3.541-0.959,4.671c0.814-1.286,1.476-3.28,1.837-5.904
				c0.335-2.613,0.182-5.886-0.629-9.358c1.152,3.625,1.577,7.276,1.447,10.22c-0.047,1.511-0.198,2.823-0.387,3.968
				c-0.183,1.138-0.415,2.096-0.716,2.842c0.443-0.68,0.818-1.575,1.136-2.651c0.322-1.101,0.62-2.333,0.8-3.859
				c0.097-0.754,0.189-1.564,0.203-2.347c0.011-0.399,0.022-0.807,0.034-1.223l0.006-0.313l0.002-0.157
				c-0.001-0.053,0.005,0.006-0.003-0.138l-0.005-0.084c-0.015-0.223-0.031-0.447-0.046-0.675c-0.093-1.829-0.398-3.757-0.854-5.717
				c-0.911-3.912-2.469-7.948-3.752-11.912c-0.344-0.967-0.611-2.063-0.922-3.1c-0.288-1.053-0.545-2.038-0.795-3.071
				c-0.422-2.062-0.787-4.147-0.937-6.23c0.126,0.859,0.262,1.731,0.457,2.604c0.088,0.437,0.177,0.876,0.266,1.318
				c0.113,0.435,0.226,0.873,0.34,1.312c0.205,0.883,0.482,1.752,0.769,2.617c0.26,0.847,0.593,1.79,0.901,2.696
				c0.299,0.942,0.654,1.761,0.977,2.618c0.346,0.874,0.69,1.744,1.031,2.606c0.695,1.754,1.389,3.517,1.995,5.285
				c1.232,3.537,2.001,7.09,2.101,10.284c0.005,0.701-0.003,1.369-0.027,2c-0.043,0.669-0.118,1.326-0.198,1.917
				c-0.156,1.222-0.414,2.079-0.707,2.812c0.287-0.427,0.547-0.946,0.784-1.551c0.234-0.613,0.426-1.395,0.599-2.23
				c0.189-0.886,0.273-1.686,0.359-2.599c0.018-0.226,0.037-0.456,0.056-0.69l0.013-0.177l0.006-0.088l-0.01-0.231l-0.008-0.404
				c-0.021-0.546-0.043-1.109-0.065-1.687c-0.128-2.318-0.62-4.77-1.267-7.265c-0.668-2.463-1.503-4.969-2.315-7.417
				c-0.188-0.583-0.377-1.172-0.568-1.765c-0.188-0.577-0.383-1.154-0.561-1.845c-0.183-0.661-0.367-1.325-0.552-1.992
				c-0.153-0.598-0.307-1.196-0.46-1.797c-0.562-2.425-0.928-4.955-1.116-7.513c-0.339-5.124-0.018-10.322,0.329-14.848
				c0.059-0.728,0.117-1.436,0.172-2.122C24.245,81.734,22.85,76.889,22.701,72.549"/>
		</g>
	</g>
</g>
<g>
	<g>
		<g>
			<path fill="#8C6650" d="M60.068,10.782c-1.825-0.666-3.471-1.785-5.134-3.143c-1.679-1.33-3.403-2.921-5.733-4.165
				c-1.125-0.632-2.617-1.069-3.668-1.389c-0.259-0.096-0.623-0.167-0.981-0.238c-0.354-0.07-0.718-0.148-1.074-0.205
				c-0.693-0.064-1.394-0.189-2.111-0.171c-2.882-0.107-5.826,0.719-8.394,1.848c-0.83,0.433-1.544,0.849-2.233,1.326
				c-1.499,1.086-2.924,2.431-4.26,3.967c-0.335,0.384-0.671,0.78-0.988,1.188c-0.161,0.205-0.323,0.411-0.487,0.62
				c-0.172,0.24-0.345,0.483-0.521,0.728c-0.283,0.408-0.571,0.823-0.865,1.247c-0.145,0.216-0.292,0.435-0.44,0.655
				c-0.153,0.254-0.307,0.51-0.463,0.769c-0.853,1.417-2.261,3.989-3.715,7.672c-1.448,3.683-2.931,8.479-3.755,14.125
				c-0.446,2.812-0.661,5.849-0.652,9.021c-0.015,3.17,0.339,6.499,1.036,9.853c0.188,0.837,0.336,1.685,0.607,2.518l0.369,1.257
				l0.186,0.63l0.126,0.41l0.11,0.288c0.608,1.542,1.099,3.05,1.938,4.727c1.491,3.317,3.319,6.239,5.23,9.169
				c3.808,5.801,8.147,11.181,10.65,17.128c1.244,3.004,2.19,6.084,2.841,9.151c0.622,3.072,1.051,6.104,1.279,9.029
				c0.064,0.746,0.127,1.483,0.189,2.212c0.084,0.716,0.168,1.424,0.251,2.122c0.166,1.397,0.315,2.751,0.441,4.064
				c0.253,2.625,0.399,5.081,0.396,7.322c0,2.24-0.15,4.261-0.413,6.005c-0.291,1.737-0.667,3.202-1.145,4.318
				c1.396-2.464,2.349-7.149,2.282-13.155c-0.007-3.003-0.258-6.329-0.569-9.897c-0.252-3.537-0.362-7.438-1.078-11.446
				c0.19,1.07,0.377,2.131,0.563,3.181c0.137,1.057,0.272,2.104,0.406,3.138c0.122,1.035,0.197,2.061,0.292,3.072l0.067,0.757
				l0.016,0.188l0.02,0.149l0.047,0.371c0.062,0.494,0.124,0.985,0.185,1.472c0.492,3.894,0.897,7.593,0.987,10.988
				c0.102,3.392-0.07,6.484-0.583,9.097c-0.494,2.614-1.32,4.726-2.209,6.176c0.959-1.261,1.922-3.203,2.57-5.705
				c0.654-2.498,1.039-5.529,1.085-8.9c0.068-3.373-0.172-7.098-0.543-11.032c-0.087-0.948-0.176-1.913-0.266-2.895
				c-0.062-1.035-0.126-2.088-0.191-3.156c-0.182-2.141-0.403-4.347-0.781-6.605c-0.743-4.53-2.001-9.184-4.169-13.796
				c-0.506-1.207-1.112-2.197-1.691-3.269l-0.439-0.796l-0.266-0.473l-0.246-0.391l-0.988-1.569
				c-1.322-2.093-2.702-4.143-4.049-6.205c-1.352-2.061-2.647-4.141-3.866-6.258c-0.594-1.064-1.135-2.149-1.709-3.224L22.103,61.4
				c-0.408-1.159-0.815-2.317-1.222-3.473l-0.467-1.732l-0.235-0.866l-0.169-0.881l-0.341-1.761
				c-0.088-0.591-0.148-1.186-0.225-1.777c-0.181-1.182-0.2-2.376-0.278-3.561c0.247,3.929,1.013,7.971,2.474,11.79
				c0.735,2.092,1.612,3.868,2.558,5.718c0.521,0.921,1.011,1.853,1.555,2.768l1.697,2.725c2.342,3.61,4.963,7.158,7.376,10.902
				l0.229,0.348l0.114,0.174l0.057,0.087l0.115,0.198l0.408,0.703l0.811,1.401c0.549,0.879,1.052,1.971,1.553,3.029
				c0.25,0.53,0.498,1.059,0.745,1.585c0.202,0.525,0.403,1.05,0.604,1.571c0.4,1.045,0.812,2.08,1.098,3.137
				c1.321,4.189,2.052,8.343,2.447,12.193c0.126,0.969,0.192,1.912,0.264,2.842c0.035,0.465,0.07,0.925,0.104,1.382l0.025,0.342
				l0.012,0.17l0.006,0.085l0.001,0.021c-0.007-0.074,0.017,0.194-0.014-0.16l0.004,0.041l0.073,0.655
				c0.19,1.733,0.374,3.397,0.517,5.029c0.622,6.487,0.425,12.006-0.497,15.436c0.746-2.038,1.271-5.036,1.419-8.691
				c0.151-3.646-0.103-7.964-0.473-12.574c-0.005-0.061,0.038,0.428,0.019,0.208l-0.001-0.028l-0.002-0.058l-0.004-0.113
				l-0.009-0.229l-0.019-0.459c-0.014-0.307-0.027-0.616-0.041-0.927c-0.029-0.623-0.059-1.253-0.089-1.892
				c-0.114-1.29-0.231-2.611-0.35-3.962c-0.197-1.361-0.351-2.75-0.614-4.17c-0.305-1.42-0.516-2.872-0.953-4.333
				c-0.2-0.731-0.401-1.469-0.604-2.212c-0.219-0.739-0.502-1.473-0.756-2.216c-0.471-1.47-1.172-3.015-1.874-4.56
				c-0.174-0.369-0.351-0.811-0.527-1.122l-0.53-0.977c-0.355-0.652-0.712-1.309-1.071-1.968l-0.247-0.429l-0.153-0.247
				l-0.309-0.496l-0.619-0.994c-0.415-0.665-0.831-1.337-1.252-1.977c-1.692-2.616-3.379-5.153-4.97-7.715
				c-0.399-0.64-0.755-1.28-1.137-1.922c-0.376-0.642-0.767-1.283-1.087-1.934l-1.019-1.948c-0.319-0.642-0.56-1.25-0.852-1.876
				c-0.584-1.126-1.085-2.808-1.619-4.266l-0.099-0.282l-0.025-0.07c-0.047-0.153,0.05,0.168,0.038,0.124l-0.009-0.032l-0.034-0.127
				l-0.137-0.511l-0.276-1.021c-0.209-0.674-0.325-1.379-0.461-2.078c-0.532-2.796-0.798-5.688-0.714-8.583
				c0.212-11.626,4.594-22.905,10.235-30.731c0.915-1.244,1.848-2.375,2.808-3.34c1.261-1.651,2.709-3.12,4.524-4.089
				c0.9-0.51,1.91-0.829,2.991-1.031l0.822-0.126l0.803-0.048c0.255-0.032,0.579-0.011,0.901,0.012l0.959,0.063
				c2.249,0.081,4.577,1.223,6.818,2.437C55.147,9.203,57.508,10.507,60.068,10.782"/>
		</g>
	</g>
</g>
<g>
	<g>
		<g>
			<path fill="#8C6650" d="M31.367,26.969c-0.587,0.285-1.178,0.614-1.773,0.975c-0.294,0.187-0.605,0.355-0.89,0.578
				c-0.281,0.236-0.565,0.475-0.854,0.716c-0.561,0.5-1.2,1.023-1.733,1.6c-0.538,0.581-1.086,1.172-1.64,1.771
				c-2.127,2.464-4.246,5.148-6.557,7.516c-0.361,0.418-0.664,0.793-0.952,1.199c-0.587,0.917-1.225,1.923-1.762,3.096
				c-0.136,0.293-0.274,0.591-0.415,0.896l-0.206,0.465l-0.103,0.237l-0.051,0.12l-0.025,0.06l-0.013,0.03l-0.046,0.127
				c-0.234,0.618-0.463,1.264-0.688,1.941c-0.073,0.254-0.164,0.436-0.252,0.911c-0.083,0.432-0.178,0.928-0.285,1.483
				c-0.089,0.544-0.223,1.197-0.28,1.814c-0.04,0.599-0.082,1.247-0.128,1.942c-0.135,2.754,0.044,6.108,0.421,9.689
				c0.09,0.885,0.183,1.797,0.278,2.735c0.089,0.987,0.18,2.001,0.274,3.038c0.309,1.983,0.464,3.93,1.088,6.312
				c0.466,2.343,1.258,4.469,2.007,6.683c0.438,1.071,0.878,2.152,1.322,3.238c0.457,1.074,0.992,2.112,1.483,3.172
				c4.124,8.37,9.3,16.068,12.675,23.127c0.793,1.777,1.617,3.455,2.179,5.104c0.293,0.819,0.578,1.612,0.852,2.376
				c0.208,0.781,0.408,1.532,0.6,2.251c0.41,1.43,0.567,2.771,0.687,3.945c0.058,0.587,0.105,1.133,0.122,1.638
				c-0.023,0.511-0.062,0.977-0.116,1.396c0.131-0.485,0.273-1.052,0.325-1.682c0.033-0.626,0.036-1.323,0.011-2.086
				c0.004-1.537-0.333-3.282-0.748-5.244c-0.938-3.891-2.739-8.457-5.137-13.281c2.804,5.017,5.084,9.943,6.319,14.314
				c0.692,2.16,0.957,4.213,1.206,5.953c0.118,1.769,0.061,3.265-0.069,4.401c0.296-1.053,0.474-2.471,0.545-4.208
				c-0.035-0.854-0.111-1.783-0.213-2.784c-0.056-0.498-0.103-1.021-0.188-1.549c-0.111-0.521-0.226-1.059-0.344-1.61
				c-0.927-4.442-2.978-9.59-5.658-14.905c-2.658-5.336-5.889-10.896-8.673-16.748c-0.72-1.457-1.307-2.961-1.978-4.448
				l-0.845-2.276c-0.271-0.762-0.595-1.514-0.792-2.293c-0.43-1.548-0.968-3.098-1.213-4.636c-0.158-0.771-0.315-1.542-0.471-2.309
				c-0.084-0.812-0.169-1.622-0.252-2.428c0.093,0.667,0.188,1.341,0.284,2.021c0.098,0.679,0.302,1.296,0.447,1.949
				c0.156,0.643,0.313,1.289,0.472,1.94c0.165,0.648,0.423,1.307,0.629,1.963c0.217,0.655,0.435,1.313,0.654,1.976
				c0.249,0.653,0.532,1.301,0.796,1.953l0.806,1.953l0.922,1.928c2.46,5.137,5.463,10.1,8.172,14.9
				c2.722,4.787,5.111,9.468,6.643,13.66c0.371,1.056,0.72,2.059,1.017,3.018c0.252,0.983,0.471,1.911,0.655,2.773
				c0.086,0.431,0.169,0.846,0.249,1.244c0.059,0.404,0.087,0.8,0.12,1.171c0.059,0.746,0.084,1.418,0.075,2.008
				c0.581-2.94-0.283-8.225-2.649-14.305c-2.322-6.113-6.129-12.827-9.671-19.84c-1.725-3.514-3.379-7.129-4.641-10.827
				c-1.206-3.87-1.955-6.972-2.268-11.449c-0.11-2.027-0.22-4.036-0.327-6.014c-0.105-1.998-0.201-3.929-0.157-5.743
				c0.01-0.913,0.03-1.812,0.13-2.655c0.038-0.429,0.075-0.855,0.112-1.278c0.064-0.371,0.128-0.739,0.192-1.104
				c0.06-0.368,0.12-0.733,0.179-1.095c0.134-0.437,0.267-0.87,0.398-1.299c0.125-0.405,0.249-0.807,0.371-1.205
				c0.142-0.399,0.282-0.793,0.42-1.184c0.344-1.004,0.723-1.968,1.104-2.897c0.669-3.002,1.388-6.265,2.587-9.399
				C27.332,32.36,28.88,29.288,31.367,26.969"/>
		</g>
	</g>
</g>
<g>
	<g>
		<g>
			<path fill="#8C6650" d="M69.711,13.141c0.8,1.293,1.963,2.542,3.171,3.775c1.213,1.233,2.381,2.508,3.183,3.972
				c1.639,2.892,2.012,6.551,1.454,9.973c-0.041,0.572-0.077,1.07-0.115,1.59c-0.091,2.221,0.016,5.232,0.402,8.557
				c0.106,1.099,0.5,3.234,0.896,6.035c0.423,2.789,0.918,6.404,1.109,10.285c0.024,1.055,0.05,2.144,0.075,3.262
				c-0.015,1.072-0.03,2.172-0.046,3.298c0.002,1.118-0.076,2.313-0.13,3.515c-0.067,1.205-0.094,2.431-0.201,3.681
				c-0.329,4.996-0.874,10.307-1.5,15.669c-1.292,10.729-2.995,21.66-4.56,30.891c-1.591,9.23-2.962,16.77-4.249,20.762
				c1.04-2.233,2.098-5.851,3.208-10.482c1.138-4.626,2.332-10.268,3.582-16.543c-1.059,6.746-2.09,13.013-3.013,18.247
				c-0.96,5.231-1.692,9.44-2.526,12.083c2.063-4.77,4.318-15.81,7.028-29.598c1.323-6.891,2.685-14.459,3.899-22.242
				c1.207-7.783,2.282-15.782,2.867-23.534c-0.524,12.9-2.603,27.833-4.637,40.737c-2.107,12.912-4.062,23.775-5.778,28.722
				c1.448-2.918,2.978-8.429,4.606-15.609c1.629-7.182,3.399-16.037,5.041-25.624c0.806-4.8,1.598-9.77,2.253-14.826
				c0.685-5.055,1.21-10.154,1.539-15.304c0.066-1.302,0.132-2.598,0.197-3.886c0.012-1.231,0.023-2.454,0.034-3.667l0.004-0.455
				l0.002-0.227l0.003-0.199l-0.003-0.059L87.5,55.82l-0.056-0.941c-0.037-0.625-0.075-1.249-0.112-1.868
				c-0.089-1.234-0.113-2.478-0.27-3.657c-0.471-4.784-1.121-9.212-1.654-13.28c-0.166-1.298-0.337-2.564-0.53-3.875
				c-0.522-1.907-1.24-3.87-2.065-5.812c-0.886-1.939-1.927-3.881-3.304-5.605c-1.367-1.733-3.079-3.133-4.823-4.226
				C72.938,15.445,71.218,14.461,69.711,13.141"/>
		</g>
	</g>
</g>
<g>
	<g>
		<g>
			<path fill="#8C6650" d="M79.778,74.354c-0.546,3.076-0.278,7.551-0.644,11.297c-0.021,0.322-0.037,0.598-0.056,0.885
				c-0.026,1.282-0.046,2.781-0.021,4.541c-0.005,0.581-0.013,1.687-0.023,3.198c-0.042,0.764-0.089,1.631-0.141,2.584
				c-0.036,0.958-0.075,2.003-0.117,3.119c-0.095,4.521,0.138,10.244,1.674,15.83c0.738,2.796,1.773,5.49,2.501,8.167
				c0.766,2.665,1.398,5.285,1.991,7.677c1.147,4.8,2.229,8.699,2.806,10.787c-0.255-1.211-0.716-3.129-1.288-5.567
				c-0.566-2.463-1.246-5.417-2-8.694c0.89,3.489,1.684,6.745,2.416,9.451c0.384,1.344,0.729,2.557,1.031,3.616
				c0.339,1.038,0.605,1.922,0.784,2.617c-0.124-0.65-0.337-1.49-0.625-2.491c-0.268-1.032-0.574-2.21-0.915-3.521
				c-0.636-2.699-1.401-5.949-2.247-9.538c-0.428-1.803-0.903-3.69-1.439-5.63c-0.576-1.903-1.168-3.859-1.767-5.838
				c-1.135-3.946-1.668-8.141-1.758-12.187c0.132,3.352,0.582,6.965,1.488,10.48c0.912,3.495,2.244,6.966,3.086,10.357
				c0.874,3.348,1.61,6.451,2.233,9.042c0.315,1.286,0.601,2.448,0.851,3.467c0.267,1,0.473,1.852,0.606,2.523
				c-0.232-1.647-0.951-4.552-1.759-8.364c-0.42-1.901-0.89-4.018-1.44-6.283c-0.268-1.13-0.598-2.316-0.912-3.52
				c-0.354-1.18-0.718-2.388-1.087-3.617c-0.75-2.376-1.376-4.874-1.774-7.435c-0.36-2.564-0.602-5.175-0.587-7.762
				c-0.026-1.293,0.035-2.562,0.066-3.828c0.035-0.639,0.07-1.272,0.105-1.899l0.05-0.895c0.022-0.317,0.045-0.632,0.067-0.945
				c0.044-0.626,0.088-1.244,0.131-1.854c0.01-0.609,0.019-1.211,0.027-1.802c0.039-1.185-0.024-2.321-0.046-3.416
				c-0.009-0.701-0.062-1.375-0.09-2.033C80.504,82.922,79.677,78.568,79.778,74.354"/>
		</g>
	</g>
</g>
<g>
	<g>
		<g>
			<path fill="#8C6650" d="M82.26,46.154c-0.436,4.401-0.436,10.694-1.013,16.022c-0.034,0.457-0.064,0.851-0.095,1.263
				c-0.099,1.83-0.153,3.992-0.149,6.538c0.013,0.847,0.037,2.455,0.071,4.649c0.022,1.096,0.048,2.337,0.076,3.7
				c0.025,0.702,0.007,1.351,0.069,2.181c0.052,0.738,0.104,1.506,0.16,2.298c0.125,3.148,0.699,6.783,1.251,10.548
				c0.601,3.74,1.243,7.738,1.567,11.704l0.093,3.051c0.007,0.507,0.05,1.021,0.025,1.522l-0.088,1.505
				c-0.059,1.004-0.117,2.005-0.176,2.999c-0.082,0.996-0.227,1.986-0.337,2.968c-0.458,3.931-1.079,7.71-1.69,11.165
				c-0.637,3.449-1.097,6.619-1.571,9.279c-0.213,1.349-0.17,2.597-0.261,3.655c-0.074,1.063-0.198,1.972-0.409,2.661
				c0.275-0.775,0.451-1.887,0.549-3.24c0.051-0.686,0.104-1.422,0.163-2.209c0.077-0.792,0.29-1.611,0.436-2.491
				c0.338-1.753,0.643-3.701,1.054-5.791c0.391-2.094,0.845-4.331,1.229-6.704c-0.378,2.536-0.832,4.967-1.225,7.268
				c-0.372,2.301-0.722,4.462-1.041,6.433c-0.208,0.985-0.211,1.918-0.248,2.817c-0.029,0.895-0.063,1.74-0.151,2.52
				c-0.158,1.55-0.596,2.88-1.32,3.585c0.689-0.612,1.197-1.842,1.403-3.331c0.113-0.746,0.172-1.562,0.22-2.431
				c0.06-0.871,0.055-1.785,0.24-2.731c0.34-1.931,0.715-4.063,1.119-6.36c0.429-2.307,0.91-4.767,1.346-7.377
				c0.207-1.303,0.42-2.637,0.637-3.995c0.181-1.367,0.364-2.761,0.551-4.173c0.224-1.403,0.241-2.876,0.365-4.335
				c0.039-0.732,0.124-1.472,0.124-2.205c-0.015-0.732-0.03-1.467-0.045-2.204c-0.075-5.964-1.347-11.897-2.013-17.62
				c0.305,2.363,0.711,4.833,1.111,7.359c0.215,1.259,0.364,2.548,0.533,3.841c0.154,1.312,0.361,2.556,0.473,3.941
				c0.352,5.188-0.14,10.615-0.817,15.464c-0.674,4.861-1.554,9.355-2.186,13.084c-0.31,1.864-0.604,3.548-0.876,5.003
				c-0.162,1.379-0.172,2.685-0.301,3.668c0.099-0.596,0.169-1.317,0.242-2.131c0.04-0.419,0.072-0.806,0.134-1.27
				c0.057-0.409,0.185-0.922,0.278-1.416c0.39-2.04,0.849-4.447,1.364-7.146c0.262-1.367,0.537-2.808,0.825-4.312
				c0.276-1.526,0.52-3.096,0.79-4.73c0.271-1.63,0.466-3.351,0.707-5.094c0.237-1.743,0.292-3.611,0.441-5.464l0.047-0.7
				l-0.012-0.686l-0.025-1.377c-0.018-0.922-0.035-1.849-0.053-2.781l-0.007-0.35l-0.007-0.164l-0.01-0.088l-0.021-0.176
				l-0.083-0.703l-0.165-1.411c-0.111-0.941-0.223-1.887-0.334-2.833c-0.225-1.893-0.536-3.753-0.801-5.628
				c-0.292-1.88-0.482-3.694-0.729-5.527c-0.292-1.807-0.296-3.686-0.429-5.495c-0.042-0.891-0.129-1.852-0.132-2.663
				c-0.009-0.895-0.018-1.78-0.025-2.656c-0.029-3.503-0.057-6.844-0.082-9.927c-0.005-0.987-0.011-1.947-0.016-2.878
				C82.727,58.422,82.275,52.129,82.26,46.154"/>
		</g>
	</g>
</g>
<g>
	<g>
		<g>
			<path fill="#8C6650" d="M80.228,90.588c-0.086,2.409,0.627,5.757,0.699,8.678c0.021,0.252,0.039,0.465,0.058,0.685
				c0.12,0.984,0.327,2.128,0.618,3.459c0.189,0.89,0.855,3.339,1.486,6.648c0.616,3.3,1.106,7.529,0.468,11.792
				c-0.705,4.295-1.606,8.701-1.927,12.486c-0.092,0.945-0.175,1.848-0.169,2.703c-0.006,0.853-0.09,1.65-0.011,2.382
				c0.042,0.731,0.071,1.397,0.086,1.988c0.066,0.584,0.148,1.09,0.181,1.512c0.02-0.49-0.104-1.101-0.085-1.846
				c-0.005-0.767-0.011-1.621-0.017-2.564c0.096-1.921,0.247-4.242,0.684-6.789c-0.211,1.361-0.284,2.688-0.398,3.934
				c-0.054,0.623-0.028,1.23-0.05,1.812c0.007,0.583-0.065,1.146,0.001,1.678c0.035,0.532,0.068,1.039,0.1,1.519
				c0.017,0.481,0.048,0.931,0.139,1.338c0.14,0.822,0.236,1.523,0.285,2.078c0.01-1.042-0.31-2.637-0.297-4.728
				c-0.043-0.517-0.005-1.067,0.026-1.642c0.024-0.575,0.051-1.173,0.078-1.793c0.158-1.24,0.235-2.572,0.485-3.961
				c0.396-2.783,1.051-5.817,1.646-8.938c0.312-1.567,0.495-3.203,0.572-4.814c0.032-1.616,0.003-3.224-0.159-4.785
				c0.293,2.581,0.372,5.442-0.033,8.298c-0.422,2.821-0.998,5.581-1.4,8.171c-0.403,2.583-0.697,4.976-0.768,6.971
				c-0.135,2.002,0.02,3.587-0.027,4.627c0.053-0.628,0.112-1.51,0.098-2.578c0.012-0.537,0.09-1.133,0.123-1.768
				c0.034-0.636,0.073-1.316,0.185-2.042c0.296-2.897,0.984-6.419,1.774-10.263c0.366-1.88,0.822-3.979,0.896-6.089
				c0.101-2.104,0.024-4.215-0.208-6.255c-0.468-4.082-1.376-7.889-2.138-11.125c-0.122-0.518-0.24-1.021-0.355-1.51
				C81.927,96.97,80.737,93.773,80.228,90.588"/>
		</g>
	</g>
</g>
<g>
	<g>
		<path fill="#8E6A5E" d="M76.814,18.278c-7.428-2.858-14.01-7.129-22.219-7.165c-1.898-0.008-1.897,2.935,0,2.943
			c7.857,0.034,14.323,4.322,21.436,7.06C77.806,21.798,78.566,18.952,76.814,18.278L76.814,18.278z"/>
	</g>
</g>
<g>
	<g>
		<path fill="#8E6A5E" d="M77.902,21.124c-2.254-1.146-3.835-3.081-6.135-4.234c-2.691-1.349-5.724-1.75-8.659-2.208
			c-5.436-0.846-11.139-1.345-16.245,1.046c-1.718,0.804-0.223,3.341,1.485,2.541c4.712-2.206,10.341-1.315,15.291-0.544
			c2.846,0.443,5.398,1.083,7.994,2.384c1.796,0.9,2.973,2.635,4.782,3.556C78.104,24.524,79.594,21.985,77.902,21.124
			L77.902,21.124z"/>
	</g>
</g>
<g>
	<g>
		<path fill="#8E6A5E" d="M75.127,22.05c0.404,1.19,1.34,1.694,1.987,2.682c0.764,1.166,1.172,2.493,2.193,3.486
			c1.36,1.323,3.443-0.756,2.08-2.081c-0.741-0.721-1.035-1.764-1.558-2.638c-0.256-0.427-0.572-0.826-0.913-1.188
			c-0.3-0.319-0.806-0.612-0.952-1.043C77.357,19.481,74.515,20.248,75.127,22.05L75.127,22.05z"/>
	</g>
</g>
<g>
	<g>
		<path fill="#8E6A5E" d="M80.348,29.384c-0.107-3.454-1.527-6.782-3.513-9.572c-1.09-1.532-3.645-0.064-2.541,1.485
			c1.683,2.365,3.02,5.142,3.11,8.086C77.463,31.277,80.406,31.283,80.348,29.384L80.348,29.384z"/>
	</g>
</g>
<g>
	<g>
		<path fill="#8E6A5E" d="M80.172,33.209c0.212-1.497-0.049-2.944,0.053-4.438c0.129-1.896-2.815-1.883-2.943,0
			c-0.082,1.214,0.224,2.449,0.053,3.656c-0.112,0.793,0.181,1.577,1.027,1.81C79.06,34.429,80.06,34.005,80.172,33.209
			L80.172,33.209z"/>
	</g>
</g>
<g>
	<g>
		<g>
			<path fill="#8C6650" d="M56.366,14.492l0.299-0.485c0.113-0.162,0.281-0.288,0.402-0.412c0.299-0.221,0.631-0.365,0.981-0.455
				c0.708-0.169,1.479-0.158,2.273-0.101c1.604,0.123,3.285,0.507,5.129,0.87c0.243,0.042,0.464,0.093,0.729,0.128l0.389,0.058
				l0.024,0.003l0.012,0.002l0.006,0.001c0.021,0-0.155-0.003-0.078-0.001l0.042,0.008l0.086,0.017l0.172,0.032
				c0.441,0.093,0.948,0.164,1.341,0.281c0.34,0.143,0.669,0.247,0.986,0.398c0.309,0.194,0.637,0.328,0.898,0.548
				c1.06,0.814,1.708,2.012,2.229,3.499c0.106,0.239,0.206,0.463,0.303,0.681l0.074,0.16l0.019,0.04l0.009,0.02l0.002,0.002v0.001v0
				c0.094,0.125-0.127-0.169-0.104-0.139v0.001l0.003,0.006l0.005,0.012l0.041,0.095l0.165,0.379
				c0.514,1.071,1.285,2.314,1.656,3.299c0.237,0.548,0.519,0.999,0.796,1.647c0.279,0.635,0.583,1.287,0.915,1.957
				c0.243,0.433,0.503,1.126,0.911,1.964c0.191,0.426,0.435,0.885,0.652,1.409c0.215,0.527,0.446,1.098,0.695,1.709
				c0.955,2.443,2.117,5.67,2.749,9.358c0.163,1.029,0.332,2.09,0.505,3.181c0.174,1.091,0.374,2.227,0.437,3.283
				c0.1,1.087,0.2,2.198,0.304,3.33c0.104,1.139,0.141,2.391,0.215,3.613c0.126,2.497,0.256,5.067,0.388,7.68l0.007,0.173
				l0.006,0.061l0.014,0.122l0.026,0.244l0.053,0.488l0.106,0.978c0.076,0.658,0.119,1.292,0.258,2.004
				c0.234,1.391,0.471,2.8,0.723,4.062c0.271,1.316,0.454,2.576,0.643,3.847l0.072,0.478l0.018,0.119l0.01,0.06
				c0.004,0.093,0-0.093,0-0.062l0.002,0.031l0.014,0.25l0.056,0.999l0.106,1.996c-0.007,1.282-0.049,2.519-0.101,3.796
				c-0.118,1.292-0.204,2.575-0.355,3.857c-0.587,5.12-1.445,10.126-1.633,14.805c-0.019,0.585-0.036,1.164-0.055,1.735
				c-0.005,0.298-0.03,0.543-0.019,0.878c0.011,0.277,0.021,0.552,0.032,0.825c0.02,0.547,0.038,1.086,0.057,1.617
				c0.024,0.535,0.098,1.08,0.142,1.606c0.077,1.065,0.224,2.072,0.371,3.038c0.117,0.975,0.313,1.891,0.466,2.777
				c0.668,3.53,1.305,6.376,1.479,8.415c0.122-2.405-0.561-6.086-1.084-10.752c-0.257-2.343-0.38-4.893-0.326-7.692
				c0.173-2.744,0.452-5.708,0.989-8.796c-0.224,1.659-0.332,3.292-0.467,4.882c-0.076,0.795-0.047,1.58-0.079,2.354
				c-0.01,0.387-0.019,0.771-0.028,1.152l-0.008,0.285l-0.003,0.116l0.007,0.145l0.028,0.575c0.043,0.76,0.057,1.522,0.115,2.248
				c0.077,0.715,0.152,1.418,0.227,2.107c0.207,1.381,0.39,2.724,0.669,3.986c1.031,5.064,2.193,9.16,2.391,11.867
				c0.052-1.279-0.088-2.928-0.377-4.871c-0.284-1.944-0.713-4.184-1.086-6.663c-0.084-0.62-0.2-1.253-0.276-1.903
				c-0.072-0.647-0.146-1.312-0.222-1.99c-0.088-1.355-0.22-2.637-0.194-4.228c-0.003-0.384-0.006-0.771-0.01-1.162l-0.001-0.147
				l-0.001-0.018c-0.001-0.07,0.002,0.074,0.002,0.053l0.003-0.035l0.005-0.07l0.019-0.281l0.038-0.565
				c0.046-0.757,0.092-1.525,0.14-2.306c0.205-1.578,0.336-3.187,0.627-4.871c0.485-3.346,1.176-6.913,1.622-10.69
				c0.263-1.854,0.364-3.886,0.469-5.9c-0.022-0.951-0.046-1.907-0.068-2.866l-0.009-0.359l-0.005-0.181l-0.006-0.189L88.61,74.91
				l-0.086-0.745l-0.175-1.492c-0.238-1.968-0.611-3.915-0.847-5.716c-0.062-0.463-0.148-0.907-0.19-1.389l-0.11-1.456l-0.111-1.456
				l-0.008-0.091c0.001,0.024-0.003-0.087,0,0.049v-0.023l-0.001-0.045l-0.003-0.181l-0.006-0.363l-0.013-0.726
				c-0.035-1.94-0.07-3.877-0.104-5.802c-0.038-1.937-0.053-3.851-0.182-5.799c0.064,0.798,0.147,1.616,0.197,2.425
				c0.042,0.805,0.084,1.618,0.126,2.437c0.082,1.632,0.165,3.29,0.249,4.965c0.04,0.832,0.08,1.668,0.121,2.509l0.015,0.315
				l0.008,0.158l0.004,0.079l0.002,0.04c0.002,0.087-0.002-0.097-0.001-0.071l0.002,0.02l0.068,0.633l0.135,1.269l0.135,1.273
				l0.214,1.189l0.436,2.418l0.472,2.562l0.386,2.682l0.047,0.336l0.026,0.464l0.034,0.64l0.065,1.278l0.063,1.275l-0.037,1.381
				c-0.034,0.917-0.053,1.86-0.112,2.75c-0.08,0.865-0.159,1.726-0.238,2.581c-0.161,1.707-0.401,3.342-0.606,4.95
				c-0.215,1.582-0.449,3.15-0.626,4.623c-0.089,0.74-0.205,1.482-0.275,2.194c-0.066,0.708-0.133,1.407-0.198,2.095
				c-0.085,0.693-0.119,1.359-0.132,2.006c-0.028,0.65-0.056,1.289-0.083,1.916l-0.012,0.234l-0.001,0.015
				c-0.001-0.05,0.001,0.133-0.003-0.108l0.001,0.031l0.002,0.063l0.004,0.126l0.014,0.503c0.009,0.334,0.017,0.664,0.024,0.991
				c0.007,0.326,0.014,0.649,0.02,0.969c0.014,0.304,0.048,0.559,0.067,0.835c0.039,0.543,0.077,1.073,0.115,1.59
				c0.066,0.546,0.132,1.076,0.195,1.592c0.092,1.033,0.296,2.017,0.401,2.935c0.284,1.84,0.516,3.438,0.615,4.724
				c0.058-0.8,0.009-1.749-0.029-2.803c-0.073-1.041-0.155-2.21-0.247-3.499c-0.071-0.636-0.076-1.291-0.122-1.972
				c-0.022-0.339-0.045-0.685-0.068-1.036c-0.002-0.329-0.005-0.663-0.007-1.004c-0.009-0.679-0.051-1.328-0.008-2.246
				c0.009-0.43,0.018-0.866,0.026-1.309l0.006-0.334l0.002-0.167l0.001-0.021c-0.001-0.042,0.006,0.289,0.004,0.14l0.004-0.037
				l0.008-0.076l0.06-0.608c0.174-3.215,0.884-6.972,1.613-11.209c0.182-1.078,0.366-2.173,0.553-3.283
				c0.091-0.563,0.182-1.131,0.273-1.702c0.075-0.592,0.151-1.188,0.229-1.787c0.074-0.599,0.149-1.202,0.225-1.809
				c0.062-0.639,0.1-1.327,0.146-1.994c0.04-0.672,0.081-1.348,0.121-2.026c0.017-0.638-0.012-1.195-0.018-1.801
				c-0.011-0.595-0.022-1.192-0.033-1.792l-0.013-0.362l-0.013-0.122l-0.026-0.246l-0.054-0.492l-0.108-0.986
				c-0.133-1.358-0.329-2.556-0.519-3.779c-0.162-1.094-0.325-2.193-0.488-3.296c-0.082-0.533-0.1-1.207-0.153-1.805l-0.121-1.646
				c-0.039-2.46-0.079-4.93-0.118-7.392c-0.029-1.268-0.025-2.478-0.083-3.786c-0.068-1.318-0.137-2.632-0.205-3.94
				c-0.037-1.345-0.228-2.504-0.366-3.715c-0.073-0.601-0.146-1.2-0.219-1.796c-0.074-0.591-0.136-1.183-0.253-1.849
				c-0.215-1.287-0.389-2.578-0.709-3.791c-0.145-0.613-0.288-1.223-0.43-1.83c-0.151-0.603-0.347-1.186-0.517-1.774
				c-0.176-0.585-0.351-1.167-0.523-1.746c-0.205-0.567-0.408-1.13-0.61-1.69c-0.204-0.558-0.406-1.112-0.606-1.663
				c-0.232-0.54-0.462-1.076-0.69-1.608c-0.229-0.53-0.458-1.056-0.685-1.578c-0.233-0.519-0.513-1.019-0.763-1.522
				c-0.513-1.001-0.987-1.979-1.628-2.971c-0.385-0.626-0.764-1.244-1.138-1.853c-0.375-0.548-0.743-1.015-1.105-1.516l-0.492-0.5
				l-0.248-0.25l-0.124-0.125l-0.062-0.063l-0.008-0.008c-0.154-0.205-0.046-0.059-0.081-0.106l-0.005-0.004l-0.019-0.017
				l-0.036-0.033c-0.391-0.349-0.784-0.7-1.18-1.054c-0.427-0.348-0.879-0.69-1.317-1.027c-0.488-0.324-0.982-0.643-1.492-0.935
				c-1.077-0.55-2.237-1.005-3.414-1.165l-0.871-0.126c-0.295-0.02-0.596-0.019-0.889-0.025c-0.291-0.003-0.591-0.012-0.867-0.004
				l-0.746,0.081l-1.5,0.163c-0.479,0.048-0.979,0.081-1.482,0.115c-1.007,0.066-2.029,0.128-3.048,0.244
				c-1.017,0.122-2.044,0.274-3.022,0.658c-0.478,0.212-0.969,0.442-1.336,0.848c-0.206,0.171-0.344,0.426-0.478,0.675
				C56.456,14.022,56.446,14.254,56.366,14.492"/>
		</g>
	</g>
</g>
<g>
	<g>
		<path fill="#231206" d="M55.209,49.986c-1.421-0.616-2.578-1.933-3.434-3.188c0.075,0.11-0.077,0.377,0,0.49
			c0.855,1.256,2.013,2.573,3.434,3.188C55.152,50.452,55.271,50.013,55.209,49.986L55.209,49.986z"/>
	</g>
</g>
<g>
	<g>
		<path fill="#231206" d="M54.414,48.286c-0.914-0.609-1.554-1.667-1.995-2.65c0.043,0.096-0.044,0.25,0,0.348
			c0.441,0.983,1.081,2.041,1.995,2.65C54.362,48.599,54.47,48.323,54.414,48.286L54.414,48.286z"/>
	</g>
</g>
<g>
	<g>
		<path fill="#231206" d="M54.53,47.448c-0.535-0.69-0.753-1.641-0.842-2.494c0.01,0.09-0.01,0.185,0,0.275
			c0.089,0.853,0.307,1.804,0.842,2.494C54.486,47.667,54.575,47.506,54.53,47.448L54.53,47.448z"/>
	</g>
</g>
<g>
	<g>
		<g>
			<path fill="#231206" d="M76.301,51.457c1.421-0.616,2.577-1.933,3.434-3.188c0.077-0.113-0.075-0.38,0-0.49
				c-0.856,1.255-2.013,2.573-3.434,3.188C76.238,50.994,76.357,51.433,76.301,51.457L76.301,51.457z"/>
		</g>
	</g>
	<g>
		<g>
			<path fill="#231206" d="M77.096,49.614c0.913-0.61,1.554-1.667,1.995-2.65c0.044-0.098-0.043-0.252,0-0.348
				c-0.441,0.984-1.082,2.041-1.995,2.65C77.04,49.304,77.147,49.58,77.096,49.614L77.096,49.614z"/>
		</g>
	</g>
	<g>
		<g>
			<path fill="#231206" d="M76.979,48.705c0.536-0.689,0.754-1.641,0.843-2.494c0.01-0.091-0.01-0.185,0-0.275
				c-0.089,0.853-0.307,1.804-0.843,2.494C76.934,48.487,77.022,48.648,76.979,48.705L76.979,48.705z"/>
		</g>
	</g>
</g>
<g>
	<g>
		<path fill="#FADBD2" d="M70.664,56.056c0.293-2.554,0.328-5.114,0.995-7.611c0.455-1.705-2.039-2.349-2.611-0.72
			c-0.614,1.753-1.126,2.926-1.16,4.822c-0.046,2.491-0.171,4.92-0.618,7.379c0.87,0,1.741,0,2.611,0
			c-0.533-1.89,0.21-3.754,0.405-5.638c0.245-2.358,0.343-4.694,1.665-6.747c0.948-1.473-1.396-2.828-2.338-1.366
			c-1.305,2.026-1.683,4.343-1.912,6.704c-0.249,2.568-1.151,5.211-0.432,7.767c0.344,1.217,2.362,1.369,2.611,0
			c0.311-1.71,0.512-3.417,0.637-5.151c0.071-0.983,0.086-1.963,0.077-2.948c-0.014-1.467,0.588-2.746,1.064-4.102
			c-0.87-0.24-1.741-0.48-2.611-0.72c-0.729,2.733-0.771,5.535-1.091,8.331C67.759,57.789,70.468,57.769,70.664,56.056
			L70.664,56.056z"/>
	</g>
</g>
<path fill-rule="evenodd" clip-rule="evenodd" fill="#826136" d="M76.109,50.739c0.004,1.78-1.006,3.021-3.019,3.178
	c-1.208,0.095-2.523-0.075-2.593-1.807c3.567,0.178,0.999-3.657,2.595-4.159C74.435,47.529,75.894,48.652,76.109,50.739z"/>
<path fill-rule="evenodd" clip-rule="evenodd" fill="#E2988F" d="M47.767,74.374c5.497,3.942,11.677,5.9,19.238,5.76
	C61.275,85.251,50.078,80.77,47.767,74.374z"/>
</svg>
