<?xml version="1.0" encoding="utf-8"?>
<!-- Generator: Adobe Illustrator 16.0.4, SVG Export Plug-In . SVG Version: 6.00 Build 0)  -->
<!DOCTYPE svg PUBLIC "-//W3C//DTD SVG 1.1//EN" "http://www.w3.org/Graphics/SVG/1.1/DTD/svg11.dtd">
<svg version="1.1" id="Layer_1" xmlns="http://www.w3.org/2000/svg" xmlns:xlink="http://www.w3.org/1999/xlink" x="0px" y="0px"
	 width="100px" height="140px" viewBox="0 0 100 140" enable-background="new 0 0 100 140" xml:space="preserve">
<path fill-rule="evenodd" clip-rule="evenodd" fill="#301405" d="M81.462,32.626c-6.592,4.137-12.809,4.769-19.818,0.063
	c-6.136-4.118-13.492-6.029-20.917-6.832c-7.243-0.783-13.345,1.532-17.813,7.536c-4.156,5.583-4.303,11.608-0.947,17.352
	c2.309,3.951,2.417,6.997-0.798,10.235c-0.845,0.851-1.443,2.016-1.942,3.131c-2.573,5.749-5.726,5.792-9.441,1.058
	c-2.202-8.121-5.09-16.067-5.13-24.678C4.563,20.587,15.091,7.449,34.612,3.11c13.892-3.086,26.963-0.979,40.658,6.496
	c-1.692-2.752-2.679-4.354-4.08-6.633c5.543,1.665,9.108,4.883,12.686,9.265c0.225-2.151,0.374-3.565,0.512-4.878
	c4.222,0.556,1.064,8.427,7.626,7.332C91.567,22.093,87.259,27.769,81.462,32.626z"/>
<path fill-rule="evenodd" clip-rule="evenodd" fill="#D6957B" d="M15.405,29.277c0.125-1.236,0.251-2.471,0.375-3.706
	c2.588-1.513,5.434-1.73,8.347-1.731c17.488-0.002,34.974-0.023,52.462,0.022c2.86,0.007,5.813-0.205,8.237,1.841
	c0.484,1.214,0.967,2.428,1.447,3.643c-4.498,2.997,2.613,1.068,1.175,2.766c2.903,4.836,2.627,10.271,2.692,15.561
	c0.109,8.65-0.108,17.304-0.234,25.956c-0.044,2.974,0.385,4.893,4.213,3.531c4.036-1.432,5.693,0.628,5.727,4.632
	c0.046,5.498-1.296,10.608-4.126,15.27c-1.162,1.915-2.985,4.712-5.002,4.092c-6.441-1.981-6.093,3.041-7.649,6.409
	c-3.959,8.563-7.93,16.95-14.852,23.89c-10.612,10.643-28.58,8.952-38.152-2.595c-5.821-7.022-10.083-14.961-13.047-23.562
	c-0.937-2.714-1.587-4.104-5.308-4.138C4.934,101.094-2.222,84.638,1.593,79.009c0.966-1.428,2.43-2.833,4.088-2.211
	c5.837,2.187,4.829-1.854,4.885-5.048c0.176-10.178-0.011-20.385,0.784-30.515c0.223-2.846-1.615-7.17,2.843-8.973
	C14.418,31.194,16.972,31.072,15.405,29.277z"/>
<path fill-rule="evenodd" clip-rule="evenodd" fill="#845B53" d="M83.452,107.561c-3.957,8.563-7.93,16.95-14.85,23.89
	c-10.612,10.643-28.581,8.952-38.153-2.595c-5.821-7.022-10.083-14.961-13.047-23.562l27.861,3.216l19.784-4.753L83.452,107.561z"/>
<path fill-rule="evenodd" clip-rule="evenodd" fill="#301405" d="M84.827,25.703c-23.017-0.044-46.031-0.088-69.047-0.132
	c0.928-2.725,1.773-5.483,2.8-8.17c3.564-9.331,3.565-8.512,13.666-8.221c2.654,0.077,6.747,2.588,9.92-0.963
	c1.517-1.698,4.623,4.055,6.988-0.156c2.79,4.275,6.998-2.208,9.891,1.303c3.219-2.693,7.178,1.871,10.301-0.993
	c2.424-2.223,3.668,3.944,7.213,0.423c2.262-2.245,3.027,2.816,4.02,4.729C82.561,17.343,84.055,21.418,84.827,25.703z"/>
<g>
	<path fill-rule="evenodd" clip-rule="evenodd" fill="#F4A89F" d="M50.136,113.743c5.133,0.003,10.536-2.798,15.667-2.784
		c1.654,0.005,3.761-0.05,2.579,2.047c-2.842,5.04-6.319,9.722-13.293,11.638c-9.011,2.477-14.196-1.314-19.571-7.047
		c-1.588-1.694-4.373-3.954-3.038-5.938c1.208-1.795,5.02,1.085,7.562,0.976C43.552,112.482,46.617,113.742,50.136,113.743z"/>
	<path fill-rule="evenodd" clip-rule="evenodd" fill="#F2AAA0" d="M50.202,119.915c12.534-0.398,12.844-7.321,15.601-8.956
		c1.337-0.792,3.761-0.05,2.579,2.047c-2.842,5.04-6.319,9.722-13.293,11.638c-9.011,2.477-14.196-1.314-19.571-7.047
		c-1.588-1.694-4.373-3.954-3.038-5.938c1.208-1.795,4.397,3.099,6.392,4.386C42.188,118.188,46.682,119.913,50.202,119.915z"/>
</g>
<path fill-rule="evenodd" clip-rule="evenodd" fill="#1C1E25" d="M82.683,67.141c-5.385-5.602-9.944-9.562-16.604-9.861
	c-3.32-0.149-2.963-2.78-2.726-4.959c0.336-3.098,2.625-2.462,4.464-1.841C75.28,53.003,79.925,58.155,82.683,67.141z"/>
<path fill-rule="evenodd" clip-rule="evenodd" fill="#0E1017" d="M18.338,64.82c3.043-7.457,8.74-11.351,16.338-12.671
	c1.667-0.29,4.092-0.813,4.158,2.002c0.051,2.197,0.377,5.364-3.154,5.183C29.186,58.998,23.64,61.213,18.338,64.82z"/>
<path fill-rule="evenodd" clip-rule="evenodd" fill="#996B4B" d="M42.164,93.775c5.74,4.124,10.402,5.632,15.198,1.139
	c-0.873,3.728-3.344,5.203-6.462,5.192C47.489,100.094,44.437,98.938,42.164,93.775z"/>
<path fill-rule="evenodd" clip-rule="evenodd" fill="#212A2F" d="M71.488,76.089c-0.062,2.702-1.298,4.457-3.983,4.666
	c-2.9,0.227-4.829-1.271-5.012-4.208c-0.159-2.596,1.397-4.407,3.959-4.678C69.382,71.559,70.995,73.307,71.488,76.089z"/>
<path fill-rule="evenodd" clip-rule="evenodd" fill="#212A2F" d="M35.975,76.089c-0.062,2.702-1.297,4.457-3.981,4.666
	c-2.902,0.227-4.832-1.271-5.013-4.208c-0.16-2.596,1.397-4.407,3.958-4.678C33.869,71.559,35.482,73.307,35.975,76.089z"/>
<g>
	<g>
		<g>
			<path fill="#301003" d="M34.488,26.136c-0.551-0.567-1.185-0.947-1.776-1.328c-0.586-0.363-1.203-0.678-1.853-1.024
				c-1.291-0.689-2.634-1.5-3.974-3.072c-0.227-0.202-0.427-0.358-0.638-0.513c-0.934-0.521-2.077-0.794-3.486-0.664
				c-0.452,0.03-1.369,0.271-2.595,0.681c-0.643,0.245-1.31,0.454-2.124,0.842c-0.392,0.185-0.802,0.378-1.229,0.579
				c-0.432,0.246-0.88,0.501-1.342,0.765c-1.813,1.112-3.942,2.871-5.249,5.339c-0.154,0.304-0.31,0.611-0.466,0.919l-0.056,0.115
				l-0.16,0.289l-0.005,0.021l-0.01,0.042l-0.041,0.171l-0.082,0.343l-0.173,0.723c-0.083,0.357-0.16,0.714-0.229,1.069
				c-0.171,0.762-0.161,1.298-0.192,1.879c-0.044,0.586,0.004,1.119,0.013,1.669c0.097,2.165,0.418,4.126,0.58,5.978
				c0.178,1.881,0.229,3.661,0.234,5.356c-0.008,3.385-0.052,6.13-0.654,8.149c0.347-0.643,0.705-1.326,0.972-2.071
				c0.232-0.743,0.523-1.534,0.697-2.39c0.425-1.708,0.734-3.68,0.975-5.924c0.126,2.422,0.186,4.6,0.2,6.394
				c-0.028,0.91,0.012,1.699-0.078,2.445c-0.043,0.725-0.11,1.382-0.331,2.006c0.409-0.659,0.699-1.34,0.917-2.036
				c0.302-0.744,0.43-1.468,0.648-2.338c0.344-1.688,0.616-3.729,0.824-6.166c0.108-1.258,0.162-2.558,0.174-3.888
				c0.019-1.37-0.029-2.692-0.001-3.965c-0.003-0.652,0.044-1.258,0.085-1.874l0.097-0.893c0.041-0.253,0.082-0.462,0.111-0.71
				l0.022-0.183c0.016-0.069,0.058-0.161,0.085-0.24l0.184-0.493l0.091-0.246l0.045-0.123l0.012-0.031l0.005-0.015l0.003-0.008
				c0.067-0.12-0.088,0.155-0.071,0.125l0.024-0.042l0.188-0.343c0.209-0.496,0.567-0.894,0.903-1.333
				c-0.112,0.203-0.226,0.408-0.34,0.615l-0.165,0.295l-0.106,0.331l-0.212,0.626l-0.007,0.019l-0.001,0.005
				c-0.02,0.035,0.163-0.289,0.085-0.148l-0.003,0.014l-0.014,0.056l-0.027,0.112l-0.055,0.223l-0.11,0.448
				c-0.023,0.136-0.104,0.33-0.081,0.419l0.022,0.301l0.024,0.605c0.02,0.517,0.024,1.007,0.082,1.562
				c0.077,1.062,0.234,2.208,0.363,3.381c0.069,0.59,0.13,1.19,0.178,1.828c0.053,0.575,0.091,1.182,0.123,1.756
				c0.093,2.43,0.066,4.37-0.074,5.92c-0.031,0.38-0.085,0.748-0.149,1.091c-0.042,0.32-0.106,0.625-0.191,0.916
				c-0.195,0.607-0.363,1.032-0.685,1.474c1.281-1.101,2.039-2.584,2.558-4.845c0.253-1.115,0.482-2.463,0.637-4.099
				c0.03-0.387,0.061-0.781,0.092-1.18c0.021-0.4,0.042-0.805,0.063-1.215c0.012-0.412,0.024-0.829,0.037-1.25
				c0.006-0.385,0.013-0.774,0.019-1.167c0-0.389,0.007-0.753,0.019-1.09c0.004-0.358,0.011-0.704,0.032-1
				c0.012-0.32,0.022-0.64,0.052-0.879l0.027-0.4c0.006-0.095,0-0.065-0.006-0.081l-0.026-0.025l-0.097-0.081
				c0.029-0.136,0.146-0.397,0.214-0.59l0.119-0.313l0.06-0.157l0.03-0.079c0.202-0.36-0.27,0.479-0.221,0.393l0.001-0.002
				l0.002-0.004l0.004-0.009c0.022-0.047,0.038-0.099,0.05-0.157l0.026-0.192c0.036-0.049,0.067-0.104,0.095-0.166l0.079-0.203
				c0.059-0.058,0.115-0.121,0.17-0.188c0.428-0.552,1.408-1.153,2.589-1.573c1.181-0.432,2.564-0.686,3.86-0.864
				c0.427-0.044,0.842-0.087,1.245-0.128C28.597,28.792,31.738,26.46,34.488,26.136"/>
		</g>
	</g>
</g>
<g>
	<g>
		<g>
			<path fill="#301003" d="M78.844,22.749c0.038,1.508,0.67,2.646,1.133,3.89c0.375,1.232,0.702,2.494,0.085,4.219
				c-0.052,0.24-0.086,0.433-0.115,0.625c-0.006,0.187,0.004,0.363,0.026,0.532c-0.006,0.175,0.002,0.341,0.027,0.496
				c0.049,0.311,0.165,0.582,0.373,0.823c0.124,0.172,0.395,0.459,0.893,0.84c0.271,0.167,0.48,0.486,0.777,0.79
				c0.276,0.327,0.647,0.632,0.931,1.13c0.303,0.469,0.651,0.963,0.994,1.531c0.307,0.62,0.627,1.266,0.956,1.932l0.125,0.256
				l0.062,0.129l0.016,0.032l0.004,0.008c0.006,0.045-0.034-0.369-0.016-0.189l0.007,0.019l0.025,0.074l0.208,0.597
				c0.137,0.4,0.274,0.805,0.414,1.213c0.268,0.819,0.539,1.65,0.812,2.484c1.951,6.381,2.126,13.778-0.564,15.903
				c1.183-0.556,2.083-1.618,2.768-3.05c0.723-1.428,1.011-3.248,1.247-5.27c0.403,4.372-0.233,8.136-1.982,9.59
				c2.502-1.196,3.893-4.764,4.167-9.339c0.038-0.573,0.097-1.145,0.087-1.755c-0.012-0.611-0.034-1.232-0.066-1.862
				c-0.069-1.254-0.149-2.557-0.301-3.827c-0.211-1.226-0.445-2.464-0.688-3.696l-0.184-0.922l-0.093-0.46l-0.023-0.115
				l-0.003-0.014l-0.012-0.105l-0.002-0.007l-0.009-0.03l-0.017-0.059l-0.067-0.236c-0.181-0.625-0.36-1.246-0.538-1.86
				c0.219,0.499,0.441,1.008,0.668,1.525l0.169,0.395l0.085,0.199l0.01,0.025l0.006,0.013c0.023,0.228,0.008,0.067,0.013,0.119
				l0.003,0.006l0.017,0.049l0.033,0.097l0.266,0.783c0.354,1.05,0.704,2.124,1.035,3.201c0.363,1.044,0.579,2.227,0.784,3.392
				c0.205,1.164,0.378,2.323,0.507,3.449c0.162,2.185,0.108,4.187-0.152,5.855c-0.33,1.647-0.916,2.933-1.771,3.678
				c0.811-0.411,1.49-1.064,2.062-1.919c0.285-0.427,0.543-0.904,0.776-1.425c0.208-0.528,0.386-1.102,0.541-1.714
				c0.311-1.224,0.523-2.603,0.66-4.081c0.055-1.563,0.018-3.24-0.08-4.958c-0.028-0.428-0.058-0.859-0.086-1.293
				c-0.06-0.384-0.12-0.77-0.181-1.159c-0.134-0.775-0.27-1.558-0.406-2.344l-0.221-1.178l-0.113-0.589l-0.015-0.074l-0.007-0.037
				L94.9,39.07c0.006,0.062-0.058-0.57-0.032-0.308l-0.005-0.021l-0.044-0.167l-0.089-0.332c-0.242-0.877-0.484-1.753-0.724-2.621
				c-0.303-0.894-0.642-1.788-0.96-2.647c-0.324-0.863-0.816-1.748-1.211-2.573c-0.903-1.653-1.95-3.194-3.062-4.412
				c-0.348-0.395-0.659-0.823-1.019-1.133c-0.793-0.265-1.624-0.477-2.437-0.658c-0.827-0.167-1.688-0.244-2.468-0.367
				c-0.383-0.063-0.762-0.125-1.135-0.187c-0.363-0.041-0.716-0.096-1.055-0.171C79.985,23.323,79.368,23.094,78.844,22.749"/>
		</g>
	</g>
</g>
<g>
	<g>
		<path fill="#0F0601" d="M93.147,76.691c0.035-8.065,0.497-16.094,1.263-24.122c0.594-6.226,1.693-12.519-2.138-17.934
			c-1.373-1.941-4.6-0.086-3.211,1.877c3.974,5.617,1.854,13.409,1.285,19.78c-0.605,6.784-0.889,13.589-0.918,20.399
			C89.418,79.09,93.138,79.089,93.147,76.691L93.147,76.691z"/>
	</g>
</g>
<g>
	<g>
		<path fill="#0F0601" d="M94.386,75.244c-0.225-9.398,2.586-19.174-2.938-27.591c-1.31-1.996-4.531-0.135-3.211,1.877
			c5.061,7.71,2.225,17.103,2.431,25.714C90.724,77.639,94.443,77.644,94.386,75.244L94.386,75.244z"/>
	</g>
</g>
<g>
	<g>
		<path fill="#0F0601" d="M5.956,50.037c0.404,4.321-0.738,8.505-0.847,12.813c-0.11,4.411,2.562,8.239,2.706,12.601
			c0.079,2.392,3.798,2.399,3.719,0c-0.145-4.401-2.396-8.214-2.706-12.601c-0.303-4.299,1.253-8.467,0.846-12.813
			C9.453,47.67,5.732,47.649,5.956,50.037L5.956,50.037z"/>
	</g>
</g>
<g>
	<g>
		<path fill="#210D03" d="M12.087,68.552c-1.605-4.515-3.981-8.721-5.292-13.337C4.91,48.571,7.008,41.218,10.04,35.273
			c1.087-2.131-2.121-4.014-3.211-1.877c-3.075,6.028-4.836,12.528-4.241,19.328c0.526,6.007,3.934,11.25,5.914,16.816
			C9.299,71.784,12.893,70.817,12.087,68.552L12.087,68.552z"/>
	</g>
</g>
<g>
	<g>
		<path fill="#210D03" d="M5.955,43.839c0.61-7.816-1.422-15.275,6.724-19.676c2.11-1.14,0.233-4.351-1.877-3.211
			c-3.972,2.146-6.792,5.02-7.919,9.463c-1.094,4.315-0.304,9.023-0.647,13.424C2.049,46.232,5.77,46.214,5.955,43.839L5.955,43.839
			z"/>
	</g>
</g>
<g>
	<g>
		<path fill="#210D03" d="M96.246,60.575c0.125-13.215,4.489-32.115-8.564-40.862c-1.999-1.339-3.858,1.884-1.877,3.211
			c11.36,7.613,6.83,26.204,6.723,37.651C92.505,62.974,96.224,62.972,96.246,60.575L96.246,60.575z"/>
	</g>
</g>
<g>
	<g>
		<path fill="#0F0601" d="M70.823,26.745c6.367,2.818,11.495,9.979,13.402,16.555c0.666,2.299,4.256,1.32,3.586-0.988
			c-2.147-7.406-7.909-15.59-15.111-18.777C70.528,22.573,68.634,25.776,70.823,26.745L70.823,26.745z"/>
	</g>
</g>
<g>
	<g>
		<path fill="#0F0601" d="M75.426,26.389c1.359,2.306,3.211,4.239,5.249,5.955c1.821,1.534,4.466-1.083,2.629-2.63
			c-1.8-1.516-3.465-3.163-4.667-5.202C77.42,22.448,74.205,24.318,75.426,26.389L75.426,26.389z"/>
	</g>
</g>
<g>
	<g>
		<path fill="#210D03" d="M31.472,26.38c-4.952,0.563-10.154-0.389-14.918,1.409c-4.702,1.774-4.835,7.085-6.4,11.113
			c-0.87,2.238,2.727,3.199,3.586,0.988c1.573-4.047,1.362-8.229,6.422-9.254c3.687-0.748,7.582-0.114,11.31-0.538
			C33.827,29.831,33.853,26.109,31.472,26.38L31.472,26.38z"/>
	</g>
</g>
<g>
	<g>
		<path fill="#210D03" d="M33.03,29.225c8.662-5.564,20.219-1.486,29.332,0.362c9.875,2.003,17.231-3.301,24.904-8.73
			c1.94-1.373,0.086-4.6-1.877-3.211c-4.198,2.971-8.273,6.137-13.154,7.913c-5.763,2.097-11.924-0.279-17.577-1.607
			c-7.343-1.725-16.931-2.161-23.505,2.062C29.143,27.305,31.006,30.526,33.03,29.225L33.03,29.225z"/>
	</g>
</g>
<g>
	<g>
		<path fill="#210D03" d="M61.844,26.689c5.475-0.003,10.647-0.286,15.195-3.663c1.902-1.413,0.051-4.643-1.877-3.211
			c-4.043,3.002-8.461,3.152-13.318,3.155C59.445,22.972,59.445,26.691,61.844,26.689L61.844,26.689z"/>
	</g>
</g>
<path fill-rule="evenodd" clip-rule="evenodd" fill="none" stroke="#000000" stroke-width="1.2397" stroke-miterlimit="10" d="
	M81.579,81.458c-0.253,2.368-2.379,4.08-4.747,3.828l-18.543-1.985c-2.368-0.254-4.081-2.379-3.828-4.748l0.666-6.217
	c0.252-2.367,2.378-4.081,4.747-3.828l18.543,1.987c2.368,0.253,4.081,2.378,3.828,4.747L81.579,81.458z"/>
<path fill-rule="evenodd" clip-rule="evenodd" fill="none" stroke="#000000" stroke-width="1.2397" stroke-miterlimit="10" d="
	M44.972,77.899c0.153,2.377-1.649,4.428-4.025,4.582l-18.611,1.199c-2.376,0.153-4.426-1.647-4.58-4.025l-0.402-6.24
	c-0.153-2.376,1.649-4.426,4.025-4.58l18.611-1.201c2.376-0.154,4.427,1.649,4.581,4.025L44.972,77.899z"/>
<path fill-rule="evenodd" clip-rule="evenodd" fill="#FEFDFD" d="M64.22,114.55c-2.984,4.514-9.784,8.218-15.123,7.885
	c-3.619-0.228-9.466-3.716-10.088-5.955c-0.207-0.757,0.454-0.779,1.23-0.764C47.346,115.851,50.136,118.031,64.22,114.55z"/>
<g>
	<g>
		<path d="M45.921,75.075c1.852-1.569,6.013-1.98,7.527,0.277c0.664,0.989,2.276,0.06,1.605-0.939
			c-2.233-3.326-7.633-3.038-10.447-0.652C43.69,74.537,45.012,75.846,45.921,75.075L45.921,75.075z"/>
	</g>
</g>
<g>
	<g>
		<path d="M82.392,79.808c2.732-0.547,5.38-1.531,7.816-2.883c1.048-0.582,0.11-2.188-0.939-1.605
			c-2.304,1.278-4.789,2.178-7.371,2.695C80.722,78.25,81.221,80.042,82.392,79.808L82.392,79.808z"/>
	</g>
</g>
<g>
	<g>
		<path d="M17.123,77.551c-2.688,0.362-5.568-0.825-7.961-1.922c-1.082-0.496-2.027,1.106-0.938,1.605
			c2.928,1.342,6.127,2.55,9.394,2.109C18.801,79.185,18.295,77.393,17.123,77.551L17.123,77.551z"/>
	</g>
</g>
</svg>
