<?xml version="1.0" encoding="utf-8"?>
<!-- Generator: Adobe Illustrator 16.0.4, SVG Export Plug-In . SVG Version: 6.00 Build 0)  -->
<!DOCTYPE svg PUBLIC "-//W3C//DTD SVG 1.1//EN" "http://www.w3.org/Graphics/SVG/1.1/DTD/svg11.dtd">
<svg version="1.1" id="Layer_1" xmlns="http://www.w3.org/2000/svg" xmlns:xlink="http://www.w3.org/1999/xlink" x="0px" y="0px"
	 width="100px" height="140px" viewBox="0 0 100 140" enable-background="new 0 0 100 140" xml:space="preserve">
<path fill-rule="evenodd" clip-rule="evenodd" fill="#F9DBD2" d="M85.135,97.729c-0.159,3.169,0.273,8.913-1.857,11.5
	c-4.225,8.995-2.603,13.123-8.643,21.941c-2.544,3.735-7.664,7.074-12.629,7.023c-6.789-0.066-13.581-0.087-20.368,0.007
	c-3.972,0.054-6.98-3.374-9.843-7.588c-4.333-5.925-4.467-8.261-7.334-15.135c-2.324-5.574-2.63-12.509-5.834-17.599
	c0.733-4.532,4.276-8.527,4.015-13.252c4.473-16.337,3.431-32.629-0.533-48.904c-0.44-1.81-1.034-3.608-0.867-5.481
	c0.307-3.109,3.295-3.873,6.357-4.572c5.41-1.106,10.582-0.395,15.661,1.275c2.089,0.687,4.125,1.859,6.599,0.964
	c1.845-0.932,3.395-0.45,4.6,0.765c1.249,1.26,2.508,1.152,3.94,0.272c7.503-3.231,15.324-4.997,23.912-3.396
	c0.751,0.262,1.336,0.671,1.769,1.222c0.929,2.051,0.062,4.02-0.495,5.985c-4.897,17.278-7.213,34.605-1.647,52.086
	C80.698,89.494,86.07,93.124,85.135,97.729z"/>
<path fill-rule="evenodd" clip-rule="evenodd" fill="#8E6A5E" d="M22.748,29.886c4.084,16.67,7.184,33.375,2.81,50.338
	c-0.469,1.816-1.036,3.617-1.558,5.423c-3.333,1.128-6.707,0.576-10.076,0.15c-3.363-0.492-4.267-2.541-4.97-4.857
	c2.087-0.758,3.536,0.548,5.203,0.865c2.165,0.413,3.659-0.18,4.84-1.509c1.234-1.392,1.309-2.931-0.215-4.085
	c-7.244-5.487-5.475-10.728,0.169-16.182c3.552-3.432,0.346-5.84-2.805-7.946c-5.168-6.479-5.316-12.801-5.553-21.664
	C10.127,12.982,21.577,9.69,41.354,6.109c1.023,0.204,2.094,0.258,4.765,0.573c-3.191-1.937-5.101-3.095-7.162-4.345
	c5.956-1.706,8.806,6.102,13.302,3.098C55.764,3.093,60.605,3.803,63.195,0c0.578,2.958-2.682,3.741-2.494,5.761
	c0.506,0.877,1.461,0.436,2.255,0.288c14.887-2.782,17.197,6.11,24.573,16.058c4.102,10.117,6.852,11.45,2.706,21.051
	c-0.665,1.541,0.467,7.285-1.031,8.165c-5.449,3.205-7.025,6.436-1.8,11.009c3.697,3.236,4.52,7.387,0.951,11.286
	c-1.871,2.042-5.287,3.632-2.949,6.674c2.617,3.4,6.145,0.737,9.624,0.23c-0.084,2.899-1.277,4.589-4.529,5.137
	c-3.275,0.831-6.551,0.877-9.826,0c-6.001-15.483-4.536-31.06-0.856-46.646c0.983-4.16,2.297-8.27,3.459-12.403
	c-1.808-1.757-2.668-3.915-3.964-5.888c-5.028-7.651-13.605-8.403-20.85-2.073c-2.816,2.46-2.603,7.409-7.097,7.678
	c-3.812,0.228-5.338-4.317-8.798-5.934c-3.683-1.721-7.47-3.569-11.833-1.801C25.023,20.905,23.075,25.082,22.748,29.886z"/>
<path fill-rule="evenodd" clip-rule="evenodd" fill="#8E6A5E" d="M13.923,85.798c3.359-0.05,6.718-0.101,10.076-0.15
	c-1.258,4.224-0.512,9.003-5.375,12.231c-1.808,0.113-3.615,0.227-5.603,0.351c0.276-2.388,4.192-1.851,4.202-4.081
	c-1.957-0.97-4.55,0.242-6.632-1.278c3.432-1.983,8.38-2.231,10.743-5.541C18.861,86.109,15.888,87.54,13.923,85.798z"/>
<path fill-rule="evenodd" clip-rule="evenodd" fill="#8E6A5E" d="M80.675,85.658c3.275,0,6.551,0,9.826,0
	c-2.216,2.05-5.41,0.407-8.132,1.404c2.509,3.449,7.551,3.888,12.012,6.094c-3.003,0.378-5.178,0.652-7.376,0.929
	c0.363,2.01,3.131,2.126,4.343,3.487c-2.237,1.238-4.235,0.156-6.212,0.157C81.483,94.208,81.171,89.91,80.675,85.658z"/>
<path fill-rule="evenodd" clip-rule="evenodd" fill="#A88078" d="M22.748,29.886c-3.088-4.541,0.555-7.849,3.761-10.834
	c3.132-2.917,7.547-3.292,12.258-1.998c5.89,1.617,9.413,5.275,12.908,9.201c5.468-10.532,10.97-14.337,18.943-13.309
	c6.717,0.866,11.929,6.49,12.659,13.662c-0.539-0.093-1.075-0.187-1.612-0.281c-8.996-8.354-8.994-8.351-21.311-1.679
	c-1.124,0.609-2.262,1.365-3.758,0.597c0.634-6.188,6.266-8.233,9.612-9.126c-4.763,0.763-8.918,3.938-9.568,9.171
	c2.137,1.591-0.219,3.831,1.266,5.518c-1.612,1.557-3.108,2.333-4.104-0.376c-0.408-1.114-0.374-2.736-2.821-1.596
	c-3.3,0.05-3.707-2.431-5.249-3.864c-2.617-2.433-5.488-4.527-9.575-5.111c-6.072-0.868-9.459,2.255-7.586,6.873
	C27.093,28.32,22.807,26.653,22.748,29.886z"/>
<path fill-rule="evenodd" clip-rule="evenodd" fill="#8E6A5E" d="M56.617,25.408c2.392-0.292,3.024-2.134,4.466-3.245
	c8.768-6.759,16.668-5.185,20.583,4.164c-8.393-0.079-16.542,0.644-23.759,4.48c-6.737-0.927,1.064-3.895-1.217-5.447L56.617,25.408
	z"/>
<path fill-rule="evenodd" clip-rule="evenodd" fill="#8E6A5E" d="M28.573,26.733c-3.441-0.027-5.348-0.639-3.213-3.833
	c2.982-4.462,8.598-5.987,14.617-3.647c5.26,2.045,7.978,5.925,11.005,9.582c0.668,2.99-1.274,1.892-3.022,1.237
	C41.826,27.773,35.621,25.709,28.573,26.733z"/>
<path fill-rule="evenodd" clip-rule="evenodd" fill="#AF8D87" d="M57.871,55.2c4.648,0.294,8.705,1.643,12.741,3.087
	c2.175,0.778,3.587,1.579,2.026,3.717c-1.082,1.484-1.592,3.142-4.525,2.007c-3.596-1.391-7.506-1.976-11.469-2.143
	c-3.704-0.157-3.029-2.049-2.844-3.917C54.013,55.798,54.675,54.237,57.871,55.2z"/>
<path fill-rule="evenodd" clip-rule="evenodd" fill="#AF8D87" d="M45.847,56.415c2.856-0.488,3.632,0.577,3.75,2.698
	c0.118,2.105,0.15,3.464-3.385,3.508c-3.458,0.044-7.027,0.479-10.313,1.318c-2.994,0.765-3.701-0.352-4.459-2.089
	c-0.773-1.772-0.052-2.712,2.175-3.33C37.6,57.415,41.594,56.451,45.847,56.415z"/>
<path fill-rule="evenodd" clip-rule="evenodd" fill="#F3B0A4" d="M60.831,94.986c-5.398,4.504-12.838,4.322-16.632-0.626
	c3.085,0.858,5.563,1.447,7.938,2.232C55.299,97.639,56.963,94.507,60.831,94.986z"/>
<path fill-rule="evenodd" clip-rule="evenodd" fill="#596970" d="M41.974,66.94c2.248,0.293,2.833,1.572,2.861,3.137
	c0.028,1.575-0.512,3.099-2.794,3.174c-2.353,0.075-2.884-1.601-3.072-3.043C38.754,68.562,39.974,67.503,41.974,66.94z"/>
<path fill-rule="evenodd" clip-rule="evenodd" fill="#65747B" d="M63.83,69.782c-0.353,1.646-0.722,3.289-2.949,3.532
	c-2.523,0.275-3.001-1.635-3.334-2.938c-0.406-1.598,0.909-3.079,2.86-3.346C62.84,66.698,63.099,68.605,63.83,69.782z"/>
<path fill-rule="evenodd" clip-rule="evenodd" fill="#8E6A5E" d="M56.69,25.36c-2.929-4.321,1.832-6.3,4.589-8.549
	c3.53-2.88,7.971-3.396,13.355-0.844c-8.528,0.878-15.351,2.826-18.018,9.44L56.69,25.36z"/>
<path fill-rule="evenodd" clip-rule="evenodd" fill="#8E6A5E" d="M73.573,34.195c-5.937,3.727-11.538,4.295-17.854,0.057
	c-5.525-3.708-12.152-5.431-18.84-6.154c-6.524-0.705-12.021,1.381-16.046,6.789c-3.743,5.029,2.825,21.623,5.848,26.797
	c2.079,3.559,2.178,6.302-0.719,9.219c-0.761,0.769-1.3,1.816-1.75,2.821c-2.318,5.18-5.158,5.219-8.504,0.952
	C13.725,67.362,4.423,49.037,4.387,41.281c-0.083-17.931,9.4-29.766,26.984-33.674c12.513-2.78,24.288-0.882,36.624,5.852
	c-1.524-2.479-2.412-3.921-3.675-5.975c4.994,1.5,8.205,4.399,11.426,8.346c0.202-1.938,0.338-3.212,0.463-4.394
	c3.802,0.5,0.957,7.591,6.868,6.604C82.676,24.707,78.795,29.819,73.573,34.195z"/>
<path fill-rule="evenodd" clip-rule="evenodd" fill="#FAADA0" d="M51.939,108.347c5.647-0.697,11.287-1.453,16.946-2.051
	c1.74-0.186,3.579-1.36,5.277,0.775c-6.52,18.186-22.847,19.201-32.645,8.004c-0.829-0.949-2.039-2.323-2.017-3.361
	c0.045-2.254,1.89-1.676,3.073-1.895C45.682,109.244,48.817,108.826,51.939,108.347z"/>
<path fill-rule="evenodd" clip-rule="evenodd" fill="#FBFAF8" d="M44.178,112.107c7.614-1.021,14.428-1.944,21.246-2.83
	c0.736-0.097,1.664-0.534,2.164,0.63c0.599,1.399-0.319,2.258-0.83,3.168C63.162,119.492,51.517,122.948,44.178,112.107z"/>
<path fill-rule="evenodd" clip-rule="evenodd" fill="#FAAFA3" d="M49.499,93.54c2.902-7.312,1.824-14.375-1.422-21.302
	C48.971,79.311,48.354,86.481,49.499,93.54z"/>
</svg>
