<?xml version="1.0" encoding="utf-8"?>
<!-- Generator: Adobe Illustrator 16.0.4, SVG Export Plug-In . SVG Version: 6.00 Build 0)  -->
<!DOCTYPE svg PUBLIC "-//W3C//DTD SVG 1.1//EN" "http://www.w3.org/Graphics/SVG/1.1/DTD/svg11.dtd">
<svg version="1.1" id="Layer_1" xmlns="http://www.w3.org/2000/svg" xmlns:xlink="http://www.w3.org/1999/xlink" x="0px" y="0px"
	 width="100px" height="140px" viewBox="0 0 100 140" enable-background="new 0 0 100 140" xml:space="preserve">
<g>
	<g>
		<g>
			<path fill="#301003" d="M6.296,89.916c-0.341,0.022-0.665,0.074-0.975,0.147c-0.313,0.062-0.605,0.164-0.904,0.359
				c-0.629,0.357-1.155,0.865-1.687,1.448c-1.049,1.208-1.845,2.855-2.912,4.702c-0.138,0.317-0.207,0.566-0.286,0.852
				c-0.221,1.238-0.013,2.576,0.588,3.845c0.384,0.878,2.022,2.84,4.087,4.653c1.067,0.976,2.191,1.901,3.346,2.932
				c1.143,0.995,2.164,2.012,3.07,3.199c0.399,0.607,0.848,1.229,1.145,1.927c0.363,0.672,0.606,1.407,0.836,2.142
				c0.254,0.71,0.401,1.526,0.572,2.282c0.083,0.694,0.213,1.393,0.154,2.04c0.016,0.669-0.164,1.244-0.318,1.785
				c-0.25,0.498-0.469,0.966-0.844,1.285c-0.305,0.354-0.708,0.586-1.088,0.74c-0.354,0.165-0.749,0.224-1.127,0.197
				c0.271,0.083,0.559,0.134,0.851,0.147c0.27,0.003,0.552-0.032,0.849-0.104c0.625-0.122,1.159-0.48,1.739-0.984
				c1.11-1.062,1.645-3.02,1.558-5.06c0.181,1.087,0.254,2.178,0.099,3.219c-0.158,1.04-0.536,2.03-1.088,2.758
				c-0.518,0.771-1.191,1.24-1.772,1.602c-0.629,0.297-1.217,0.443-1.731,0.436c0.591,0.168,1.259,0.164,1.999,0
				c0.358-0.102,0.721-0.276,1.105-0.483c0.397-0.189,0.758-0.494,1.122-0.86c0.183-0.181,0.372-0.37,0.55-0.577
				c0.154-0.226,0.307-0.464,0.457-0.715c0.142-0.252,0.317-0.512,0.425-0.788c0.104-0.277,0.205-0.565,0.3-0.861
				c0.38-1.188,0.462-2.426,0.421-3.717c-0.112-2.159-0.565-4.896-1.701-7.367c-1.127-2.512-2.882-4.575-4.457-6.337
				c1.503,1.322,3.242,2.881,4.637,5.016c1.417,2.11,2.26,4.642,2.733,6.854c0.104,0.519,0.212,0.925,0.282,1.509
				c0.061,0.631,0.108,1.25,0.125,1.855c-0.027,0.627-0.076,1.236-0.144,1.818c-0.125,0.621-0.297,1.229-0.476,1.786
				c-0.218,0.561-0.517,1.087-0.791,1.556c-0.268,0.479-0.648,0.821-0.965,1.159c-0.646,0.696-1.34,0.955-1.922,1.132
				c0.446-0.003,0.929-0.098,1.442-0.285c0.509-0.196,1.023-0.595,1.562-1.055c0.55-0.455,0.979-1.146,1.45-1.884
				c0.225-0.376,0.362-0.765,0.535-1.184c0.146-0.404,0.347-0.89,0.417-1.287c0.177-0.826,0.361-1.753,0.365-2.639
				c0.017-0.447,0.025-0.927,0.02-1.378c-0.019-0.326-0.039-0.658-0.058-0.995l-0.04-0.51l-0.031-0.319l-0.045-0.323
				c-0.068-0.432-0.136-0.869-0.206-1.312c-0.116-0.873-0.408-1.808-0.686-2.733c-0.269-0.928-0.722-1.85-1.125-2.759
				c-0.48-0.852-0.956-1.77-1.507-2.507c-1.083-1.604-2.193-2.806-3.208-3.968c-2.042-2.271-3.841-4.317-4.601-5.91
				c-0.093-0.243-0.236-0.498-0.291-0.714c-0.821-0.517-1.786-1.196-2.264-2.306C5.403,92.279,5.499,90.905,6.296,89.916"/>
		</g>
	</g>
</g>
<g>
	<g>
		<g>
			<path fill="#301003" d="M6.721,93.283c-1.951,1.796-1.778,4.375-4.564,6.276c-0.176,0.162-0.312,0.302-0.446,0.447
				c-0.458,0.596-0.729,1.478-0.722,2.476c0.002,0.334,0.118,0.968,0.312,1.83c0.211,0.896,0.524,2.06,0.875,3.352
				c0.044,0.162,0.089,0.326,0.135,0.493l0.069,0.251l0.008,0.031l0.002,0.008c0.011,0.129-0.022-0.275,0.025,0.289l0.005,0.015
				l0.023,0.059l0.045,0.117c0.122,0.314,0.247,0.638,0.375,0.967c0.086,0.229,0.173,0.462,0.261,0.696
				c0.102,0.255,0.205,0.513,0.31,0.772c0.203,0.534,0.481,0.922,0.729,1.382c0.257,0.439,0.555,0.806,0.836,1.205
				c0.274,0.325,0.568,0.683,0.827,0.969c0.522,0.58,1,1.088,1.418,1.65l0.315,0.424l0.08,0.107l0.04,0.054l0.01,0.014l0.005,0.007
				c-0.017-0.053,0.045,0.126-0.036-0.115l0.018,0.033l0.146,0.265l0.29,0.53c0.1,0.183,0.116,0.244,0.184,0.377
				c0.258,0.441,0.39,1.159,0.469,1.792c0.1,1.338-0.186,2.778-0.538,4.094c-0.778,2.637-1.41,4.933-2.248,6.473
				c0.897-0.899,1.541-2.046,2.268-3.311c0.701-1.276,1.475-2.716,2.075-4.537c-0.325,2.039-0.864,3.759-1.198,5.161
				c-0.375,1.403-0.621,2.547-1.172,3.475c0.9-0.925,1.472-1.972,2.12-3.175c0.611-1.214,1.352-2.671,2.029-4.81
				c0.326-1.056,0.599-2.334,0.592-3.739c0.016-0.344-0.026-0.705-0.062-1.063l-0.062-0.539l-0.131-0.596
				c-0.092-0.392-0.2-0.829-0.306-1.039l-0.38-0.928c-0.556-1.168-1.276-2.272-1.924-3.189c-0.647-0.902-1.149-1.708-1.444-2.564
				c0.349,0.672,0.905,1.323,1.492,1.983c0.604,0.648,1.379,1.538,2.049,2.509l0.488,0.76l0.121,0.193l0.061,0.097l0.015,0.024
				l0.007,0.012c0.027,0.078-0.055-0.165,0.062,0.176l0.002,0.005l0.023,0.043l0.184,0.341l0.182,0.342
				c0.059,0.105,0.12,0.215,0.188,0.439c0.13,0.387,0.25,0.785,0.356,1.188c0.34,1.434,0.371,2.84,0.251,4.081
				c-0.128,1.237-0.374,2.256-0.613,3.14c-0.236,0.851-0.488,1.571-0.706,2.131c-0.461,1.143-0.867,1.799-1.54,2.344
				c1.324-0.683,2.127-1.308,3.114-3.067c0.479-0.895,1.031-2.092,1.454-3.831c0.209-0.854,0.362-1.878,0.382-2.986
				c0.031-0.539-0.04-1.145-0.083-1.72c-0.061-0.604-0.238-1.395-0.413-2.073l-0.035-0.131l-0.023-0.063l-0.046-0.125l-0.093-0.249
				l-0.191-0.5l-0.012-0.031l-0.108-0.317l-0.004-0.01l-0.01-0.021l-0.038-0.08l-0.076-0.161l-0.153-0.321l-0.313-0.642
				c-0.436-0.838-0.923-1.622-1.347-2.243c-0.869-1.255-1.078-1.5-1.406-2.134c-0.083-0.354-0.167-0.708-0.25-1.059l-0.016-0.065
				l-0.004-0.017l-0.002-0.009c0.01,0.131-0.026-0.303,0.022,0.291l-0.004-0.031l-0.019-0.125l-0.037-0.248l-0.074-0.495
				c-0.097-0.661-0.192-1.312-0.285-1.947c-0.186-1.273-0.274-2.606-0.363-3.775c-0.023-0.396-0.046-0.78-0.068-1.152
				c-0.684-1.171-1.539-2.373-2.279-3.517C7.444,95.592,6.825,94.438,6.721,93.283"/>
		</g>
	</g>
</g>
<g>
	<g>
		<g>
			<path fill="#301003" d="M95.395,83.281c-0.995,1.103-1.471,2.42-2.029,3.796c-0.551,1.376-1.193,2.829-2.59,4.086
				c-0.178,0.215-0.315,0.402-0.452,0.597c-0.471,0.859-0.737,1.859-0.729,3.039c0.016,0.769,0.416,3.102,0.99,6.178
				c0.57,3.113,1.251,7.03,1.929,11.042c0.329,2.004,0.66,4.022,0.979,5.967c0.25,1.942,0.594,3.812,0.802,5.528
				c0.102,0.858,0.174,1.679,0.211,2.453c0.039,0.774,0.134,1.496,0.132,2.169c0.021,1.343-0.138,2.474-0.524,3.319
				c0.806-1.027,1.248-2.493,1.419-4.265c0.056-0.883,0.17-1.858,0.202-2.898c0.036-1.041,0.021-2.147-0.038-3.308
				c0.227,1.229,0.412,2.411,0.546,3.529c0.066,0.56,0.119,1.103,0.159,1.626c0.077,0.519,0.139,1.019,0.182,1.498
				c0.173,1.917,0.057,3.512-0.46,4.623c1.75-2.204,1.677-6.217,1.47-11.228c-0.12-1.239-0.105-2.571-0.216-3.922
				c-0.074-1.358-0.245-2.742-0.309-4.169c-0.202-2.855-0.409-5.778-0.607-8.588c0.791,4.705,1.771,10.116,2.393,14.714
				c0.311,2.304,0.639,4.379,0.619,6.171c0.057,1.769-0.021,3.199-0.549,4.217c0.557-0.649,0.947-1.489,1.199-2.477
				c0.136-0.497,0.195-1.017,0.298-1.597c0.103-0.579,0.176-1.193,0.225-1.839c0.11-1.296,0.056-2.692,0.036-4.225
				c0.001-1.542-0.07-3.178-0.191-4.873c-0.341-6.842-0.996-14.864-1.316-21.036c-0.021-0.497-0.043-0.979-0.063-1.447
				C97.829,89.126,95.537,86.209,95.395,83.281"/>
		</g>
	</g>
</g>
<g>
	<g>
		<g>
			<path fill="#301003" d="M84.578,96.407c-2.125,1.435-2.174,3.663-5.026,5.342c-0.189,0.139-0.338,0.26-0.484,0.388
				c-0.519,0.567-0.84,1.239-0.896,2.053c-0.019,0.272,0.058,0.795,0.197,1.519c0.144,0.785,0.327,1.785,0.537,2.931
				c0.217,1.141,0.452,2.418,0.77,3.835c0.314,1.41,0.562,2.829,0.905,4.335c0.698,2.849,1.301,5.904,2.371,8.373
				c0.528,1.239,1.211,2.33,1.961,3.198c0.737,0.875,1.479,1.569,1.984,2.272c-0.229-0.551-0.525-1.166-0.847-1.692
				c-0.147-0.299-0.302-0.589-0.463-0.866c-0.139-0.288-0.281-0.586-0.431-0.896c-0.545-1.215-0.874-2.575-1.151-4.145
				c0.298,0.808,0.644,1.526,0.986,2.157c0.383,0.6,0.723,1.149,1.132,1.564c0.761,0.889,1.612,1.486,2.186,2.34
				c-0.444-1.171-1.097-2.064-1.45-2.998c-0.196-0.451-0.346-0.922-0.519-1.452c-0.145-0.561-0.337-1.157-0.466-1.91
				c-0.299-1.464-0.513-3.311-0.727-5.312c-0.053-0.492-0.106-0.988-0.16-1.484l-0.106-1.51c-0.082-1.013-0.163-2.022-0.243-3.013
				c0.363,1.632,0.757,3.396,1.149,5.156c0.427,1.812,0.831,3.495,1.235,4.826c0.397,1.348,0.823,2.188,0.968,2.669
				c0.141,0.481,0.085,0.837,0.118,1.603c0.039-0.319,0.102-0.631,0.185-0.901c0.036-0.115,0.072-0.232,0.109-0.352
				c0.05-0.123,0.1-0.231,0.145-0.323c0.08-0.155,0.163-0.317,0.252-0.487c0.081-0.197,0.115-0.301,0.145-0.53
				c0.062-0.734-0.182-2.377-0.359-4.653c-0.054-0.595-0.108-1.199-0.163-1.811l-0.046-0.485l-0.188-0.016
				c-0.002,0.21-0.188,0.054-0.188,0.1v-0.008v-0.028l0.182-0.057l0.087-0.113l0.035-0.228l-0.033-0.914
				c-0.092-1.237-0.174-2.485-0.266-3.711c-0.051-1.283-0.096-2.543-0.144-3.745c-0.041-1.195-0.062-2.491-0.056-3.594
				c0.006-0.359,0.015-0.709,0.021-1.048c-0.564-1.068-1.4-2.115-2.073-3.188C85.083,98.525,84.575,97.443,84.578,96.407"/>
		</g>
	</g>
</g>
<g>
	<g>
		<g>
			<path fill="#301003" d="M89.231,102.168c-1,0.665-1.481,1.441-2.046,2.253c-0.59,0.786-1.306,1.528-2.673,2.118
				c-0.175,0.094-0.319,0.202-0.459,0.307c-0.489,0.474-0.775,1.036-0.792,1.717c-0.004,0.216,0.089,0.704,0.257,1.337
				c0.088,0.317,0.188,0.679,0.299,1.077c0.122,0.417,0.257,0.873,0.399,1.359c0.563,1.916,1.41,4.478,2.519,6.852l0.423,0.886
				l0.206,0.438l0.102,0.217l0.025,0.054l0.012,0.027l0.004,0.007c-0.038-0.178-0.009-0.046-0.017-0.084l0.006,0.013l0.048,0.101
				c0.121,0.262,0.242,0.522,0.361,0.78c0.096,0.229,0.19,0.451,0.281,0.696c0.353,1.056,0.621,2.171,0.9,3.204
				c0.263,1.042,0.584,2.02,1.095,2.958c0.146,0.331,0.372,0.722,0.539,1.113c0.126,0.353,0.116,0.633,0.075,0.944
				c0.172-0.492,0.305-0.923,0.186-1.503c-0.094-0.518-0.19-1.049-0.293-1.613c-0.163-1.099-0.154-2.219-0.247-3.553
				c0.395,1.371,0.834,2.573,1.182,3.222c0.339,0.518,0.52,0.794,0.739,1.278c0.208,0.434,0.27,0.939,0.163,1.328
				c0.264-0.46,0.321-1.098,0.236-1.641c-0.021-0.141-0.049-0.283-0.085-0.427l-0.04-0.347c-0.016-0.112-0.029-0.207-0.057-0.32
				c-0.037-0.139-0.08-0.278-0.129-0.419c0.105-0.555-0.009-1.454-0.126-2.808c-0.068-0.712-0.146-1.385-0.321-2.355
				c-0.045-0.233-0.091-0.499-0.145-0.706l-0.17-0.59l-0.107-0.39l-0.083-0.265l-0.175-0.534c-0.125-0.36-0.251-0.723-0.377-1.085
				l-0.288-1.139c-0.223-0.757-0.368-1.55-0.507-2.335c0.471,1.306,1.059,2.635,1.689,3.84l0.482,0.882l0.225,0.432l0.027,0.053
				l0.014,0.027l0.002,0.003c-0.03-0.137,0.042,0.19,0.035,0.158l0.004,0.008l0.007,0.017l0.06,0.128l0.116,0.256
				c0.153,0.293,0.301,0.777,0.433,1.245c0.109,0.387,0.216,0.767,0.32,1.139c0.349,1.347,0.603,2.268,0.609,2.601
				c-0.008,0.152-0.021,0.108-0.074,0.181l-0.041,0.045c0.007-0.001-0.039,0.032-0.09,0.07l-0.067,0.053l-0.017,0.014l-0.009,0.007
				c0.164-0.037-1.458,0.34-0.764,0.176l0.014-0.008l0.111-0.066l0.439-0.261l0.108-0.064c0.046-0.029,0.07-0.041,0.061-0.023
				l0.015,0.041l0.054,0.165c0.032,0.109,0.06,0.219,0.08,0.328c-0.003,0.069-0.025,0.118-0.043,0.187
				c-0.03,0.137-0.111,0.261-0.137,0.464c0.123-0.331,0.3-0.564,0.424-0.784c0.086-0.075,0.089-0.262,0.089-0.438
				c-0.005-0.082,0.013-0.186-0.019-0.25c-0.371,0.221-0.744,0.441-1.119,0.664l-0.072,0.043c0.341-0.078-0.786,0.19,0.759-0.173
				l0.005-0.004l0.011-0.009l0.044-0.034l0.088-0.067l0.184-0.128c0.124-0.083,0.254-0.159,0.389-0.229l0.206-0.099
				c0.072-0.033,0.152-0.065,0.15-0.058c0.036-0.008,0.069,0.007,0.101-0.042l0.159-0.181c0.021-0.027,0.04-0.048,0.057-0.076
				l0.05-0.159c0.029-0.104,0.051-0.207,0.063-0.309c0.017-0.13,0.03-0.296,0.036-0.443c0.008-0.266,0.006-0.724-0.021-1.112
				c-0.019-0.241-0.038-0.486-0.058-0.735c-0.017-0.203-0.065-0.593-0.122-0.968c-0.055-0.365-0.125-0.79-0.181-0.979
				c-0.077-0.315-0.156-0.635-0.235-0.957c-0.457-1.437-0.997-3.087-1.313-4.971c-0.326-1.893-0.535-3.887-0.632-5.714
				c-0.011-0.289-0.021-0.57-0.031-0.843c-0.633-0.857-1.508-1.848-2.2-2.7C89.904,103.837,89.3,103.014,89.231,102.168"/>
		</g>
	</g>
</g>
<g>
	<g>
		<g>
			<path fill="#301003" d="M94.107,90.506c-0.237,0.647-0.285,1.301-0.368,1.91c-0.086,0.594-0.145,1.146-0.272,1.723
				c-0.245,1.122-0.791,2.193-2.156,2.852c-0.169,0.109-0.31,0.201-0.454,0.295c-0.488,0.418-0.787,0.844-0.959,1.592
				c-0.086,0.47-0.062,2.083-0.419,4.875c-0.079,0.696-0.164,1.436-0.252,2.209c-0.085,0.811-0.173,1.655-0.264,2.524
				c-0.138,1.736-0.216,3.548-0.254,5.358c-0.073,3.628,0.077,7.25,0.279,10.296c0.191,3.062,0.54,5.518,0.244,7.341
				c0.495-1.187,0.765-2.56,0.92-4.11c0.189-1.56,0.311-3.335,0.46-5.316c0.164,2.129,0.404,4.037,0.593,5.621
				c0.152,1.607,0.378,2.845,0.172,3.973c0.278-0.617,0.426-1.238,0.545-1.892c0.148-0.675,0.197-1.352,0.281-2.125
				c0.128-1.516,0.178-3.308,0.288-5.366c0.212-4.085,0.652-9.235,1.655-13.864c-0.367,3.98-0.359,8.667-0.2,12.407
				c0.07,1.88,0.178,3.515,0.166,4.832c0.021,0.641-0.042,1.244-0.099,1.736c-0.098,0.528-0.215,0.961-0.421,1.363
				c0.955-1.11,1.437-2.471,1.739-4.343c0.298-1.861,0.511-4.292,0.829-7.013c0.312-2.716,0.72-5.697,1.359-8.493
				c0.375-1.545,0.743-3.062,1.095-4.511c0.371-1.541,0.728-3.156,0.898-4.802c0.07-0.511,0.074-1.062,0.111-1.563
				c-0.564-1.622-1.612-3.165-2.699-4.337C95.844,92.486,94.759,91.55,94.107,90.506"/>
		</g>
	</g>
</g>
<path fill-rule="evenodd" clip-rule="evenodd" fill="#301405" d="M8.623,102.328c0.765-0.012,1.529-0.022,2.295-0.035
	c4.874,7.163,10.638,13.262,16.104,19.715c-2.343,3.321-4.637,6.726-9.114,7.457c0.531-2.555,1.013-4.87,1.784-8.571
	c-4.657,4.354-8.701,7.762-14.542,7.379C10.711,120.138,14.378,111.999,8.623,102.328z"/>
<path fill-rule="evenodd" clip-rule="evenodd" fill="#301405" d="M2.676,86.041c0.917-0.014,1.834-0.028,2.752-0.042
	c5.845,8.59,12.758,15.904,19.314,23.645c-2.81,3.985-5.562,8.067-10.931,8.943c0.637-3.062,1.215-5.84,2.14-10.28
	c-5.585,5.223-10.436,9.312-17.441,8.851C5.181,107.4,9.579,97.642,2.676,86.041z"/>
<path fill-rule="evenodd" clip-rule="evenodd" fill="#CC9672" d="M68.188,128.288c-2.531,0.43-4.3,2.877-6.757,3.605
	c-9.035,2.683-11.803,2.836-23.626-1.075c-1.51-1.213-3.379-1.769-5.083-2.626c-5.253-2.793-8.804-7.921-12.231-13.171
	c-0.845-1.295-1.353-2.91-2.583-3.839c-0.993-1.481-2.443-1.417-3.808-1.75c-4.97-1.212-6.782-4.592-4.917-10.102
	c1.083-3.197,1.037-6.062,0.479-9.28C7.255,76.172,9.836,64.029,18.57,54.143c0.68-0.77,1.317-1.596,1.942-2.435
	c4.592-6.167,7.145-6.636,13.603-3.757c10.245,4.568,20.974,4.46,31.099,0.756c7.084-2.591,11.54-1.979,16.732,4.802
	c6.778,8.853,10.413,18.449,10.003,30.366c-0.207,6.021-1.819,11.851,0.363,18.102c1.28,3.663-1.192,6.979-4.732,7.268
	c-3.154,0.255-4.945,2.349-6.835,5.003C77.016,119.487,73.398,124.949,68.188,128.288z"/>
<g>
	<path opacity="0.2" fill-rule="evenodd" clip-rule="evenodd" fill="#1C0B03" d="M86.482,104.151
		c-3.73,5.24-12.684,20.798-17.893,24.137c-2.532,0.43-4.325,2.796-6.756,3.605c-8.055,2.683-14.343,2.836-23.628-1.075
		c-1.51-1.213-3.378-1.769-5.082-2.626c-5.254-2.793-8.804-7.921-12.231-13.171c-0.845-1.295-8.873-24.565-10.103-25.496
		l21.934,12.981l34.593-0.752l22.62-10.875L86.482,104.151z"/>
</g>
<path fill-rule="evenodd" clip-rule="evenodd" fill="#301405" d="M68.188,128.288c4.705-6.935,10.923-12.149,15.188-19.606
	c0.778-1.359,2.354-0.389,3.559-0.529c4.328-0.507,6.315-5.026,3.611-9.153c-1.509-2.302-1.553-3.985-0.948-6.557
	c3.921-16.658-2.05-34.947-14.199-44.076c-3.026-2.274-6.104-0.076-8.143,1.337c-4.219,2.926-8.753,2.178-12.997,2.842
	c-5.509,0.863-11.301-0.21-16.896-1.119c-2.948-0.479-5.491-3.01-8.623-3.646c-1.594-0.324-2.682-0.192-3.788,0.84
	C14.16,58.691,7.008,72.624,11.15,91.292c0.63,2.84,1.256,5.217-0.729,8.219c-2.556,3.867-0.42,8.317,3.801,8.568
	c2.207,0.13,4.008,0.293,4.715,3.236c-0.648,0.686-1.302,0.711-1.965,0.029c-9.146-0.942-9.442-1.146-9.295-12.015
	c0.06-4.392-1.464-7.501-3.834-10.409c-2.963-3.639-3.538-7.688-0.269-11.319c3.573-3.972,4.532-8.707,4.143-14.243
	c-0.383-5.458,1.386-8.691,6.339-8.458c3.282,0.155,5.188-2.157,6.264-5.607c2.232-7.146,6.99-10.478,12.558-13.182
	c8.662-4.206,17.378-3.431,26.401-2.727c4.356,0.34,8.837,1.561,11.655,3.89c3.308,2.732,8.41,4.37,9.477,10.673
	c0.8,4.722,3.189,7.375,7.569,7.354c3.444-0.016,5.6,2.494,5.317,6.846c-0.424,6.505,0.601,12.096,4.72,16.856
	c2.365,2.731,1.824,6.409-0.468,9.071c-3.539,4.115-4.713,8.955-4.372,14.745c0.314,5.331-1.574,8.658-6.472,8.511
	c-3.79-0.114-5.08,2.527-5.254,6.778c-0.244,6.013,1.477,10.956,5.982,15.472c-5.354,0.243-8.705-2.247-11.905-5.234
	c-1.826,2.038,0.769,3.823-0.08,5.902C72.076,133.99,70.128,131.146,68.188,128.288z"/>
<path fill-rule="evenodd" clip-rule="evenodd" fill="#301405" d="M16.972,111.345c0.655-0.01,1.31-0.02,1.964-0.029
	c4.172,6.13,9.107,11.353,13.787,16.877c-2.006,2.844-3.97,5.758-7.803,6.384c0.455-2.186,0.868-4.169,1.528-7.338
	c-3.987,3.728-7.449,6.646-12.45,6.317C18.76,126.592,21.899,119.624,16.972,111.345z"/>
<path fill-rule="evenodd" clip-rule="evenodd" fill="#301405" d="M69.27,76.497c-2.501-0.598-4.834-0.926-7.031-1.771
	c-1.249-0.479-3.573-0.563-2.75-3.414c0.689-2.386,2.246-1.04,3.552-0.725c2.119,0.511,4.264,0.865,6.394,1.312
	c1.381,0.289,3.553-0.728,3.547,2.2C72.971,77.628,70.398,75.611,69.27,76.497z"/>
<path fill-rule="evenodd" clip-rule="evenodd" fill="#301405" d="M32.012,76.524c-1.927-0.521-4.086,0.67-4.226-2.141
	c-0.133-2.672,1.824-2.516,3.37-2.461c2.682,0.094,5.19-0.743,7.658-1.879c1.214-0.559,2.089-0.137,2.613,1.329
	c0.626,1.753-0.287,2.428-1.417,2.783C37.189,75.042,34.348,75.838,32.012,76.524z"/>
<path fill-rule="evenodd" clip-rule="evenodd" fill="#262E34" d="M64.478,83.422c-1.584-0.218-2.646-1.221-2.678-3.151
	c-0.036-2.192,1.128-3.518,2.863-3.511c1.506,0.006,2.625,1.191,2.653,3.151C67.348,82.11,66.278,83.259,64.478,83.422z"/>
<path fill-rule="evenodd" clip-rule="evenodd" fill="#262E34" d="M37.383,83.422c-1.584-0.218-2.646-1.221-2.677-3.151
	c-0.035-2.192,1.127-3.518,2.863-3.511c1.505,0.006,2.625,1.191,2.653,3.151C40.253,82.11,39.184,83.259,37.383,83.422z"/>
<path fill-rule="evenodd" clip-rule="evenodd" fill="#F8BFB6" d="M42.333,114.732c-2.549,0.131-5.314-0.003-5.587-3.562
	c-0.308-3.995,3.377-3.901,5.265-4.098c5.778-0.6,11.632-0.498,17.447-0.296c1.816,0.064,3.955,0.874,4.597,3.338
	c0.568,2.186-0.825,3.602-2.141,4.798c-4.638,4.215-14.041,4.069-19.596-0.218c4.098-3.589,9.081-1.268,11.472-2.018
	C51.468,113.851,46.034,108.613,42.333,114.732z"/>
<path fill-rule="evenodd" clip-rule="evenodd" fill="#FBFBF8" d="M42.222,114.175c-0.144-1.842-4.464-5.198,1.378-4.872
	c5.566,0.31,11.126,0.701,18.048,1.144c-6.647,7.158-13.331,3.349-19.44,3.691L42.222,114.175z"/>
<g>
	<g>
		<path fill="none" stroke="#1D1100" stroke-width="1.0652" stroke-miterlimit="10" d="M17.304,64.541"/>
	</g>
</g>
<g>
	<g>
		<g>
			<path fill="#301003" d="M81.278,121.965c0.142,0.232,0.28,0.434,0.42,0.61c0.168,0.16,0.224,0.373,0.22,0.542
				c0,0.085-0.014,0.162-0.035,0.23c-0.001,0.084-0.01,0.163-0.024,0.237c-0.032,0.143-0.087,0.266-0.144,0.417
				c-0.265,0.54-0.662,1.096-1.604,2.104c-0.127,0.118-0.215,0.229-0.302,0.339c-0.289,0.385-0.402,0.662-0.188,0.957
				c0.156,0.174,0.853,0.504,2.431,1.486c0.227,0.134,0.46,0.271,0.7,0.413c0.273,0.151,0.625,0.363,0.854,0.431
				c0.341,0.051,0.696,0.103,1.062,0.156c0.793,0.136,1.73,0.375,2.528,0.456c1.641,0.247,3.2,0.411,4.427,0.704
				c1.217,0.325,2.132,0.771,2.689,1.852c-0.585-1.957-1.514-2.911-2.875-3.641c1.736,0.21,2.818,0.402,3.458,1.835
				c-0.575-2.118-1.312-2.888-2.66-3.545c-0.665-0.33-1.464-0.584-2.32-0.884c-0.891-0.316-1.682-0.526-2.648-0.982
				c0.455,0.06,0.957,0.175,1.386,0.176c0.432,0.022,0.869,0.046,1.302,0.069c0.869,0.056,1.688,0.092,2.354,0.152
				c1.366,0.147,2.022,0.406,2.234,1.752c-0.027-0.646-0.082-1.173-0.191-1.63c-0.105-0.449-0.213-0.739-0.424-1.049
				c-0.374-0.528-1.027-0.888-1.864-1.184c-0.39-0.158-0.93-0.33-1.305-0.437c-0.223-0.077-0.386-0.069-0.685-0.205l-0.891-0.397
				l-0.056-0.024l-0.007-0.003l-0.004-0.002c1.152-1.446-1.574,1.97-1.289,1.612l0.035-0.046l0.071-0.09
				c0.096-0.119,0.195-0.234,0.298-0.346c0.21-0.228,0.414-0.411,0.664-0.627l0.245-0.24c0.076-0.073,0.012-0.018,0.025-0.032
				l-0.033,0.01c-0.026,0.001-0.039,0.03-0.081,0.007c-0.14-0.041-0.323-0.153-0.516-0.301c-0.393-0.305-0.833-0.756-1.279-1.23
				c-0.15-0.164-0.298-0.323-0.439-0.477c-0.945-0.116-2.114-0.154-3.209-0.02c-0.282,0.037-0.548,0.093-0.776,0.149
				c-0.254,0.074-0.473,0.155-0.665,0.23c-0.219,0.1-0.408,0.191-0.545,0.27C81.513,121.863,81.398,121.93,81.278,121.965"/>
		</g>
	</g>
</g>
<g>
	<g>
		<g>
			<path fill="#301003" d="M17.731,113.623c-2.274-0.123-2.946,1.092-5.915,0.841c-0.203,0.005-0.366,0.019-0.529,0.036
				c-0.604,0.141-1.064,0.447-1.324,0.96c-0.334,0.696-0.392,4.737-0.687,8.713c-0.092,0.979-0.158,1.981-0.284,2.907
				c-0.14,0.919-0.275,1.802-0.476,2.578c-0.452,1.53-1.023,2.716-2.228,3.15c1.035-0.156,1.847-0.591,2.484-1.224
				c0.646-0.631,1.206-1.442,1.617-2.414c-0.338,2.295-0.868,4.053-2.442,4.614c2.221-0.333,3.318-1.804,4.178-3.868
				c0.871-2.057,1.429-4.763,2.118-7.285c-0.124,2.315-0.193,4.947-0.54,7.001c-0.186,1.031-0.371,1.922-0.777,2.608
				c-0.382,0.684-0.851,1.158-1.607,1.37c2.742-0.239,3.843-2.279,4.774-5.147c0.926-2.849,1.64-6.48,2.61-9.051
				c0.082-0.204,0.162-0.402,0.239-0.594C18.346,117.085,17.159,114.825,17.731,113.623"/>
		</g>
	</g>
</g>
<path fill-rule="evenodd" clip-rule="evenodd" fill="#996B4B" d="M43.925,89.266c4.659,3.752,8.443,5.123,12.337,1.036
	c-0.71,3.391-2.715,4.733-5.246,4.724C48.248,95.015,45.771,93.962,43.925,89.266z"/>
</svg>
