<?xml version="1.0" encoding="utf-8"?>
<!-- Generator: Adobe Illustrator 16.0.4, SVG Export Plug-In . SVG Version: 6.00 Build 0)  -->
<!DOCTYPE svg PUBLIC "-//W3C//DTD SVG 1.1//EN" "http://www.w3.org/Graphics/SVG/1.1/DTD/svg11.dtd">
<svg version="1.1" id="Layer_1" xmlns="http://www.w3.org/2000/svg" xmlns:xlink="http://www.w3.org/1999/xlink" x="0px" y="0px"
	 width="100px" height="140px" viewBox="0 0 100 140" enable-background="new 0 0 100 140" xml:space="preserve">
<path fill-rule="evenodd" clip-rule="evenodd" fill="#FADBD2" d="M6.272,63.202c0-5.304-0.603-9.263,0.105-15.561
	c1.575-3.598,3.139-7.21,5.353-10.445c2.319-3.388,5.14-5.912,9.565-5.191c7.346,6.345,15.392,4.55,23.443,2.082
	c7.703-2.362,15.256-5.242,23.026-7.364c9.896-2.703,8.137,2.56,8.223,13.249c0.098,12.55,1.558,21.932-0.847,34.047
	c-0.644,3.243-1.947,6.383-1.795,10.575c4.688-2.63,6.436-8.914,12.228-8.358c9.06,1.239,12.912,5.396,7.391,17.682
	c-2.523,5.619-2.912,5.619-6.979,10.768c-3.607,2.77-6.066,8.005-10.16,5.639c-2.777-1.609-2.594,2.824-4.202,6.543
	c-2.935,6.127-4.241,5.123-10.601,9.568c-6.024,2.962-8.32,3.81-16.526,7.779c-3.834,2.073-9.817,3.301-11.744,3.886
	c-5.062,1.54-10.651,0.064-15.223-0.84c-6.203-2.581-6.827-4.815-9.215-9.128c-2.828-4.628-3.845-6.325-4.349-10.094
	C2.938,110.078,3,107.756,3.403,103.27c0.489-5.433,0.562-8.891,2.054-14.356c1.051-4.014,0.66-6.462,0.909-10.435
	c0.29-4.627-0.093-8.504-0.093-13.132V63.202z"/>
<path fill-rule="evenodd" clip-rule="evenodd" fill="#EFD2CB" d="M75.515,109.347c-2.776-1.607-2.285,3.802-3.893,7.521
	c-2.935,6.127-4.241,5.123-10.603,9.568c-6.022,2.962-8.318,3.81-16.524,7.779c-3.835,2.073-9.817,3.301-11.744,3.886
	c-5.062,1.54-10.65,0.064-15.223-0.84c-6.203-2.581-6.828-4.815-9.215-9.128c-2.829-4.628-3.846-6.325-4.35-10.094
	C2.938,110.078,3,107.756,3.401,103.27c0.489-5.433,0.563-8.891,2.054-14.356c1.052-4.014,4.056,23.069,15.32,18.41
	C70.895,86.593,75.515,109.347,75.515,109.347z"/>
<path fill-rule="evenodd" clip-rule="evenodd" fill="#CEA66F" d="M85.573,76.236c-3.679,2.446-6.983,5.293-9.295,9.232
	c-0.903,1.539-1.677,3.182-4.018,2.039c-2.348-1.146-1.476-2.789-1.069-4.527c2.655-11.354,1.446-13.659,3.372-25.189
	c0.75-4.485-2.614-9.556-4.572-14.297c-2.2-6.432-1.896-14.128-8.97-12.256c-11.233,2.973-9.153,2.494-13.068,3.702
	c-3.933,1.212-7.945,2.175-11.961,3.06c-6.139,1.35-11.64,0.459-15.496-5.389c-1.24-0.49-2.25-1.274-2.935-2.473
	c-0.248-0.465-0.523-0.913-0.829-1.34c-5.449-8.82-5.071-11.66,2.856-18.069c3.533-2.855,7.167-5.651,12.304-7.801
	c-1.071,2.381-1.74,3.863-2.86,6.355c6.788-2.351,12.5-4.908,18.633-5.743c6.02-0.82,12.018-2.041,18.476-1.413
	c-1.152,3.245-4.969,2.146-6.831,5.142c6.613,0.453,7.906,2.544,14.169,3.775c19.045,3.74,26.24,15.167,21.507,34.572
	C92.066,57.579,90.764,65.361,85.573,76.236z"/>
<path fill-rule="evenodd" clip-rule="evenodd" fill="#CEA67E" d="M18.569,28.897c0.896,1.24,1.791,2.479,2.686,3.716
	c-5.563,1.038-7.688,5.625-10.464,9.733c-1.229,1.819-0.545,5.375-4.193,5.295c-0.342-5.33-5.354-10.626-0.109-15.992
	C10.181,29.264,15.328,33.263,18.569,28.897z"/>
<path fill-rule="evenodd" clip-rule="evenodd" fill="#CEA67E" d="M18.569,28.897c0.125,3.353-2.327,2.401-4.151,2.474
	c-2.643,0.104-5.286,0.187-7.93,0.278c2.962-3.454,7.853,0.437,10.858-2.851C17.755,28.802,18.164,28.835,18.569,28.897z"/>
<path fill-rule="evenodd" clip-rule="evenodd" fill="#F6C0B4" d="M91.255,86.754c-0.74-2.924-2.904-3.914-5.846-3.625
	c-4.186,0.406-4.867,3.518-6.21,6.887c-1.983,4.977-1.134,9.471,3.741,12.817c-4.783-0.579-7.106-3.021-7.197-7.752
	c-0.133-7.008,4.634-12.973,11.279-13.656c3.477-0.356,4.408-0.393,4.929,4.265c0.491,4.386,0.33,8.826-4.958,10.531
	c-2.162,0.696-3.326,1.016-4.866-1.124c-1.567-2.178-1.45-4.738,0.202-6.926c1.686-2.234,3.752-3.255,6.314-1.109
	C89.359,87.661,90.172,88.068,91.255,86.754z"/>
<path fill-rule="evenodd" clip-rule="evenodd" fill="#F8ADA1" d="M31.7,99.91c-10.811,3.708-14.156,3.057-15.733-3.034
	C20.329,101.386,25.376,100.629,31.7,99.91z"/>
<path fill-rule="evenodd" clip-rule="evenodd" fill="#677EA3" d="M46.166,76.858c0.066,2.718-4.349,4.367-6.53,4.412
	c-1.819,0.039-3.448-1.12-3.613-3.308c-0.181-2.391,1.021-4.047,3.331-4.259C41.677,73.49,45.933,74.667,46.166,76.858z"/>
<path fill-rule="evenodd" clip-rule="evenodd" fill="#677EA3" d="M8.464,76.858c-0.066,2.718,4.348,4.367,6.53,4.412
	c1.819,0.039,3.448-1.12,3.614-3.308c0.181-2.391-1.021-4.047-3.331-4.259C12.951,73.49,8.695,74.667,8.464,76.858z"/>
<g>
	<g>
		<g>
			<path fill="#D3B074" d="M69.177,8.196c-3.14-0.546-7.552-0.665-11.33-1.589C57.521,6.549,57.241,6.5,56.951,6.45
				c-1.305-0.161-2.852-0.256-4.688-0.226c-1.219,0.056-4.668,0.186-9.225,1.113c-2.265,0.498-4.811,1.157-7.37,2.242
				c-0.648,0.242-1.273,0.576-1.92,0.864c-0.651,0.282-1.28,0.629-1.909,0.984l-0.951,0.525l-0.238,0.132
				c-0.125,0.068-0.164,0.101-0.25,0.154l-0.451,0.288c-0.603,0.388-1.208,0.778-1.815,1.168
				c-4.861,3.135-9.666,6.667-13.116,10.323c-1.729,1.818-3.14,3.626-4.177,5.268c-0.493,0.833-0.958,1.591-1.308,2.289
				c-0.324,0.71-0.685,1.3-0.899,1.818c0.31-0.566,0.773-1.27,1.227-2.134c0.544-0.824,1.119-1.801,1.893-2.808
				c1.505-2.035,3.587-4.293,6.167-6.494c-2.682,2.429-4.876,4.996-6.366,7.368c-1.519,2.366-2.253,4.517-2.817,5.864
				c0.648-1.2,1.398-3.208,2.926-5.464c1.498-2.263,3.704-4.751,6.468-7.169c2.779-2.405,6.087-4.747,9.606-6.958
				c1.772-1.101,3.531-2.246,5.381-3.155c0.918-0.478,1.882-0.857,2.822-1.274c0.973-0.329,1.915-0.745,2.898-0.999
				c-3.21,1.045-6.461,2.628-9.502,4.7c-3.104,1.992-6.14,4.095-8.777,6.244c-2.654,2.132-4.864,4.347-6.491,6.35
				c-0.387,0.513-0.802,0.974-1.124,1.45c-0.331,0.47-0.642,0.912-0.933,1.325c-0.494,0.864-1.013,1.557-1.314,2.145
				c0.973-1.311,2.534-3.728,5.166-6.403c1.333-1.32,2.89-2.725,4.666-4.127c1.781-1.396,3.771-2.792,5.89-4.172
				c1.057-0.693,2.153-1.378,3.265-2.061c0.562-0.342,1.125-0.686,1.692-1.031l0.427-0.259l0.381-0.201l0.849-0.444
				c2.269-1.175,4.672-2.15,7.14-2.793c2.46-0.665,4.953-1.084,7.367-1.341c2.418-0.235,4.754-0.323,6.919-0.357
				c0.695-0.002,1.371-0.003,2.026-0.005C60.452,8.818,64.955,8.32,69.177,8.196"/>
		</g>
	</g>
</g>
<g>
	<g>
		<g>
			<path fill="#D3B074" d="M51.814,12.599c-2.669-0.393-6.301-0.318-9.617-0.849c-0.28-0.027-0.523-0.059-0.783-0.062
				c-1.14,0.029-2.491,0.104-4.06,0.542c-1.021,0.208-4.009,1.278-7.202,3.594c-0.76,0.562-1.578,1.113-2.417,1.772
				c-0.823,0.71-1.682,1.452-2.566,2.216l-0.663,0.574l-0.616,0.627c-0.412,0.419-0.829,0.844-1.249,1.271
				c-0.419,0.426-0.842,0.856-1.267,1.288c-0.391,0.463-0.785,0.93-1.178,1.396c-0.776,0.942-1.602,1.852-2.323,2.807
				c-0.368,0.477-0.748,0.935-1.105,1.419c-0.34,0.506-0.679,1.008-1.014,1.506c-0.697,0.979-1.21,2.021-1.806,2.982
				c-0.521,1.001-1.036,1.965-1.497,2.902c-1.817,3.765-3.02,6.963-3.874,8.597c1.208-1.773,2.891-6.037,5.708-10.954
				c-1.43,2.664-2.519,5.256-3.444,7.423c-0.418,1.101-0.842,2.08-1.187,2.935c-0.339,0.856-0.655,1.57-0.942,2.109
				c1.27-1.896,2.968-6.648,6-11.998c0.782-1.316,1.611-2.702,2.572-3.998c0.438-0.672,0.998-1.324,1.547-1.985
				c0.54-0.674,1.115-1.317,1.685-1.956c0.57-0.646,1.144-1.295,1.719-1.945c0.599-0.627,1.244-1.212,1.862-1.822
				c0.638-0.586,1.218-1.25,1.897-1.769c0.663-0.545,1.323-1.086,1.975-1.622c-2.145,1.795-4.341,3.921-6.325,6.235
				c-0.977,1.167-1.977,2.309-2.915,3.533c-0.231,0.3-0.486,0.596-0.697,0.896c-0.2,0.3-0.399,0.598-0.597,0.895
				c-0.394,0.594-0.803,1.152-1.145,1.779c-2.923,4.832-4.601,9.421-5.758,11.427c0.865-1.151,1.901-3.445,3.42-6.254
				c0.354-0.716,0.777-1.44,1.212-2.198c0.415-0.772,0.896-1.541,1.403-2.325c0.484-0.819,1.036-1.56,1.589-2.331
				c0.493-0.771,1.278-1.592,1.936-2.415c2.705-3.185,5.865-6.367,9.188-8.922c0.875-0.641,1.811-1.24,2.694-1.85l0.667-0.452
				l0.166-0.112l0.083-0.056l0.021-0.014l0.01-0.007c-0.101,0.062-0.022,0.014-0.042,0.026l0.041-0.021l0.329-0.175
				c0.438-0.233,0.872-0.465,1.301-0.693c0.42-0.252,0.869-0.424,1.315-0.588c0.444-0.172,0.882-0.341,1.313-0.508
				c0.891-0.259,1.763-0.496,2.615-0.686c0.555-0.093,1.095-0.184,1.618-0.272C44.542,13.65,48.317,12.96,51.814,12.599"/>
		</g>
	</g>
</g>
<g>
	<g>
		<g>
			<path fill="#D3B074" d="M31.188,5.818c-1.014,0.17-2.137,0.581-3.317,0.995c-1.163,0.473-2.42,0.911-3.667,1.202
				c-0.207,0.072-0.38,0.132-0.558,0.193c-0.774,0.339-1.667,0.776-2.598,1.502c-0.623,0.463-2.339,1.851-4.279,4.084
				c-1.958,2.199-4.031,5.336-5.3,8.824c-1.312,3.476-1.874,7.176-2.191,10.28c-0.339,3.111-0.452,5.662-0.801,7.015
				c0.639-1.53,0.886-4.95,1.609-9.125c-0.593,4.485-0.549,8.387-1.037,10.178c0.709-1.631,0.834-5.412,1.603-9.937
				c0.358-2.267,0.956-4.692,1.813-7.092c0.885-2.391,2.186-4.674,3.709-6.684c-2.522,3.379-4.111,8.013-4.788,12.148
				c-0.686,4.153-0.834,7.795-1.283,9.497c0.422-1.02,0.737-2.891,1.11-5.247c0.336-2.366,0.882-5.19,1.812-8.066
				c0.935-2.873,2.424-5.736,4.402-8.167c1.959-2.444,4.331-4.453,6.48-6.021c0.354-0.24,0.698-0.474,1.032-0.7
				C26.717,8.995,28.851,7.074,31.188,5.818"/>
		</g>
	</g>
</g>
<g>
	<g>
		<g>
			<path fill="#D3B074" d="M24.435,13.254c-0.715,0.263-1.417,0.746-2.164,1.236c-0.374,0.245-0.758,0.492-1.161,0.714
				c-0.391,0.243-0.785,0.499-1.224,0.693c-0.135,0.079-0.25,0.153-0.368,0.232c-0.491,0.377-1.008,0.893-1.533,1.564
				c-0.356,0.445-1.045,1.832-2.008,3.645c-0.848,1.873-1.889,4.203-2.718,6.653c-1.765,4.869-2.891,10.029-3.93,11.768
				c0.428-0.463,0.844-1.266,1.249-2.311c0.416-1.042,0.934-2.298,1.396-3.723c-0.384,1.557-0.875,2.96-1.188,4.167
				c-0.339,1.198-0.692,2.146-1.057,2.717c0.921-0.989,1.706-3.511,2.781-6.589c1.121-3.052,2.398-6.727,4.074-9.916
				c-0.296,0.686-0.604,1.4-0.917,2.127c-0.27,0.749-0.545,1.512-0.819,2.273c-0.601,1.5-1.017,3.077-1.509,4.498
				c-0.478,1.427-0.808,2.784-1.224,3.878c-0.385,1.104-0.677,2-1.04,2.531c0.592-0.603,1.079-1.836,1.751-3.401
				c0.609-1.61,1.33-3.516,2.11-5.579c0.43-1.015,0.875-2.065,1.324-3.126c0.425-1.073,1.003-2.072,1.486-3.105
				c0.471-1.043,1.069-1.98,1.612-2.899c0.275-0.459,0.543-0.907,0.803-1.34c0.264-0.431,0.568-0.792,0.837-1.168
				c0.177-0.236,0.35-0.465,0.517-0.687C22.146,16.468,23.172,14.608,24.435,13.254"/>
		</g>
	</g>
</g>
<g>
	<g>
		<g>
			<path fill="#D3B074" d="M18.348,17.645c-1.149,0.56-2.016,1.842-3.486,2.431c-0.11,0.06-0.201,0.116-0.295,0.176
				c-0.379,0.288-0.755,0.688-1.112,1.214c-0.442,0.709-2.309,4.253-3.716,8.182c-0.701,1.959-1.217,4.008-1.53,5.75
				c-0.331,1.744-0.441,3.185-0.766,3.97c0.578-0.898,0.899-2.784,1.551-5.057c-0.521,2.483-0.541,4.615-0.962,5.643
				c0.646-0.952,0.835-2.977,1.521-5.41c0.625-2.439,1.801-5.263,3.138-7.793c-0.985,2.175-1.914,4.761-2.462,7
				c-0.584,2.241-0.735,4.138-1.174,5.05c0.847-1.096,1.198-3.845,2.488-6.989c1.221-3.147,3.195-6.666,4.847-9.244
				c0.133-0.207,0.262-0.407,0.387-0.601C17.223,20.574,17.558,18.894,18.348,17.645"/>
		</g>
	</g>
</g>
<g>
	<g>
		<g>
			<path fill="#D3B074" d="M18.346,15.617c-1.234,0.57-2.26,1.872-3.857,2.32c-0.121,0.051-0.222,0.1-0.326,0.152
				c-0.422,0.259-0.884,0.619-1.334,1.116c-0.301,0.333-1.065,1.35-2.091,2.751c-1.019,1.405-2.303,3.198-3.432,5.146
				c-1.14,1.942-2.044,4.061-2.557,5.913c-0.114,0.468-0.229,0.912-0.348,1.327c-0.077,0.424-0.147,0.821-0.231,1.185
				c-0.2,0.724-0.243,1.331-0.438,1.755c0.584-0.967,0.965-3.005,1.947-5.357c-0.894,2.592-0.932,4.895-1.37,6
				c0.665-1.021,0.86-3.2,1.896-5.697c0.947-2.519,2.802-5.267,4.733-7.681c-1.503,2.096-3.038,4.643-3.94,6.92
				c-0.957,2.272-1.184,4.272-1.644,5.234c0.869-1.153,1.359-4.002,3.304-7.079c1.856-3.091,4.772-6.397,6.954-8.942
				c0.176-0.203,0.347-0.401,0.513-0.592C16.847,18.659,17.431,16.908,18.346,15.617"/>
		</g>
	</g>
</g>
<g>
	<g>
		<g>
			<path fill="#D3B074" d="M40.982,35.623c-2.603-0.301-6.251,0.188-9.277-0.604c-0.259-0.049-0.479-0.09-0.706-0.133
				c-1.02-0.126-2.198-0.249-3.565-0.385c-0.896-0.127-3.493-0.19-6.639-1.502c-1.579-0.632-3.232-1.678-4.818-3.043
				c-0.828-0.654-1.562-1.458-2.162-2.277c-0.621-0.861-1.14-1.831-1.473-2.879c-0.688-2.089-0.682-4.453-0.004-6.552
				c0.663-2.106,1.982-3.922,3.561-5.1c1.588-1.179,3.387-1.692,4.886-1.735c1.51-0.031,2.715,0.303,3.471,0.684
				c-0.819-0.551-2.383-1.075-4.45-0.896c-2.036,0.192-4.545,1.32-6.303,3.571c1.791-2.46,4.587-3.819,6.957-3.967
				c2.393-0.179,4.245,0.527,5.241,1.131c-0.867-0.657-2.591-1.485-5.021-1.468c-1.201,0.025-2.558,0.282-3.882,0.907
				c-1.32,0.625-2.594,1.6-3.641,2.861c-2.083,2.524-3.164,6.249-2.463,9.828c0.357,1.776,1.094,3.487,2.187,4.931
				c0.283,0.361,0.563,0.738,0.858,1.032l0.453,0.485l0.483,0.442l0.962,0.877l1.027,0.785c-0.582-0.408-1.176-0.832-1.718-1.334
				c-0.285-0.249-0.573-0.5-0.862-0.752l-0.773-0.793c-1.072-1.207-1.9-2.583-2.452-4.136c-1.129-3.087-0.838-6.669,0.558-9.479
				c0.69-1.413,1.631-2.651,2.711-3.621c1.084-0.967,2.304-1.654,3.482-2.072c2.39-0.834,4.469-0.567,5.625-0.186
				c-0.689-0.331-1.767-0.572-3.145-0.545c-1.369,0.038-3.057,0.413-4.693,1.366c-1.634,0.945-3.184,2.447-4.275,4.378
				c-1.1,1.921-1.733,4.264-1.693,6.696c0.06,2.425,0.812,4.931,2.227,6.989c0.753,1.091,1.523,1.978,2.411,2.74
				c0.84,0.813,1.786,1.522,2.738,2.186c1.925,1.315,4.063,2.24,6.154,2.785c2.094,0.554,4.129,0.762,5.982,0.83
				c0.592,0.003,1.172,0.042,1.726,0.017C34.035,37.255,37.562,36.119,40.982,35.623"/>
		</g>
	</g>
</g>
<g>
	<g>
		<g>
			<path fill="#D3B074" d="M35.217,38.333c-1.708-0.655-4.189-0.541-6.25-1.361c-0.182-0.049-0.332-0.09-0.486-0.132
				c-0.703-0.135-1.524-0.204-2.48-0.215c-0.637-0.014-2.426,0.151-4.756,0.013c-1.163-0.074-2.471-0.216-3.78-0.602
				c-0.328-0.095-0.646-0.219-0.98-0.329l-0.062-0.021l-0.031-0.011l-0.016-0.005l-0.008-0.002c0.171,0.097,0.043,0.024,0.079,0.045
				l-0.126-0.067l-0.253-0.134l-0.412-0.249c-0.583-0.385-1.157-0.864-1.698-1.389c-2.165-2.114-3.875-4.926-4.499-7.51
				c-0.31-1.291-0.31-2.522-0.033-3.469c0.289-0.947,0.82-1.561,1.276-1.829c-0.605,0.214-1.396,1.021-1.703,2.39
				c-0.323,1.355-0.118,3.121,0.52,4.891c-0.776-1.849-1.112-3.81-0.747-5.407c0.346-1.617,1.402-2.6,2.125-2.889
				c-0.729,0.162-1.888,1.016-2.401,2.655c-0.52,1.62-0.31,3.709,0.415,5.721c0.729,2.023,1.922,4.045,3.474,5.84
				c0.784,0.898,1.633,1.736,2.682,2.438c1.097,0.699,2.215,0.984,3.343,1.274c-0.966-0.184-1.863-0.427-2.939-0.888
				c-0.946-0.489-1.814-1.199-2.583-1.93c-1.541-1.493-2.814-3.242-3.745-5.045c-0.926-1.801-1.492-3.695-1.51-5.407
				c-0.046-1.714,0.569-3.161,1.219-3.818c-0.454,0.359-0.94,1.054-1.236,2.008c-0.297,0.95-0.392,2.134-0.226,3.366
				c0.312,2.488,1.52,5.169,3.335,7.628c0.924,1.227,1.979,2.415,3.36,3.444l0.587,0.401l0.238,0.139l0.119,0.07l0.157,0.088
				l0.018,0.007l0.036,0.015l0.072,0.03c0.383,0.155,0.764,0.32,1.148,0.459l1.157,0.361l1.155,0.27
				c3.07,0.599,5.961,0.558,8.391,0.497c0.389-0.012,0.767-0.023,1.133-0.034C30.498,39.173,32.893,38.366,35.217,38.333"/>
		</g>
	</g>
</g>
<g>
	<g>
		<g>
			<path fill="#D3B074" d="M34.551,34.607c-0.402-0.098-0.837-0.148-1.295-0.178c-0.455-0.05-0.898-0.143-1.342-0.206
				c-0.448-0.124-0.902-0.242-1.318-0.434c-0.407-0.235-0.806-0.419-1.108-0.779c-0.115-0.094-0.209-0.171-0.306-0.25
				c-0.233-0.136-0.468-0.317-0.731-0.485c-0.271-0.15-0.552-0.335-0.86-0.533c-0.409-0.242-1.676-0.862-3.035-2.33
				c-1.372-1.422-2.792-3.704-3.583-6.273c-0.218-0.698-0.355-1.306-0.432-1.949c-0.019-0.321-0.072-0.651-0.032-0.963l0.03-0.476
				l0.101-0.456c0.266-1.23,1.187-2.191,2.075-2.963c0.912-0.769,1.829-1.393,2.604-1.92c0.781-0.521,1.442-0.93,1.952-1.166
				c-0.655,0.181-1.542,0.627-2.61,1.255c-1.048,0.647-2.374,1.385-3.533,2.645c1.165-1.413,2.583-2.322,3.677-3.14
				c1.126-0.79,2.018-1.439,2.688-1.75c-0.698,0.191-1.61,0.722-2.766,1.415c-1.13,0.728-2.575,1.524-3.97,2.984
				c-0.684,0.731-1.269,1.751-1.468,2.864c-0.202,1.104-0.074,2.219,0.13,3.284c0.459,2.04,1.279,4.061,2.346,5.813
				c-0.968-1.421-1.79-3.077-2.37-4.934c-0.533-1.658-0.931-4.015,0.066-5.955c0.479-0.948,1.144-1.669,1.767-2.249
				c0.629-0.562,1.235-1.016,1.778-1.392c1.09-0.757,1.972-1.278,2.604-1.542c-0.866,0.209-2.13,0.812-3.823,1.951
				c-0.828,0.592-1.847,1.361-2.673,2.678c-0.212,0.313-0.357,0.697-0.528,1.058c-0.125,0.376-0.245,0.771-0.325,1.163
				c-0.135,0.794-0.148,1.56-0.082,2.326c0.054,0.382,0.109,0.768,0.164,1.156c0.074,0.31,0.148,0.621,0.223,0.935l0.057,0.235
				l0.025,0.1l0.01,0.031l0.02,0.063l0.04,0.125l0.159,0.503c0.105,0.335,0.211,0.672,0.348,0.999
				c0.484,1.329,1.154,2.604,1.921,3.783c1.527,2.361,3.671,4.268,5.857,5.245c0.354,0.146,0.682,0.324,1.029,0.427
				C30.262,35.698,32.605,35.089,34.551,34.607"/>
		</g>
	</g>
</g>
<g>
	<g>
		<g>
			<path fill="#D3B074" d="M47.067,31.561c-2.227-0.636-5.422-0.942-7.804-2.369c-0.209-0.103-0.386-0.189-0.568-0.278
				c-0.832-0.349-1.812-0.701-2.955-1.107c-0.738-0.292-2.991-0.854-5.432-2.505c-1.207-0.824-2.429-1.963-3.277-3.483
				c-0.874-1.502-1.31-3.401-1.253-5.369c0.073-2.004,0.438-4.006,1.331-5.731c0.883-1.729,2.366-3.013,3.921-3.785
				c1.563-0.781,3.168-1.094,4.511-1.221c1.35-0.13,2.465-0.067,3.23,0.069c-0.87-0.261-2.303-0.449-4.117-0.267
				c-0.9,0.113-1.908,0.275-2.94,0.652c-1.042,0.34-2.108,0.909-3.07,1.706c2.009-1.809,4.548-2.49,6.568-2.753
				c2.053-0.264,3.717-0.148,4.745,0.052c-0.939-0.306-2.523-0.538-4.579-0.393C34.351,4.834,33.211,5.046,32,5.393
				c-1.198,0.392-2.462,0.985-3.604,1.9c-2.375,1.792-3.647,5.034-3.953,8.046c-0.198,1.578-0.149,3.186,0.221,4.744
				c0.364,1.556,1.104,3,2.042,4.214c-0.815-0.979-1.507-2.162-1.956-3.477c-0.454-1.314-0.659-2.745-0.648-4.166
				c0.017-0.367-0.003-0.684,0.048-1.095l0.105-0.997c0.048-0.645,0.26-1.413,0.404-2.107c0.399-1.372,0.993-2.7,1.827-3.854
				c0.863-1.13,1.929-2.035,3.024-2.698c1.111-0.629,2.221-1.055,3.242-1.305c2.047-0.517,3.702-0.497,4.737-0.369
				c-0.629-0.164-1.527-0.27-2.662-0.211c-1.13,0.056-2.51,0.237-4.028,0.814c-1.506,0.558-3.173,1.549-4.489,3.091
				c-0.661,0.76-1.211,1.645-1.654,2.582c-0.429,0.939-0.76,1.921-0.987,3c-0.15,0.562-0.175,0.977-0.249,1.455l-0.105,0.782
				l-0.045,0.797c-0.052,1.065,0.012,2.166,0.231,3.253c0.401,2.18,1.473,4.272,2.918,5.854c1.435,1.608,3.16,2.767,4.857,3.63
				c1.701,0.877,3.402,1.448,4.977,1.899c0.505,0.142,0.998,0.267,1.478,0.38C40.736,31.862,44.026,31.581,47.067,31.561"/>
		</g>
	</g>
</g>
<g>
	<g>
		<g>
			<path fill="#D3B074" d="M47.406,31.222c-1.773-0.656-4.302-0.672-6.481-1.501c-0.192-0.049-0.353-0.089-0.517-0.131
				c-0.748-0.133-1.633-0.192-2.673-0.144c-1.37,0.096-7.781,0.809-14.169,2.814c-3.183,0.993-6.336,2.411-8.622,4.194
				c-1.139,0.889-2.073,1.839-2.732,2.759c-0.663,0.914-1.107,1.743-1.455,2.326c0.238-0.317,0.562-0.711,0.872-1.188
				c0.364-0.454,0.749-0.979,1.25-1.505c0.985-1.058,2.334-2.159,4.023-3.069c-1.75,1.063-3.133,2.375-4.052,3.637
				c-0.937,1.264-1.365,2.472-1.769,3.229c0.5-0.665,0.982-1.771,1.935-2.925c0.935-1.155,2.305-2.35,4.069-3.358
				c3.539-2.023,8.431-3.308,13-4.048c-3.767,0.767-8.123,1.985-11.436,3.726c-1.659,0.857-3.035,1.832-4.004,2.78
				c-0.995,0.933-1.588,1.827-2.054,2.394c0.712-0.622,1.627-1.763,3.22-2.893c1.591-1.127,3.851-2.237,6.501-3.08
				c5.294-1.723,11.857-2.533,16.763-2.796c0.394-0.019,0.777-0.036,1.148-0.054C42.458,31.904,44.998,31.239,47.406,31.222"/>
		</g>
	</g>
</g>
<g>
	<g>
		<g>
			<path fill="#D3B074" d="M60.691,26.795c0.065-0.044-0.02,0.03-0.011,0.08c-0.012,0.055-0.019,0.112-0.023,0.169
				c-0.011,0.115-0.014,0.232-0.013,0.351c0.001,0.238,0.019,0.482,0.044,0.73c0.051,0.498,0.136,1.013,0.22,1.541
				c0.17,1.055,0.343,2.155,0.288,3.244c0.013,0.185,0.023,0.338,0.033,0.495c0.103,0.697,0.311,1.488,0.652,2.383
				c0.876,2.423,10.596,20.96,11.205,25.648c0.044-1.43-0.821-4.196-2.106-7.563c0.781,1.757,1.476,3.407,2.001,4.812
				c0.262,0.702,0.482,1.343,0.649,1.905c0.085,0.281,0.155,0.542,0.213,0.782c0.026,0.118,0.052,0.232,0.076,0.343l0.032,0.16
				l0.017,0.078l0.012,0.041l0.013,0.028c-0.006-0.007,0.017,0.031,0.062,0.037c0.047,0.006,0.078-0.021,0.082-0.027
				c0.018-0.02,0.028-0.056,0.025-0.082c0.002,0.029-0.012,0.157-0.163,0.075c-0.009-0.014-0.008-0.02-0.012-0.03l-0.007-0.042
				l-0.005-0.076l-0.009-0.156l-0.032-0.336c-0.027-0.235-0.068-0.493-0.124-0.771c-0.11-0.557-0.275-1.195-0.487-1.902
				c-0.423-1.414-1.031-3.099-1.75-4.94c-1.437-3.682-3.315-7.986-5.033-11.978c3.136,6.502,7.312,15.215,7.666,18.22
				c0.162-3.844-6.495-17.769-9.929-26.345c-0.136-0.344-0.269-0.678-0.396-1.001c-0.562-0.913-1.198-1.865-1.784-2.856
				c-0.292-0.496-0.572-1.001-0.818-1.517c-0.123-0.258-0.238-0.519-0.339-0.782c-0.05-0.131-0.097-0.264-0.137-0.397l-0.053-0.199
				C60.715,26.863,60.775,26.751,60.691,26.795"/>
		</g>
	</g>
</g>
<g>
	<g>
		<g>
			<path fill="#D3B074" d="M63.376,23.345c-0.181,0.839-0.084,1.833-0.166,2.839c-0.046,0.994-0.151,2.042-0.487,3.04
				c-0.039,0.167-0.067,0.308-0.095,0.464c-0.071,0.686-0.099,1.465,0.033,2.42c0.11,0.622,0.359,2.417,1.367,4.762
				c0.205,0.59,0.567,1.179,0.93,1.788l0.273,0.459l0.139,0.232l0.079,0.119l0.011,0.012l0.021,0.023l0.041,0.046l0.084,0.093
				c0.223,0.249,0.449,0.502,0.679,0.758c0.453,0.514,0.921,1.047,1.497,1.563c0.552,0.509,1.091,1.074,1.66,1.543
				c2.239,1.972,4.592,3.814,6.342,5.638c1.801,1.774,2.89,3.563,3.127,4.635c-0.019-1.359-1.564-3.799-4.021-6.27
				c1.371,1.254,2.587,2.51,3.434,3.708c0.213,0.297,0.437,0.563,0.597,0.851c0.156,0.291,0.296,0.567,0.419,0.825
				c0.246,0.517,0.423,0.962,0.518,1.321c-0.03-0.355-0.146-0.801-0.338-1.327c-0.193-0.522-0.436-1.148-0.857-1.737
				c-0.763-1.25-1.911-2.606-3.269-3.973c-1.354-1.37-2.932-2.747-4.46-4.197c-0.798-0.712-1.504-1.466-2.239-2.212
				c-0.381-0.354-0.702-0.795-1.043-1.202l-0.504-0.616l-0.25-0.307l-0.125-0.152c0.02,0.025-0.046-0.089-0.064-0.126l0.08,0.134
				c-0.025-0.037,0.056,0.06,0.079,0.084l0.221,0.247l0.447,0.501c0.301,0.337,0.606,0.679,0.915,1.024
				c0.669,0.614,1.31,1.243,1.996,1.86c1.408,1.23,2.858,2.441,4.195,3.632c1.345,1.179,2.526,2.399,3.453,3.483
				c0.856,1.172,1.542,2.107,1.717,2.895c-0.032-0.245-0.097-0.531-0.202-0.845c-0.127-0.292-0.289-0.613-0.485-0.961
				c-0.389-0.699-0.906-1.515-1.591-2.294c-1.32-1.657-3.156-3.329-5.05-5.11c-0.465-0.441-0.938-0.889-1.418-1.342
				c-0.477-0.451-0.874-0.896-1.327-1.345c-0.219-0.234-0.447-0.427-0.663-0.695l-0.647-0.797l-0.646-0.793l-0.081-0.099
				l-0.04-0.049l-0.021-0.024l-0.01-0.013l-0.005-0.006c0.038,0.057-0.093-0.138,0.084,0.127l-0.104-0.195l-0.21-0.39
				c-1.172-2.054-1.602-4.551-1.892-6.722c-0.042-0.351-0.083-0.693-0.123-1.023C64.77,27.659,63.876,25.416,63.376,23.345"/>
		</g>
	</g>
</g>
<g>
	<g>
		<g>
			<path fill="#D3B074" d="M49.608,15.837c1.502,0.438,3.424,0.533,5.375,0.631c1.938,0.109,4.003,0.225,5.619,0.884
				c0.276,0.088,0.49,0.197,0.728,0.283c0.131,0.043,0.264,0.087,0.398,0.132c0.047,0.018,0.182,0.05,0.159,0.056l0.24,0.1
				l0.246,0.1c0.07,0.032,0.087,0.059,0.134,0.086c0.08,0.054,0.158,0.086,0.268,0.173c0.417,0.281,0.811,0.657,1.199,1.199
				c0.255,0.356,0.756,1.098,1.229,2.407c0.481,1.296,0.915,3.111,1.347,5.277c0.464,2.16,0.841,4.691,1.898,7.358
				c0.145,0.331,0.282,0.665,0.462,0.994l0.129,0.248l0.079,0.144l0.065,0.108l0.264,0.436c0.359,0.583,0.696,1.173,1.082,1.768
				c0.759,1.2,1.549,2.385,2.35,3.564c3.232,4.692,6.657,9.362,8.692,13.807c2.133,4.406,2.634,8.461,2.48,10.536
				c0.225-1.196,0.159-3.155-0.357-5.595c-0.52-2.439-1.625-5.305-3.228-8.265c1.814,3.101,3.091,6.252,3.735,8.999
				c0.691,2.744,0.656,5.049,0.537,6.454c0.11-0.645,0.208-1.515,0.22-2.573c-0.042-1.052-0.11-2.3-0.394-3.671
				c-0.515-2.749-1.684-6.002-3.467-9.285c-1.767-3.293-4.05-6.648-6.316-10.071c-1.142-1.713-2.247-3.455-3.301-5.22
				c-0.507-0.916-1.076-1.774-1.438-2.668c-0.382-0.91-0.655-1.876-0.884-2.847c0.21,0.799,0.453,1.604,0.764,2.381
				c0.305,0.795,0.702,1.469,1.187,2.252c0.914,1.549,1.901,3.019,2.92,4.538c2.038,3.01,4.201,5.994,6.032,8.951
				c1.84,2.946,3.324,5.89,4.194,8.516c0.862,2.627,1.223,4.858,1.18,6.285c0.204-1.722-0.185-4.965-1.708-8.73
				c-1.469-3.791-4.047-7.962-6.853-12.175c-1.386-2.112-2.85-4.297-4.147-6.478c-0.335-0.545-0.657-1.139-0.988-1.707l-0.246-0.43
				l-0.097-0.17l-0.093-0.187c-0.13-0.242-0.236-0.513-0.35-0.777c-0.425-1.089-0.729-2.302-0.983-3.54
				c-0.51-2.482-0.841-5.055-1.471-7.542c-0.329-1.244-0.711-2.477-1.324-3.64c-0.593-1.159-1.465-2.254-2.589-2.985l-0.55-0.319
				c-0.2-0.097-0.414-0.186-0.62-0.273c-0.224-0.097-0.337-0.111-0.509-0.17l-0.276-0.083l-0.267-0.054
				c-2.202-0.319-4.327,0.015-6.438,0.304C53.812,15.651,51.705,15.993,49.608,15.837"/>
		</g>
	</g>
</g>
<g>
	<g>
		<g>
			<path fill="#D3B074" d="M65.265,7.372c1.822,0.372,4.036,0.591,6.199,1.269c2.167,0.633,4.344,1.604,5.85,3.067
				c0.281,0.203,0.505,0.411,0.731,0.637c0.52,0.466,1.111,0.925,1.663,1.536c0.606,0.546,1.155,1.247,1.789,1.968
				c0.769,0.998,3.104,3.872,4.707,8.76c0.858,2.387,1.564,5.26,2.089,8.275c0.118,0.777,0.265,1.575,0.361,2.364
				c0.083,0.785,0.166,1.579,0.25,2.38c0.113,1.614,0.216,3.273,0.191,4.939c0.014,6.681-1.265,13.48-2.172,19.239
				c-0.946,5.764-1.381,10.537-1.745,13.076c0.151-0.719,0.321-1.656,0.509-2.78c0.175-1.14,0.376-2.444,0.6-3.897
				c0.466-2.926,1.108-6.459,1.831-10.382c-0.67,4.203-1.271,8.111-1.628,11.402c-0.208,1.643-0.304,3.134-0.452,4.42
				c-0.097,1.288-0.193,2.374-0.32,3.215c0.176-0.767,0.331-1.782,0.468-3.007c0.197-1.223,0.323-2.658,0.576-4.26
				c0.432-3.209,1.109-7.089,1.889-11.396c0.775-4.302,1.57-9.075,1.805-14.019c0.236-4.949-0.189-10.016-1.17-14.761
				c0.106,0.49,0.215,0.986,0.324,1.486c0.054,0.258,0.112,0.483,0.162,0.772l0.121,0.763c0.145,1.029,0.364,2.042,0.451,3.124
				c0.244,2.148,0.396,4.341,0.392,6.544c0.024,4.41-0.467,8.833-1.092,12.873c-0.646,4.009-1.245,7.72-1.747,10.834
				c-0.488,3.093-0.765,5.588-1.064,7.179c0.49-1.907,1.034-5.391,1.879-9.879c0.818-4.488,2.033-10.026,2.604-16.183
				c0.266-3.079,0.327-6.281,0.132-9.512l-0.204-2.443c-0.08-0.804-0.207-1.563-0.309-2.347l-0.161-1.165l-0.239-1.232
				c-0.165-0.783-0.288-1.567-0.487-2.34c-0.695-3.1-1.693-6.11-3.011-8.849c-1.318-2.736-3.037-5.179-5.038-7.04
				c-0.325-0.292-0.646-0.58-0.963-0.863c-0.318-0.281-0.68-0.5-1.01-0.747c-2.139-1.295-4.639-2.15-7.175-2.554
				C70.305,7.439,67.736,7.396,65.265,7.372"/>
		</g>
	</g>
</g>
<g>
	<g>
		<g>
			<path fill="#D3B074" d="M26.757,9.067c1.664,0.059,3.71-0.419,5.707-1.174c2-0.736,4.013-1.649,5.931-1.997
				c0.316-0.074,0.589-0.172,0.874-0.215c0.625-0.134,1.247-0.326,2.07-0.521c0.792-0.204,1.656-0.462,2.487-0.625
				c0.285-0.07,0.698-0.171,1.225-0.299c0.549-0.11,1.217-0.244,1.988-0.399c1.562-0.244,3.553-0.54,5.898-0.681
				c1.171-0.082,2.42-0.15,3.742-0.206c0.329-0.015,0.663-0.029,1-0.044c0.324-0.003,0.651-0.007,0.981-0.011
				c0.687-0.001,1.397-0.019,2.098-0.006c2.709,0.097,5.662,0.515,8.508,1.368c2.854,0.846,5.618,2.139,8.1,3.714
				c2.477,1.587,4.675,3.42,6.577,5.216c3.78,3.632,6.397,7.077,7.576,9.035c-0.284-0.598-0.715-1.336-1.289-2.18
				c-0.562-0.855-1.269-1.816-2.106-2.858c-1.674-2.08-3.852-4.517-6.602-6.867c3.004,2.424,5.48,5.053,7.422,7.342
				c1.948,2.29,3.354,4.265,4.132,5.58c-0.611-1.277-1.866-3.222-3.695-5.549c-1.825-2.325-4.233-5.046-7.282-7.663
				c-3.047-2.6-6.793-5.064-11.028-6.646c-1.075-0.342-2.13-0.767-3.242-1l-1.651-0.404l-1.676-0.277
				c-1.106-0.223-2.251-0.254-3.366-0.369c-1.115-0.079-2.202-0.05-3.29-0.08c0.899-0.006,1.818-0.012,2.752-0.019
				c0.952,0.062,1.919,0.124,2.896,0.188c0.966,0.136,1.946,0.267,2.929,0.435c0.966,0.236,1.961,0.407,2.922,0.708
				c3.877,1.114,7.546,3.015,10.612,5.22c3.079,2.201,5.588,4.646,7.54,6.789c1.96,2.143,3.35,4.016,4.135,5.28
				c-0.823-1.617-2.718-4.319-5.652-7.429c-1.443-1.574-3.235-3.17-5.241-4.776c-2.049-1.56-4.392-3.046-6.984-4.268
				c-2.59-1.231-5.459-2.081-8.372-2.606c-1.446-0.288-2.959-0.403-4.456-0.527c-0.729-0.038-1.421-0.029-2.131-0.046l-1.108-0.014
				L56.63,0.205C51.028,0.297,45.395,0.691,40.828,2.25c-0.35,0.111-0.695,0.221-1.035,0.329c-0.36,0.13-0.714,0.258-1.063,0.384
				c-2.035,0.958-3.871,2.294-5.782,3.496C31.039,7.663,29.003,8.732,26.757,9.067"/>
		</g>
	</g>
</g>
<g>
	<g>
		<g>
			<path fill="#D3B074" d="M61.309,7.383c0.354-0.032,0.718-0.117,1.09-0.225c0.38-0.064,0.733-0.178,1.122-0.226
				c0.765-0.136,1.582-0.091,2.253,0.245c0.115,0.047,0.21,0.085,0.306,0.124c0.43,0.101,0.902,0.222,1.476,0.306
				c0.377,0.076,1.499,0.138,3.065,0.8c1.567,0.622,3.492,1.836,5.381,3.22c1.893,1.386,3.777,2.91,5.399,4.157
				c1.612,1.266,2.987,2.227,3.649,2.935c-0.653-0.999-2.372-2.384-4.438-4.239c1.174,0.904,2.275,1.718,3.202,2.39
				c0.925,0.678,1.688,1.192,2.122,1.651c-0.71-1.022-2.603-2.426-4.869-4.427c-2.286-1.953-4.992-4.43-7.889-6.268
				c2.499,1.38,5.104,3.457,7.301,5.194c2.19,1.772,4.021,3.113,4.751,3.988c-0.356-0.672-1.2-1.493-2.327-2.552
				c-1.131-1.046-2.55-2.334-4.151-3.717c-1.605-1.375-3.402-2.842-5.377-4.049c-1.962-1.206-4.218-2.076-6.293-2.147
				c-0.33-0.002-0.65-0.029-0.961,0.007C64.203,5.026,62.686,6.425,61.309,7.383"/>
		</g>
	</g>
</g>
<g>
	<g>
		<g>
			<path fill="#D3B074" d="M48.951,33.106c2.249,0.651,5.542,0.367,8.25,1.102c0.235,0.044,0.433,0.081,0.637,0.12
				c0.924,0.103,1.983,0.183,3.214,0.214c0.263,0.018,0.682,0.032,1.234,0.041c0.561-0.003,1.193,0.11,1.974,0.167l0.71-3.137
				c-0.585-0.089-1.199-0.195-1.959-0.225c-0.391-0.007-0.781-0.024-1.357,0.092c-0.155,0.039-0.269,0.05-0.481,0.142
				c-0.19,0.083-0.36,0.144-0.611,0.356c-0.219,0.161-0.433,0.448-0.569,0.777c-0.108,0.282-0.146,0.656-0.114,0.868
				c0.146,0.927,0.491,1.246,0.759,1.64c0.286,0.345,0.58,0.661,0.884,0.941c0.605,0.573,1.244,1.091,1.908,1.601
				c2.653,2.019,5.688,3.92,8.649,5.74c2.965,1.81,5.865,3.498,8.305,4.911c1.22,0.703,2.322,1.337,3.275,1.886
				c0.477,0.268,0.915,0.514,1.317,0.739c0.42,0.217,0.736,0.419,1.231,0.549c-0.628-0.242-1.057-0.585-1.677-0.973
				c-0.617-0.399-1.301-0.842-2.054-1.33c-1.567-0.995-3.425-2.173-5.486-3.481c2.266,1.314,4.385,2.52,6.168,3.501
				c0.892,0.49,1.699,0.928,2.41,1.261c0.179,0.082,0.351,0.155,0.518,0.213c0.158,0.05,0.351,0.103,0.418,0.027
				c0.048-0.27-0.191-0.574-0.293-0.799c0.074,0.221,0.253,0.536,0.22,0.751c0.007,0.035-0.032-0.002-0.006,0.006
				c-0.016-0.02-0.033-0.021-0.04-0.021c-0.062-0.02-0.114-0.028-0.191-0.063c-0.14-0.053-0.298-0.133-0.459-0.22
				c-0.646-0.347-1.401-0.814-2.249-1.329c-1.722-1.065-3.772-2.334-6.04-3.737c-2.274-1.424-4.755-2.999-7.245-4.674
				c-2.475-1.685-5.023-3.432-7.157-5.4c1.813,1.578,4.024,3.056,6.248,4.506c2.234,1.443,4.519,2.836,6.653,4.12
				c4.271,2.565,7.958,4.679,9.522,5.774c-1.526-1.395-5.906-4.086-11.084-7.472C71.8,40.596,69,38.741,66.37,36.746
				c-1.282-0.985-2.635-2.071-3.473-3.088c-0.087-0.116-0.167-0.228-0.205-0.295c0.218-0.136-0.669,0.191-0.86,0.119
				c-0.243-0.055-0.02-0.085,0.211,0.5c0.021,0.06,0.037,0.121,0.049,0.183c0.007,0.033,0.003,0.053,0.024,0.106
				c0.011,0.028,0.008,0.008,0.013,0.014l0.033-0.008c0.005-0.014,0.089-0.012,0.14-0.019c0.507-0.047,1.311,0.083,2.01,0.217
				c0.199-0.879,0.393-1.734,0.586-2.589c-1.918-0.316-3.713-0.402-5.328-0.353c-0.523-0.004-1.023,0.021-1.508,0.045
				C55.141,32.076,52.025,33.061,48.951,33.106"/>
		</g>
	</g>
</g>
<g>
	<g>
		<g>
			<path fill="#D3B074" d="M51.917,23.631c0.364,0.251,0.754,0.503,1.164,0.757c0.206,0.127,0.415,0.256,0.625,0.386
				c0.195,0.153,0.392,0.308,0.59,0.464c0.396,0.307,0.801,0.619,1.212,0.936c0.394,0.354,0.794,0.715,1.198,1.08
				c0.815,0.711,1.559,1.559,2.306,2.357c0.707,0.857,1.404,1.686,1.981,2.584c0.217,0.289,0.404,0.536,0.598,0.794
				c0.895,1.096,1.986,2.359,3.369,3.794l2.606-2.417l-0.05-0.056c-0.476-0.512-1.335-1.465-2.791-2.694
				c-0.38-0.307-0.785-0.631-1.364-0.969c-0.323-0.161-0.625-0.369-1.344-0.474c-0.175-0.021-0.429-0.023-0.687,0.03
				c-0.283,0.057-0.574,0.183-0.841,0.39c-0.507,0.42-0.656,0.888-0.739,1.204c-0.126,0.621-0.064,0.991-0.024,1.367
				c0.053,0.36,0.127,0.687,0.21,1.011c0.17,0.636,0.378,1.248,0.606,1.865c1.88,4.858,4.864,10.385,7.977,16.036
				c3.133,5.626,6.454,11.285,9.369,16.018c1.476,2.361,2.786,4.508,4.141,6.228c0.179,0.214,0.352,0.419,0.579,0.616
				c0.124,0.093,0.224,0.207,0.512,0.271c0.134,0.046,0.434-0.046,0.537-0.216c0.095-0.141,0.122-0.259,0.136-0.346
				c0.062-0.664-0.069-1.066-0.139-1.52c-0.183-0.834-0.342-1.563-0.479-2.188c0.081,0.704,0.269,1.592,0.412,2.696
				c0.028,0.281,0.065,0.565,0.027,0.909c-0.015,0.089-0.029,0.184-0.099,0.299c-0.068,0.133-0.292,0.202-0.404,0.152
				c-0.223-0.073-0.32-0.196-0.445-0.311c-0.451-0.473-0.817-1.027-1.212-1.614c-1.541-2.363-3.251-5.325-5.139-8.614
				c2.108,3.447,4.067,6.688,5.95,9.176c0.239,0.3,0.485,0.596,0.738,0.813c0.061,0.052,0.128,0.1,0.172,0.119l0.027,0.014
				c0.002-0.007-0.006-0.009,0.001,0.059c0.001,0.022-0.003,0.023,0.007,0.042c-0.002-0.012-0.026-0.039-0.043-0.042
				c-0.042-0.047,0.024-0.227-0.005-0.384c-0.063-0.664-0.242-1.315-0.392-1.905c-0.314-1.187-0.604-2.186-0.786-2.972
				c0.108,0.739,0.325,1.694,0.579,2.837c0.121,0.567,0.266,1.196,0.334,1.828c0.017,0.153,0.023,0.315,0.009,0.424
				c-0.002,0.028-0.006,0.054-0.012,0.054l-0.002,0.006c0.018,0.005,0.085,0.031,0.099,0.029c0.053,0.01,0.104,0.031,0.151,0.066
				c0.069,0.033,0.069,0.077,0.061,0.031c-0.014-0.065,0.009-0.133,0.062-0.306c0.029-0.076-0.137-0.141-0.229-0.271
				c-0.11-0.119-0.224-0.257-0.335-0.4c-1.77-2.406-3.657-5.715-5.746-9.287c-4.124-7.204-8.953-15.842-12.771-24.126
				c3.287,6.806,7.675,14.512,11.572,21.17c1.957,3.325,3.8,6.392,5.385,8.895c0.789,1.237,1.533,2.389,2.166,3.173
				c0.076,0.096,0.15,0.179,0.205,0.236l0.057,0.063c0.034-0.066-0.117,0.158-0.176,0.289c-0.074,0.152-0.125,0.212-0.154,0.341
				c-0.029,0.11-0.048,0.145-0.033,0.217c-0.012,0.011,0.022,0.053-0.015,0.004c-0.038-0.041-0.229-0.13-0.498-0.17l-0.195-0.016
				c-0.087-0.013-0.199-0.022-0.161-0.021c0.001-0.005,0.005-0.004,0.008-0.013l0.008-0.101c-0.001-0.351-0.066-0.789-0.115-1.148
				c0.011,0.218,0.021,0.447,0.032,0.69c0.011,0.218,0.005,0.534-0.034,0.565l0.309,0.032c0.075,0,0.15,0.008,0.227,0.023
				c0.07,0.011,0.161,0.047,0.214,0.059c0.046,0.008,0.092,0.024,0.135,0.052c0.16,0.098,0.032,0.094,0.109-0.123
				c0.027-0.163,0.088-0.229,0.182-0.425c0.046-0.09,0.099-0.178,0.155-0.261l0.083-0.11c0.004,0.001-0.001-0.005-0.002-0.007
				c-0.005-0.016-0.028-0.044-0.062-0.089c-0.135-0.17-0.334-0.45-0.525-0.74c-0.787-1.196-1.713-2.775-2.738-4.539
				c-2.051-3.544-4.527-7.934-7.123-12.699c-2.586-4.768-5.317-9.916-7.697-15.035c-0.59-1.28-1.155-2.559-1.664-3.826
				c-0.498-1.254-0.98-2.554-1.198-3.67c-0.051-0.253-0.069-0.549-0.061-0.579c0.076,0.02-0.222-0.055-0.286-0.066
				c-0.104-0.02-0.211-0.058-0.308-0.106c-0.066-0.019-0.133-0.053-0.192-0.103c-0.03-0.013-0.063-0.044-0.08-0.069
				c-0.017-0.06,0.101,0.207-0.032,0.694c-0.018,0.042-0.03,0.137-0.051,0.201c-0.007,0.031,0.001,0.01,0,0.016
				c0.001-0.002,0.007-0.002,0.025,0.007c0.029,0.013,0.058,0.02,0.106,0.049c0.083,0.04,0.19,0.107,0.296,0.178
				c0.215,0.14,0.446,0.329,0.671,0.513c0.909,0.773,1.774,1.679,2.589,2.559c0.624-0.579,1.22-1.131,1.815-1.683
				c-0.563-0.572-1.11-1.127-1.644-1.668c-0.553-0.558-1.09-1.101-1.611-1.626c-1.731-1.441-3.626-2.914-5.627-4.287
				C56.233,25.773,54.128,24.442,51.917,23.631"/>
		</g>
	</g>
</g>
<g>
	<g>
		<g>
			<path fill="#D3B074" d="M31.319,27.691c2.667-0.042,6.264-0.932,9.48-0.689c0.274-0.002,0.507-0.003,0.747-0.005
				c1.071-0.058,2.316-0.2,3.77-0.431c0.969-0.143,3.654-0.729,7.295-1.146c3.631-0.411,8.267-0.64,12.873,0.243
				c2.297,0.435,4.571,1.157,6.612,2.197c2.044,1.033,3.834,2.391,5.229,3.872c2.838,2.964,4.008,6.251,4.3,7.967
				c-0.004-0.526-0.134-1.175-0.363-1.94c-0.188-0.783-0.583-1.626-1.015-2.587c-0.959-1.858-2.485-3.995-4.709-5.799
				c2.432,1.849,4.2,4.173,5.308,6.273c0.582,1.042,0.94,2.06,1.258,2.926c0.263,0.887,0.424,1.65,0.52,2.241
				c-0.023-0.558-0.133-1.288-0.318-2.165c-0.266-0.845-0.536-1.874-1.073-2.932c-0.984-2.148-2.683-4.604-5.164-6.677
				c-2.499-2.041-5.721-3.627-9.167-4.48c-3.441-0.894-7.062-1.157-10.495-1.098c2.847-0.136,5.977-0.034,9.094,0.54
				c3.118,0.542,6.21,1.645,8.811,3.248c2.623,1.572,4.655,3.674,5.993,5.635c1.337,1.975,2.024,3.771,2.296,4.944
				c-0.156-1.469-1.098-4.085-3.301-6.879c-1.13-1.363-2.568-2.742-4.304-3.94c-1.735-1.196-3.765-2.165-5.919-2.89
				c-4.327-1.452-9.125-1.871-13.625-1.701c-4.515,0.153-8.777,0.812-12.387,1.491c-0.577,0.112-1.139,0.221-1.683,0.326
				C38.169,25.272,34.71,26.767,31.319,27.691"/>
		</g>
	</g>
</g>
<g>
	<g>
		<g>
			<path fill="#D3B074" d="M33.617,16.515c0.592,0.119,1.242,0.22,1.935,0.255c0.692-0.028,1.476-0.014,2.226-0.127
				c0.754-0.102,1.542-0.183,2.302-0.327c0.775-0.112,1.546-0.223,2.295-0.31c0.257-0.047,0.473-0.087,0.697-0.129
				c0.973-0.262,2.097-0.665,3.324-1.28c0.839-0.389,3.029-1.7,5.909-3.411c1.442-0.848,3.062-1.796,4.827-2.673
				c1.761-0.891,3.673-1.728,5.689-2.235c2.027-0.532,4.123-0.728,6.027-0.105c1.891,0.659,3.425,2.009,4.733,3.309
				c1.315,1.308,2.51,2.533,3.62,3.476c1.114,0.935,2.088,1.645,2.768,2.159c-0.374-0.317-0.817-0.786-1.396-1.238
				c-0.542-0.508-1.187-1.063-1.852-1.741c-1.369-1.312-2.782-3.12-4.727-4.816c1.079,0.854,2.012,1.792,2.893,2.656
				c0.879,0.865,1.709,1.662,2.512,2.333c1.589,1.371,3.073,2.181,3.97,2.828c-0.767-0.713-2.131-1.543-3.613-2.93
				c-0.74-0.695-1.54-1.472-2.379-2.38c-0.854-0.89-1.75-1.889-2.863-2.844c-1.108-0.947-2.504-1.818-4.103-2.21
				c-0.392-0.132-0.799-0.174-1.208-0.222c-0.406-0.059-0.817-0.103-1.24-0.076c-0.413,0.016-0.858-0.001-1.246,0.05l-1.156,0.167
				c-3.247,0.556-6.197,1.914-8.964,3.286c2.25-1.218,4.778-2.462,7.569-3.22c0.368-0.094,0.654-0.188,1.094-0.28l1.025-0.175
				c0.638-0.152,1.496-0.126,2.25-0.167c1.517,0.068,3.044,0.469,4.337,1.17c1.31,0.689,2.316,1.611,3.205,2.442
				c0.889,0.85,1.632,1.638,2.324,2.341c1.366,1.396,2.513,2.372,3.256,3.04c-0.826-0.949-2.283-2.373-4.223-4.582
				c-0.997-1.075-2.166-2.394-3.909-3.507c-0.22-0.135-0.441-0.27-0.665-0.406c-0.243-0.112-0.488-0.225-0.735-0.339
				c-0.484-0.25-1.025-0.382-1.563-0.537C67.486,3.486,66.365,3.4,65.177,3.46l-0.435,0.016l-0.359,0.05l-0.724,0.102l-0.363,0.051
				l-0.183,0.026L63.005,3.72L62.98,3.726l-0.048,0.011L62.835,3.76l-0.776,0.183c-1.051,0.216-2.041,0.579-3.047,0.909
				c-1.969,0.739-3.845,1.631-5.638,2.551c-3.562,1.862-6.826,3.815-9.723,5.194c-0.464,0.218-0.916,0.429-1.353,0.634
				C39.815,14.753,36.851,16.437,33.617,16.515"/>
		</g>
	</g>
</g>
<g>
	<g>
		<g>
			<path fill="#D3B074" d="M76.25,14.674c0.504,1.4,1.31,2.979,2.132,4.636c0.704,1.704,1.466,3.444,1.856,5.17
				c0.08,0.293,0.148,0.543,0.22,0.802c0.351,1.142,0.922,2.414,1.54,3.928c0.37,1.026,1.729,3.77,2.977,7.674
				c1.164,3.898,2.432,8.957,2.377,14.253c-0.128,5.351,0.09,10.854-0.48,15.424c-0.271,2.286-0.726,4.339-1.34,5.976
				c-0.605,1.647-1.452,2.798-2.124,3.446c0.884-0.639,1.979-2.164,2.749-4.393c0.784-2.222,1.285-5.075,1.54-8.24
				c-0.175,3.382-0.618,6.551-1.472,9.091c-0.83,2.554-2.271,4.329-3.409,5.022c0.516-0.314,1.239-0.78,1.861-1.591
				c0.658-0.779,1.234-1.839,1.749-3.072c1.002-2.484,1.545-5.687,1.843-9.185c0.295-3.5,0.26-7.337,0.461-11.17
				c0.079-1.007-0.013-1.987-0.013-2.984c-0.043-0.992,0-1.99-0.116-2.975c-0.126-0.982-0.251-1.962-0.376-2.937
				c-0.062-0.486-0.125-0.971-0.188-1.454c-0.106-0.475-0.213-0.948-0.318-1.418c0.742,3.106,1.199,6.579,1.255,10.104
				c0.009,0.45,0.058,0.861,0.031,1.345l-0.048,1.29c-0.01,0.85-0.02,1.697-0.029,2.537c-0.013,1.7-0.015,3.383-0.068,5.018
				c-0.088,3.264-0.363,6.332-0.943,8.886c-0.567,2.551-1.45,4.577-2.337,5.683c1.231-1.243,2.483-4.158,3.144-7.908
				c0.677-3.742,0.815-8.344,0.946-13.067c0.029-0.582,0.035-1.138,0.083-1.757l0.059-0.965l-0.015-0.956
				c-0.026-1.275-0.052-2.563-0.078-3.856c-0.31-2.558-0.534-5.148-1.188-7.6c-0.468-2.496-1.337-4.823-2.026-7.082
				c-0.42-1.103-0.867-2.165-1.278-3.201c-0.208-0.517-0.413-1.026-0.613-1.526c-0.216-0.493-0.46-0.962-0.681-1.43
				c-0.286-0.597-0.565-1.178-0.836-1.741c-0.932-1.642-2.218-3.231-3.353-4.889C78.581,17.922,77.292,16.353,76.25,14.674"/>
		</g>
	</g>
</g>
<g>
	<g>
		<g>
			<path fill="#D3B074" d="M76.589,32.314c-0.221,1.204-0.26,2.647-0.32,4.154c-0.062,1.505-0.121,3.086-0.51,4.523
				c-0.04,0.25-0.074,0.46-0.109,0.678c-0.102,0.977-0.132,2.121-0.065,3.464c0.086,0.89,0.192,3.407,0.421,6.784
				c0.134,3.376,0.251,7.626,0.055,11.966c-0.3,8.688-1.771,17.69-3.06,20.739c0.47-0.845,0.962-2.273,1.467-4.124
				c0.528-1.846,0.901-4.145,1.353-6.685c-0.646,5.472-1.673,10.128-2.495,12.169c0.984-1.812,2.198-6.282,3.049-11.905
				c0.838-5.62,1.417-12.361,1.393-18.599c0.021,1.295,0.043,2.644,0.065,4.021c-0.042,1.38-0.085,2.788-0.127,4.197
				c-0.04,2.831-0.37,5.653-0.594,8.297c-0.294,2.634-0.699,5.06-1.057,7.087c-0.414,2.017-0.862,3.62-1.262,4.614
				c0.321-0.581,0.652-1.435,0.992-2.509c0.354-1.071,0.676-2.373,0.963-3.852c0.294-1.477,0.612-3.119,0.881-4.888
				c0.229-1.774,0.451-3.667,0.665-5.625c0.189-1.96,0.278-3.997,0.409-6.04c0.141-2.043,0.092-4.11,0.14-6.131
				c0.063-2.022-0.062-4.008-0.1-5.902c-0.027-0.948-0.055-1.873-0.081-2.77c-0.058-0.898-0.114-1.768-0.168-2.603
				c-0.031-0.534-0.062-1.054-0.093-1.558c-0.145-0.744-0.297-1.522-0.451-2.314c-0.182-0.785-0.365-1.582-0.548-2.371
				C77.044,35.537,76.734,33.911,76.589,32.314"/>
		</g>
	</g>
</g>
<g>
	<g>
		<g>
			<path fill="#D3B074" d="M40.114,19.906c1.238-0.192,2.64-0.695,4.125-1.097c1.5-0.329,3.004-0.748,4.511-0.675
				c0.252-0.018,0.464-0.033,0.685-0.049c0.488-0.056,1.006-0.168,1.573-0.259c0.571-0.072,1.182-0.172,1.838-0.304
				c0.438-0.09,1.258-0.314,2.397-0.461c0.569-0.092,1.215-0.196,1.926-0.311c0.716-0.049,1.496-0.102,2.33-0.159
				c3.332-0.15,7.608,0.308,11.68,1.934c4.087,1.572,7.836,4.25,10.555,6.946c2.769,2.668,4.521,5.333,5.214,6.858
				c-0.325-0.916-0.968-2.348-2.166-3.903c-0.591-0.783-1.198-1.699-2.029-2.533c-0.818-0.841-1.621-1.829-2.664-2.658
				c4.414,3.609,7.15,7.798,8.092,9.815c-0.67-1.961-3.096-6.203-7.562-10.137c-0.565-0.479-1.144-0.968-1.732-1.467
				c-0.593-0.494-1.273-0.901-1.923-1.363c-1.28-0.958-2.784-1.651-4.236-2.441c-3.025-1.377-6.32-2.266-9.532-2.65
				c5.355,0.36,11.542,2.709,15.967,6.127c4.464,3.374,7.389,7.222,8.311,9.232c-0.22-0.654-0.621-1.527-1.301-2.488
				c-0.672-0.965-1.441-2.154-2.554-3.295c-2.056-2.419-5.127-4.954-8.81-6.996c-3.687-2.042-8.092-3.377-12.39-3.7
				c-4.301-0.342-8.429,0.19-11.812,1.047c-0.554,0.096-1.063,0.291-1.571,0.429c-0.722,0.321-1.477,0.657-2.245,0.999
				c-0.741,0.398-1.493,0.804-2.239,1.205c-0.377,0.196-0.752,0.392-1.124,0.585c-0.368,0.213-0.732,0.423-1.092,0.631
				C41.603,19.178,40.862,19.563,40.114,19.906"/>
		</g>
	</g>
</g>
<g>
	<g>
		<g>
			<path fill="#D3B074" d="M39.274,33.67c3.014,0.636,7.376,0.259,10.98,1.019c0.309,0.047,0.573,0.087,0.848,0.129
				c0.625,0.054,1.283,0.111,1.994,0.173c0.721,0.042,1.491,0.098,2.318,0.161c0.741,0.041,2.365,0.115,4.511,0.507
				c2.124,0.413,4.769,1.313,6.948,3.403c0.583-0.533,1.166-1.065,1.771-1.617c-0.629-0.607-1.271-1.223-2.131-1.792
				c-0.23-0.14-0.449-0.28-0.759-0.4c-0.159-0.058-0.285-0.122-0.508-0.155l-0.306-0.045c-0.115-0.005-0.259,0.009-0.387,0.026
				c-0.243,0.012-0.562,0.176-0.777,0.336c-0.202,0.18-0.383,0.4-0.454,0.579c-0.2,0.391-0.231,0.695-0.267,0.985
				c-0.081,1.13,0.122,2.035,0.312,2.976c0.205,0.926,0.462,1.83,0.738,2.728c1.12,3.581,2.534,7.065,3.924,10.298
				c1.403,3.227,2.788,6.192,4.102,8.619c0.331,0.605,0.661,1.176,1.006,1.706c0.172,0.265,0.348,0.518,0.55,0.758
				c0.213,0.235,0.377,0.484,0.823,0.657c0.087,0.049,0.294,0.039,0.432,0.02c0.134-0.051,0.316-0.156,0.374-0.245
				c0.165-0.198,0.214-0.362,0.267-0.516c0.086-0.298,0.12-0.557,0.146-0.797c0.051-0.482,0.063-0.896,0.086-1.261
				c-0.046,0.334-0.095,0.691-0.148,1.077c-0.037,0.208-0.064,0.418-0.127,0.655c-0.072,0.232-0.104,0.485-0.367,0.776
				c-0.081,0.064-0.193,0.131-0.295,0.156c-0.103,0.004-0.239,0.013-0.311-0.027c-0.174-0.064-0.285-0.161-0.393-0.256
				c-0.2-0.198-0.364-0.415-0.521-0.644c-0.31-0.458-0.592-0.964-0.877-1.505c-1.129-2.165-2.328-4.868-3.588-7.895
				c1.444,3.181,2.852,6.134,4.276,8.421c0.357,0.549,0.747,1.123,1.155,1.385c0.106,0.054,0.132,0.044,0.177,0.025
				c0.053-0.057,0.104-0.165,0.141-0.288c0.064-0.251,0.09-0.521,0.107-0.781c0.041-1.049-0.022-1.953-0.014-2.653
				c-0.07,0.644-0.065,1.495-0.146,2.477c-0.019,0.243-0.051,0.498-0.106,0.729c-0.022,0.125-0.063,0.222-0.103,0.301
				c-0.016,0.05-0.046,0.021-0.035,0.058c0.061,0.067,0.052,0.032,0.078,0.07c0.008,0.012,0.015,0.026,0.019,0.043
				c0.003,0.015-0.013-0.031-0.013-0.043c0.049-0.192,0.002-0.146-0.078-0.232c-0.071-0.056-0.163-0.169-0.246-0.268
				c-0.171-0.218-0.344-0.465-0.508-0.738c-1.317-2.199-2.638-5.169-4.033-8.428c-1.377-3.275-2.811-6.904-4.002-10.688
				c-0.571-1.884-1.153-3.845-1.3-5.737c-0.031-0.451-0.002-0.955,0.119-1.189c0.075-0.104,0.032-0.106,0.129-0.112
				c0.103,0,0.287,0.053,0.472,0.149c0.76,0.412,1.487,1.12,2.156,1.803l0.661-0.604l-0.186-0.17
				c0.062,0.055,0.125,0.109,0.19,0.167l-0.67,0.612c-0.574-0.556-1.183-1.118-1.827-1.537c-0.299-0.197-0.698-0.367-0.805-0.323
				c-0.025,0.001-0.022,0.006-0.018-0.006c0.021,0.031,0.011,0.018-0.002,0.05c-0.026,0.067-0.071,0.202-0.083,0.371
				c-0.071,0.681,0.088,1.556,0.254,2.371c0.179,0.832,0.41,1.669,0.661,2.504c1.022,3.341,2.34,6.637,3.612,9.67
				c1.285,3.031,2.558,5.807,3.685,8.061c0.563,1.123,1.097,2.124,1.577,2.89c0.12,0.183,0.234,0.355,0.338,0.492l0.133,0.169
				c0.02,0.025,0.019,0.02,0.026,0.036c-0.003,0.016,0.02-0.012-0.005,0.042c-0.054,0.124-0.091,0.14-0.126,0.207
				c-0.069,0.098-0.1,0.292-0.113,0.356c-0.025,0.023-0.008,0.128-0.001,0.119c-0.019-0.053-0.034-0.052-0.081-0.091
				c-0.083-0.095-0.183-0.161-0.287-0.198c-0.048-0.014-0.104-0.025-0.197-0.079l0.01-0.014c0.008-0.009,0.017-0.018,0.028-0.027
				c0.021-0.034,0.038-0.104,0.06-0.152l-0.072,0.139c-0.014,0.01-0.027,0.014-0.038,0.021l-0.015,0.009
				c0.014,0.011-0.059-0.016,0.059,0.039c0.152,0.074,0.208,0.062,0.309,0.135c0.087,0.051,0.184,0.176,0.186,0.157
				c0.012,0.008,0.022,0.021,0.031,0.039c0.011,0.021,0.015,0.05,0.002,0.005c-0.015-0.062,0.001-0.071,0.02-0.151
				c0.015-0.128,0.06-0.249,0.128-0.35l0.055-0.075l0.05-0.139L75,63.242v-0.005v-0.008c0-0.006-0.002-0.051-0.037-0.108
				c-0.062-0.097-0.149-0.247-0.243-0.415c-0.39-0.668-0.839-1.611-1.328-2.655c-0.976-2.114-2.113-4.765-3.302-7.734
				c-1.177-2.971-2.434-6.275-3.456-9.711c-0.252-0.857-0.488-1.723-0.679-2.581c-0.187-0.845-0.34-1.732-0.349-2.42
				c-0.002-0.171,0.195-0.303,0.204-0.389C65.815,37.209,66,37.203,66,37.195v-0.006l-0.295-0.048
				c-0.102-0.053-0.223-0.04-0.29-0.07c-0.116-0.042-0.275-0.105-0.379-0.188c-0.086-0.062-0.135-0.062-0.187-0.123
				c-0.017-0.016-0.064-0.074-0.06-0.066c0.003,0.006-0.002,0.01-0.003,0.013c0,0.013-0.018-0.034,0.015,0.076
				c0.016,0.074,0.01,0.144-0.007,0.204c0.003,0.139-0.012,0.284-0.048,0.414c-0.139,0.361-0.054,0.228-0.037,0.268
				c0.016-0.008,0.093,0.047,0.146,0.074c0.514,0.28,1.201,0.937,1.795,1.543l2.235-2.042c-2.183-2.305-5.052-3.625-7.739-4.297
				c-2.712-0.683-5.31-0.837-7.652-0.878c-0.691-0.009-1.363-0.018-2.009,0.004C47.573,32.497,43.368,33.611,39.274,33.67"/>
		</g>
	</g>
</g>
<g>
	<g>
		<g>
			<path fill="#D3B27A" d="M32.75,24.866c2.476,0.657,6.067,0.405,9.138,0.934c0.266,0.024,0.491,0.044,0.724,0.065
				c1.046,0.04,2.263-0.014,3.681-0.164c0.946-0.09,3.559-0.552,7.042-0.899c1.743-0.171,3.707-0.291,5.789-0.229
				c2.084,0.035,4.286,0.275,6.465,0.775l0.819,0.185l0.206,0.046l0.051,0.011c-0.011-0.004,0.062,0.019-0.018-0.009l0.025,0.008
				l0.102,0.035l0.407,0.137l0.814,0.276l0.731,0.33c0.984,0.437,1.923,1.045,2.779,1.703c1.705,1.35,3.085,3,4.226,4.591
				c2.246,3.224,3.814,6.068,4.571,7.649c-0.313-0.978-1.014-2.401-1.965-4.17c-0.966-1.758-2.185-3.884-3.896-6.005
				c1.907,2.198,3.333,4.503,4.514,6.41c1.168,1.921,2.097,3.469,2.594,4.519c-0.352-1.033-1.149-2.555-2.211-4.489
				c-1.077-1.921-2.411-4.282-4.318-6.67c-0.968-1.179-2.105-2.345-3.455-3.337c-1.332-0.99-2.939-1.807-4.567-2.309
				c-3.26-0.94-6.715-1.325-10.001-1.336c2.724-0.07,5.722,0.117,8.681,0.764l1.107,0.254l0.277,0.064l0.069,0.016l0.034,0.008
				l0.094,0.031l0.131,0.044l0.522,0.178c0.673,0.198,1.446,0.573,2.156,0.917c1.384,0.727,2.61,1.673,3.679,2.674
				c2.131,2.031,3.585,4.257,4.735,6.084c1.133,1.848,1.947,3.35,2.384,4.368c-0.407-1.309-1.429-3.473-3.12-6.217
				c-1.699-2.676-4.232-6.17-8.618-8.154c-4.137-1.69-8.688-2.129-13.024-2.104c-4.329,0.077-8.388,0.636-11.831,1.058
				c-0.551,0.065-1.087,0.129-1.606,0.191C39.58,23.849,36.131,24.836,32.75,24.866"/>
		</g>
	</g>
</g>
<g>
	<g>
		<g>
			<path fill="#D3A476" d="M35.728,23.333c0.683-1.092,1.608-2.183,2.834-3.02c1.235-0.812,2.706-1.355,4.147-1.481
				c0.245-0.038,0.452-0.07,0.666-0.103c0.943-0.191,2.042-0.447,3.359-0.757c0.872-0.214,3.33-0.876,6.781-1.4
				c3.427-0.55,7.888-0.908,12.384-1.357c2.182-0.144,4.453-0.024,6.539,0.509c2.094,0.521,4.004,1.464,5.56,2.606
				c3.12,2.306,4.992,4.982,5.778,6.47c-0.339-0.939-1.146-2.281-2.41-3.822c-1.267-1.527-3.061-3.229-5.438-4.543
				c2.592,1.304,4.639,3.142,6.118,4.824c1.501,1.677,2.473,3.213,2.987,4.232c-0.368-1.005-1.205-2.532-2.605-4.267
				c-1.389-1.727-3.35-3.725-6.056-5.214c-1.349-0.733-2.863-1.325-4.47-1.702c-1.611-0.359-3.288-0.505-4.978-0.515
				c-1.717-0.02-3.34,0.198-4.994,0.291c-1.653,0.12-3.301,0.239-4.915,0.355c2.69-0.299,5.548-0.545,8.475-0.847
				c3.019-0.203,6.139,0.014,8.912,1.039c2.784,0.969,5.005,2.649,6.605,4.175c1.595,1.556,2.652,2.983,3.188,3.977
				c-0.529-1.281-1.911-3.412-4.453-5.593c-1.267-1.08-2.853-2.152-4.732-2.939c-1.875-0.795-4.01-1.273-6.177-1.433
				c-0.541-0.024-1.087-0.048-1.637-0.073c-0.556,0.007-1.115,0.015-1.677,0.022c-1.038,0.074-2.085,0.148-3.137,0.223
				c-2.083,0.139-4.227,0.268-6.326,0.462c-4.204,0.386-8.279,1-11.706,2.052c-0.55,0.158-1.078,0.351-1.592,0.524
				c-1.478,0.751-2.976,1.733-4.258,2.958c-0.638,0.617-1.202,1.305-1.687,2.026C36.349,21.754,35.992,22.55,35.728,23.333"/>
		</g>
	</g>
</g>
<g>
	<g>
		<g>
			<path fill="#D3A476" d="M35.577,32.993c2.062,0.646,5.064,0.446,7.572,1.176c0.219,0.042,0.402,0.078,0.591,0.114
				c0.853,0.108,1.848,0.148,3.003,0.142c0.77,0.004,2.93-0.213,5.736,0.031c1.397,0.132,2.973,0.368,4.535,0.94
				c0.389,0.144,0.77,0.32,1.167,0.482l0.148,0.062c-0.031-0.029,0.078,0.04,0.11,0.055l0.304,0.167l0.61,0.336
				c0.787,0.46,1.505,0.931,2.249,1.509c2.945,2.256,5.354,5.354,7.209,8.048c1.846,2.719,3.246,5.027,3.84,6.375
				c-0.508-1.654-2.214-4.834-4.746-8.577c1.453,1.923,2.685,3.798,3.689,5.375c0.999,1.583,1.788,2.865,2.181,3.758
				c-0.258-0.891-0.924-2.163-1.817-3.769c-0.906-1.597-2.053-3.524-3.48-5.576c-1.425-2.046-3.147-4.225-5.275-6.113
				c-0.521-0.481-1.09-0.913-1.658-1.353c-0.597-0.418-1.191-0.847-1.791-1.179c-1.231-0.757-2.576-1.289-3.912-1.663
				c4.683,1.015,8.97,4.816,11.857,8.508c1.467,1.842,2.666,3.637,3.614,5.151c0.947,1.516,1.64,2.767,1.992,3.623
				c-0.296-1.121-1.189-2.918-2.535-5.182c-1.361-2.243-3.165-5.002-5.712-7.579c-2.502-2.546-5.938-4.959-9.674-5.75
				c-3.676-0.858-7.189-0.772-10.112-0.645c-0.468,0.023-0.924,0.046-1.365,0.068C41.264,32.058,38.388,32.955,35.577,32.993"/>
		</g>
	</g>
</g>
<g>
	<g>
		<g>
			<path fill="#D3A476" d="M25.549,33.287c0.391-0.85,0.649-1.897,0.91-2.996c0.131-0.549,0.27-1.11,0.438-1.664
				c0.183-0.537,0.396-1.059,0.659-1.543c0.074-0.164,0.122-0.317,0.192-0.46c0.132-0.319,0.252-0.666,0.356-1.044
				c0.052-0.19,0.101-0.388,0.145-0.595c0.072-0.191,0.14-0.39,0.205-0.599c0.043-0.139,0.096-0.343,0.158-0.607
				c0.033-0.131,0.059-0.281,0.104-0.438c0.062-0.149,0.128-0.311,0.2-0.485c0.146-0.348,0.289-0.754,0.479-1.196
				c0.252-0.42,0.528-0.879,0.821-1.369c0.074-0.125,0.149-0.251,0.225-0.38c0.097-0.118,0.195-0.238,0.294-0.36
				c0.199-0.245,0.404-0.497,0.613-0.754c0.211-0.26,0.426-0.525,0.646-0.795c0.167-0.21,0.498-0.512,0.746-0.77
				c0.271-0.286,0.537-0.515,0.806-0.745c0.272-0.234,0.537-0.482,0.852-0.699c0.596-0.468,1.25-0.88,1.919-1.284
				c2.716-1.566,5.96-2.353,8.72-2.592c2.771-0.234,5.066-0.026,6.249,0.348c-1.326-0.65-4.427-1.096-8.27-0.646
				c4.075-0.688,7.665-0.401,9.237,0.103c-1.421-0.704-4.883-1.219-9.182-0.715c-2.137,0.268-4.48,0.83-6.682,1.884
				c-1.113,0.495-2.156,1.163-3.158,1.854c-1.005,0.775-1.882,1.493-2.69,2.401c1.255-1.484,2.935-2.908,4.829-4.01
				c1.889-1.116,4.001-1.851,5.996-2.299c4.017-0.877,7.495-0.67,9.045-0.218c-0.933-0.447-2.698-0.744-5.018-0.74
				c-2.308,0.016-5.22,0.368-8.164,1.503c-1.466,0.562-2.939,1.3-4.278,2.25c-1.4,1-2.586,1.999-3.625,3.24
				c-0.524,0.604-1.089,1.138-1.508,1.834c-0.223,0.33-0.443,0.656-0.662,0.979l-0.323,0.482l-0.25,0.531
				c-0.716,1.376-1.138,2.809-1.375,4.105c-0.065,0.416-0.128,0.819-0.188,1.21C25.14,28.403,25.747,30.888,25.549,33.287"/>
		</g>
	</g>
</g>
<g>
	<g>
		<g>
			<path fill="#D3A476" d="M62.325,22.981c-0.336-0.092-0.698-0.165-1.105-0.101c-0.401,0.054-0.842,0.323-1.084,0.75
				c-0.477,0.872-0.354,1.852-0.229,2.748c0.315,1.816,0.966,3.562,1.397,5.262c0.088,0.281,0.177,0.52,0.27,0.772
				c0.45,1.087,1.092,2.308,1.971,3.657c0.449,0.69,1.592,2.275,3.253,4.354c0.831,1.04,1.791,2.203,2.861,3.444
				c0.536,0.62,1.099,1.259,1.696,1.911c0.307,0.324,0.617,0.654,0.932,0.987l0.513,0.507c0.093,0.087,0.186,0.173,0.31,0.277
				l0.094,0.078l0.152,0.109c0,0,0.263,0.162,0.429,0.193l0.047,0.011c0.058,0.011,0.124,0.018,0.197,0.019
				c0.146,0.002,0.324-0.03,0.485-0.108c0.327-0.14,0.523-0.496,0.523-0.53c0.093-0.208,0.118-0.485,0.073-0.697
				c-0.686,0.156-1.37,0.312-2.071,0.472c1.688,5.495,2.528,12.099,2.792,17.835c0.264,5.744,0.125,10.623-0.258,12.948
				c0.582-2.14,0.906-6.921,0.808-12.882c0.307,6.356,0.178,11.84-0.231,14.346c0.581-2.134,0.895-6.884,0.854-12.84
				c-0.062-5.944-0.642-13.142-2.437-19.791l-0.715,0.169c0.052-0.044,0.129-0.054,0.188-0.013c0.008,0.009-0.016-0.02-0.001-0.029
				c0.011,0.004,0.017-0.028,0.027-0.087c0.041-0.182,0.252-0.371,0.175-0.324c-0.015-0.007-0.058-0.044-0.095-0.076L73.9,46.12
				l-0.496-0.517c-0.322-0.362-0.643-0.724-0.962-1.083c0.323,0.345,0.65,0.694,0.982,1.049l0.51,0.505l0.252,0.226
				c0.036,0.028,0.083,0.067,0.094,0.069c-0.005,0.012,0.046-0.039-0.069,0.124c-0.067,0.068-0.117,0.154-0.143,0.249
				c-0.019,0.127-0.05,0.095-0.026,0.127c-0.059-0.042-0.138-0.034-0.19,0.011l0.787-0.188c1.688,5.548,2.496,11.953,2.764,17.432
				c0.271,5.49,0.123,10.071-0.246,12.295c0.544-1.976,0.861-6.222,0.787-11.628c-0.085-5.393-0.637-11.995-2.346-18.34
				l-1.746,0.429c0.077-0.101,0.237,0.038,0.188-0.043c0.019-0.043,0.064-0.263,0.17-0.342c0.113-0.167,0.258-0.407,0.409-0.588
				c0.077-0.096,0.157-0.188,0.241-0.277c0.074-0.072,0.015-0.025,0.029-0.043c-0.019-0.013-0.066-0.055-0.118-0.104L74.43,45.14
				l-0.719-0.788c-0.479-0.542-0.953-1.099-1.417-1.658c-0.93-1.12-1.825-2.251-2.683-3.368c-1.712-2.236-3.264-4.423-4.555-6.455
				c-0.32-0.509-0.63-1.005-0.915-1.493c-1.026-1.373-2.125-2.843-2.948-4.477c-0.386-0.813-0.759-1.692-0.729-2.572
				c0.017-0.431,0.184-0.859,0.562-1.088C61.396,22.998,61.861,22.958,62.325,22.981"/>
		</g>
	</g>
</g>
<g>
	<g>
		<g>
			<path fill="#D3A476" d="M27.624,36.521c-0.499-0.593-1.23-1.076-1.934-1.642c-0.32-0.308-0.637-0.621-0.923-0.949
				c-0.143-0.164-0.278-0.331-0.402-0.503c-0.116-0.191-0.216-0.398-0.304-0.604c-0.076-0.128-0.138-0.233-0.201-0.341
				c-0.162-0.222-0.351-0.443-0.571-0.663c-0.211-0.229-0.414-0.497-0.673-0.748c-0.339-0.333-1.418-1.177-2.471-2.682
				c-1.072-1.472-2.086-3.671-2.216-6.132c-0.175-2.45,0.608-5.021,1.834-6.835c1.186-1.863,2.736-2.927,3.655-3.237
				c-0.584,0.103-1.468,0.422-2.319,1.185c-0.446,0.359-0.941,0.768-1.346,1.324c-0.215,0.271-0.436,0.55-0.663,0.837
				c-0.234,0.286-0.379,0.642-0.577,0.977c0.309-0.78,0.788-1.43,1.222-2.054c0.398-0.655,0.969-1.105,1.412-1.578
				c0.442-0.479,0.949-0.788,1.377-1.057c0.431-0.266,0.81-0.46,1.123-0.571c-0.322,0.049-0.712,0.185-1.161,0.398
				c-0.437,0.227-0.988,0.465-1.464,0.909c-1.018,0.808-2.151,1.992-2.986,3.571c-0.923,1.531-1.41,3.491-1.53,5.461
				c-0.15,1.991,0.352,4.004,1.07,5.759c-1.527-2.81-1.771-6.943-0.551-10.176c0.334-0.782,0.692-1.537,1.083-2.206
				c0.448-0.631,0.864-1.234,1.296-1.733c0.943-0.924,1.742-1.625,2.42-1.833c-0.22,0.043-0.469,0.124-0.743,0.237
				c-0.27,0.119-0.533,0.314-0.832,0.524c-0.591,0.429-1.288,0.972-1.888,1.772c-0.299,0.396-0.683,0.77-0.937,1.264
				c-0.275,0.479-0.554,0.987-0.833,1.516c-0.235,0.55-0.423,1.145-0.631,1.744c-0.229,0.594-0.27,1.258-0.403,1.904
				c-0.379,2.625,0.099,5.494,1.234,7.882c1.117,2.411,2.808,4.317,4.396,5.71c0.269,0.205,0.531,0.404,0.785,0.598
				c0.451,0.208,0.89,0.434,1.377,0.606c0.493,0.157,0.993,0.316,1.478,0.471c0.476,0.181,0.956,0.285,1.431,0.413
				C26.727,36.172,27.187,36.329,27.624,36.521"/>
		</g>
	</g>
</g>
<g>
	<g>
		<g>
			<path fill="#D3A476" d="M23.104,36.519c-0.314-0.512-0.706-0.989-1.283-1.396c-0.279-0.211-0.574-0.446-0.867-0.689
				c-0.29-0.219-0.575-0.468-0.846-0.769c-0.096-0.084-0.183-0.153-0.275-0.223c-0.418-0.249-0.953-0.414-1.597-0.525
				c-0.43-0.037-1.66-0.041-3.235,0.218c-1.573,0.29-3.484,0.861-5.23,1.804c-1.757,0.925-3.287,2.24-4.329,3.531
				c-0.249,0.335-0.49,0.649-0.725,0.939c-0.191,0.319-0.374,0.617-0.557,0.884c-0.4,0.518-0.597,1.01-0.902,1.299
				c0.815-0.621,1.737-2.145,3.349-3.59c-1.621,1.688-2.26,3.528-2.975,4.294c0.909-0.633,1.66-2.301,3.332-3.806
				c1.589-1.565,4.118-2.793,6.656-3.331c-2.092,0.579-4.285,1.764-5.751,3.111c-1.521,1.322-2.236,2.782-2.92,3.376
				c1.128-0.597,2.274-2.592,4.858-3.945c2.482-1.404,6.07-2.083,8.656-1.656c0.208,0.028,0.409,0.056,0.604,0.083
				c0.607-0.039,1.335-0.183,2.006-0.126C21.778,35.998,22.5,36.21,23.104,36.519"/>
		</g>
	</g>
</g>
<g>
	<g>
		<g>
			<path fill="#D3A476" d="M18.14,32.004c-0.265-0.491-0.672-0.89-1.122-1.304c-0.469-0.394-0.964-0.874-1.379-1.454
				c-0.076-0.085-0.145-0.155-0.219-0.226c-0.334-0.28-0.778-0.505-1.346-0.635c-0.371-0.091-1.466-0.232-2.938-0.125
				c-1.458,0.093-3.32,0.475-4.92,1.416c-1.622,0.916-2.807,2.354-3.545,3.635c-0.778,1.276-1.206,2.401-1.712,2.932
				c0.804-0.531,1.477-1.988,2.719-3.473c-1.191,1.704-1.61,3.432-2.301,4.108c0.882-0.546,1.458-2.16,2.727-3.684
				c0.597-0.791,1.418-1.479,2.364-2.048c0.951-0.578,2.103-0.864,3.232-1.019c-1.92,0.316-3.745,1.475-4.801,2.798
				c-1.063,1.351-1.649,2.753-2.26,3.346c1.073-0.585,1.947-2.667,3.871-3.903c0.946-0.635,2.186-1.064,3.52-1.185
				c1.329-0.128,2.702,0.02,3.853,0.293c0.185,0.042,0.361,0.102,0.533,0.152C15.573,31.53,17.013,31.464,18.14,32.004"/>
		</g>
	</g>
</g>
<g>
	<g>
		<g>
			<path fill="#D3A476" d="M26.762,37.43c-0.922-0.527-2.066-0.394-3.144-1.17c-0.089-0.048-0.167-0.084-0.249-0.119
				c-0.353-0.115-0.777-0.155-1.258-0.103c-0.323,0.041-1.222,0.277-2.432,0.671c-1.206,0.408-2.734,0.99-4.139,1.867
				c-1.418,0.861-2.598,2.073-3.352,3.211c-0.792,1.123-1.23,2.14-1.739,2.606c0.798-0.455,1.496-1.742,2.726-3.009
				c-1.188,1.484-1.63,3.028-2.316,3.62c0.876-0.465,1.468-1.88,2.717-3.171c0.582-0.682,1.384-1.26,2.262-1.802
				c0.897-0.52,1.926-0.906,2.944-1.229c-1.681,0.65-3.4,1.704-4.443,2.862c-1.042,1.168-1.616,2.358-2.226,2.86
				c1.074-0.486,1.898-2.143,3.782-3.282c1.846-1.212,4.811-1.91,7.091-2.233c0.183-0.026,0.362-0.051,0.534-0.075
				C24.536,38.407,25.667,37.614,26.762,37.43"/>
		</g>
	</g>
</g>
<g>
	<g>
		<g>
			<path fill="#D3A476" d="M29.201,34.631c0.338-0.788,0.657-1.672,0.971-2.616c0.374-0.918,0.75-1.873,1.166-2.832
				c0.924-1.888,1.985-3.808,3.411-5.21c0.216-0.257,0.401-0.478,0.594-0.708c0.43-0.508,0.919-1.04,1.404-1.649
				c0.509-0.591,1.104-1.188,1.699-1.876c0.872-0.812,3.14-3.445,7.259-5.58c4.038-2.215,9.983-3.609,16.052-2.98
				c3.025,0.293,6.052,1.055,8.817,2.198c2.771,1.138,5.272,2.658,7.354,4.312c1.069,0.796,1.964,1.706,2.825,2.529
				c0.794,0.891,1.573,1.693,2.153,2.537c0.301,0.41,0.588,0.802,0.86,1.175c0.236,0.394,0.459,0.767,0.669,1.119
				c0.417,0.699,0.744,1.318,0.939,1.866c-0.37-1.279-1.376-3.171-3.022-5.35c-1.667-2.153-4.091-4.511-7.214-6.497
				c3.388,2.033,6.11,4.604,8.029,7.012c1.96,2.395,3.027,4.673,3.596,6.109c-0.21-0.683-0.543-1.578-1.035-2.624
				c-0.551-1.008-1.196-2.213-2.125-3.429c-1.794-2.467-4.462-5.173-7.929-7.431c-3.486-2.198-7.73-3.999-12.292-4.7
				c-1.132-0.222-2.29-0.289-3.442-0.398c-1.158-0.018-2.317-0.088-3.472,0.011c-1.157,0.028-2.299,0.212-3.434,0.355
				c-1.12,0.236-2.246,0.416-3.318,0.764c1.775-0.582,3.701-0.929,5.684-1.177c0.995-0.058,2.005-0.193,3.023-0.16l1.534,0.005
				l1.536,0.112c4.111,0.306,8.152,1.551,11.645,3.251c3.501,1.705,6.411,3.95,8.509,6.131c1.024,1.115,1.936,2.137,2.591,3.123
				c0.709,0.944,1.181,1.826,1.521,2.521c-0.173-0.439-0.409-0.958-0.71-1.544c-0.338-0.561-0.742-1.188-1.206-1.876
				c-0.467-0.686-1.072-1.364-1.695-2.126c-0.66-0.725-1.404-1.476-2.224-2.235c-1.667-1.492-3.695-2.954-6.021-4.249
				c-2.344-1.26-4.996-2.311-7.837-3.018c-5.671-1.438-12.137-1.342-17.855,0.566c-2.855,0.947-5.504,2.321-7.784,3.968
				c-2.285,1.646-4.199,3.546-5.747,5.464c-0.463,0.638-0.914,1.258-1.35,1.859C31.111,25.306,29.998,30.17,29.201,34.631"/>
		</g>
	</g>
</g>
<g>
	<g>
		<g>
			<path fill="#D3A476" d="M71.258,24.058c0.048,2.447,1.532,5.618,2.229,8.507c0.078,0.245,0.145,0.451,0.213,0.664
				c0.36,0.929,0.867,1.967,1.509,3.13c0.399,0.788,1.813,2.827,2.879,5.805c0.519,1.487,0.897,3.26,0.966,5.157
				c0.016,1.018,0.032,2.065,0.048,3.129c-0.057,1.04-0.115,2.096-0.173,3.156c-0.348,4.29-1.1,8.685-1.64,12.407
				c-0.597,3.721-0.874,6.797-1.232,8.438c0.595-1.866,1.201-5.933,2.165-10.979c-0.402,2.711-0.754,5.231-0.988,7.348
				c-0.161,1.056-0.229,2.013-0.316,2.841c-0.093,0.828-0.202,1.526-0.33,2.068c0.179-0.494,0.339-1.146,0.481-1.932
				c0.148-0.786,0.237-1.705,0.446-2.731c0.328-2.057,0.752-4.55,1.256-7.318c0.495-2.764,1.045-5.814,1.437-8.969
				c0.12-0.782,0.155-1.599,0.233-2.399c0.052-0.802,0.174-1.614,0.163-2.405c0.011-0.793,0.021-1.586,0.033-2.373
				c0.004-0.377,0.021-0.807-0.021-1.207c-0.028-0.399-0.057-0.797-0.085-1.193c0.559,5.201-0.129,11.345-0.965,16.512
				c-0.412,2.589-0.767,4.969-1.101,6.952c-0.246,1.981-0.581,3.574-0.781,4.588c0.114-0.303,0.22-0.669,0.317-1.092
				c0.124-0.424,0.251-0.905,0.371-1.438c0.237-1.065,0.456-2.334,0.768-3.773c0.537-2.868,1.293-6.413,1.859-10.32
				c0.312-1.926,0.492-4.04,0.653-6.133l0.049-3.036l0.006-0.379l0.003-0.189c-0.002-0.189-0.009-0.17-0.013-0.265l-0.055-0.816
				c-0.022-0.544-0.092-1.082-0.187-1.614c-0.33-2.136-1.023-4.141-1.843-5.92c-0.821-1.783-1.745-3.366-2.588-4.796
				c-0.268-0.456-0.529-0.899-0.782-1.33c-0.923-1.196-1.922-2.437-2.828-3.775C72.523,27.038,71.755,25.586,71.258,24.058"/>
		</g>
	</g>
</g>
<g>
	<g>
		<g>
			<path fill="#D9AA80" d="M91.268,21.367c-0.44,2.273-0.169,5.454-0.91,8.156c-0.041,0.235-0.075,0.433-0.111,0.637
				c-0.094,0.92-0.146,1.998-0.128,3.263c-0.003,1.666,0.852,9.473-0.8,17.447c-0.799,3.973-2.277,7.903-4.02,10.971
				c-0.46,0.752-0.898,1.47-1.311,2.145c-0.459,0.644-0.913,1.229-1.329,1.762c-0.805,1.088-1.659,1.817-2.247,2.309
				c1.581-0.893,4.255-3.848,6.513-8.188c-2.187,4.752-5.203,8.224-6.835,9.48c1.656-0.987,4.81-4.196,7.282-9.063
				c2.57-4.808,4.11-11.184,4.537-17.056c-0.021,1.226-0.192,2.493-0.304,3.8c-0.174,1.296-0.36,2.628-0.632,3.949
				c-0.293,1.316-0.571,2.646-0.995,3.917c-0.354,1.293-0.845,2.519-1.319,3.704c-1.923,4.752-4.689,8.259-6.266,9.551
				c0.27-0.171,0.586-0.39,0.911-0.678c0.314-0.297,0.656-0.649,1.023-1.051c0.366-0.402,0.758-0.853,1.169-1.349
				c0.375-0.521,0.768-1.088,1.177-1.695c1.603-2.438,3.244-5.67,4.326-9.335c1.121-3.652,1.771-7.665,2.029-11.517
				c0.264-3.856,0.193-7.553,0.049-10.702c-0.012-0.505-0.056-0.994-0.078-1.468C92.487,27.494,91.552,24.37,91.268,21.367"/>
		</g>
	</g>
</g>
<g>
	<g>
		<g>
			<path fill="#D3A476" d="M67.556,18.885c0.823,0.437,1.837,0.727,2.699,1.296c0.883,0.54,1.601,1.318,1.876,2.247
				c0.063,0.148,0.116,0.271,0.171,0.397c0.266,0.566,0.614,1.187,1.068,2.011c0.319,0.516,1.236,2.08,2.606,4.266
				c0.352,0.541,0.723,1.113,1.141,1.7c0.388,0.569,0.792,1.163,1.208,1.774c0.824,1.247,1.741,2.556,2.57,3.909
				c0.769,1.39,1.542,2.787,2.285,4.131c0.674,1.392,1.197,2.797,1.709,4.072c0.55,1.264,0.796,2.497,1.015,3.529
				c0.209,1.035,0.326,1.89,0.319,2.497c0.188-1.408-0.129-4.497-1.544-8.026c0.389,0.934,0.755,1.841,1.089,2.702
				c0.337,0.859,0.489,1.72,0.69,2.483c0.361,1.54,0.573,2.798,0.565,3.609c0.129-0.766,0.032-1.989-0.229-3.533
				c-0.144-0.768-0.273-1.633-0.535-2.528c-0.292-0.886-0.624-1.832-0.985-2.82c-0.642-2.008-1.753-4.039-2.812-6.132
				c-0.507-1.067-1.157-2.036-1.757-3.041c-0.61-0.995-1.219-1.987-1.814-2.958c1.054,1.573,2.205,3.272,3.32,5.011
				c0.998,1.831,2.093,3.658,2.899,5.456c0.735,1.825,1.451,3.52,1.867,4.993c0.347,1.495,0.551,2.719,0.548,3.523
				c0.079-0.502,0.065-1.191-0.024-2.032c-0.111-0.834-0.198-1.852-0.575-2.914c-0.332-1.076-0.736-2.262-1.191-3.522
				c-0.117-0.314-0.226-0.637-0.357-0.956c-0.149-0.312-0.301-0.628-0.455-0.948c-0.312-0.637-0.634-1.289-0.96-1.953
				c-0.332-0.658-0.67-1.328-1.012-2.004c-0.36-0.652-0.755-1.271-1.137-1.911c-0.782-1.275-1.57-2.561-2.345-3.825
				c-1.561-2.365-2.693-4.923-4.155-7.11c-0.22-0.352-0.496-0.679-0.739-1.001c-0.929-0.848-2.146-1.534-3.385-1.86
				C69.949,19.074,68.713,19.011,67.556,18.885"/>
		</g>
	</g>
</g>
<path fill-rule="evenodd" clip-rule="evenodd" fill="#CEA66F" d="M3.774,72.765c5.4-6.495,11.731-7.076,18.641-4.539
	c1.105,0.406,1.869,0.588,2.204-0.686c0.319-1.216,0.796-2.595-0.768-3.397c-4.401-2.258-8.964-2.593-13.565-0.775
	C6.419,64.895,3.87,67.535,3.774,72.765z"/>
<path fill-rule="evenodd" clip-rule="evenodd" fill="#CEA66F" d="M58.305,72.545c-5.907-7.107-12.834-7.742-20.396-4.965
	c-1.208,0.444-2.045,0.643-2.412-0.75c-0.348-1.332-0.872-2.839,0.84-3.717c4.816-2.471,9.808-2.837,14.843-0.85
	C55.412,63.934,58.201,66.824,58.305,72.545z"/>
<path opacity="0.4" fill-rule="evenodd" clip-rule="evenodd" fill="#FAAFA3" d="M17.667,95.934
	c6.431-7.051,8.238-15.524,7.526-24.775C23.173,79.566,19.396,87.434,17.667,95.934z"/>
<g>
	<path fill-rule="evenodd" clip-rule="evenodd" fill="#FBB0A1" d="M27.702,112.035c4.815-0.637,9.628-1.283,14.447-1.909
		c1.551-0.2,3.52-0.524,2.729,2.017c-1.906,6.106-4.459,11.883-10.713,14.937c-8.08,3.944-13.519,0.264-19.429-5.61
		c-1.747-1.736-4.701-3.969-3.748-6.399c0.862-2.201,4.449-1.239,6.816-1.681C21.074,112.779,24.399,112.471,27.702,112.035z"/>
	<path fill-rule="evenodd" clip-rule="evenodd" fill="#FEFDFD" d="M41.693,112.587c-2.528,7.206-7.284,11.142-13.581,11.633
		c-4.265,0.332-11.821-3.729-13.019-6.92c-0.403-1.079,0.364-1.233,1.273-1.352C24.681,114.835,32.999,113.739,41.693,112.587z"/>
</g>
<g>
	<g>
		<g>
			<path fill="#D3B074" d="M33.617,16.515c0.592,0.119,1.242,0.22,1.935,0.255c0.692-0.028,1.476-0.014,2.226-0.127
				c0.754-0.102,1.542-0.183,2.302-0.327c0.775-0.112,1.546-0.223,2.295-0.31c0.257-0.047,0.473-0.087,0.697-0.129
				c0.973-0.262,2.097-0.665,3.324-1.28c0.839-0.389,3.029-1.7,5.909-3.411c1.442-0.848,3.062-1.796,4.827-2.673
				c1.761-0.891,3.673-1.728,5.689-2.235c2.027-0.532,4.123-0.728,6.027-0.105c1.891,0.659,3.425,2.009,4.733,3.309
				c1.315,1.308,2.51,2.533,3.62,3.476c1.114,0.935,2.088,1.645,2.768,2.159c-0.374-0.317-0.817-0.786-1.396-1.238
				c-0.542-0.508-1.187-1.063-1.852-1.741c-1.369-1.312-2.782-3.12-4.727-4.816c1.079,0.854,2.012,1.792,2.893,2.656
				c0.879,0.865,1.709,1.662,2.512,2.333c1.589,1.371,3.073,2.181,3.97,2.828c-0.767-0.713-2.131-1.543-3.613-2.93
				c-0.74-0.695-1.54-1.472-2.379-2.38c-0.854-0.89-1.75-1.889-2.863-2.844c-1.108-0.947-2.504-1.818-4.103-2.21
				c-0.392-0.132-0.799-0.174-1.208-0.222c-0.406-0.059-0.817-0.103-1.24-0.076c-0.413,0.016-0.858-0.001-1.246,0.05l-1.156,0.167
				c-3.247,0.556-6.197,1.914-8.964,3.286c2.25-1.218,4.778-2.462,7.569-3.22c0.368-0.094,0.654-0.188,1.094-0.28l1.025-0.175
				c0.638-0.152,1.496-0.126,2.25-0.167c1.517,0.068,3.044,0.469,4.337,1.17c1.31,0.689,2.316,1.611,3.205,2.442
				c0.889,0.85,1.632,1.638,2.324,2.341c1.366,1.396,2.513,2.372,3.256,3.04c-0.826-0.949-2.283-2.373-4.223-4.582
				c-0.997-1.075-2.166-2.394-3.909-3.507c-0.22-0.135-0.441-0.27-0.665-0.406c-0.243-0.112-0.488-0.225-0.735-0.339
				c-0.484-0.25-1.025-0.382-1.563-0.537C67.486,3.486,66.365,3.4,65.177,3.46l-0.435,0.016l-0.359,0.05l-0.724,0.102l-0.363,0.051
				l-0.183,0.026L63.005,3.72L62.98,3.726l-0.048,0.011L62.835,3.76l-0.776,0.183c-1.051,0.216-2.041,0.579-3.047,0.909
				c-1.969,0.739-3.845,1.631-5.638,2.551c-3.562,1.862-6.826,3.815-9.723,5.194c-0.464,0.218-0.916,0.429-1.353,0.634
				C39.815,14.753,36.851,16.437,33.617,16.515"/>
		</g>
	</g>
</g>
</svg>
