<?xml version="1.0" encoding="utf-8"?>
<!-- Generator: Adobe Illustrator 16.0.4, SVG Export Plug-In . SVG Version: 6.00 Build 0)  -->
<!DOCTYPE svg PUBLIC "-//W3C//DTD SVG 1.1//EN" "http://www.w3.org/Graphics/SVG/1.1/DTD/svg11.dtd">
<svg version="1.1" id="Layer_1" xmlns="http://www.w3.org/2000/svg" xmlns:xlink="http://www.w3.org/1999/xlink" x="0px" y="0px"
	 width="100px" height="140px" viewBox="0 0 100 140" enable-background="new 0 0 100 140" xml:space="preserve">
<path fill-rule="evenodd" clip-rule="evenodd" fill="#FADBD2" d="M76.08,133.623c-6.247,6.412-14.345,5.805-21.742,4.289
	c-17.567-3.598-26.321-17.079-32.681-32.262c-2.207-5.269-2.986-10.094-10.239-11.616c-7.417-1.558-12.424-15.913-9.445-23.02
	c1.833-4.373,6.256-3.967,9.603-5.557c2.253-1.29,4.936,3.388,7.024-0.535c2.135-4.011,6.627-7.252,3.823-12.792
	c-3.733-7.376-3.316-14.589,2.27-20.745c5.698-6.28,12.964-8.242,21.41-6.299c6.696,1.541,13.219,3.549,19.125,6.962
	c4.684,2.708,9.036,3.767,13.946,0.963c1.235-0.706,2.714-1.079,4.108-0.113c7.87,8.025,10.106,18.615,12.726,28.889
	c3.462,13.592,4.675,27.375,1.012,41.201c-0.2,0.755-0.719,1.425-1.088,2.133c-1.518-1.116-1.513-2.855-1.753-4.457
	c-0.993-6.657-3.896-12.094-9.699-15.82c-1.53-0.983-3.204-2.021-3.618-4.022c-0.182-0.877-0.166-1.644-1.352-0.919
	c-3.756,2.295-7.672,0.695-11.481,0.312c-4.605-0.462-6.548,3.722-9.953,5.371c-7.705,3.732-12.855,10.258-15.9,18.218
	c-3.18,8.315-2.549,16.428,3.521,23.227c6.208,6.955,14.634,7.728,23.339,6.892C71.38,133.699,73.644,131.715,76.08,133.623z"/>
<path fill-rule="evenodd" clip-rule="evenodd" fill="#72200D" d="M83.28,32.899c-6.594,4.139-12.813,4.77-19.827,0.063
	c-6.137-4.119-13.497-6.031-20.924-6.834c-7.246-0.783-13.351,1.533-17.821,7.539c-4.157,5.585-4.304,11.613-0.947,17.358
	c2.31,3.953,2.418,6.999-0.799,10.24c-0.845,0.851-1.444,2.016-1.943,3.132c-2.574,5.752-5.728,5.795-9.444,1.059
	c-2.202-8.124-5.092-16.073-5.132-24.688C6.351,20.855,16.882,7.711,36.411,3.371c13.897-3.088,26.974-0.98,40.674,6.499
	c-1.692-2.753-2.679-4.355-4.081-6.636c5.546,1.665,9.112,4.885,12.69,9.269c0.225-2.152,0.375-3.567,0.513-4.88
	c4.223,0.556,1.063,8.43,7.628,7.335C93.39,22.362,89.079,28.039,83.28,32.899z"/>
<path fill-rule="evenodd" clip-rule="evenodd" fill="#995345" d="M76.08,133.623c-6.132,1.812-12.075,2.388-18.712,1.514
	c-14.427-1.9-23.421-18.318-15.963-33.967c3.909-8.199,9.783-14.659,18.297-18.391c0.754-0.329,1.991-0.641,2.113-1.167
	c1.298-5.601,5.315-2.798,8.211-2.546c4.646,0.403,9.26,1.412,13.011-3.661c-2.337,5.434,0.832,7.222,4.275,9.606
	c6.884,4.768,8.696,12.133,8.615,20.11C93.411,117.477,87.915,127.756,76.08,133.623z"/>
<path fill-rule="evenodd" clip-rule="evenodd" fill="#F8C0B4" d="M10.327,72.503c-5.056,3.823-5.056,3.823,0.658,14.172
	c-5.001-1.431-8.126-11.853-4.563-15.306c1.515-1.467,3.547-1.45,5.203-0.75c2.498,1.057,4.579,2.872,4.792,5.876
	c0.143,2.002,0.562,4.311-1.607,5.564c-2.551,1.476-4.211,0.284-5.327-2.179C8.294,77.259,9.381,74.948,10.327,72.503z"/>
<path fill-rule="evenodd" clip-rule="evenodd" fill="#72200D" d="M49.198,60.631c1.893-2.836,3.53-7.443,6.276-7.077
	c4.491,0.599,8.889,2.565,13.599,2.897c0.952,0.067,1.071,1.125,0.856,1.94c-0.243,0.923-1.062,1.149-1.897,1.106
	c-2.243-0.118-4.653,0.185-6.693-0.538C56.937,57.401,53.091,57.933,49.198,60.631z"/>
<path fill-rule="evenodd" clip-rule="evenodd" fill="#72200D" d="M91.861,60.45c-3.36-4.33-7.16-1.086-10.712-1.084
	c-1.429,0.001-3.663,1.037-3.8-1.589c-0.114-2.208,2.007-1.429,3.231-1.79c0.587-0.172,1.314-0.109,1.773-0.439
	C88.077,51.423,90.311,55.127,91.861,60.45z"/>
<path fill-rule="evenodd" clip-rule="evenodd" fill="#222B31" d="M64.787,66.07c-0.537,2.407-1.743,4.101-4.146,3.935
	c-1.978-0.135-3.368-1.442-3.424-3.659c-0.057-2.247,1.233-3.466,3.306-3.694C63.064,62.371,64.07,64.15,64.787,66.07z"/>
<path fill-rule="evenodd" clip-rule="evenodd" fill="#283238" d="M83.286,62.569c2.148,0.132,3.616,1.283,3.793,3.344
	c0.206,2.412-1.349,3.996-3.651,4.104c-2.428,0.115-3.792-1.568-3.749-3.944C79.719,63.901,81.232,62.869,83.286,62.569z"/>
<path fill-rule="evenodd" clip-rule="evenodd" fill="#FBFCFC" d="M53.653,95.319c11.837,0,22.689,0,33.563,0
	C82.393,104.767,62.845,105.224,53.653,95.319z"/>
<path fill-rule="evenodd" clip-rule="evenodd" fill="none" stroke="#000000" stroke-width="1.1764" stroke-miterlimit="10" d="
	M70.257,66.324c0.324,3.606-2.662,6.823-6.671,7.182l-10.189,0.917c-4.008,0.36-7.52-2.27-7.845-5.876l-0.025-0.279
	c-0.325-3.606,2.662-6.822,6.669-7.182l10.19-0.917c4.008-0.36,7.521,2.271,7.845,5.877L70.257,66.324z"/>
<path fill-rule="evenodd" clip-rule="evenodd" fill="none" stroke="#000000" stroke-width="1.1764" stroke-miterlimit="10" d="
	M98.781,65.083c0.325,3.606-2.662,6.823-6.671,7.182l-10.189,0.917c-4.007,0.36-7.52-2.271-7.844-5.876l-0.025-0.279
	c-0.325-3.606,2.662-6.821,6.669-7.182l10.19-0.917c4.008-0.36,7.521,2.271,7.845,5.877L98.781,65.083z"/>
<path fill-rule="evenodd" clip-rule="evenodd" fill="none" stroke="#000000" stroke-width="1.6192" stroke-miterlimit="10" d="
	M70.009,64.742c1.394,0.131,2.789-0.522,4.322-0.391"/>
<g>
	<g>
		<path d="M45.153,66.635c-8.133,0.068-15.742-3.193-23.162-6.168c-1.114-0.447-1.593,1.353-0.494,1.794
			c7.586,3.042,15.345,6.304,23.656,6.234C46.352,68.485,46.353,66.625,45.153,66.635L45.153,66.635z"/>
	</g>
</g>
</svg>
