<?xml version="1.0" encoding="utf-8"?>
<!-- Generator: Adobe Illustrator 16.0.4, SVG Export Plug-In . SVG Version: 6.00 Build 0)  -->
<!DOCTYPE svg PUBLIC "-//W3C//DTD SVG 1.1//EN" "http://www.w3.org/Graphics/SVG/1.1/DTD/svg11.dtd">
<svg version="1.1" id="Layer_1" xmlns="http://www.w3.org/2000/svg" xmlns:xlink="http://www.w3.org/1999/xlink" x="0px" y="0px"
	 width="100px" height="140px" viewBox="0 0 100 140" enable-background="new 0 0 100 140" xml:space="preserve">
<path fill-rule="evenodd" clip-rule="evenodd" fill="#DBAB9C" d="M31.98,132.64c-12.875-1.328-18.376-7.808-18.926-21.372
	c-0.102-2.521,1.854-6.11-2.453-7.372c-1.234-2.736-0.183-5.641-0.655-8.471c-0.956-5.729-3.59-10.356-8.047-14.005
	c3.908-3.913,5.838,1.761,9.332,2.119c-0.537-8.125-1.055-15.949-1.573-23.774c1.819-4.837,4.063-9.47,4.62-14.788
	c0.501-4.792,4.223-6.992,8.68-7.618c4.333-0.608,8.709-0.449,13.065,0.121c9.944,1.3,19.907,1.24,29.85,0.062
	c4.155-0.493,8.305-0.711,12.448-0.329c7.47,0.688,11.177,4.854,10.904,12.357c-0.087,2.375,0.241,4.525,1.246,6.623
	c-2.058,8.729-0.394,17.571-1.264,26.466c3.39,0.412,5.525-5.155,8.893-1.207c-7.072,5.849-7.945,14.088-8.629,22.398
	c-4.658,1.754-2.386,5.764-2.404,8.635c-0.053,7.186-1.964,13.966-8.193,17.196c-6.88,3.568-12.684,4.833-21.078,6.45
	c-6.356,1.472-6.803,0.783-13.814,0"/>
<path fill-rule="evenodd" clip-rule="evenodd" fill="#563B2C" fill-opacity="0.1" d="M86.531,107.745
	c1.771,9.757-1.487,18.706-7.717,21.937c-6.881,3.568-12.684,4.833-21.079,6.45c-6.354,1.472-6.802,0.783-13.812,0L31.92,132.64
	c-12.875-1.328-20.141-9.549-18.512-25.286l15.28-4.755l46.328-3.088L86.531,107.745z"/>
<path fill-rule="evenodd" clip-rule="evenodd" fill="#230C02" d="M90.473,56.193c-2.382-1.75-3.128-3.87-2.866-6.991
	c0.55-6.527-2.354-9.768-8.838-10.338c-3.089-0.271-6.269-0.13-9.351,0.263c-12.91,1.646-25.765,1.034-38.674-0.206
	c-11.928-1.146-13.757,0.757-15.382,12.364c-0.482,3.448-2.561,6.485-5.704,8.478c-0.189-3.95,0.085-7.992-0.665-11.834
	c-1.549-7.936,2.476-12.786,8.522-16.453C38.072,19.011,58.87,18.409,80.343,29.66C92.049,35.794,92.325,45.363,90.473,56.193z"/>
<path fill-rule="evenodd" clip-rule="evenodd" fill="#BF8B67" d="M89.473,103.851c-3.229-8.132,0.854-14.686,4.68-21.245
	c0.815-1.396,2.506-1.186,3.95-1.153C101.535,90.606,97.125,102.05,89.473,103.851z"/>
<path fill-rule="evenodd" clip-rule="evenodd" fill="#BF8B67" d="M1.899,81.42c7.119,1.628,11.656,12.124,9.212,21.343
	c-0.104,0.395-0.336,0.756-0.51,1.133C2.475,100.674-1.348,90.8,1.899,81.42z"/>
<path fill-rule="evenodd" clip-rule="evenodd" fill="#230C02" d="M21.356,70.267c2.959-10.014,14.627-13.661,21.735-6.714
	c0.644,0.63,1.007,2.188,0.699,3.018c-0.644,1.729-2.33,1.075-3.75,1.02C27.445,67.101,27.445,67.117,21.356,70.267z"/>
<path fill-rule="evenodd" clip-rule="evenodd" fill="#230C02" d="M81.136,70.121c-4.901-5.194-10.701-4.835-16.792-3.458
	c-1.634,0.369-4.02,1.482-4.425-1.614c-0.296-2.255,1.694-2.292,3.176-2.845C75.099,57.717,77.135,58.53,81.136,70.121z"/>
<path fill-rule="evenodd" clip-rule="evenodd" fill="#AF7E5D" d="M57.79,85.522c0.172,5.196-3.821,6.214-7.025,6.902
	c-3.699,0.794-6.518-1.714-8.586-4.707c-0.234-0.339,0.009-1.278,0.348-1.646c0.235-0.255,1.073-0.148,1.544,0.041
	C51.792,89.229,51.789,89.238,57.79,85.522z"/>
<path fill-rule="evenodd" clip-rule="evenodd" fill="#AF7E5D" d="M54.944,84.251c-3.924-8.425-3.324-12.673,1.988-19.597
	C56.22,71.679,55.581,77.966,54.944,84.251z"/>
<path fill-rule="evenodd" clip-rule="evenodd" fill="#231105" d="M80.206,80.534c-0.375,5.139-3.767,9.079-7.575,8.8l-9.681-0.708
	c-3.807-0.278-6.59-4.669-6.215-9.808l0.03-0.397c0.376-5.138,3.769-9.077,7.575-8.799l9.681,0.708
	c3.807,0.279,6.589,4.67,6.213,9.809L80.206,80.534z"/>
<path fill-rule="evenodd" clip-rule="evenodd" fill="#231105" d="M45.294,79.468c0.172,5.237-2.781,9.587-6.598,9.711l-9.701,0.318
	c-3.816,0.126-7.049-4.021-7.221-9.26l-0.012-0.404c-0.172-5.239,2.783-9.587,6.599-9.711l9.7-0.318
	c3.816-0.125,7.048,4.021,7.221,9.26L45.294,79.468z"/>
<g>
	<g>
		<g>
			<g>
				<path fill="#300D03" d="M67.368,31.38c-1.083-1.131-2.398-1.694-3.771-2.35c-1.411-0.594-2.951-1.271-4.455-2.689
					c-0.24-0.176-0.449-0.31-0.668-0.441c-0.951-0.437-2.073-0.634-3.337-0.51c-0.808,0.073-3.113,0.84-6.023,1.737
					c-0.746,0.242-1.518,0.466-2.321,0.676c-0.806,0.213-1.665,0.461-2.54,0.665c-0.876,0.169-1.778,0.342-2.693,0.519l-0.701,0.128
					l-0.694,0.065c-0.47,0.041-0.941,0.082-1.414,0.122c-3.763,0.374-7.706-0.398-10.855-1.713c-3.155-1.303-5.499-2.92-6.389-4.583
					c0.658,2.612,3.555,5.156,7.916,7.174c-2.473-0.712-4.65-1.678-6.354-2.671c-1.694-1.008-2.931-2.045-3.507-3.16
					c0.338,1.418,1.336,2.739,2.839,4.042c1.523,1.284,3.544,2.578,6.072,3.65c1.277,0.522,2.586,1.023,4.145,1.399
					c0.379,0.095,0.761,0.191,1.145,0.287c0.36,0.07,0.703,0.119,1.059,0.177l1.065,0.164l0.268,0.04l0.067,0.01l0.138,0.026
					l0.018,0.001l0.036,0.002l0.144,0.008l0.577,0.029c3.079,0.207,6.187,0.065,9.079-0.341c-4.77,1.153-10.824,1.94-16.298,0.368
					c-2.615-0.66-4.793-1.626-6.483-2.595c-1.668-0.99-2.818-2.008-3.35-3.087c0.397,1.792,1.843,3.493,4.319,5.141
					c0.601,0.414,1.291,0.81,2.042,1.194c0.375,0.188,0.758,0.38,1.147,0.575c0.416,0.172,0.839,0.348,1.269,0.526
					c0.439,0.172,0.861,0.345,1.339,0.509c0.516,0.154,1.039,0.31,1.568,0.468l0.802,0.221c0.277,0.077,0.546,0.146,0.74,0.176
					c0.432,0.078,0.868,0.157,1.307,0.237l0.664,0.113l0.472,0.086l0.194,0.015l0.39,0.029c0.52,0.034,1.043,0.069,1.569,0.104
					c1.045,0.042,2.122,0.162,3.148,0.082c1.032-0.05,2.068-0.1,3.101-0.149c1.015-0.083,1.996-0.228,2.979-0.343
					c3.905-0.51,7.431-1.276,10.385-1.713c0.474-0.067,0.934-0.131,1.379-0.194c1.324-0.875,2.576-1.866,4.03-2.743
					C64.375,32.012,65.909,31.44,67.368,31.38"/>
			</g>
		</g>
	</g>
	<g>
		<g>
			<g>
				<path fill="#300D03" d="M60.012,26.086c-1.494-2.274-3.718-2.287-5.393-5.35c-0.145-0.197-0.271-0.35-0.402-0.502
					c-0.586-0.528-1.273-0.852-2.102-0.866c-1.113-0.03-6.189,1.866-11.767,2.169c-0.701,0.066-1.39,0.042-2.087,0.038
					c-0.671-0.018-1.441-0.021-2.017-0.093c-1.553-0.21-2.844-0.256-3.988-0.512c-1.133-0.233-2.07-0.667-2.57-1.261
					c-0.507-0.588-0.554-1.256-0.208-1.776c-0.765,0.795-0.798,1.997,0.06,3.013c0.829,1.04,2.34,1.696,3.917,2.157
					c-1.762-0.133-3.551-0.481-4.841-1.453c-0.642-0.47-1.082-1.106-1.297-1.69c-0.196-0.61-0.147-1.176,0.06-1.615
					c-0.387,0.482-0.623,1.129-0.554,1.871c0.067,0.726,0.431,1.567,1.055,2.248c1.252,1.43,3.228,2.188,4.964,2.635
					c0.42,0.104,0.851,0.212,1.289,0.321l0.55,0.129c0.264,0.072,0.529,0.146,0.797,0.219c1.008,0.207,2.049,0.387,3.1,0.547
					c1.063,0.107,2.136,0.2,3.199,0.267c1.07,0.022,2.128,0.047,3.16,0.042c-1.746,0.277-3.681,0.526-5.643,0.567
					c-0.987,0.058-1.962-0.005-2.933-0.056l-0.724-0.049l-0.359-0.028l-0.179-0.015l-0.044-0.004l-0.006,0
					c-0.065-0.021,0.139,0.044-0.148-0.046l-0.01-0.001l-0.021-0.003l-0.083-0.012c-0.204-0.023-0.473-0.079-0.618-0.081
					c-0.155-0.004-0.269-0.005-0.445-0.02c-1.443-0.131-3.264-0.391-4.936-1.219c-1.688-0.793-3.106-2.365-3.253-3.7
					c-0.112,0.991,0.316,2.14,1.158,3.18c0.836,1.03,1.997,1.833,3.141,2.407c1.151,0.579,2.275,0.941,3.168,1.223
					c0.493,0.152,1.001,0.309,1.523,0.47c0.65,0.16,1.319,0.308,2.001,0.445c1.359,0.306,2.799,0.415,4.229,0.562
					c1.434,0.076,2.88,0.143,4.277,0.108c2.805-0.032,5.434-0.264,7.644-0.382c0.354-0.013,0.699-0.025,1.033-0.038
					c1.027-0.725,2.101-1.665,3.161-2.428C57.92,26.726,58.981,26.122,60.012,26.086"/>
			</g>
		</g>
	</g>
	<g>
		<g>
			<g>
				<path fill="#300D03" d="M62.335,34.198c0.429,0.517,0.879,0.888,1.346,1.197c0.505,0.266,1.079,0.453,1.707,0.644
					c0.558,0.18,1.146,0.375,1.779,0.664c0.609,0.281,1.251,0.659,1.955,1.216c0.222,0.131,0.398,0.227,0.581,0.319
					c0.755,0.271,1.577,0.278,2.326-0.019c0.528-0.203,1.74-1.232,3.278-2.465c1.538-1.215,3.392-2.588,5.405-3.104
					c0.26-0.075,0.483-0.069,0.744-0.109c0.26-0.038,0.525-0.062,0.762-0.015c0.259,0.03,0.517,0.06,0.772,0.09
					c0.244,0.094,0.486,0.187,0.727,0.278l0.188,0.073L84,33.004l0.047,0.019l0.023,0.01l0.012,0.004l0.006,0.002
					c0.02,0.017-0.144-0.141-0.071-0.072l0.398,0.285c0.207,0.174,0.301,0.196,0.477,0.417c0.313,0.357,0.561,0.807,0.719,1.299
					c0.33,0.979,0.385,2.026,0.318,2.951c-0.073,0.935-0.273,1.792-0.615,2.58c0.782-1.02,1.336-2.064,1.663-3.287
					c0.296-1.205,0.463-2.719-0.296-4.363c0.582,0.772,0.908,1.646,1.108,2.434c0.2,0.795,0.278,1.524,0.304,2.17
					c0.042,1.299-0.132,2.269-0.539,3.212c0.776-1.045,1.325-1.966,1.634-3.234c0.15-0.641,0.242-1.38,0.201-2.276
					c-0.047-0.889-0.219-1.968-0.79-3.147c-0.172-0.303-0.299-0.562-0.538-0.897c-0.224-0.309-0.589-0.755-0.696-0.836l-0.244-0.237
					l-0.171-0.166l-0.047-0.034l-0.095-0.069l-0.191-0.137c-0.26-0.176-0.521-0.354-0.784-0.533
					c-0.509-0.381-1.129-0.593-1.729-0.827c-0.598-0.267-1.229-0.335-1.851-0.443c-2.511-0.323-4.751,0.312-6.647,1.037
					c1.512-0.88,3.366-1.758,5.725-1.926c0.569-0.095,1.195-0.003,1.814,0.033c0.625,0.021,1.245,0.201,1.869,0.391
					c0.312,0.095,0.625,0.194,0.932,0.306c0.286,0.143,0.571,0.293,0.854,0.449c0.282,0.156,0.562,0.319,0.838,0.487l0.205,0.127
					l0.051,0.032l0.025,0.016l0.007,0.004c0.098,0.094-0.21-0.205,0.221,0.212l0.008,0.006l0.062,0.046l0.246,0.185
					c0.085,0.024,0.525,0.497,0.807,0.839c0.341,0.406,0.472,0.636,0.689,0.96c0.376,0.602,0.648,1.198,0.848,1.746
					c0.395,1.1,0.524,2,0.565,2.729c0.059,1.465-0.24,2.241-0.841,2.861c0.638-0.43,1.132-0.901,1.484-1.59
					c0.344-0.687,0.577-1.591,0.505-2.972c-0.034-0.678-0.179-1.517-0.49-2.451c-0.361-0.971-0.735-1.899-1.913-3.298
					c-1.312-1.493-3.168-2.68-5.249-3.411c-2.051-0.616-4.202-0.769-5.952-0.492c-1.834,0.206-3.332,0.73-4.742,1.246
					c-2.75,1.089-4.882,2.365-6.704,3.234c-0.286,0.134-0.564,0.264-0.835,0.39c-0.585,0.999-1.132,2.213-1.808,3.22
					c-0.354,0.529-0.672,0.937-1.094,1.304C63.319,33.914,62.809,34.104,62.335,34.198"/>
			</g>
		</g>
	</g>
	<g>
		<g>
			<g>
				<path fill="#300D03" d="M64.855,31.331c0.54-0.448,0.953-0.916,1.274-1.439c0.245-0.572,0.455-1.368,0.536-2.07
					c0.09-0.708,0.189-1.501,0.244-2.308c0.036-0.411,0.096-0.857,0.158-1.315c0.052-0.442,0.125-0.916,0.225-1.427
					c0.018-0.311,0.012-0.577-0.005-0.853c-0.217-1.063-0.805-2.183-1.822-3.058c-0.675-0.587-2.913-1.843-5.962-2.505
					c-1.518-0.353-3.246-0.568-5.068-0.593c-0.46,0.014-0.926,0.027-1.396,0.041c-0.476,0.035-0.963,0.098-1.438,0.153
					c-0.474,0.054-0.984,0.186-1.462,0.282l-0.375,0.083l-0.279,0.095l-0.56,0.188c-3.019,0.991-6.029,1.919-8.598,2.038
					c-2.57,0.124-4.651-0.513-5.444-1.854c0.707,2.342,3.643,3.6,7.328,3.591c-1.938,0.343-3.819,0.428-5.347,0.096
					c-1.536-0.274-2.68-0.983-3.249-1.836c0.418,1.198,1.444,2.273,2.964,2.897c1.51,0.697,3.477,0.951,5.573,0.932
					c2.109-0.036,4.269-0.39,6.442-0.784c0.537-0.101,1.076-0.202,1.617-0.303c0.434-0.057,0.871-0.164,1.35-0.162
					c0.942-0.078,1.944,0.039,2.934,0.178c-0.423,0.013-0.855,0.027-1.293,0.041c-0.429,0.059-0.854,0.091-1.262,0.167
					c-0.398,0.111-0.814,0.144-1.163,0.302l-0.525,0.187c-0.149,0.064-0.456,0.154-0.676,0.229c-1.94,0.617-3.808,1.203-5.756,1.575
					c-1.943,0.353-3.859,0.501-5.494,0.23c-0.808-0.099-1.537-0.328-2.145-0.612c-0.608-0.283-1.098-0.613-1.435-1.062
					c0.712,1.586,2.553,2.675,5.001,3.179c2.425,0.485,5.324,0.306,7.944-0.083c0.674-0.105,1.359-0.213,2.051-0.322l0.522-0.09
					l0.131-0.023c-0.005-0.002,0.103-0.013,0.005-0.007l0.027-0.004l0.109-0.022c0.156-0.021,0.274-0.105,0.477-0.109
					c0.72-0.136,1.723-0.08,2.704,0.081c2.009,0.301,3.992,1.209,5.271,2.23c0.189,0.174,0.374,0.343,0.552,0.506
					c0.513,0.042,1.066,0.104,1.668,0.22c0.531,0.134,1.202,0.304,1.693,0.603c0.261,0.144,0.532,0.312,0.772,0.496
					c0.206,0.175,0.406,0.379,0.589,0.606c0.089,0.115,0.184,0.229,0.255,0.359c0.059,0.14,0.111,0.279,0.156,0.419
					C64.769,30.771,64.83,31.051,64.855,31.331"/>
			</g>
		</g>
	</g>
	<g>
		<g>
			<g>
				<path fill="#300D03" d="M55.698,38.636c-2.213-2.285-5.414-2.306-8.064-5.364c-0.225-0.197-0.423-0.35-0.63-0.502
					c-0.903-0.527-2.029-0.815-3.338-0.805c-0.437,0.004-1.268,0.135-2.396,0.353c-1.143,0.236-2.589,0.569-4.231,0.951
					c-1.644,0.381-3.52,0.911-5.47,1.401c-0.98,0.266-1.992,0.587-3.01,0.878c-1.019,0.312-2.048,0.555-3.078,0.933
					c-2.059,0.7-4.118,1.312-6.064,2.094c-0.994,0.38-1.895,0.652-2.902,1.046c-0.453,0.207-0.858,0.327-1.335,0.581
					c-0.477,0.275-0.945,0.545-1.402,0.809c-1.649,1.148-2.771,2.52-3.758,3.649c-0.957,1.154-1.767,2.115-2.604,2.704
					c1.331-0.516,2.592-1.603,4.047-2.798c0.38-0.286,0.713-0.627,1.145-0.894c0.416-0.277,0.792-0.615,1.267-0.844
					c0.222-0.13,0.447-0.263,0.677-0.397c0.226-0.137,0.479-0.202,0.714-0.313c0.244-0.098,0.466-0.216,0.726-0.313
					c0.287-0.078,0.577-0.158,0.87-0.238c-0.299,0.13-0.596,0.258-0.89,0.385c-0.233,0.156-0.463,0.31-0.691,0.461
					c-0.464,0.243-0.861,0.672-1.276,0.989c-0.402,0.346-0.723,0.766-1.087,1.104c-0.306,0.403-0.617,0.778-0.918,1.14
					c-1.15,1.505-2.007,2.878-3.089,3.607c1.403-0.521,2.573-1.688,3.909-2.856c0.314-0.31,0.688-0.556,1.009-0.868
					c0.342-0.286,0.723-0.512,1.062-0.801c0.196-0.103,0.388-0.21,0.576-0.325c0.188-0.118,0.379-0.253,0.538-0.288
					c0.165-0.063,0.32-0.138,0.474-0.229c0.043-0.047,0.215-0.093,0.377-0.139l0.477-0.143l0.481-0.148l0.242-0.076l0.031-0.01
					l0.007-0.002c-0.05,0.015,0.122-0.036-0.109,0.032L18,43.396l0.06-0.013l0.119-0.027c0.317-0.075,0.637-0.151,0.96-0.228
					c0.644-0.168,1.299-0.339,1.963-0.513c1.313-0.411,2.723-0.656,4.13-0.998c1.403-0.365,2.857-0.624,4.311-0.894
					c0.728-0.139,1.454-0.278,2.176-0.417c0.73-0.109,1.456-0.218,2.175-0.325c-4.754,1.279-10.103,2.935-14.403,4.616
					c-0.274,0.092-0.546,0.182-0.814,0.272l-0.201,0.065l-0.05,0.016l-0.013,0.004l-0.006,0.002
					c0.369-0.108,0.099-0.028,0.179-0.052l-0.026,0.011l-0.105,0.042l-0.418,0.168c-0.279,0.107-0.554,0.214-0.825,0.318
					c-0.189,0.056-0.117,0.088-0.169,0.124c-0.025,0.034-0.05,0.062-0.077,0.087c-0.056,0.055-0.107,0.068-0.188,0.111
					c-0.106,0.095-0.214,0.18-0.325,0.257c-0.236,0.125-0.442,0.324-0.66,0.501c-0.864,0.712-1.802,1.494-2.777,1.964
					c0.841-0.167,1.664-0.438,2.384-0.764c0.753-0.257,1.387-0.582,1.945-0.657c0.067-0.018,0.131-0.039,0.191-0.065
					c0.068-0.035,0.055,0.043,0.074,0.049c0.046,0.039-0.049,0.062,0.048,0.011c0.377-0.094,0.763-0.189,1.156-0.286l0.294-0.078
					l0.037-0.01l0.009-0.002c0.24-0.07-0.316,0.093-0.256,0.076l0.017-0.003l0.068-0.012l0.136-0.024l0.549-0.103
					c0.736-0.143,1.489-0.312,2.258-0.502c0.384-0.099,0.772-0.2,1.165-0.301c0.406-0.078,0.815-0.157,1.229-0.237
					c6.527-1.46,14.598-2.703,20.819-3.036c0.498-0.024,0.983-0.047,1.452-0.069C49.473,41.025,52.671,38.703,55.698,38.636"/>
			</g>
		</g>
	</g>
	<g>
		<g>
			<g>
				<path fill="#300D03" d="M42.954,38.146c-0.464-0.576-1.068-0.964-1.514-1.4c-0.444-0.392-0.931-0.8-1.384-1.217
					c-0.907-0.864-1.752-1.943-2.185-3.706c-0.096-0.244-0.185-0.438-0.28-0.633c-0.477-0.731-1.167-1.323-2.194-1.733
					c-0.681-0.245-2.806-0.677-6.206-1.005c-0.435-0.027-0.883-0.054-1.344-0.082c-0.239-0.004-0.481-0.008-0.727-0.012
					l-0.368-0.003l-0.185-0.001h-0.093h-0.046l-0.023,0h-0.012c0.223,0.034-0.316-0.046-0.264-0.038
					c-0.83,0.106-1.697,0.217-2.588,0.331c-1.867,0.261-3.858,0.609-5.884,1.265c-1.007,0.322-2.028,0.759-2.99,1.307l-0.71,0.459
					l-0.345,0.229l-0.085,0.057l-0.13,0.083l-0.031,0.028l-0.123,0.114l-0.492,0.451c-0.184,0.174-0.408,0.408-0.6,0.607
					c-0.756,0.824-1.279,1.639-1.701,2.489c-0.435,0.833-0.735,1.657-1.004,2.433c-0.52,1.556-0.887,2.944-1.346,4.077
					c-0.453,1.132-0.992,2.009-1.679,2.521c1.186-0.491,2.126-1.578,2.949-2.992c0.836-1.406,1.543-3.158,2.619-4.808
					c-0.825,1.948-1.177,3.903-1.687,5.553c-0.497,1.646-1.15,2.993-2.087,3.675c1.282-0.516,2.291-1.755,3.11-3.27
					c0.828-1.51,1.497-3.318,2.387-4.787c0.114-0.174,0.229-0.351,0.346-0.529l0.372-0.489l0.396-0.44
					c0.131-0.104,0.162-0.188,0.352-0.349l0.379-0.274l0.19-0.139l0.095-0.07l0.012-0.009c0.029-0.018-0.232,0.141-0.119,0.073
					l0.004-0.002l0.017-0.009l0.035-0.018c0.185-0.097,0.368-0.202,0.551-0.316c0.166-0.132,0.417-0.193,0.637-0.29
					c0.235-0.08,0.437-0.21,0.705-0.266c2.031-0.616,4.571-0.81,7.057-0.796c-2.098,0.281-4.308,0.659-6.09,1.36
					c-0.403,0.211-0.877,0.333-1.188,0.574l-0.495,0.302c-0.159,0.097-0.244,0.232-0.366,0.329l-0.168,0.148L16.39,36.96
					l-0.021,0.017l-0.01,0.008l-0.005,0.004l-0.003,0.002c0.081-0.049-0.184,0.112,0.18-0.109l-0.158,0.143l-0.315,0.282
					c-0.08,0.082-0.275,0.217-0.233,0.24c-0.015,0.094-0.023,0.147-0.061,0.219c-0.064,0.128-0.13,0.246-0.201,0.354
					c-0.998,1.859-1.671,5.38-3.46,6.769c1.617-0.708,2.777-2.44,3.732-3.848c0.475-0.701,0.907-1.242,1.192-1.523
					c0.063-0.1,0.145-0.108,0.191-0.192c0.007-0.006-0.041,0.052-0.073,0.06c0.001-0.001-0.197,0.078,0.056-0.079l0.476-0.324
					l0.119-0.083l0.015-0.01l0.007-0.005c-0.129,0.078,0.3-0.183-0.288,0.174l0.008-0.002l0.014-0.004l0.056-0.022
					c0.094-0.026,0.078-0.115,0.243-0.165c0.448-0.284,1.572-0.546,2.812-0.703c0.61-0.096,1.335-0.125,2.02-0.168l1.069-0.038
					l0.62,0.003l0.31,0.001l0.154,0l0.077,0h0.039h0.01c0.271,0.04-0.357-0.055-0.291-0.045l0.013,0.001
					c2.242,0.01,5.239,0.936,7.881,1.806c0.435,0.145,0.857,0.285,1.267,0.422c1.512-0.214,3.203-0.637,4.785-1.057
					C40.19,38.675,41.696,38.251,42.954,38.146"/>
			</g>
		</g>
	</g>
	<g>
		<g>
			<g>
				<path fill="#300D03" d="M47.657,34.027c-1.089-1.144-2.325-1.751-3.638-2.489c-1.321-0.733-2.679-1.579-3.969-3.148
					c-0.22-0.205-0.413-0.367-0.625-0.522c-0.928-0.549-2.065-0.877-3.479-0.848c-0.586,0.016-1.832,0.22-3.602,0.712
					c-1.753,0.498-4.071,1.255-6.554,2.736c-0.616,0.34-1.236,0.815-1.846,1.259l-0.114,0.084l-0.057,0.042l-0.258,0.159
					l-0.005,0.005l-0.009,0.01l-0.019,0.02l-0.152,0.159l-0.307,0.32c-0.213,0.224-0.429,0.45-0.646,0.677
					c-0.279,0.312-0.561,0.627-0.844,0.944c-0.279,0.319-0.557,0.644-0.728,0.92c-0.392,0.578-0.812,1.159-1.138,1.726
					c-1.397,2.274-2.521,4.477-3.956,6.176l0.097-0.077c-0.637,0.61-1.084,1.138-1.583,1.66c-0.485,0.517-0.963,1.004-1.444,1.456
					c-0.96,0.902-1.94,1.657-2.895,2.166c-0.942,0.501-1.905,0.748-2.515,0.584c-0.635-0.159-0.66-0.623-0.413-0.967
					c-0.309,0.419-0.383,0.967,0.058,1.379c0.432,0.401,1.267,0.553,2.148,0.427c1.802-0.243,3.765-1.39,5.623-2.852
					c-1.762,1.831-3.657,3.445-5.812,4.077c-1.056,0.3-2.275,0.283-3.082-0.295c-0.813-0.554-0.983-1.37-0.893-1.926
					c-0.159,0.38-0.231,0.848-0.085,1.362c0.137,0.515,0.548,1.071,1.191,1.454c0.641,0.386,1.453,0.556,2.231,0.554
					c0.785,0.001,1.554-0.148,2.292-0.379c1.478-0.469,2.845-1.264,4.15-2.205c0.652-0.471,1.286-0.983,1.904-1.511
					c0.552-0.481,1.119-0.975,1.696-1.479l0.161-0.128c1.885-1.745,3.215-3.726,4.545-5.52c0.331-0.434,0.657-0.913,0.992-1.309
					c0.333-0.414,0.676-0.857,0.971-1.162l0.46-0.526l0.658-0.551L26.5,36.93l0.165-0.137l0.005-0.004
					c0.094-0.058-0.125,0.076-0.102,0.062l0.002-0.001l0.01-0.006l0.02-0.013l0.039-0.025l0.078-0.05l0.624-0.408l-0.55,0.472
					l-0.136,0.116l-0.017,0.015l-0.008,0.007c-0.101,0.062,0.135-0.082,0.11-0.066l-0.002,0.002l-0.004,0.005l-0.037,0.038
					l-0.073,0.076l-0.294,0.305l-0.595,0.614c-0.16,0.202-0.259,0.391-0.389,0.578l-0.371,0.561l-0.42,0.674
					c-0.28,0.428-0.561,0.927-0.843,1.404c-1.149,1.933-2.32,4.115-4.26,6.183l-0.244,0.193c-0.214,0.264-0.713,0.787-1.151,1.242
					c-0.457,0.47-0.938,0.942-1.434,1.393c-0.991,0.901-2.051,1.719-3.189,2.377c-1.146,0.653-2.363,1.163-3.722,1.364
					c-0.654,0.104-1.386,0.111-2.048,0.019c-0.697-0.108-1.339-0.32-1.866-0.647c0.902,0.838,2.494,1.28,3.915,1.248
					c1.467-0.011,2.86-0.371,4.168-0.901c1.302-0.533,2.536-1.252,3.696-2.065c0.581-0.405,1.146-0.837,1.678-1.262
					c0.403-0.328,0.818-0.665,1.242-1.009l0.375-0.293c2.073-1.815,3.445-3.709,4.661-5.313c0.285-0.38,0.572-0.763,0.861-1.146
					l0.783-1.001l0.147-0.189l0.09-0.126c0.059-0.087,0.113-0.183,0.166-0.286c-0.009-0.037,0.147-0.146,0.24-0.226l0.315-0.258
					l0.314-0.258l0.157-0.129l0.079-0.064l0.039-0.032l0.02-0.016l0.01-0.008c-0.676,0.412-0.186,0.113-0.336,0.205l0.003-0.002
					c0.916-0.752,2.348-1.409,3.961-1.821c1.613-0.421,3.368-0.632,5.015-0.717c0.447-0.028,0.902-0.035,1.336-0.042
					C41.415,36.156,44.756,34.097,47.657,34.027"/>
			</g>
		</g>
	</g>
	<g>
		<g>
			<g>
				<path fill="#300D03" d="M70.144,36.305c0.384,0.537,0.768,0.949,1.217,1.266c0.459,0.301,1.043,0.542,1.546,0.765
					c1.071,0.469,2.178,0.944,3.365,2.197c0.174,0.156,0.321,0.273,0.473,0.388c0.317,0.182,0.646,0.303,0.91,0.381
					c0.141,0.035,0.281,0.053,0.423,0.052c0.112,0.013,0.223,0.009,0.334-0.018c0.166-0.045,0.367-0.2,0.527-0.435
					c0.202-0.243,0.101-0.52,0.195-0.899c0.04-0.199,0.167-0.318,0.394-0.42c0.133-0.002,0.27-0.003,0.407-0.005
					c0.157,0.004,0.326,0.112,0.509,0.172c0.955,0.621,1.984,1.475,3.173,2.357c2.274,1.694,4.564,3.137,6.442,4.418
					c0.484,0.306,0.927,0.617,1.326,0.938c0.413,0.305,0.817,0.577,1.155,0.891c0.656,0.653,1.247,1.211,1.566,1.955
					c-0.527-2.372-2.045-4.125-4.102-6.133c0.335,0.2,0.656,0.4,0.961,0.603c0.322,0.178,0.632,0.351,0.922,0.532
					c0.293,0.176,0.56,0.374,0.824,0.545c0.272,0.156,0.526,0.318,0.762,0.49s0.452,0.352,0.65,0.542
					c0.207,0.166,0.402,0.324,0.575,0.507c0.348,0.361,0.622,0.777,0.811,1.253c-0.479-2.567-1.934-3.983-4.053-5.971
					c-1.073-0.942-2.259-2.061-3.513-3.207c-0.584-0.599-1.202-1.119-1.838-1.836c-0.32-0.335-0.626-0.675-0.959-1
					c-0.381-0.4-0.734-0.792-1.202-1.129c0.435,0.231,0.815,0.51,1.188,0.814l0.288,0.231l0.146,0.119l0.073,0.06l0.009,0.008
					l0.005,0.003c-0.077-0.118-0.02-0.031-0.035-0.057l0.015,0.012l0.031,0.023l0.493,0.374c0.327,0.253,0.658,0.509,0.989,0.766
					l0.949,0.638c1.223,0.84,2.525,1.652,3.594,2.363c0.544,0.354,1.059,0.65,1.494,1.001c0.449,0.305,0.844,0.581,1.165,0.92
					c0.323,0.326,0.592,0.577,0.787,0.945c0.099,0.176,0.181,0.365,0.245,0.567c0.066,0.186,0.116,0.366,0.148,0.575
					c0.033-0.723-0.036-1.436-0.199-2.04c-0.081-0.306-0.187-0.559-0.315-0.836c-0.129-0.299-0.281-0.579-0.46-0.84
					c-0.362-0.474-0.8-1.116-1.347-1.615c-0.52-0.609-1.15-1.154-1.794-1.822l-0.507-0.476l-0.464-0.463
					c-0.323-0.326-0.626-0.55-1.045-1.043l-1.247-1.347c-0.326-0.364-0.603-0.702-0.982-1.056c-0.394-0.358-0.796-0.7-1.2-1.023
					c-0.46-0.324-0.96-0.627-1.443-0.902c-0.506-0.266-1.075-0.474-1.609-0.668c-0.543-0.174-1.101-0.266-1.64-0.363
					c-0.528-0.068-1.023-0.068-1.521-0.08c-1.915,0.068-3.219,0.53-4.285,0.859c-0.324,0.107-0.639,0.212-0.944,0.313
					C73.138,33.362,72.13,36.124,70.144,36.305"/>
			</g>
		</g>
	</g>
	<g>
		<g>
			<g>
				<path fill="#300D03" d="M66.48,27.773c0.352,1.134,0.912,1.669,1.458,2.282c0.558,0.612,1.139,1.301,1.781,2.742
					c0.1,0.184,0.185,0.325,0.273,0.463c0.375,0.47,0.771,0.707,1.18,0.635c0.577-0.084,2.672-2.538,5.03-4.125
					c1.172-0.786,2.483-1.325,3.484-1.195c1.004,0.103,1.47,1.008,0.551,1.725c0.824-0.636,1.131-1.465,0.861-2.177
					c-0.255-0.713-0.973-1.22-1.786-1.44c0.929-0.119,1.901,0.059,2.53,0.639c0.641,0.562,0.766,1.447,0.234,2.043
					c0.876-0.737,1.038-1.924,0.443-2.897c-0.577-0.985-1.68-1.597-2.761-1.821c-2.224-0.472-4.454,0.317-6.345,1.085
					c1.525-1.189,3.462-2.47,5.71-2.708c1.11-0.115,2.322,0.058,3.356,0.669c1.033,0.589,1.786,1.681,1.716,2.66
					c0.236-0.778,0.111-1.662-0.325-2.455c-0.411-0.771-1.132-1.467-1.884-1.923c-1.568-0.963-3.306-1.162-4.864-1.025
					c-3.145,0.295-5.812,1.874-7.77,2.522c-0.155,0.048-0.307,0.095-0.452,0.14C68.203,25.2,67.483,27.676,66.48,27.773"/>
			</g>
		</g>
	</g>
	<g>
		<g>
			<g>
				<path fill="#300D03" d="M68.071,38.879c-0.297-0.608-0.65-1.08-1.035-1.497c-0.192-0.208-0.393-0.402-0.597-0.592
					c-0.184-0.205-0.347-0.414-0.512-0.621c-0.331-0.423-0.609-0.838-0.86-1.379c-0.284-0.569-0.52-1.233-0.654-2.062
					c-0.064-0.222-0.125-0.398-0.189-0.573c-0.354-0.662-0.876-1.156-1.609-1.394c-0.523-0.181-2.123-0.228-4.511-0.329
					c-0.61-0.016-1.259-0.034-1.937-0.052c-0.704,0.006-1.438,0.012-2.194,0.018l-0.28,0.004l-0.018,0
					c0.204,0.042-0.288-0.057-0.24-0.046l-0.008,0.001l-0.031,0.005l-0.062,0.009l-0.125,0.019l-0.504,0.072
					c-0.338,0.047-0.68,0.094-1.024,0.141c-0.688,0.084-1.387,0.169-2.088,0.254c-5.877,0.703-11.415,1.562-13.43-0.774
					c1.105,2.146,3.646,3.015,6.812,3.392c-3.426,0.319-6.343,0.197-7.66-1.361c1.174,2.308,3.988,3.122,7.401,3.434
					c0.869,0.055,1.742,0.113,2.635,0.154c0.9,0.036,1.828,0.032,2.784,0.023c0.99,0.049,1.994,0.081,2.996,0.102l0.75,0.015
					l0.374,0.006l0.187,0.003l0.047,0.001h0.012c-0.048-0.01,0.115,0.022-0.106-0.022l0.006,0l0.021,0.002l0.086,0.009
					c0.464,0.049,0.926,0.098,1.383,0.147c-0.396,0.026-0.8,0.052-1.21,0.079l-0.303,0.019l-0.037,0.002h-0.005
					c-0.116-0.023,0.152,0.032,0.123,0.027l-0.01,0.001l-0.021,0.002l-0.082,0.012l-0.164,0.023l-0.66,0.089
					c-0.886,0.118-1.788,0.226-2.689,0.317c-0.924,0.063-1.749,0.232-2.572,0.335c-0.82,0.109-1.612,0.192-2.369,0.237
					c-1.583,0.144-3.054,0.158-4.267-0.07c-1.234-0.196-2.228-0.619-2.847-1.368c0.715,1.475,2.133,2.309,3.858,2.871
					c0.869,0.272,1.836,0.449,2.876,0.554c0.971,0.14,1.983,0.218,3.059,0.238c0.269,0.002,0.54,0.005,0.813,0.007
					c0.306,0.02,0.613,0.039,0.922,0.058c0.625,0.031,1.258,0.062,1.893,0.092l0.956,0.031l0.478,0.013l0.239,0.006
					c0.078,0.015-0.646-0.131-0.337-0.069l0.006,0l0.012,0.001l0.024,0.002l0.047,0.004l0.095,0.009
					c0.511,0.053,1.01,0.077,1.545,0.139c2.15,0.272,4.567,0.858,6.693,1.381c0.341,0.091,0.671,0.179,0.991,0.265
					c0.608-0.193,1.258-0.447,1.887-0.705c0.646-0.265,1.302-0.534,1.938-0.794C66.055,39.325,67.056,38.794,68.071,38.879"/>
			</g>
		</g>
	</g>
</g>
<g>
	<g>
		<g>
			<path fill="#300D03" d="M38.842,40.4c-0.631-1.12-1.377-1.669-2.157-2.311c-0.796-0.628-1.754-1.288-2.797-2.713
				c-0.173-0.183-0.321-0.308-0.478-0.435c-0.671-0.413-1.458-0.581-2.319-0.409c-0.573,0.163-2.135,1.016-3.872,2.447
				c-1.716,1.44-3.484,3.344-5.04,5.195l-0.303,0.341l-0.01,0.011l-0.004,0.005c-0.043,0.024,0.36-0.196,0.187-0.101l-0.02,0.02
				l-0.04,0.039l-0.078,0.077l-0.158,0.153l-0.634,0.601c-0.423,0.387-0.857,0.792-1.276,1.116
				c-0.837,0.594-1.662,1.152-2.542,1.526c-1.749,0.747-3.347,0.943-4.525,0.148c1.61,1.662,3.829,1.83,6.407,1.04
				c-2.515,1.525-4.802,2.16-6.345,1.111c1.729,1.778,4.043,1.874,7.016,0.864c0.742-0.278,1.574-0.602,2.275-0.991
				c0.67-0.395,1.346-0.829,2.02-1.285l0.032-0.021l0.016-0.011l0.008-0.005l0.19-0.104l0.003-0.003l0.057-0.046l0.114-0.092
				l0.228-0.186l0.456-0.377l0.91-0.769c0.613-0.467,1.217-0.996,1.836-1.43c-0.904,1.004-1.81,2.117-2.736,3.229l-0.348,0.405
				l-0.043,0.05c-0.116,0.064,0.255-0.139-0.26,0.144l-0.003,0.003l-0.006,0.006l-0.013,0.012l-0.025,0.024l-0.102,0.097
				l-0.205,0.192c-0.276,0.25-0.55,0.5-0.821,0.746c-0.279,0.236-0.554,0.47-0.825,0.7c-0.286,0.224-0.668,0.438-1,0.642
				c-0.684,0.404-1.382,0.77-2.037,1.054c-0.584,0.236-1.15,0.413-1.685,0.515c-1.093,0.211-1.95,0.085-2.686-0.434
				c0.529,0.579,1.128,0.976,1.782,1.223c0.686,0.236,1.462,0.31,2.284,0.263c0.755-0.008,1.861-0.312,2.936-0.692
				c0.269-0.101,0.542-0.204,0.818-0.308l0.413-0.168c0.124-0.056,0.216-0.108,0.325-0.164c0.423-0.222,0.849-0.463,1.276-0.719
				c0.212-0.13,0.427-0.262,0.643-0.395l0.081-0.051l0.04-0.025l0.02-0.013l0.493-0.272l0.135-0.104l0.27-0.212
				c0.36-0.285,0.721-0.583,1.081-0.889l1.043-0.844c0.35-0.3,0.688-0.557,1.021-0.799c0.672-0.54,1.339-0.939,2.002-1.361
				c0.686-0.329,1.335-0.703,2.022-0.881c0.216-0.064,0.427-0.126,0.63-0.186c0.524-0.845,1.143-1.822,1.885-2.688
				C37.194,41.084,38.03,40.465,38.842,40.4"/>
		</g>
	</g>
</g>
<path fill-rule="evenodd" clip-rule="evenodd" fill="#222A2D" d="M36.951,78.225c-3.868,0.524-6.873,0.932-11.205,1.518
	c3.204-2.367,2.843-6.466,6.503-6.641C35.188,72.961,35.106,76.186,36.951,78.225z"/>
<path fill-rule="evenodd" clip-rule="evenodd" fill="#182123" d="M67.368,78.924c3.521-7.539,3.521-7.539,9.903,0.539
	C73.812,79.789,70.816,78.069,67.368,78.924z"/>
<path fill-rule="evenodd" clip-rule="evenodd" fill="#F8BFB6" d="M41.942,118.59c-2.98,0.137-6.214-0.003-6.534-3.716
	c-0.358-4.168,3.95-4.07,6.157-4.275c6.756-0.625,13.602-0.52,20.402-0.309c2.123,0.067,4.623,0.912,5.372,3.482
	c0.664,2.281-0.963,3.758-2.502,5.005c-5.423,4.397-16.418,4.247-22.914-0.226c4.792-3.745,10.619-1.323,13.416-2.105
	C52.623,117.67,46.271,112.205,41.942,118.59z"/>
<path fill-rule="evenodd" clip-rule="evenodd" fill="#FBFBF8" d="M41.813,118.009c-0.168-1.923-5.22-5.423,1.611-5.084
	c6.509,0.323,13.012,0.732,21.104,1.194c-7.773,7.468-15.587,3.493-22.73,3.849L41.813,118.009z"/>
<g>
	<g>
		<path d="M45.012,75.832c4.166,0.311,8.521-1.546,12.562-0.032c1.067,0.4,1.524-1.306,0.469-1.701
			c-4.232-1.586-8.683,0.293-13.031-0.032C43.876,73.982,43.884,75.747,45.012,75.832L45.012,75.832z"/>
	</g>
</g>
<g>
	<g>
		<path d="M21.958,75.208c-3.818-3.073-7.484-6.324-11.03-9.707c-0.823-0.785-2.073,0.461-1.248,1.248
			c3.546,3.383,7.212,6.634,11.03,9.707C21.587,77.162,22.844,75.922,21.958,75.208L21.958,75.208z"/>
	</g>
</g>
<g>
	<g>
		<path d="M79.873,77.182c3.633-2.586,7.239-5.416,9.984-8.962c0.688-0.888-0.552-2.147-1.248-1.248
			c-2.653,3.429-6.115,6.186-9.627,8.687C78.063,76.312,78.943,77.844,79.873,77.182L79.873,77.182z"/>
	</g>
</g>
<g>
	<g>
		<path d="M22.598,76.55c-2.691-0.958-4.11-4.406-5.885-6.441c-0.75-0.859-1.993,0.395-1.248,1.248
			c2.066,2.369,3.509,5.772,6.665,6.895C23.204,78.634,23.662,76.928,22.598,76.55L22.598,76.55z"/>
	</g>
</g>
<g>
	<g>
		<path d="M79.856,78.221c3.238-3.515,7.596-5.793,10.334-9.788c0.646-0.941-0.885-1.823-1.523-0.891
			c-2.636,3.845-6.936,6.042-10.059,9.43C77.839,77.808,79.084,79.06,79.856,78.221L79.856,78.221z"/>
	</g>
</g>
<g>
	<g>
		<path d="M21.632,75.854c-4.34-2.727-6.656-7.669-11.177-10.196c-0.994-0.556-1.884,0.968-0.891,1.523
			c4.495,2.513,6.831,7.466,11.177,10.196C21.708,77.984,22.593,76.457,21.632,75.854L21.632,75.854z"/>
	</g>
</g>
</svg>
