<?xml version="1.0" encoding="utf-8"?>
<!-- Generator: Adobe Illustrator 16.0.4, SVG Export Plug-In . SVG Version: 6.00 Build 0)  -->
<!DOCTYPE svg PUBLIC "-//W3C//DTD SVG 1.1//EN" "http://www.w3.org/Graphics/SVG/1.1/DTD/svg11.dtd">
<svg version="1.1" id="Layer_1" xmlns="http://www.w3.org/2000/svg" xmlns:xlink="http://www.w3.org/1999/xlink" x="0px" y="0px"
	 width="100px" height="140px" viewBox="0 0 100 140" enable-background="new 0 0 100 140" xml:space="preserve">
<g>
	<g>
		<g>
			<path d="M40.429,22.599c-8.31,0.756-16.519,0.82-23.728,5.556C10.2,32.426,5.73,38.195,4.83,45.927
				c-0.441,3.792-2.125,7.977-1.585,11.83C3.87,62.214,6.52,65.402,8.98,69.035c4.886,7.214,6.101,17.616,12.48,23.705
				c1.652,1.576,4.161-0.926,2.505-2.506c-2.432-2.321-3.428-5.328-4.75-8.333c-1.472-3.347-3.118-6.644-4.708-9.938
				c-1.47-3.046-3.153-5.729-5.102-8.482c-3.252-4.595-2.574-8.621-1.52-13.84c0.732-3.623,0.568-7.159,2.529-10.466
				c1.874-3.159,5.207-5.759,8.073-7.961c6.146-4.723,14.615-4.406,21.939-5.072C42.685,25.937,42.705,22.392,40.429,22.599
				L40.429,22.599z"/>
		</g>
	</g>
	<g>
		<g>
			<path d="M5.875,57.482c-1.5,0.919-5.207,2.546-4.55,4.935c1.116,4.056,5.726,1.03,7.883,0.272
				c-0.726-0.412-1.453-0.825-2.179-1.237c0.384,1.112-2.485,3.449-2.952,4.766c-0.295,0.832,0.328,2.043,1.237,2.179
				c2.48,0.372,4.858,0.215,7.361,0.262c-0.59-0.59-1.181-1.181-1.771-1.771c0.147,1.293-2.09,2.223-2.827,3.076
				c-0.786,0.909-0.637,2.713,0.782,2.96c1.373,0.239,4.315,1.059,5.124-0.419c-0.709,1.297-1.937,2.335-2.711,3.615
				c-1.348,2.23,0.286,4.548,2.774,4.546c1.121-0.001,1.493-0.007,2.511-0.359c1.934-0.671,0.311-1.396,0.056-0.938
				c-0.715,1.288-1.414,2.524-0.968,4.104c1.133,4.014,4.446,4.936,7.964,3.052c-0.867-0.353-1.735-0.705-2.602-1.059
				c0.558,2.29-0.862,5.368-1.987,7.296c-1.153,1.979,1.909,3.761,3.06,1.789c1.667-2.86,3.156-6.697,2.344-10.026
				c-0.28-1.148-1.622-1.584-2.602-1.059c-3.713,1.987-1.396-4.031-1.302-4.496c0.178-0.882-0.254-1.883-0.882-2.511
				c-0.559-0.559-1.709-0.812-2.465-0.604c-1.679,0.462-3.399,2.495-1.262-0.088c4.494-5.433-2.073-5.557-6.109-6.261
				c0.261,0.987,0.521,1.974,0.782,2.961c1.726-1.998,4.221-2.455,3.865-5.581c-0.111-0.974-0.723-1.752-1.771-1.771
				c-2.141-0.04-4.286,0.185-6.419-0.135c0.413,0.726,0.825,1.453,1.237,2.179c1.031-2.908,4.261-2.866,2.952-6.649
				c-0.298-0.862-1.225-1.573-2.179-1.237c-1.169,0.411-1.702,0.65-2.784,1.285c-0.358,1.426-0.079,1.689,0.837,0.79
				c0.453-0.261,0.9-0.53,1.344-0.806C9.608,59.351,7.829,56.286,5.875,57.482L5.875,57.482z"/>
		</g>
	</g>
	<g>
		<ellipse fill-rule="evenodd" clip-rule="evenodd" cx="31.177" cy="67.43" rx="17.124" ry="11.716"/>
		<ellipse fill-rule="evenodd" clip-rule="evenodd" cx="74.873" cy="67.43" rx="17.124" ry="11.716"/>
		<path fill-rule="evenodd" clip-rule="evenodd" fill="#A7806C" d="M85.883,116.925c-4.355,5.372-9.409,9.945-15.252,13.719
			c-10.929,7.053-21.604,6.895-32.557-0.067c-5.635-3.585-10.067-8.334-15.038-12.977c-3.248-4.375-5.386-8.607-7.519-13.343
			c-3.68-8.166-2.63-15.959,2.708-23.17c2.502-3.382,4.863-6.431,10.039-4.377c2.179,0.865,5.009,0.085,7.544,0.054
			c2.036-2.074,4.879-2.439,7.425-3.351c2.586-0.928,4.091-2.772,5.672-4.848c2.379-3.125,7.654-3.826,9.777-0.881
			c5.062,7.018,12.136,7.894,19.806,7.672c1.575-0.043,3.137,0.042,4.66,0.493c5.391,1.186,10.905,8.501,11.871,15.676
			c0.7,5.218-0.36,10.135-2.668,14.766L85.883,116.925z"/>
		<path fill-rule="evenodd" clip-rule="evenodd" fill="#A6806D" d="M27.482,57.927c-1.529-0.049-2.869,0.247-3.313-2.151
			c-2.796-15.077,4.834-28.736,19.174-33.895c14.667-5.275,31.221,0.702,38.248,13.657c3.605,6.641,2.497,13.756,2.504,20.764
			c0.002,2.12-1.92,1.406-3.156,1.601c-7.851,1.156-15.969,1.066-22.36,7.289c-2.264,2.205-6.597,2.239-8.793-0.022
			C43.484,58.684,35.387,58.84,27.482,57.927z"/>
		<path fill-rule="evenodd" clip-rule="evenodd" fill="#DACECA" d="M79.64,59.042c1.53,0.443,3.063,0.887,4.595,1.329
			c2.901,5.87,2.537,10.086-1.203,13.986l0.113,0.301c-7.092,3.016-13.784,1.468-20.209-1.971c-2.523-1.351-4.45-3.542-4.103-6.611
			c0.312-2.768,2.391-4.426,4.926-5.354C68.905,58.839,74.052,56.807,79.64,59.042z"/>
		<path fill-rule="evenodd" clip-rule="evenodd" fill="#DACECA" d="M34.464,75.588c-3.569-0.346-7.239-0.112-10.581-1.805
			c-2.178-4.476-2.637-8.918,0.265-13.293c1.536-0.48,3.072-0.961,4.608-1.44c6.468-2.483,12.433-0.3,17.957,2.619
			c4.732,2.501,4.082,8.618-0.996,11.314C42.26,74.814,38.491,75.913,34.464,75.588z"/>
		<path fill-rule="evenodd" clip-rule="evenodd" fill="#1F1F1B" d="M34.464,75.588c3.8-1.385,8.069-1.367,11.472-3.972
			c4.133-3.167,3.929-7.306-0.653-9.766c-5.175-2.779-10.896-2.582-16.527-2.801c-0.424-0.374-0.849-0.748-1.273-1.123
			c8.584-1.64,16.415-0.94,22.896,6.019c2.214,2.375,5.545,2.41,8.097-0.251c6.314-6.575,14.056-7.433,22.462-5.791
			c-0.432,0.38-0.867,0.761-1.299,1.14c-5.261,0.3-10.614-0.049-15.533,2.494c-2.188,1.133-4.107,2.375-4.175,5.155
			c-0.065,2.732,1.66,4.281,3.789,5.485c6.132,3.463,12.729,3.384,19.424,2.481c0.004,0.396,0.004,0.792,0.004,1.191
			c-9.516,3.348-19.532,0.586-24.952-6.881c-1.646-2.267-6.575-2.484-7.744-0.025c-3.016,6.344-8.798,7.039-14.644,7.82
			C35.359,76.374,34.912,75.982,34.464,75.588z"/>
		<path fill-rule="evenodd" clip-rule="evenodd" fill="#8AA0AD" d="M83.031,74.357c2.577-4.475,0.772-9.326,1.203-13.986
			c3.859,0.605,6.584,2.265,6.409,6.734C90.454,72.009,86.999,73.445,83.031,74.357z"/>
		<path fill-rule="evenodd" clip-rule="evenodd" fill="#8AA1AE" d="M24.149,60.49c-0.088,4.43-0.177,8.861-0.266,13.293
			c-3.749-1.113-6.261-3.216-5.953-7.531C18.205,62.406,20.728,60.956,24.149,60.49z"/>
		<path fill-rule="evenodd" clip-rule="evenodd" fill="#FDFDFC" d="M38.384,94.759c2.865,0.734,5.734,1.446,8.734,1.102
			c7.139,1.014,14.281,1.997,21.417,3.004c6.451,0.91,7.363,3.058,3.92,8.499c-4.98,7.868-16.024,11.942-25.92,9.56
			c-9.771-2.353-17.178-10.572-18.169-19.985c-0.226-2.144,0.663-2.956,2.578-2.83C33.427,94.271,36.005,93.427,38.384,94.759z"/>
		<path fill-rule="evenodd" clip-rule="evenodd" fill="#FA6884" d="M38.384,94.759c-0.197,0.008-0.396-0.014-0.588,0.021
			c-2.755,0.497-6.64-2.121-8.065,0.891c-1.243,2.626,0.884,6.041,2.452,8.764c8.644,15.02,30.945,15.552,39.868,1.114
			c2.22-3.598,1.728-5.131-2.47-5.794c-7.502-1.184-15.193-1.31-22.458-3.895c8.694-0.361,17.076,1.687,25.542,3.206
			c3.332,0.598,3.862,2.155,2.769,4.868c-3.268,8.077-7.914,15.583-16.753,17.548c-9.093,2.021-17.598,0.245-24.083-8.214
			c-4.004-5.223-5.552-11.077-7.708-16.869c-0.591-1.589-0.24-3.734,1.871-3.287C31.956,93.793,35.54,92.243,38.384,94.759z"/>
		<path fill-rule="evenodd" clip-rule="evenodd" fill="#5B4A34" d="M64.396,83.732c-4.427,7.973-14.685,8.133-20.793,0.351
			C50.991,87.625,57.367,88.934,64.396,83.732z"/>
		<path fill-rule="evenodd" clip-rule="evenodd" fill="#1F1C18" d="M28.268,55.501c2.804-5.427,5.471-6.616,12.773-5.609
			C36.336,52.479,31.857,52.996,28.268,55.501z"/>
		<path fill-rule="evenodd" clip-rule="evenodd" fill="#1F1D1A" d="M80.402,55.205c-3.447-1.082-6.181-3.34-9.74-3.76
			c-0.724-0.085-1.595-0.296-1.535-1.301c0.058-0.998,0.958-1.278,1.68-1.179C74.974,49.535,78.811,50.699,80.402,55.205z"/>
		<path fill-rule="evenodd" clip-rule="evenodd" fill="#323F47" d="M43.024,66.956c-0.194,1.375-1.109,2.222-2.683,2.121
			c-0.942-0.061-1.939-0.335-1.801-1.68c2.733,0.53,1.175-2.713,2.464-2.925C42.085,64.293,43.087,65.32,43.024,66.956z"/>
		<path fill-rule="evenodd" clip-rule="evenodd" fill="#323F47" d="M85.396,66.956c-0.194,1.375-1.112,2.222-2.682,2.121
			c-0.943-0.061-1.941-0.335-1.803-1.68c2.735,0.53,1.176-2.713,2.462-2.925C84.456,64.293,85.46,65.32,85.396,66.956z"/>
	</g>
	<g>
		<g>
			<path d="M46.531,20.827C45.979,12.3,34.806,7.488,27.266,8.812c-4.061,0.713-7.686,3.488-8.099,7.896
				c-0.273,2.912,0.44,5.085,2.229,7.397c2.477,3.203,2.619,7.806,1.382,11.603c-0.71,2.178,2.711,3.104,3.416,0.941
				c1.149-3.525,1.089-7.584,0.19-11.169c-0.291-1.159-1.129-2.13-1.84-3.049c-2.359-3.05-2.726-7.18,0.903-9.396
				c5.241-3.201,17.12,1.283,17.542,7.791C43.135,23.095,46.679,23.109,46.531,20.827L46.531,20.827z"/>
		</g>
	</g>
	<g>
		<g>
			<path d="M49.286,22.402c-0.241-2.03-0.807-3.509-2.97-3.995c-0.605-0.136-2.778,0.24-2.662-0.216
				c0.292-1.155,0.85-2.226,0.957-3.429c0.132-1.491-0.427-3.418-2.153-3.772c-1.064-0.218-2.298-0.475-3.317,0.041
				c-0.895,0.453-1.708,1.827-1.788,1.204c-0.325-2.553-1.672-4.187-3.934-5.121c-2.017-0.833-3.998,1.147-4.185,2.962
				c-0.165,1.59-4.76,0.402-6.299,0.295c-1.863-0.13-4.101-0.09-5.445,1.391c-1.199,1.32-0.551,3.079,0.15,4.448
				c0.39,0.761,1.393,1.534,2.237,1.692c0.757,0.141,4.393,0.036,1.935,1.034c-4.875,1.981-1.923,5.486,2.012,6.132
				c3.733,0.612-1.477,0.756-2.818,1.38c-1.558,0.724-1.594,3.097-0.508,4.183c0.565,0.565,1.5,0.737,2.259,0.81
				c0.747,0.072,4.449-0.2,2.325-0.443c-2.686-0.307-2.792,3.541-2.958,5.182c-0.23,2.272,3.315,2.25,3.543,0
				c0.245-2.413,1.908-0.999,3.104-3.042c0.794-1.356,0.29-2.85-0.616-3.94c-0.997-1.202-3.321-1.137-4.705-1.234
				c0.211,1.109,0.772,1.474,1.684,1.093c0.436-0.052,0.869-0.122,1.3-0.208c0.761-0.132,1.311-0.567,1.862-1.062
				c3.725-3.337-1.956-5.879-4.371-6.275c-1.356-0.222-1.645,1.269,0.003,0.355c0.658-0.365,1.594-0.851,1.935-1.575
				c0.795-1.688,1.04-3.571-0.511-4.896c-0.796-0.68-6.062-1.36-4.012-1.509c2.176-0.158,4.426,0.304,6.59,0.489
				c1.201,0.103,2.781,0.17,3.713-0.761c1.688-1.688,0.86-4.87,2.353,0.055c0.58,1.912,1.586,2.802,3.588,2.847
				c1.417,0.031,4.029-3.353,2.888,0.006c-0.434,1.277-0.953,3.039,0.082,4.178c0.829,0.913,5.152,1.387,5.189,1.7
				C46.009,24.642,49.556,24.668,49.286,22.402L49.286,22.402z"/>
		</g>
	</g>
	<g>
		<g>
			<path d="M36.822,26.808c4.021-10.789,16.603-11.273,26.424-11.743c5.297-0.253,11.276,0.665,14.678,5.093
				c2.904,3.782,4.139,9.602,1.916,13.947c-1.039,2.029,2.018,3.823,3.059,1.788c2.584-5.049,1.697-10.503-0.665-15.464
				c-2.668-5.604-8.317-8.235-14.291-8.744c-12.571-1.071-29.509,0.689-34.537,14.182C32.606,28.012,36.032,28.929,36.822,26.808
				L36.822,26.808z"/>
		</g>
	</g>
	<g>
		<g>
			<path d="M76.055,27.717c0.664-7.862-3.238-17.447-10.516-21.17c-7.642-3.91-18.816-0.552-25.868,3.025
				c-9.164,4.648-17.842,10.5-22.098,20.126c-3.748,8.477-2.439,16.461,3.889,23.088c1.58,1.655,4.082-0.854,2.505-2.505
				c-6.243-6.539-5.938-13.813-2-21.614c3.471-6.878,10.378-10.621,16.714-14.471c6.407-3.895,13.219-5.729,20.708-5.5
				c9.119,0.279,13.797,11.053,13.124,19.022C72.319,29.995,75.864,29.976,76.055,27.717L76.055,27.717z"/>
		</g>
	</g>
	<g>
		<g>
			<path d="M77.388,29.381c-0.56-0.789-0.991-1.189-1.772-1.77c-2.121-1.576,1.21-1.634,2.485-2.124
				c1.024-0.393,1.717-1.558,1.059-2.602c-1.163-1.848-2.492-2.346-4.641-2.5c-3.014-0.217-0.965-0.322,0.024-1.319
				c0.66-0.665,1.249-1.396,1.314-2.373c0.101-1.486-0.596-2.663-1.982-3.239c-2.042-0.848-5.032,0.118-3.18-2.953
				c0.618-1.023,0.006-2.246-1.059-2.602c-0.77-0.258-4.846-0.586-4.703-1.688c0.179-1.384-0.337-2.008-1.209-2.974
				c-1.776-1.966-4.41-0.027-5.647,1.365c-3.021,3.4-5.888-1.153-9.36-0.198c-2.436,0.67-2.031,3.447-1.533,5.279
				c0.412-0.726,0.825-1.453,1.237-2.179c-1.464,0.467-2.489-0.968-3.755-1.317c-1.345-0.37-2.229,0.048-3.407,0.604
				c-2.796,1.318,0.608,6.246-4.32,4.062c-6.028-2.672-7.225,4.034-6.289,8.475c0.412-0.726,0.825-1.453,1.237-2.179
				c-2.966,0.644-6.952-2.184-8.6,1.767c-1.184,2.837-0.378,4.861-4.036,5.519c-2.056,0.369-3.135,1.485-3.757,3.4
				c-0.269,0.828,0.308,2.052,1.237,2.179c4.1,0.56-1.427,3.788-2.342,4.866c-0.852,1.003-0.984,2.467-0.008,3.443
				c1.109,1.109,2.929,1.012,4.259,1.695c-0.193-0.099-2.572,0.911-2.904,1.105c-0.996,0.584-1.312,1.419-1.622,2.458
				c-0.518,1.737,0.728,3.28,2.31,3.66c0.802,0.192,1.727-0.092,2.499-0.29c0.729,0.086,0.978-0.108,0.748-0.583
				c-0.348,0.797-1.089,1.549-1.557,2.287c-0.919,1.445-0.71,4.094,0.903,5.026c2.492,1.439,4.448-0.043,6.922-0.834
				c2.168-0.692,1.241-4.113-0.941-3.416c-0.158,0.05-4.027,1.331-3.333,0.239c0.562-0.884,1.284-1.641,1.57-2.682
				c0.435-1.58-0.453-3.447-2.073-3.893c-0.762-0.209-1.613,0.026-2.353,0.198c-2.184,0.506-0.029,0.779,1.071,0.177
				c1.421-0.777,2.767-2.537,2.202-4.292c-0.419-1.304-1.264-2.162-2.558-2.645c-0.727-0.271-1.466-0.461-2.216-0.655
				c-0.798-0.378-0.803-0.033-0.014,1.038c0.729-0.859,1.824-1.369,2.829-1.809c4.555-1.996,1.431-7.979-2.449-8.509
				c0.413,0.726,0.825,1.453,1.237,2.179c0.353-1.085,3.485-1.45,4.5-1.893c1.204-0.526,2.192-1.751,2.473-3
				c0.374-1.662-0.268-4.011,2.249-3.346c1.602,0.423,3.092,0.377,4.696,0.028c0.985-0.214,1.428-1.276,1.237-2.179
				c-0.765-3.627,1.311-4.2,4.161-3.195c1.399,0.494,3.113,0.039,4.144-0.992c0.625-0.625,2.003-4.269,1.836-4.347
				c2.025,0.955,2.874,1.797,5.156,1.068c0.921-0.294,1.499-1.219,1.237-2.179c-0.522-1.921,1.013-0.327,2.188,0.237
				c0.754,0.361,1.734,0.895,2.601,0.893c1.766-0.004,3.353-0.911,4.597-2.163c2.388-2.403,0.601-0.543,1.747,1.414
				c1.573,2.686,4.541,1.382,6.963,2.192c-0.354-0.867-0.706-1.735-1.059-2.602c-3.064,5.077-0.608,6.936,4.332,7.835
				c0.901,0.164-1.225,0.642-1.823,1.356c-0.644,0.769-1.271,1.681-0.975,2.755c1.109,4.035,5.409,1.6,6.93,4.014
				c0.353-0.867,0.705-1.735,1.059-2.602c-2.072,0.794-5.997,0.672-6.748,3.402c-0.952,3.46,2.429,3.597,3.918,5.695
				C75.639,33.016,78.714,31.249,77.388,29.381L77.388,29.381z"/>
		</g>
	</g>
	<g>
		<g>
			<path d="M83.802,38.274c-0.91-0.734-2.228-2.548-3.393-2.741c0.943,0.156,2.154,0.331,3.034-0.185
				c1.896-1.111,3.218-3.859,4.034-5.765c2.534-5.916-3.978-5.828-7.881-5.608c0.591,0.59,1.181,1.181,1.771,1.771
				c-0.081-2.616,3.801-6.558,0.116-8.805c-2.818-1.718-4.835,0.853-6.879,2.632c0.928,0.119,1.855,0.239,2.782,0.358
				c-1.829-2.553,0.083-5.021-2.639-7.247c-2.105-1.721-4.667-1.281-6.865-0.125c-0.679,0.356-4.06,3.208-4.2,3.017
				c-0.731-0.984-1.101-2.265-1.814-3.292c-1.016-1.458-3.474-3.297-5.336-2.327c-2.689,1.401-3.146,6.562-7.038,3.203
				c-1.411-1.219-2.887-2.021-4.615-0.977c-3.344,2.021-2.146,6.709-7.38,6.378c-2.292-0.146-3.509,1.553-3.897,3.564
				c-0.227,1.171,0.499,2.17,1.708,2.242c1.025,0.061,0.088,0.729-0.421,1.577c-0.465,0.774-1.035,1.48-1.502,2.253
				c-1.185,1.96,1.879,3.74,3.06,1.788c2.051-3.394,5.35-8.777-1.136-9.162c0.569,0.748,1.139,1.495,1.708,2.242
				c0.355-1.834,3.455-0.358,4.894-1.106c2.434-1.266,3.065-3.387,4.31-5.734c0.577-1.089,4.167,2.234,5.522,2.649
				c1.526,0.468,2.894-0.754,3.783-1.793c0.668-0.78,1.133-1.716,1.618-2.611c1.225-2.255,3.277,2.493,3.479,2.892
				c0.632,1.25,1.797,1.705,3.104,1.75c2.132,0.074,4.366-2.366,5.943-3.497c4.104-2.94,3.505,2.101,3.516,3.256
				c0.011,1.158,0.499,1.949,1.142,2.845c0.692,0.967,1.866,1.156,2.782,0.358c1.452-1.264,2.527-1.573,1.277,0.711
				c-0.545,0.997-0.598,1.861-0.563,2.958c0.028,0.923,0.785,1.827,1.771,1.771c1.021-0.058,2.034-0.163,3.053-0.248
				c2.521-0.21,1.034,2.129,0.327,3.288c-1.598,2.615-2.384,0.45-4.442,1.656c-4.055,2.375,0.746,6.937,2.762,8.564
				C83.057,42.2,85.58,39.709,83.802,38.274L83.802,38.274z"/>
		</g>
	</g>
	<g>
		<g>
			<path d="M41.287,26.267c-1.163-1.127-6.777-9.747-9.355-5.004c-0.622,1.145-1.192,5.536-1.886,3.335
				c-0.462-1.467-1.714-2.976-3.397-2.985c-1.803-0.01-2.894,0.553-3.955,1.985c-0.99,1.336-0.657,6.424-2.861,6.505
				c-4.178,0.155-9.739-3.343-12.429,1.639c-0.448,0.831-0.231,1.949,0.636,2.424c0.624,0.341,2.325,1.912,2.751,1.99
				c-1.162-0.212-2.238-0.809-3.45-0.613c-1.964,0.316-2.951,1.905-2.926,3.843c0.008,0.607,0.382,1.397,0.835,1.798
				c0.72,0.636,2.932,1.455,1.497,1.426c-1.974-0.04-3.904,0.533-4.17,2.816c-0.205,1.751,0.148,4.486,2.394,4.839
				c0.391,0.067,0.784,0.125,1.178,0.174c1.803,0.01,1.188-1.219,0.764-1.114c-1.38,0.343-2.9,0.236-4.31,0.501
				c-5.37,1.008-1.51,9.139,3.105,8.065c-2.225,0.517-1.281,3.933,0.941,3.416c1.91-0.444,3.939-2.373,2.634-4.569
				c-0.703-1.183-1.14-1.833-2.535-2.217c-3.954-1.088-2.44-1.28,0.196-1.652c1.952-0.276,4.593-1.238,3.894-3.777
				c-0.249-0.906-0.855-1.465-1.65-1.874c-0.409-0.21-4.741-1.169-2.441-1.067c2.135,0.095,4.674-1.111,4.674-3.585
				c0-0.891-0.582-1.614-1.183-2.191c-1.156-1.109-3.2-1.628-0.389-0.805c1.985,0.582,4.838-0.358,4.926-2.815
				c0.106-2.981-2.637-4.384-4.948-5.65c0.212,0.808,0.424,1.616,0.636,2.424c1.766-3.271,8.878,1.601,11.751-0.404
				c1.022-0.713,1.816-1.51,2.235-2.722c0.245-0.71,1.445-7.198,2.438-4.045c0.817,2.594,3.117,4.002,5.672,2.683
				c1.106-0.571,1.305-2.248,1.486-3.306c0.621-3.618,3.453,1.792,4.736,3.036C40.423,30.362,42.931,27.859,41.287,26.267
				L41.287,26.267z"/>
		</g>
	</g>
	<g>
		<g>
			<path d="M52.149,24.128c2.177-1.416,4.044-4.355,7.138-3.618c1.634,0.389,3.494,0.781,5.065-0.122
				c1.343-0.772,2.447-1.624,3.382-2.889c2.823-3.825,5.469-5.81,10.332-3.553c2.397,1.112,4.418,3.52,6.188,5.414
				c3.052,3.266,3.517,6.459,3.434,10.752c-0.125,6.418-3.338,11.705-4.88,17.799c-0.561,2.216,2.856,3.155,3.416,0.941
				c0.928-3.667,2.474-7.104,3.742-10.658c1.293-3.622,1.305-7.292,1.286-11.088c-0.031-6.195-4.987-12.391-10.169-15.486
				c-4.69-2.801-10.321-3.607-14.13,0.926c-0.992,1.182-1.741,2.513-2.771,3.675c-1.537,1.736-4.828,0.568-6.826,0.471
				c-2.939-0.143-4.848,2.979-6.995,4.375C48.454,22.31,50.228,25.378,52.149,24.128L52.149,24.128z"/>
		</g>
	</g>
	<g>
		<g>
			<path d="M87.622,50.047c-0.732-1.066-1.5-2.095-2.188-3.192c-0.328-0.523,3.272-0.089,3.611-0.046
				c0.54,0.069,1.317-0.375,1.529-0.877c0.583-1.377,0.847-2.322,0.173-3.713c-0.204-0.422-2.937-2.238-3.012-2.211
				c2.026-0.724,6.977-0.814,5.298-4.475c-0.729-1.589-1.979-2.037-3.63-2.186c1.027,0.092,3.052-1.54,4.019-3.347
				c2.394-4.469-4.579-4.468-6.814-3.599c0.727,0.412,1.452,0.825,2.179,1.237c-0.767-2.413,3.344-4.241,3.738-6.734
				c0.136-0.854-0.208-2.03-1.237-2.179c-2.411-0.348-4.631-0.375-7.04,0c0.727,0.412,1.452,0.825,2.179,1.237
				c-0.652-3.209,1.86-7.608-1.737-9.716c-2.354-1.378-4.032,0.342-5.438,2.071c2.246-2.763-3.375-4.525-4.914-4.636
				c-3.116-0.224-5.632,1.195-5.845,4.396c-0.039,0.574,0.242,1.233,0.417,1.766c-0.113-0.345-2.726-0.101-3.169-0.082
				c-0.911,0.039-2.16,0.535-2.581,1.423c-0.628,1.325-1.115,2.702-0.71,4.176c0.348,1.263,0.277-0.737-0.148-1.108
				c-0.713-0.622-1.107-0.927-1.945-1.362c-2.079-1.08-6.18-1.871-7.847,0.362c-0.879,1.178-0.776,2.278-0.405,3.652
				c0.465,1.72,3.244,1.779,2.255,0.21c-1.215-1.927-4.281-0.151-3.059,1.788c3.343,5.303,8.945-0.662,4.613-3.31
				c-0.902-0.326-0.537-0.354,1.095-0.086c1.414,0.198,2.4,1.139,3.399,2.082c0.897,0.847,2.167,1.8,3.521,1.341
				c1.164-0.394,1.818-0.545,2.315-1.696c0.259-0.6-0.483-3.929,0.246-3.96c2.42-0.104,4.907-0.459,5.914-2.887
				c0.331-0.798-0.923-2.606,0.274-3.015c3.064-1.045,2.912,1.769,4.29,3.228c1.496,1.584,3.186,1.785,4.787,0.225
				c0.913-0.89,1.463-2.305,1.364,0.042c-0.088,2.09-0.534,3.955-0.11,6.039c0.208,1.023,1.279,1.377,2.179,1.237
				c1.719-0.309,3.438-0.309,5.157,0c-0.413-0.726-0.825-1.453-1.237-2.179c-0.304,1.916-2.346,2.326-3.307,3.791
				c-1.056,1.607-1.001,3.035-0.432,4.826c0.27,0.847,1.253,1.598,2.179,1.237c3.138-1.219-0.006,0.408-0.628,0.798
				c-0.85,0.533-1.193,0.841-1.678,1.718c-0.75,1.357,0.114,3.432,1.384,4.176c0.815,0.478,1.88,0.42,2.776,0.38
				c0.646-0.868,0.534-1.113-0.332-0.734c-0.512,0.083-1.023,0.17-1.533,0.262c-1.345,0.236-3.166,0.959-3.578,2.433
				c-0.45,1.61-0.088,3.02,1.17,4.129c0.573,0.505,1.317,0.747,2.017,1.019c0.826-0.963,0.591-1.375-0.704-1.235
				c-0.523-0.081-1.051-0.127-1.581-0.139c-6.337-0.433-1.636,7.265-0.298,9.211C85.848,53.705,88.92,51.936,87.622,50.047
				L87.622,50.047z"/>
		</g>
	</g>
	<g>
		<g>
			<path d="M28.467,30.167c-1.84,3.282-4.833,5.677-6.912,8.792c-1.761,2.639-1.126,6.068-1.203,9.03
				c-0.06,2.286,3.483,2.28,3.543,0c0.096-3.682-0.329-6.236,2.258-9.262c1.889-2.21,3.94-4.216,5.374-6.772
				C32.645,29.96,29.584,28.175,28.467,30.167L28.467,30.167z"/>
		</g>
	</g>
	<g>
		<g>
			<path d="M31.647,30.211c2.427-0.57,5.873-1.04,7.671-3.013c2.305-2.528,3.061-5.885,7.353-5.387
				c3.21,0.373,4.664-2.417,8.017-0.438c1.121,0.661,2.956,0.511,4.191,0.489c1.969-0.034,2.638,1.396,4.306,1.854
				c1.632,0.449,1.668,2.102,3.148,2.559c4.669,1.44,7.426,2.328,10.222,6.646c2.129,3.286,4.945,6.575,4.828,10.688
				c-0.085,2.979,2.72,4.647,2.938,7.332c0.184,2.261,3.729,2.279,3.543,0c-0.263-3.232-2.998-5.227-2.901-8.608
				c0.109-3.847-2.717-6.93-4.625-10c-1.789-2.878-3.553-5.263-6.347-7.233c-1.252-0.883-2.609-1.344-4.084-1.626
				c-2.111-0.404-1.902-1.195-3.229-2.522c-0.907-0.907-4.951-2.377-6.173-2.487c-2.469-0.221-4.545-1.178-6.769-1.774
				c-1.272-0.341-2.316-0.61-3.541,0.13c-2.101,1.271-3.679,1.368-5.998,1.225c-1.012-0.062-2.516,0.559-3.253,1.222
				c-0.987,0.888-1.67,1.829-2.374,2.962c-1.977,3.182-4.463,3.764-7.865,4.564C28.482,27.318,29.425,30.734,31.647,30.211
				L31.647,30.211z"/>
		</g>
	</g>
	<g>
		<g>
			<path d="M41.61,21.221c-9.697-0.103-21.275-2.983-30.109,2.352c-3.603,2.176-5.547,6.788-4.864,10.912
				c0.59,3.565,2.528,6.346,4.429,9.352c3.158,4.996,3.118,11.072,3.774,16.75c0.259,2.242,3.805,2.267,3.543,0
				c-0.817-7.075-1.138-13.603-5.036-19.771c-3.322-5.255-5.204-11.602,1.378-14.985c7.766-3.991,18.567-1.156,26.886-1.068
				C43.896,24.788,43.893,21.245,41.61,21.221L41.61,21.221z"/>
		</g>
	</g>
	<g>
		<g>
			<path d="M39.051,26.732c0.123-2.573,0.829-6.251-1.863-7.828c-1.975-1.157-4.235,0.014-4.956,2.003
				c-0.175,0.457-0.333,0.92-0.474,1.389c0.25,0.009,0.501,0.019,0.752,0.029c-0.544-0.651-1.067-1.319-1.57-2.001
				c-0.873-1.154-1.709-1.869-3.031-2.385c-3.081-1.205-5.973,3.848-6.706,5.962c0.867-0.353,1.735-0.706,2.602-1.059
				c-1.985-1.423-3.228-6.773-6.814-4.971c-1.177,0.591-2.557,1.948-2.502,3.412c0.033,0.893,0.108,1.674,0.543,2.48
				c0.349,1.158,0.845,0.949,1.488-0.626c-0.749-0.054-1.464-0.229-2.146-0.524c-2.333-0.85-6.718-1.606-6.793,2.238
				c-0.026,1.311,0.064,2.76,1.503,3.276c0.919,0.331,0.51-0.565-0.451-0.131c-1.073,0.485-1.687,1.128-2.475,2.011
				c-1.641,1.839-1.3,6.392,1.788,6.269c0.777-0.031,1.517,0.467,2.297,0.483c-1.553-0.033-2.091,1.276-2.64,2.465
				c-0.585,1.27-0.541,3.697,0.621,4.707c1.123,0.976,2.217,1.245,3.673,1.414c1.67,0.193-1.149,3.179-1.514,4.628
				c-0.308,1.222,0.368,2.77,1.411,3.445c2.674,1.732,4.424,0.637,7.257-0.176c-0.726-0.412-1.453-0.825-2.179-1.237
				c0.788,2.98-0.23,3.521-2.549,4.605c-1.469,0.687-2.512,1.826-3.178,3.281c-0.313,0.685-0.367,1.603,0.277,2.146
				c0.514,0.435,0.912,0.676,1.568,0.848c2.212,0.58,3.15-2.837,0.941-3.416c-0.001,0.021-0.003,0.042-0.005,0.063
				c0.092,0.715,0.185,1.431,0.277,2.146c0.976-2.131,3.467-2.517,5.212-3.872c2.027-1.575,1.417-4.68,0.871-6.744
				c-0.245-0.926-1.258-1.501-2.179-1.237c-2.196,0.629-4.815,1.178-2.776-1.695c0.63-0.888,1.278-1.958,1.278-3.092
				c0-2.299-2.141-2.97-4.01-3.181c-2.795-0.315-0.013-3.293,0.62-4.389c0.583-1.008,0.355-2.347-0.253-3.263
				c-0.465-0.701-1.237-0.959-2.057-0.977c-0.831-0.018-1.541-0.533-2.351-0.513c-2.06,0.052,1.47-1.412,1.752-1.408
				c2.378,0.038,3.473-3.077,2.385-4.935c-0.493-0.842-1.268-1.203-2.148-1.476c1.56,0.483,3.027,1.453,4.684,1.637
				c2.016,0.224,4.541-0.237,3.725-2.882c-0.642-2.08-0.645-2.634,0.833-0.416c0.67,1.006,1.233,1.952,2.225,2.663
				c0.988,0.708,2.258-0.067,2.602-1.059c2.651-7.641,4.346,2.104,8.21,1.041c1.004-0.276,1.707-1.071,2.085-2.004
				c1.225-3.018,0.65,1.671,0.594,2.854C35.398,29.017,38.942,29.006,39.051,26.732L39.051,26.732z"/>
		</g>
	</g>
	<g>
		<g>
			<path d="M83.141,57.438c5.076,0.469,8.539-4.938,10.764-8.744c3.714-6.354,3.552-12.885,0.629-19.465
				c-4.615-10.39-20.471-17.288-28.982-7.292c-1.472,1.729,1.022,4.247,2.506,2.505c5.952-6.99,17.317-3.295,21.822,3.579
				c3.443,5.254,4.527,11.408,1.846,17.208c-1.452,3.141-4.564,9.038-8.584,8.667C80.865,53.684,80.886,57.229,83.141,57.438
				L83.141,57.438z"/>
		</g>
	</g>
	<g>
		<g>
			<path d="M84.849,56.531c0.009-0.993,0.327-1.887,0.957-2.681c-0.868-0.353-1.735-0.706-2.603-1.059
				c0.699,2.016,1.469,5.694,4.576,4.738c2.479-0.763,5.193-2.351,3.437-5.193c-0.341-0.55-0.537-0.789-1.079-0.72
				c0.885-0.112,1.962,0.186,2.854,0.243c1.032,0.066,2.36-0.478,2.899-1.399c1.616-2.759-1.272-3.971-3.288-4.832
				c5.725,2.446,9.527-7.141,2.707-7.756c-2.24-0.202-0.097-0.04-0.507,0.848c0.465-1.006,1.509-1.558,2.336-2.197
				c0.911-0.705,2.143-1.594,2.143-2.9c0-0.937-0.749-2.234-1.706-2.474c-0.841-0.21-1.715-0.208-2.548-0.416
				c-2.048-0.512-0.486-0.992,0.468-2.318c0.44-0.611,0.274-1.659-0.276-2.146c-1.699-1.504-3.303-2.119-5.581-1.896
				c-2.252,0.221-2.273,3.766,0,3.543c1.025,0.286,2.051,0.572,3.075,0.858c-0.092-0.715-0.185-1.431-0.276-2.146
				c-1.289,1.79-2.624,4.821-0.689,6.755c0.617,0.617,1.563,0.508,2.339,0.767c0.431,0.142,0.871,0.233,1.32,0.276
				c0.007-0.34,0.014-0.68,0.02-1.02c-0.653,0.481-1.306,0.965-1.954,1.453c-1.175,0.88-3.219,3.511-2.116,5.093
				c1.074,1.542,5.468,1.611,1.577,2.293c-5.113,0.896-4.858,5.483-0.413,7.132c-0.026-1.002-0.503-1.415-1.432-1.238
				c-0.729-0.089-1.547-0.091-2.264,0.106c-1.1,0.303-1.633,1.044-2.095,2.001c-0.308,0.637-0.372,1.689,0.057,2.305
				c1.483,2.131,0.452,1.081-0.166-0.7c-0.34-0.98-1.621-1.782-2.603-1.059c-1.771,1.306-2.272,2.603-2.584,4.799
				C81.115,57.823,84.529,58.786,84.849,56.531L84.849,56.531z"/>
		</g>
	</g>
	<g>
		<g>
			<path d="M23.795,56.749c0-1.575,0-3.149,0-4.724c0-2.285-3.543-2.285-3.543,0c0,1.575,0,3.149,0,4.724
				C20.252,59.034,23.795,59.034,23.795,56.749L23.795,56.749z"/>
		</g>
	</g>
	<g>
		<g>
			<path d="M26.095,46.683c-0.933-2.225-0.769-4.021-0.465-6.357c0.214-1.643-0.232-3.838,0.73-5.269
				c1.279-1.902-1.792-3.673-3.06-1.788c-1.131,1.683-1.046,3.973-1.135,5.918c-0.14,3.043-0.719,5.5,0.514,8.438
				C23.549,49.698,26.979,48.789,26.095,46.683L26.095,46.683z"/>
		</g>
	</g>
	<g>
		<g>
			<path d="M27.569,38.633c-0.941-2.198-1.407-4.806,0.285-6.761c1.488-1.718-1.007-4.235-2.505-2.505
				c-2.859,3.303-2.461,7.264-0.839,11.054C25.406,42.516,28.457,40.709,27.569,38.633L27.569,38.633z"/>
		</g>
	</g>
	<g>
		<g>
			<path d="M59.078,25.748c4.947,0.243,9.079-0.508,13.294-3.195c1.92-1.224,0.145-4.292-1.789-3.06
				c-3.722,2.373-7.145,2.925-11.505,2.711C56.793,22.093,56.805,25.636,59.078,25.748L59.078,25.748z"/>
		</g>
	</g>
	<g>
		<g>
			<path d="M81.812,31.653c-0.125-1.015-0.42-1.883-1.048-2.699c-0.288-0.375-0.591-0.734-0.895-1.097
				c0.18,0.214-0.175-0.256-0.166-0.242c-0.064-0.104-0.123-0.21-0.175-0.32c0.072,0.138,0.074,0.105,0.005-0.099
				c-0.544-2.218-3.96-1.277-3.416,0.941c0.213,0.869,0.694,1.542,1.247,2.225c0.232,0.286,0.45,0.521,0.572,0.692
				c0.115,0.159,0.208,0.331,0.299,0.504c-0.108-0.206,0.058,0.293,0.033,0.095c0.118,0.958,0.717,1.771,1.771,1.771
				C80.916,33.425,81.93,32.614,81.812,31.653L81.812,31.653z"/>
		</g>
	</g>
	<path fill-rule="evenodd" clip-rule="evenodd" fill="#C1272D" d="M27.528,20.362c0,0,2.391-4.763,7.955-2.965l-0.068,3.344
		l-2.311-1.494l-0.342,2.023l-2.278-1.212l-0.543,2.265L27.528,20.362z"/>
	<path fill-rule="evenodd" clip-rule="evenodd" fill="#C1272D" d="M62.941,16.561c0,0,5.268-0.781,6.997,4.807l-2.774,1.865
		l-0.107-2.748l-1.854,0.881l-0.316-2.56l-2.165,0.855L62.941,16.561z"/>
	<path fill-rule="evenodd" clip-rule="evenodd" fill="#C1272D" d="M80.881,30.959c0,0,5.162,1.318,4.595,7.14l-3.281,0.647
		l0.966-2.577l-2.048,0.098l0.696-2.484l-2.327-0.048L80.881,30.959z"/>
	<path fill-rule="evenodd" clip-rule="evenodd" fill="#C1272D" d="M17.158,50.742c0,0-2.735-4.574,1.771-8.304l2.784,1.854
		l-2.501,1.147l1.523,1.374l-2.245,1.272l1.617,1.675L17.158,50.742z"/>
	<path fill-rule="evenodd" clip-rule="evenodd" fill="#C1272D" d="M11.277,30.743c0,0,1.26-5.179,7.088-4.674l0.683,3.274
		l-2.587-0.937l0.121,2.047l-2.492-0.669l-0.021,2.329L11.277,30.743z"/>
</g>
</svg>
